<svg width="26" height="35" viewBox="0 0 26 35" fill="none" xmlns="http://www.w3.org/2000/svg">
<g id="Logo" clip-path="url(#clip0_201_11549)">
<g id="Group">
<path id="Vector" d="M11.684 14.4336C11.8904 14.5286 12.0432 14.6777 12.1372 14.8843C12.1337 14.9567 12.1284 15.029 12.1284 15.1014C12.1284 20.7672 12.1275 26.4338 12.1284 32.0996C12.1284 32.2008 12.1363 32.3028 12.1407 32.4039C12.1038 32.6402 11.9071 32.7535 11.7235 32.927C11.0586 32.927 10.3611 32.927 9.66369 32.927C9.53281 32.9226 9.40106 32.9148 9.27018 32.9148C7.00484 32.9139 4.74038 32.9148 2.47504 32.9139C2.34417 32.9139 2.20977 32.9217 2.08241 32.8982C1.77322 32.8415 1.60457 32.641 1.58612 32.3272C1.5791 32.2112 1.58437 32.0953 1.58437 31.9793C1.58437 27.0624 1.58437 22.1455 1.58349 17.2294C1.58349 17.056 1.5747 16.8816 1.57031 16.7081C1.57031 16.1301 1.57031 15.5521 1.57031 14.9732C1.58612 14.8625 1.60193 14.7509 1.61862 14.6367C1.74687 14.5495 1.86633 14.4536 2.02531 14.4345C3.76714 14.438 5.50808 14.4441 7.24991 14.4441C8.72734 14.4432 10.2057 14.4371 11.684 14.4336ZM9.66193 31.798C10.1064 31.8276 10.55 31.8294 10.9936 31.7971C11.1402 31.7065 11.07 31.5617 11.07 31.4449C11.0744 26.2595 11.0735 21.0732 11.0717 15.8877C11.0717 15.7631 11.1165 15.6253 11.0076 15.5137C8.23281 15.5137 5.45802 15.5137 2.66565 15.5137C2.66565 20.9468 2.66565 26.3563 2.66565 31.8128C3.02579 31.8128 3.35869 31.8137 3.6916 31.8128C5.682 31.8067 7.67153 31.8024 9.66193 31.798Z" fill="#001845"/>
<path id="Vector_2" d="M12.1351 11.3071C12.0393 11.5599 11.8865 11.7439 11.5896 11.7561C10.9914 11.7517 10.3932 11.7421 9.79418 11.7421C7.26796 11.7447 4.74086 11.7526 2.21465 11.7535C1.76843 11.7535 1.58485 11.5643 1.58222 11.1118C1.57607 10.0683 1.58134 9.02475 1.57958 7.98034C1.57695 6.50177 1.57255 5.02408 1.56816 3.54552C1.56728 2.96577 1.56728 2.3869 1.56641 1.80716C1.67005 1.44711 1.81762 1.31721 2.16107 1.29018C2.23397 1.28408 2.30688 1.28844 2.37978 1.28844C5.35924 1.28844 8.3387 1.29193 11.3173 1.28321C11.6853 1.28234 11.9734 1.36342 12.1307 1.71824C12.128 3.24388 12.1236 4.76865 12.1236 6.29429C12.1263 7.96639 12.1315 9.63675 12.1351 11.3071ZM9.75641 10.6794C10.164 10.6794 10.5715 10.6794 10.9791 10.6785C11.1662 10.5887 11.0661 10.4231 11.0661 10.2984C11.0722 7.78593 11.0713 5.27254 11.0696 2.76003C11.0696 2.63362 11.1065 2.49936 11.016 2.36772C8.23681 2.36772 5.45147 2.36772 2.66701 2.36772C2.66701 5.15136 2.66701 7.90362 2.66701 10.6925C3.1633 10.6925 3.62884 10.6934 4.09438 10.6925C5.98114 10.6881 7.86877 10.6838 9.75641 10.6794Z" fill="#001845"/>
<path id="Vector_3" d="M25.0352 14.4343C25.391 14.5894 25.4937 14.8675 25.47 15.2372C25.3857 16.5335 25.1345 17.7846 24.6013 18.9815C24.0971 20.1131 23.4006 21.1122 22.5318 21.984C21.6385 22.8802 20.5933 23.5811 19.4268 24.0876C19.2915 24.1469 19.1914 24.2419 19.0631 24.3004C18.876 24.2515 18.7241 24.3649 18.5633 24.4163C17.6147 24.7232 16.6432 24.8845 15.648 24.9028C15.106 24.9124 14.9348 24.7415 14.9277 24.2193C14.9268 24.1321 14.9277 24.0458 14.9277 23.9586C14.9277 21.7565 14.9286 19.5552 14.9268 17.353C14.9268 17.1359 14.9154 16.9197 14.9102 16.7027C14.9163 16.0671 14.9225 15.4316 14.9286 14.7961C14.9831 14.5607 15.1412 14.4499 15.3757 14.4316C18.5958 14.4334 21.8151 14.4343 25.0352 14.4343ZM16.0125 16.7035C16.0073 16.7759 15.9967 16.8483 15.9967 16.9197C15.9958 19.0975 15.9958 21.2761 15.9976 23.4538C15.9976 23.5524 15.9704 23.657 16.031 23.7415C16.0845 23.7938 16.1434 23.7869 16.2005 23.7843C16.3463 23.7782 16.4948 23.7808 16.6388 23.759C18.6055 23.4695 20.3096 22.6518 21.7334 21.2665C21.8704 21.1331 21.9873 20.9945 22.054 20.8158C22.1937 20.8202 22.2508 20.7103 22.3245 20.6223C23.2091 19.5691 23.8116 18.373 24.1349 17.0435C24.2535 16.5562 24.3747 16.061 24.3316 15.551C23.7958 15.4691 16.3156 15.4909 16.0134 15.5719C16.0125 15.9503 16.0125 16.3269 16.0125 16.7035Z" fill="#001845"/>
<path id="Vector_4" d="M14.9185 1.72166C14.9123 1.44617 15.095 1.34504 15.3251 1.30843C15.4683 1.28576 15.6168 1.29099 15.7626 1.29797C17.2216 1.37294 18.6243 1.68243 19.9305 2.34412C21.732 3.25689 23.1357 4.59161 24.1546 6.32909C24.7949 7.42058 25.177 8.59925 25.3615 9.8372C25.4247 10.2609 25.4915 10.695 25.4695 11.1309C25.4502 11.5128 25.3439 11.6436 24.9434 11.7551C24.8266 11.7499 24.7106 11.7403 24.5938 11.7403C21.6266 11.7447 18.6586 11.7421 15.6914 11.763C15.1477 11.7665 14.9062 11.5633 14.9193 10.9853C14.9466 9.79622 14.929 8.60622 14.9272 7.41622C14.9246 6.15473 14.9185 4.89238 14.9141 3.63089C14.9149 2.99448 14.9167 2.35807 14.9185 1.72166ZM22.7518 10.6828C23.2736 10.6828 23.7962 10.6828 24.318 10.6828C24.2231 6.01002 19.8558 2.37202 16.0112 2.46094C16.0112 2.93694 16.0112 3.41294 16.0112 3.88981C16.0059 3.93253 15.9971 3.97612 15.9971 4.01884C15.9962 6.16694 15.9953 8.31417 15.9962 10.4623C15.9962 10.532 15.9839 10.6087 16.0577 10.6706C16.0893 10.6767 16.1315 10.6907 16.1728 10.6907C18.3661 10.6889 20.5594 10.6855 22.7518 10.6828Z" fill="#001845"/>
<path id="Vector_5" d="M1.56862 16.7073C1.57301 16.8808 1.5818 17.0551 1.5818 17.2286C1.58268 22.1455 1.58268 27.0625 1.58268 31.9785C1.58268 32.0945 1.5774 32.2113 1.58443 32.3264C1.602 32.6393 1.77065 32.8398 2.08072 32.8974C2.20808 32.9209 2.34247 32.9131 2.47335 32.9131C4.73869 32.9139 7.00315 32.9131 9.26848 32.9139C9.39936 32.9139 9.53112 32.9218 9.662 32.9261C9.662 33.0133 9.65322 33.1005 9.662 33.1868C9.70153 33.5713 9.55484 33.8616 9.22457 34.0638C6.35578 34.0638 3.487 34.0647 0.618216 34.0647C0.31254 34.0211 0.236122 33.784 0.189568 33.539C0.164973 33.4126 0.180784 33.2784 0.180784 33.1476C0.180784 27.9787 0.180784 22.8098 0.180784 17.641C0.180784 17.5686 0.179906 17.4954 0.181663 17.423C0.192203 16.9226 0.294973 16.8032 0.797406 16.7012C1.05389 16.7038 1.31126 16.7055 1.56862 16.7073Z" fill="#7CABE3"/>
<path id="Vector_6" d="M14.9144 3.63057C14.9188 4.89206 14.9258 6.15442 14.9276 7.41591C14.9302 8.60591 14.9469 9.79591 14.9197 10.985C14.9065 11.563 15.148 11.767 15.6918 11.7627C18.6589 11.7418 21.6261 11.7444 24.5941 11.74C24.711 11.74 24.8269 11.7496 24.9437 11.7548C24.8383 11.876 24.6969 11.8167 24.573 11.8185C24.0469 11.8254 23.5207 11.8211 23.0078 11.8211C22.8813 11.9641 22.9357 12.1158 22.9314 12.2552C22.9173 12.7068 22.6837 12.9605 22.2392 12.9605C19.576 12.964 16.9127 12.964 14.2486 12.9605C13.7356 12.9596 13.6364 12.8672 13.5195 12.3503C13.5204 9.62067 13.5204 6.89108 13.5213 4.1615C13.6311 3.71862 13.8524 3.5617 14.2811 3.62011C14.4699 3.64539 14.6588 3.64975 14.8476 3.61575C14.8696 3.6236 14.8916 3.62796 14.9144 3.63057Z" fill="#7BABE3"/>
<path id="Vector_7" d="M1.57326 3.54648C1.57678 5.02505 1.58205 6.50274 1.58468 7.9813C1.58644 9.02484 1.58117 10.0684 1.58732 11.1128C1.58995 11.5644 1.77353 11.7544 2.21975 11.7544C4.74597 11.7544 7.27306 11.7457 9.79928 11.7431C10.3975 11.7422 10.9956 11.7518 11.5947 11.757C11.5042 11.8713 11.3777 11.8189 11.2679 11.8207C10.7857 11.8259 10.3035 11.8233 9.84144 11.8233C9.71319 11.9323 9.75799 12.0561 9.75097 12.1668C9.71934 12.6812 9.43563 12.9636 8.92968 12.9636C6.30948 12.9654 3.68928 12.9654 1.06907 12.9636C0.426102 12.9627 0.271507 12.8076 0.270629 12.1659C0.268872 9.56536 0.269751 6.96479 0.269751 4.36423C0.269751 4.32064 0.268872 4.27705 0.270629 4.23346C0.289953 3.65197 0.499008 3.63366 0.928535 3.56043C1.11387 3.52905 1.30799 3.54823 1.49772 3.54387L1.53549 3.55084C1.53462 3.54997 1.57326 3.54648 1.57326 3.54648Z" fill="#7CABE3"/>
<path id="Vector_8" d="M14.9079 16.7039C14.914 16.921 14.9245 17.1372 14.9245 17.3543C14.9254 19.5564 14.9254 21.7577 14.9254 23.9598C14.9254 24.047 14.9245 24.1333 14.9254 24.2205C14.9324 24.7427 15.1046 24.9145 15.6457 24.904C16.6409 24.8857 17.6133 24.7244 18.561 24.4175C18.7218 24.3652 18.8746 24.2519 19.0608 24.3016C17.9506 25.1472 16.6954 25.6642 15.3312 25.9536C14.9641 26.0312 14.5908 26.0356 14.2236 26.1158C13.8573 26.196 13.5639 25.8726 13.5156 25.4279C13.5191 25.3408 13.5262 25.2545 13.5262 25.1673C13.5235 22.5545 13.52 19.9409 13.5165 17.3281C13.5666 16.8826 13.6509 16.7989 14.1472 16.7021C14.4001 16.7021 14.654 16.703 14.9079 16.7039Z" fill="#7BABE3"/>
<path id="Vector_9" d="M9.66035 31.7977C7.66994 31.8021 5.68041 31.8064 3.69001 31.8108C3.3571 31.8117 3.02508 31.8108 2.66406 31.8108C2.66406 26.3542 2.66406 20.9447 2.66406 15.5117C5.45643 15.5117 8.23122 15.5117 11.006 15.5117C11.1141 15.6233 11.0701 15.7611 11.0701 15.8857C11.0728 21.0712 11.0728 26.2575 11.0684 31.4429C11.0684 31.5597 11.1387 31.7044 10.992 31.7951C10.992 26.397 10.992 20.9979 10.992 15.6015C8.20048 15.6015 5.47224 15.6015 2.72906 15.6015C2.72818 15.9877 2.67285 16.3434 2.76683 16.7113C2.94866 16.7113 3.1094 16.7113 3.26927 16.7113C5.06994 16.7113 6.87062 16.7113 8.67129 16.7113C8.78812 16.7113 8.90582 16.7043 9.02264 16.7148C9.37048 16.7462 9.61818 16.9833 9.65508 17.3259C9.66913 17.4549 9.65947 17.5875 9.65947 17.7182C9.65947 22.412 9.66035 27.1048 9.66035 31.7977Z" fill="#7CABE3"/>
<path id="Vector_10" d="M9.6631 31.7979C9.6631 27.105 9.66223 22.4121 9.66223 17.7193C9.66223 17.5885 9.67189 17.4568 9.65783 17.3269C9.62094 16.9843 9.37324 16.7463 9.0254 16.7158C8.90946 16.7054 8.79175 16.7123 8.67405 16.7123C6.87338 16.7123 5.0727 16.7123 3.27202 16.7123C3.11216 16.7123 2.95142 16.7123 2.76959 16.7123C2.6756 16.3453 2.73094 15.9887 2.73182 15.6025C5.47499 15.6025 8.20324 15.6025 10.9947 15.6025C10.9947 20.9998 10.9947 26.398 10.9947 31.7961C10.5511 31.8293 10.1076 31.8275 9.6631 31.7979Z" fill="#FEFEFE"/>
<path id="Vector_11" d="M9.75824 10.6799C7.8706 10.6842 5.98297 10.6886 4.09533 10.6929C3.62979 10.6938 3.16513 10.6929 2.66797 10.6929C2.66797 7.90406 2.66797 5.15093 2.66797 2.36816C5.45331 2.36816 8.23777 2.36816 11.017 2.36816C11.1083 2.49981 11.0705 2.63406 11.0705 2.76047C11.0732 5.27298 11.074 7.78637 11.067 10.2989C11.067 10.4235 11.1663 10.5901 10.9801 10.679C10.9827 7.99473 10.9862 5.31047 10.988 2.62622C10.988 2.57129 10.9739 2.51637 10.9651 2.45011C8.21229 2.45011 5.47527 2.45011 2.74 2.45011C2.74 2.82498 2.74 3.16847 2.74 3.55468C3.04919 3.55468 3.33817 3.55468 3.62628 3.55468C5.36635 3.55468 7.10554 3.56863 8.84561 3.54683C9.40601 3.53986 9.80304 3.89642 9.74682 4.45611C9.7354 4.57119 9.74506 4.68801 9.74506 4.80396C9.75121 6.76201 9.75473 8.72093 9.75824 10.6799Z" fill="#7CABE3"/>
<path id="Vector_12" d="M9.75868 10.679C9.75516 8.72004 9.75165 6.76112 9.74726 4.80307C9.74726 4.68712 9.7376 4.5703 9.74901 4.45522C9.80435 3.89553 9.40732 3.53896 8.8478 3.54594C7.10861 3.56773 5.36854 3.55378 3.62847 3.55378C3.33948 3.55378 3.05138 3.55378 2.74219 3.55378C2.74219 3.16758 2.74219 2.82409 2.74219 2.44922C5.47658 2.44922 8.21449 2.44922 10.9673 2.44922C10.9761 2.51548 10.9902 2.5704 10.9902 2.62532C10.9884 5.30958 10.9849 7.99383 10.9823 10.6781C10.5738 10.6781 10.1662 10.679 9.75868 10.679Z" fill="#FEFEFE"/>
<path id="Vector_13" d="M22.0508 20.8164C21.984 20.9951 21.8672 21.1337 21.7302 21.2671C20.3063 22.6515 18.6014 23.4692 16.6356 23.7595C16.4915 23.7805 16.344 23.7787 16.1973 23.7848C16.1411 23.7874 16.0813 23.7935 16.0278 23.7421C15.9672 23.6575 15.9944 23.5529 15.9944 23.4544C15.9926 21.2767 15.9926 19.0981 15.9935 16.9203C15.9935 16.8479 16.004 16.7756 16.0093 16.7041C17.9953 16.7067 19.9813 16.7093 21.9674 16.7128C22.0991 16.7128 22.2309 16.7058 22.3617 16.7172C22.6472 16.7433 22.9169 16.9996 22.9274 17.2804C22.9371 17.5532 22.9309 17.827 22.887 18.1016C22.7359 19.0466 22.439 19.9446 22.0508 20.8164Z" fill="#7CABE3"/>
<path id="Vector_14" d="M22.0532 20.8166C22.4414 19.9448 22.7383 19.046 22.8894 18.1009C22.9333 17.8263 22.9395 17.5535 22.9298 17.2797C22.9193 16.999 22.6505 16.7418 22.3642 16.7165C22.2342 16.7052 22.1015 16.7122 21.9698 16.7122C19.9837 16.7096 17.9977 16.7069 16.0117 16.7035C16.0117 16.3268 16.0117 15.9502 16.0117 15.5736C16.3148 15.4925 23.7942 15.4707 24.33 15.5527C24.373 16.0627 24.2518 16.557 24.1332 17.0452C23.81 18.3747 23.2074 19.5708 22.3229 20.6239C22.25 20.7111 22.1929 20.8209 22.0532 20.8166Z" fill="#FEFEFE"/>
<path id="Vector_15" d="M22.7526 10.6827C20.5593 10.6853 18.3669 10.6888 16.1735 10.6905C16.1314 10.6905 16.0901 10.6766 16.0585 10.6705C15.9838 10.6086 15.997 10.5327 15.997 10.4621C15.9961 8.31401 15.997 6.16678 15.9979 4.01867C15.9979 3.97596 16.0075 3.93237 16.0119 3.88965C16.1498 3.93324 16.2886 3.97596 16.4265 4.02129C19.2215 4.94801 21.1706 6.77616 22.3073 9.46478C22.475 9.86232 22.605 10.2764 22.7526 10.6827Z" fill="#7CABE3"/>
<path id="Vector_16" d="M22.7533 10.6825C22.6057 10.2762 22.4757 9.86212 22.3071 9.46458C21.1704 6.77596 19.2213 4.94694 16.4263 4.02109C16.2884 3.97576 16.1496 3.93304 16.0117 3.88945C16.0117 3.41345 16.0117 2.93658 16.0117 2.46058C19.8573 2.37166 24.2246 6.00966 24.3185 10.6825C23.7977 10.6825 23.275 10.6825 22.7533 10.6825Z" fill="#FEFEFE"/>
</g>
</g>
<defs>
<clipPath id="clip0_201_11549">
<rect width="26" height="34" fill="white" transform="translate(0 0.5)"/>
</clipPath>
</defs>
</svg>
