<svg width="24" height="25" viewBox="0 0 24 25" fill="none" xmlns="http://www.w3.org/2000/svg">
<rect width="24" height="25" fill="#1E1E1E"/>
<g id="Dashboard">
<rect width="1440" height="1024" transform="translate(-34 -276)" fill="#F7FAFF"/>
<g id="Navbar" clip-path="url(#clip0_2_3)">
<g id="Rectangle 1">
<mask id="path-1-inside-1_2_3" fill="white">
<path d="M-34 -276H268V748H-34V-276Z"/>
</mask>
<path d="M-34 -276H268V748H-34V-276Z" fill="white"/>
<path d="M266.5 -276V748H269.5V-276H266.5Z" fill="#F3F3F3" mask="url(#path-1-inside-1_2_3)"/>
</g>
<g id="Features">
<g id="General">
<g id="Menus">
<g id="Menu">
<g id="Selected">
<g id="vuesax/outline/24-support">
<g id="vuesax/outline/24-support_2">
<g id="24-support">
<path id="Vector" d="M12 23.2498C11.3 23.2498 10.59 22.9797 10.06 22.4497L8.35001 20.7598C7.92001 20.3398 7.35999 20.1097 6.75999 20.1097H6C3.93 20.1097 2.25 18.4398 2.25 16.3898V5.47974C2.25 3.42974 3.93 1.75977 6 1.75977H18C20.07 1.75977 21.75 3.42974 21.75 5.47974V16.3898C21.75 18.4398 20.07 20.1097 18 20.1097H17.24C16.64 20.1097 16.07 20.3398 15.65 20.7598L13.94 22.4497C13.41 22.9797 12.7 23.2498 12 23.2498ZM6 3.24976C4.76 3.24976 3.75 4.24973 3.75 5.46973V16.3798C3.75 17.6098 4.76 18.5997 6 18.5997H6.75999C7.75999 18.5997 8.7 18.9897 9.41 19.6897L11.12 21.3798C11.61 21.8598 12.4 21.8598 12.89 21.3798L14.6 19.6897C15.31 18.9897 16.25 18.5997 17.25 18.5997H18C19.24 18.5997 20.25 17.5998 20.25 16.3798V5.46973C20.25 4.23973 19.24 3.24976 18 3.24976H6Z" fill="#94A3B8"/>
<path id="Vector_2" d="M10.3822 15.01H7.70218C7.26218 15.01 6.85218 14.7999 6.59218 14.4399C6.34218 14.0999 6.28218 13.68 6.40218 13.28C6.75218 12.21 7.61218 11.63 8.37218 11.11C9.17218 10.57 9.62218 10.23 9.62218 9.65002C9.62218 9.13002 9.20217 8.70996 8.68217 8.70996C8.16217 8.70996 7.74219 9.13002 7.74219 9.65002C7.74219 10.06 7.40219 10.4 6.99219 10.4C6.58219 10.4 6.24219 10.06 6.24219 9.65002C6.24219 8.31002 7.33217 7.20996 8.68217 7.20996C10.0322 7.20996 11.1222 8.30002 11.1222 9.65002C11.1222 11.06 10.0622 11.78 9.21219 12.36C8.68219 12.72 8.18217 13.06 7.93217 13.51H10.3722C10.7822 13.51 11.1222 13.85 11.1222 14.26C11.1222 14.67 10.7922 15.01 10.3822 15.01Z" fill="#94A3B8"/>
<path id="Vector_3" d="M16.0389 15.0099C15.6289 15.0099 15.2889 14.6699 15.2889 14.2599V13.5699H13.3289C13.3289 13.5699 13.3289 13.5699 13.3189 13.5699C12.8289 13.5699 12.3789 13.31 12.1289 12.89C11.8789 12.46 11.8789 11.9299 12.1289 11.5099C12.8089 10.3399 13.5989 9.00991 14.3189 7.84991C14.6389 7.33991 15.2489 7.10996 15.8189 7.26996C16.3889 7.43996 16.7889 7.95999 16.7789 8.55999V12.0799H16.9989C17.4089 12.0799 17.7489 12.4199 17.7489 12.8299C17.7489 13.2399 17.4089 13.5799 16.9989 13.5799H16.7889V14.27C16.7889 14.68 16.4589 15.0099 16.0389 15.0099ZM15.2889 9.13995C14.6989 10.1 14.0889 11.1299 13.5389 12.0699H15.2889V9.13995Z" fill="#94A3B8"/>
</g>
</g>
</g>
</g>
</g>
</g>
</g>
</g>
</g>
</g>
<defs>
<clipPath id="clip0_2_3">
<rect width="302" height="1024" fill="white" transform="translate(-34 -276)"/>
</clipPath>
</defs>
</svg>
