<svg width="20" height="23" viewBox="0 0 20 23" fill="none" xmlns="http://www.w3.org/2000/svg">
<path d="M10 22.2498C9.3 22.2498 8.59 21.9797 8.06 21.4497L6.35001 19.7598C5.92001 19.3398 5.35999 19.1097 4.75999 19.1097H4C1.93 19.1097 0.25 17.4398 0.25 15.3898V4.47974C0.25 2.42974 1.93 0.759766 4 0.759766H16C18.07 0.759766 19.75 2.42974 19.75 4.47974V15.3898C19.75 17.4398 18.07 19.1097 16 19.1097H15.24C14.64 19.1097 14.07 19.3398 13.65 19.7598L11.94 21.4497C11.41 21.9797 10.7 22.2498 10 22.2498ZM4 2.24976C2.76 2.24976 1.75 3.24973 1.75 4.46973V15.3798C1.75 16.6098 2.76 17.5997 4 17.5997H4.75999C5.75999 17.5997 6.7 17.9897 7.41 18.6897L9.12 20.3798C9.61 20.8598 10.4 20.8598 10.89 20.3798L12.6 18.6897C13.31 17.9897 14.25 17.5997 15.25 17.5997H16C17.24 17.5997 18.25 16.5998 18.25 15.3798V4.46973C18.25 3.23973 17.24 2.24976 16 2.24976H4Z" fill="white"/>
<path d="M8.3822 14.01H5.70218C5.26218 14.01 4.85218 13.7999 4.59218 13.4399C4.34218 13.0999 4.28218 12.68 4.40218 12.28C4.75218 11.21 5.61218 10.63 6.37218 10.11C7.17218 9.57 7.62218 9.23 7.62218 8.65002C7.62218 8.13002 7.20217 7.70996 6.68217 7.70996C6.16217 7.70996 5.74219 8.13002 5.74219 8.65002C5.74219 9.06 5.40219 9.4 4.99219 9.4C4.58219 9.4 4.24219 9.06 4.24219 8.65002C4.24219 7.31002 5.33217 6.20996 6.68217 6.20996C8.0322 6.20996 9.1222 7.30002 9.1222 8.65002C9.1222 10.06 8.0622 10.78 7.21219 11.36C6.68219 11.72 6.18217 12.06 5.93217 12.51H8.3722C8.7822 12.51 9.1222 12.85 9.1222 13.26C9.1222 13.67 8.7922 14.01 8.3822 14.01Z" fill="white"/>
<path d="M14.0389 14.0099C13.6289 14.0099 13.2889 13.6699 13.2889 13.2599V12.5699H11.3289C11.3289 12.5699 11.3289 12.5699 11.3189 12.5699C10.8289 12.5699 10.3789 12.31 10.1289 11.89C9.87891 11.46 9.87891 10.9299 10.1289 10.5099C10.8089 9.3399 11.5989 8.00991 12.3189 6.84991C12.6389 6.33991 13.2489 6.10996 13.8189 6.26996C14.3889 6.43996 14.7889 6.95999 14.7789 7.55999V11.0799H14.9989C15.4089 11.0799 15.7489 11.4199 15.7489 11.8299C15.7489 12.2399 15.4089 12.5799 14.9989 12.5799H14.7889V13.27C14.7889 13.68 14.4589 14.0099 14.0389 14.0099ZM13.2889 8.13995C12.6989 9.1 12.0889 10.1299 11.5389 11.0699H13.2889V8.13995Z" fill="white"/>
</svg>
