<svg width="151" height="50" viewBox="0 0 151 50" fill="none" xmlns="http://www.w3.org/2000/svg">
<g clip-path="url(#clip0_104_8078)">
<path d="M138.065 0.000162499H11.9616C11.5019 0.000162499 11.0478 0.000162499 10.5894 0.00266249C10.2056 0.00516248 9.82486 0.012425 9.43741 0.0185374C8.5957 0.0284147 7.75596 0.102257 6.9255 0.239424C6.09621 0.379577 5.2929 0.643805 4.54273 1.02317C3.79349 1.40575 3.10888 1.90287 2.51374 2.49649C1.91548 3.08845 1.41679 3.77267 1.03683 4.52285C0.655825 5.27153 0.391636 6.07382 0.253385 6.90199C0.113821 7.72912 0.0387196 8.56579 0.0287563 9.40448C0.0171237 9.78773 0.0158953 10.1723 0.00976562 10.5556V39.4483C0.0158953 39.8364 0.0171237 40.2124 0.0287563 40.6007C0.0387227 41.4393 0.113824 42.2759 0.253385 43.103C0.391254 43.9317 0.655459 44.7344 1.03683 45.4834C1.41662 46.2311 1.91538 46.9126 2.51374 47.5013C3.10662 48.0975 3.79167 48.595 4.54273 48.9746C5.29289 49.355 6.09612 49.6208 6.9255 49.7631C7.7561 49.8992 8.59575 49.9731 9.43741 49.9841C9.82486 49.9926 10.2056 49.9975 10.5894 49.9975C11.0478 50 11.502 50 11.9616 50H138.065C138.515 50 138.973 50 139.424 49.9975C139.806 49.9975 140.197 49.9926 140.579 49.9841C141.419 49.9737 142.257 49.8998 143.086 49.7631C143.918 49.6198 144.725 49.3541 145.478 48.9746C146.229 48.5948 146.913 48.0973 147.505 47.5013C148.102 46.9103 148.602 46.2293 148.987 45.4834C149.365 44.7339 149.627 43.9312 149.763 43.103C149.902 42.2758 149.98 41.4394 149.995 40.6007C150 40.2124 150 39.8364 150 39.4483C150.01 38.9942 150.01 38.5425 150.01 38.081V11.9203C150.01 11.4625 150.01 11.0084 150 10.5556C150 10.1723 150 9.78773 149.995 9.40443C149.98 8.56566 149.902 7.72918 149.763 6.90194C149.626 6.07425 149.365 5.27202 148.987 4.5228C148.213 3.01915 146.986 1.79519 145.478 1.02306C144.725 0.64462 143.918 0.380462 143.086 0.239312C142.258 0.101541 141.419 0.0276721 140.579 0.0183624C140.197 0.0122625 139.806 0.00493748 139.424 0.00249999C138.973 0 138.515 0.000162499 138.065 0.000162499Z" fill="#A6A6A6"/>
<path d="M10.5959 48.9061C10.214 48.9061 9.84122 48.9012 9.4623 48.8927C8.67733 48.8825 7.89419 48.8144 7.11931 48.6888C6.39678 48.5648 5.69684 48.3339 5.04257 48.004C4.39431 47.6768 3.80304 47.2477 3.29142 46.7332C2.77239 46.2248 2.34028 45.6352 2.0122 44.9876C1.68051 44.3358 1.45096 43.6372 1.33155 42.9161C1.20259 42.1413 1.13282 41.3578 1.12284 40.5724C1.11489 40.3087 1.10449 39.431 1.10449 39.431V10.5554C1.10449 10.5554 1.11557 9.69113 1.1229 9.43722C1.13246 8.65308 1.20182 7.87079 1.33039 7.09714C1.45003 6.37405 1.67976 5.67342 2.01163 5.01952C2.3385 4.37242 2.76821 3.78232 3.28411 3.27209C3.79943 2.75702 4.39259 2.32575 5.04196 1.99401C5.69472 1.66512 6.39334 1.43591 7.11441 1.31409C7.89183 1.18729 8.67769 1.11875 9.46538 1.10901L10.5965 1.09375H139.418L140.563 1.10962C141.343 1.11887 142.122 1.18681 142.892 1.31286C143.62 1.43622 144.326 1.66702 144.987 1.99767C146.287 2.66623 147.346 3.72395 148.014 5.02257C148.34 5.67196 148.567 6.36687 148.685 7.08372C148.815 7.86372 148.888 8.65215 148.903 9.44272C148.906 9.79672 148.906 10.177 148.906 10.5554C148.916 11.0241 148.916 11.4703 148.916 11.9201V38.0809C148.916 38.535 148.916 38.9781 148.906 39.4249C148.906 39.8314 148.906 40.2037 148.901 40.587C148.887 41.3635 148.815 42.1378 148.687 42.9039C148.57 43.6302 148.342 44.3342 148.01 44.9914C147.68 45.6319 147.25 46.2164 146.737 46.7235C146.225 47.2407 145.633 47.6723 144.983 48.0016C144.325 48.3341 143.62 48.5658 142.892 48.6888C142.117 48.815 141.334 48.8832 140.549 48.8927C140.182 48.9012 139.797 48.9061 139.424 48.9061L138.065 48.9086L10.5959 48.9061Z" fill="black"/>
<path d="M31.0584 25.3754C31.0858 23.2548 32.2006 21.296 34.0123 20.1853C32.8642 18.5502 31.0101 17.5507 29.0094 17.4882C26.9044 17.2679 24.8638 18.7443 23.7911 18.7443C22.6977 18.7443 21.0463 17.5101 19.2679 17.5466C16.928 17.622 14.7994 18.9165 13.661 20.9564C11.2367 25.1419 13.045 31.2932 15.3673 34.6765C16.5292 36.3332 17.8871 38.1837 19.6639 38.1181C21.4025 38.0462 22.0519 37.0125 24.1507 37.0125C26.2299 37.0125 26.8392 38.1181 28.652 38.0764C30.5177 38.0462 31.6932 36.4123 32.8143 34.74C33.6491 33.5595 34.2915 32.2549 34.7177 30.8743C32.5018 29.9397 31.061 27.7746 31.0584 25.3754Z" fill="white"/>
<path d="M27.634 15.2637C28.6512 14.0459 29.1524 12.4807 29.031 10.9004C27.4769 11.0632 26.0413 11.8039 25.0103 12.9749C23.9923 14.1303 23.4765 15.6418 23.5767 17.1766C25.1516 17.1928 26.6471 16.4877 27.634 15.2637Z" fill="white"/>
<path fill-rule="evenodd" clip-rule="evenodd" d="M47.103 33.9246H53.0364L54.46 38.1201H57.016L51.396 22.5977H48.785L43.165 38.1201H45.6781L47.103 33.9246ZM52.4207 31.9885H47.7175L50.0373 25.1795H50.1022L52.4207 31.9885Z" fill="white"/>
<path fill-rule="evenodd" clip-rule="evenodd" d="M64.4171 38.2386C67.2657 38.2386 69.1533 35.9791 69.1533 32.4623C69.1533 28.9552 67.2546 26.6847 64.3743 26.6847C62.8922 26.637 61.5037 27.4058 60.7607 28.6854H60.7178V26.8031H58.4629V41.8641H60.7924V36.2586H60.8463C61.5578 37.5464 62.9447 38.3154 64.4171 38.2386ZM63.7593 28.6641C65.5711 28.6641 66.7585 30.1704 66.7585 32.4617C66.7585 34.7737 65.5711 36.269 63.7593 36.269C61.9795 36.269 60.7823 34.7419 60.7823 32.4617C60.7823 30.2021 61.9795 28.6641 63.7593 28.6641Z" fill="white"/>
<path fill-rule="evenodd" clip-rule="evenodd" d="M76.9083 38.2386C79.7569 38.2386 81.6445 35.9791 81.6445 32.4623C81.6445 28.9552 79.7459 26.6847 76.8655 26.6847C75.3833 26.637 73.9949 27.4057 73.2518 28.6854H73.209V26.8031H70.9541V41.8641H73.2837V36.2586H73.3376C74.049 37.5464 75.4359 38.3154 76.9083 38.2386ZM76.2506 28.6641C78.0623 28.6641 79.2497 30.1704 79.2497 32.4617C79.2497 34.7737 78.0623 36.269 76.2506 36.269C74.4707 36.269 73.2735 34.7419 73.2735 32.4617C73.2735 30.2021 74.4707 28.6641 76.2506 28.6641Z" fill="white"/>
<path d="M89.9002 33.7952C90.0728 35.3345 91.5724 36.3452 93.6216 36.3452C95.5851 36.3452 96.9977 35.3344 96.9977 33.9465C96.9977 32.7417 96.1457 32.0203 94.1283 31.5259L92.111 31.0412C89.2526 30.3528 87.9257 29.0198 87.9257 26.8567C87.9257 24.1785 90.2662 22.3389 93.5897 22.3389C96.8789 22.3389 99.1338 24.1785 99.2097 26.8567H96.8581C96.7174 25.3076 95.4332 24.3726 93.5566 24.3726C91.6801 24.3726 90.3959 25.3186 90.3959 26.6956C90.3959 27.793 91.2161 28.4387 93.2225 28.933L94.9375 29.353C98.1312 30.1061 99.4582 31.3855 99.4582 33.6559C99.4582 36.56 97.1384 38.3788 93.4489 38.3788C89.9969 38.3788 87.6661 36.6027 87.5156 33.7951L89.9002 33.7952Z" fill="white"/>
<path d="M104.486 24.125V26.8032H106.644V28.6428H104.486V34.8818C104.486 35.851 104.918 36.3027 105.867 36.3027C106.123 36.2982 106.379 36.2803 106.633 36.2489V38.0776C106.207 38.157 105.773 38.193 105.339 38.185C103.042 38.185 102.145 37.3244 102.145 35.1296V28.6428H100.495V26.8032H102.145V24.125H104.486Z" fill="white"/>
<path fill-rule="evenodd" clip-rule="evenodd" d="M113.276 26.6641C109.997 26.6641 107.894 28.9016 107.894 32.4624C107.894 36.0329 109.976 38.2607 113.276 38.2607C116.578 38.2607 118.66 36.0329 118.66 32.4624C118.66 28.9016 116.567 26.6641 113.276 26.6641ZM113.277 28.5781C115.164 28.5781 116.287 30.0198 116.287 32.4624C116.287 34.9148 115.164 36.3454 113.277 36.3454C111.389 36.3454 110.268 34.9148 110.268 32.4624C110.268 30.0308 111.389 28.5781 113.277 28.5781Z" fill="white"/>
<path d="M120.58 26.803H122.802V28.7293H122.856C123.166 27.4893 124.305 26.6358 125.586 26.6846C125.854 26.6837 126.122 26.7127 126.384 26.7713V28.9441C126.045 28.8409 125.692 28.7934 125.337 28.8037C124.652 28.776 123.99 29.0482 123.523 29.5488C123.056 30.0494 122.832 30.7284 122.91 31.4075V38.1201H120.58V26.803Z" fill="white"/>
<path fill-rule="evenodd" clip-rule="evenodd" d="M132.238 38.2607C134.805 38.2607 136.811 36.8508 137.124 34.7964L134.912 34.7963C134.488 35.8464 133.422 36.4938 132.291 36.3881C131.444 36.4193 130.624 36.0857 130.04 35.4724C129.455 34.8591 129.164 34.0251 129.239 33.1826V33.0422H137.254V32.2463C137.254 28.8149 135.28 26.6641 132.14 26.6641C128.947 26.6641 126.887 28.9663 126.887 32.5161C126.887 36.0549 128.936 38.2607 132.238 38.2607ZM134.923 31.4188H129.249C129.247 30.6548 129.551 29.9215 130.094 29.3822C130.637 28.8428 131.373 28.542 132.139 28.5465C132.9 28.5302 133.632 28.8309 134.161 29.3762C134.689 29.9214 134.965 30.6618 134.923 31.4188Z" fill="white"/>
<path fill-rule="evenodd" clip-rule="evenodd" d="M50.0646 11.9361C49.3828 11.2182 48.4142 10.843 47.4252 10.9137H44.7236V18.3723H47.4252C49.6531 18.3723 50.9446 17.0026 50.9446 14.6198C51.0693 13.6389 50.7463 12.654 50.0646 11.9361ZM47.2959 17.3182H45.8857V11.9685H47.2959C47.9989 11.9296 48.6825 12.206 49.1598 12.7221C49.6372 13.2383 49.8582 13.9401 49.7625 14.6357C49.8657 15.3342 49.6478 16.0419 49.1693 16.5622C48.6908 17.0826 48.0026 17.3603 47.2959 17.3182Z" fill="white"/>
<path fill-rule="evenodd" clip-rule="evenodd" d="M53.5087 13.0356C52.6451 13.57 52.16 14.5463 52.2568 15.5552C52.1582 16.5652 52.6429 17.5435 53.5072 18.079C54.3716 18.6146 55.4658 18.6146 56.3301 18.079C57.1945 17.5435 57.6792 16.5652 57.5805 15.5552C57.6773 14.5463 57.1922 13.57 56.3286 13.0356C55.465 12.5012 54.3723 12.5012 53.5087 13.0356ZM54.9202 13.6211C55.8848 13.6211 56.4345 14.3346 56.4345 15.5547C56.4345 16.7796 55.8849 17.4925 54.9202 17.4925C53.952 17.4925 53.4073 16.7845 53.4073 15.5547C53.4073 14.3346 53.952 13.6211 54.9202 13.6211Z" fill="white"/>
<path d="M64.6572 18.3718H63.5017L62.3351 14.2263H62.2469L61.0852 18.3718H59.9407L58.3848 12.7432H59.5147L60.5258 17.0382H60.6091L61.7695 12.7432H62.8382L63.9987 17.0382H64.0868L65.093 12.7432H66.207L64.6572 18.3718Z" fill="white"/>
<path d="M67.5156 12.7431H68.5879V13.6373H68.6711C68.9606 12.9789 69.637 12.5762 70.3555 12.6345C70.9119 12.5928 71.457 12.8056 71.8371 13.2129C72.2172 13.6201 72.3909 14.1776 72.3092 14.728V18.3717H71.1953V15.0069C71.1953 14.1024 70.8011 13.6525 69.9773 13.6525C69.5999 13.635 69.2337 13.7827 68.9747 14.0569C68.7156 14.331 68.5895 14.7043 68.6295 15.0789V18.3718H67.5156V12.7431Z" fill="white"/>
<path d="M74.084 10.5459H75.198V18.3718H74.084V10.5459Z" fill="white"/>
<path fill-rule="evenodd" clip-rule="evenodd" d="M77.9992 13.0356C77.1355 13.57 76.6503 14.5464 76.747 15.5553C76.6485 16.5653 77.1333 17.5436 77.9977 18.0791C78.8621 18.6146 79.9563 18.6146 80.8207 18.0791C81.6851 17.5436 82.1699 16.5653 82.0714 15.5553C82.1681 14.5464 81.6829 13.57 80.8192 13.0356C79.9556 12.5012 78.8628 12.5012 77.9992 13.0356ZM79.4105 13.6221C80.3751 13.6221 80.9247 14.3356 80.9247 15.5557C80.9247 16.7806 80.3751 17.4935 79.4105 17.4935C78.4422 17.4935 77.8975 16.7855 77.8975 15.5557C77.8975 14.3356 78.4422 13.6221 79.4105 13.6221Z" fill="white"/>
<path fill-rule="evenodd" clip-rule="evenodd" d="M85.3434 15.1C84.0006 15.183 83.2441 15.7671 83.2441 16.7803C83.246 17.2607 83.4516 17.7178 83.81 18.0388C84.1685 18.3597 84.6464 18.5145 85.1256 18.4648C85.8091 18.4963 86.4568 18.1587 86.821 17.581H86.9091V18.372H87.9815V14.5262C87.9815 13.3373 87.1833 12.6348 85.7682 12.6348C84.4878 12.6348 83.5758 13.2549 83.462 14.2217H84.5404C84.6641 13.8237 85.095 13.5961 85.7168 13.5961C86.4782 13.5961 86.8724 13.9317 86.8724 14.5262V15.0121L85.3434 15.1ZM86.8724 15.8291V16.2997C86.8481 16.6584 86.6788 16.9919 86.4032 17.2239C86.1277 17.4558 85.7696 17.5663 85.4109 17.5301C84.8049 17.5301 84.3642 17.2353 84.3642 16.7287C84.3642 16.2325 84.7167 15.9689 85.4941 15.917L86.8724 15.8291Z" fill="white"/>
<path fill-rule="evenodd" clip-rule="evenodd" d="M91.7883 12.6498C90.3622 12.6498 89.4453 13.7765 89.4453 15.5551C89.4453 17.3379 90.3524 18.4646 91.7883 18.4646C92.5163 18.4913 93.1991 18.113 93.5609 17.4825H93.649V18.3718H94.7164V10.5459H93.6025V13.6373H93.5192C93.1829 13.0015 92.5084 12.6167 91.7883 12.6498ZM92.1039 17.468C91.1601 17.468 90.5958 16.7496 90.5958 15.5558C90.5958 14.3717 91.1662 13.6484 92.1039 13.6484C93.0367 13.6484 93.6231 14.3876 93.6231 15.5607C93.6231 16.7393 93.0428 17.468 92.1039 17.468Z" fill="white"/>
<path fill-rule="evenodd" clip-rule="evenodd" d="M100.577 13.0356C99.7135 13.57 99.2283 14.5463 99.3251 15.5552C99.2264 16.5652 99.7112 17.5435 100.576 18.079C101.44 18.6146 102.534 18.6146 103.399 18.079C104.263 17.5435 104.748 16.5652 104.649 15.5552C104.746 14.5463 104.261 13.57 103.397 13.0356C102.534 12.5012 101.441 12.5012 100.577 13.0356ZM101.989 13.6211C102.953 13.6211 103.503 14.3346 103.503 15.5547C103.503 16.7796 102.953 17.4925 101.989 17.4925C101.021 17.4925 100.476 16.7845 100.476 15.5547C100.476 14.3346 101.021 13.6211 101.989 13.6211Z" fill="white"/>
<path d="M106.144 12.7431H107.216V13.6373H107.299C107.589 12.9789 108.265 12.5762 108.984 12.6345C109.54 12.5928 110.085 12.8056 110.465 13.2129C110.845 13.6201 111.019 14.1776 110.937 14.728V18.3717H109.824V15.0069C109.824 14.1024 109.429 13.6525 108.606 13.6525C108.228 13.635 107.862 13.7827 107.603 14.0569C107.344 14.331 107.218 14.7043 107.258 15.0789V18.3718H106.144V12.7431Z" fill="white"/>
<path d="M117.232 11.3418V12.7688H118.455V13.7045H117.232V16.5987C117.232 17.1883 117.476 17.4465 118.03 17.4465C118.172 17.4461 118.314 17.4375 118.455 17.4209V18.3462C118.255 18.3818 118.052 18.4008 117.849 18.4029C116.61 18.4029 116.117 17.9684 116.117 16.8832V13.7044H115.221V12.7687H116.117V11.3418H117.232Z" fill="white"/>
<path d="M119.977 10.5459H121.081V13.6477H121.169C121.472 12.9836 122.161 12.5804 122.89 12.6394C123.443 12.6094 123.981 12.8269 124.357 13.2327C124.733 13.6385 124.908 14.1903 124.834 14.7378V18.3718H123.719V15.0118C123.719 14.1128 123.299 13.6575 122.512 13.6575C122.124 13.6258 121.743 13.7663 121.469 14.0414C121.195 14.3165 121.056 14.6982 121.091 15.0844V18.3718H119.977V10.5459Z" fill="white"/>
<path fill-rule="evenodd" clip-rule="evenodd" d="M128.884 18.4808C129.987 18.6001 131.017 17.9141 131.329 16.8524L130.257 16.8523C129.99 17.3304 129.459 17.5999 128.914 17.5347C128.494 17.5394 128.091 17.367 127.805 17.06C127.519 16.753 127.376 16.3399 127.411 15.9222V15.86H131.397V15.4724C131.397 13.7049 130.449 12.6349 128.879 12.6349C128.124 12.6284 127.404 12.9488 126.905 13.513C126.405 14.0772 126.176 14.8297 126.276 15.5755C126.173 16.3193 126.403 17.0706 126.906 17.63C127.408 18.1895 128.131 18.5006 128.884 18.4808ZM130.262 15.0386H127.411C127.406 14.6504 127.559 14.2767 127.834 14.0022C128.109 13.7276 128.484 13.5756 128.873 13.5804C129.257 13.5717 129.627 13.725 129.892 14.0027C130.156 14.2804 130.291 14.6566 130.262 15.0386Z" fill="white"/>
</g>
<defs>
<clipPath id="clip0_104_8078">
<rect width="150" height="50" fill="white" transform="translate(0.00976562)"/>
</clipPath>
</defs>
</svg>
