<svg width="22" height="22" viewBox="0 0 22 22" fill="none" xmlns="http://www.w3.org/2000/svg">
<path d="M6.24609 14.2815L9.2392 10.3914L12.6534 13.0733L15.5825 9.29297" stroke="#94A3B8" stroke-width="2" stroke-linecap="round" stroke-linejoin="round"/>
<path d="M18.9925 5.62272C20.0541 5.62272 20.9147 4.76212 20.9147 3.70052C20.9147 2.63892 20.0541 1.77832 18.9925 1.77832C17.9309 1.77832 17.0703 2.63892 17.0703 3.70052C17.0703 4.76212 17.9309 5.62272 18.9925 5.62272Z" stroke="#94A3B8" stroke-width="2" stroke-linecap="round" stroke-linejoin="round"/>
<path d="M13.9238 2.62012H6.65606C3.64462 2.62012 1.77734 4.75284 1.77734 7.76428V15.8467C1.77734 18.8581 3.60801 20.9817 6.65606 20.9817H15.2602C18.2716 20.9817 20.1389 18.8581 20.1389 15.8467V8.80776" stroke="#94A3B8" stroke-width="2" stroke-linecap="round" stroke-linejoin="round"/>
</svg>
