<svg width="20" height="21" viewBox="0 0 20 21" fill="none" xmlns="http://www.w3.org/2000/svg">
<g id="eye-off">
<g id="Vector">
<path fill-rule="evenodd" clip-rule="evenodd" d="M10.0018 8.14173C8.697 8.14173 7.64349 9.19524 7.64349 10.5001C7.64349 10.9254 7.7551 11.3221 7.95207 11.6659L11.1677 8.45031C10.8239 8.25334 10.4271 8.14173 10.0018 8.14173ZM6.39349 10.5001C6.39349 8.50489 8.00665 6.89173 10.0018 6.89173C11 6.89173 11.8986 7.29626 12.5521 7.94979C12.7962 8.19387 12.7962 8.5896 12.5521 8.83367L8.33543 13.0503C8.09135 13.2944 7.69563 13.2944 7.45155 13.0503C6.79802 12.3968 6.39349 11.4982 6.39349 10.5001Z" fill="#111827"/>
<path fill-rule="evenodd" clip-rule="evenodd" d="M1.88307 8.00587C3.8755 4.8739 6.79517 2.9834 10.0018 2.9834C11.8765 2.9834 13.673 3.63641 15.2282 4.80943C15.5038 5.01729 15.5587 5.40919 15.3508 5.68477C15.1429 5.96034 14.751 6.01523 14.4755 5.80737C13.1139 4.78039 11.5771 4.2334 10.0018 4.2334C7.32528 4.2334 4.76173 5.8094 2.93751 8.67718L2.93698 8.678C2.6415 9.14093 2.47266 9.8036 2.47266 10.5042C2.47266 11.2049 2.6415 11.8675 2.93698 12.3305C3.56513 13.3164 4.29275 14.1609 5.07601 14.8345C5.33772 15.0596 5.36742 15.4542 5.14236 15.7159C4.91729 15.9776 4.52267 16.0073 4.26097 15.7823C3.37757 15.0225 2.57157 14.0833 1.88304 13.0026C1.42873 12.2906 1.22266 11.3784 1.22266 10.5042C1.22266 9.63003 1.42874 8.71788 1.88307 8.00587Z" fill="#111827"/>
<path fill-rule="evenodd" clip-rule="evenodd" d="M16.3184 6.62139C16.5874 6.40505 16.9808 6.44771 17.1972 6.71667C17.5171 7.1144 17.8313 7.54178 18.1212 7.99851C18.5751 8.71038 18.781 9.62209 18.781 10.4959C18.781 11.3701 18.5749 12.2823 18.1206 12.9943C16.1281 16.1262 13.2085 18.0167 10.0018 18.0167C8.88804 18.0167 7.79751 17.7812 6.77595 17.3511C6.45783 17.2171 6.30852 16.8507 6.44247 16.5325C6.57642 16.2144 6.9429 16.0651 7.26103 16.199C8.13947 16.5689 9.0656 16.7667 10.0018 16.7667C12.6784 16.7667 15.2419 15.1907 17.0661 12.3229L17.0667 12.3221C17.3622 11.8592 17.531 11.1965 17.531 10.4959C17.531 9.79527 17.3622 9.1326 17.0667 8.66967L17.0658 8.66829C16.8056 8.25836 16.5199 7.86907 16.2231 7.50012C16.0068 7.23116 16.0495 6.83773 16.3184 6.62139Z" fill="#111827"/>
<path fill-rule="evenodd" clip-rule="evenodd" d="M13.0402 10.4688C13.3796 10.5314 13.6041 10.8573 13.5415 11.1967C13.2778 12.6266 12.12 13.7844 10.6902 14.048C10.3507 14.1106 10.0248 13.8862 9.96218 13.5467C9.89959 13.2073 10.124 12.8814 10.4635 12.8188C11.3836 12.6491 12.1425 11.8902 12.3122 10.9701C12.3748 10.6306 12.7007 10.4062 13.0402 10.4688Z" fill="#111827"/>
<path fill-rule="evenodd" clip-rule="evenodd" d="M7.94377 12.5581C8.18784 12.8022 8.18784 13.1979 7.94377 13.442L3.7771 17.6087C3.53302 17.8528 3.13729 17.8528 2.89321 17.6087C2.64914 17.3646 2.64914 16.9689 2.89321 16.7248L7.05988 12.5581C7.30396 12.314 7.69969 12.314 7.94377 12.5581Z" fill="#111827"/>
<path fill-rule="evenodd" clip-rule="evenodd" d="M17.1104 3.39146C17.3545 3.63553 17.3545 4.03126 17.1104 4.27534L12.9438 8.44201C12.6997 8.68608 12.304 8.68608 12.0599 8.44201C11.8158 8.19793 11.8158 7.8022 12.0599 7.55812L16.2265 3.39146C16.4706 3.14738 16.8664 3.14738 17.1104 3.39146Z" fill="#111827"/>
</g>
</g>
</svg>
