<svg width="128" height="128" viewBox="0 0 128 128" fill="none" xmlns="http://www.w3.org/2000/svg">
<g id="Frame" clip-path="url(#clip0_201_12340)">
<g id="Group">
<g id="Illustration">
<path id="Vector" d="M53.4007 0.0113624C36.3311 0.312434 9.92021 6.79449 2.31904 23.4515C-0.336003 29.269 -0.156007 37.8238 0.203543 54.9273C0.309164 59.955 0.484318 67.2832 1.7148 76.376C4.27082 95.264 6.01048 108.122 12.5959 115.609C29.0965 134.369 88.7014 133.828 114.155 100.053C128.039 81.6282 130.174 55.4187 117.48 33.7582C103.502 9.90982 76.2531 -0.391679 53.4007 0.0113624Z" fill="#F4F7FA"/>
<path id="Vector_2" d="M68.4805 112.034L78.492 117.842C78.492 117.842 83.3593 113.806 83.0112 108.763C82.3009 98.4742 91.3729 98.5708 95.1796 98.0434C100.919 97.2483 105.63 94.0477 100.951 88.7502C96.2724 83.4526 107.326 77.8549 116.781 77.905C126.034 77.9538 131.46 61.5548 111.444 59.6134C99.4903 58.4536 95.1541 69.3097 91.6594 74.2724C88.1646 79.235 80.1291 75.1514 79.0804 83.0826C78.1839 89.856 80.1942 96.3407 74.7147 98.1762C69.2352 100.012 66.4486 104.017 68.4805 112.034Z" fill="url(#paint0_linear_201_12340)"/>
<g id="Clip path group">
<mask id="mask0_201_12340" style="mask-type:luminance" maskUnits="userSpaceOnUse" x="67" y="59" width="59" height="59">
<g id="clip-path">
<path id="Vector_3" d="M68.4805 112.034L78.492 117.842C78.492 117.842 83.3593 113.806 83.0112 108.763C82.3009 98.4742 91.3729 98.5708 95.1796 98.0434C100.919 97.2483 105.63 94.0477 100.951 88.7502C96.2724 83.4526 107.326 77.8549 116.781 77.905C126.034 77.9538 131.46 61.5548 111.444 59.6134C99.4903 58.4536 95.1541 69.3097 91.6594 74.2724C88.1646 79.235 80.1291 75.1514 79.0804 83.0826C78.1839 89.856 80.1942 96.3407 74.7147 98.1762C69.2352 100.012 66.4486 104.017 68.4805 112.034Z" fill="white"/>
</g>
</mask>
<g mask="url(#mask0_201_12340)">
<g id="Group_2">
<path id="Vector_4" d="M68.4805 112.035L78.492 117.843C78.492 117.843 83.3593 113.806 83.0112 108.764C82.3009 98.4746 91.3729 98.5713 95.1796 98.0439C100.919 97.2488 104.976 94.2723 101.734 88.9348C98.0657 82.8944 107.328 77.8549 116.781 77.905C126.034 77.9538 131.46 61.5548 111.444 59.6134C99.4903 58.4536 95.1541 69.3097 91.6594 74.2724C88.1646 79.235 80.1291 75.1514 79.0804 83.0826C78.1839 89.856 80.1942 96.3407 74.7147 98.1762C69.2352 100.012 66.4486 104.018 68.4805 112.035Z" fill="url(#paint1_linear_201_12340)"/>
<g id="Group_3" style="mix-blend-mode:soft-light" opacity="0.5">
<path id="Vector_5" d="M72.2734 115.476L72.5032 115.558C72.5547 115.416 77.7305 101.189 87.1202 88.6304C95.7701 77.0609 109.873 64.5807 127.921 70.8298L128.001 70.599C119.966 67.8186 112.032 68.4515 104.423 72.4833C98.3424 75.7045 92.4549 81.0891 86.9235 88.4884C77.5114 101.076 72.3245 115.333 72.2734 115.476Z" fill="#BEB8F2"/>
<path id="Vector_6" d="M101.316 74.3056L101.541 74.4009C104.727 66.9256 113.145 58.565 113.23 58.4815L113.058 58.3057C112.973 58.3918 104.521 66.7862 101.316 74.3056Z" fill="#BEB8F2"/>
<path id="Vector_7" d="M106.461 71.7579C116.15 71.4581 121.562 77.4382 121.615 77.4989L121.798 77.3372C121.744 77.2756 116.261 71.2107 106.453 71.5139L106.461 71.7579Z" fill="#BEB8F2"/>
<path id="Vector_8" d="M81.4313 97.1743C89.5821 88.5935 104.554 94.0146 104.696 94.0797L104.812 93.8652C104.68 93.7883 89.4774 88.3492 81.2539 97.0064L81.4313 97.1743Z" fill="#BEB8F2"/>
<path id="Vector_9" d="M83.8196 92.9197L84.0515 92.9966C86.4368 85.8351 82.0539 77.4125 82.009 77.3281L81.793 77.442C81.8374 77.5255 86.1718 85.8579 83.8196 92.9197Z" fill="#BEB8F2"/>
<path id="Vector_10" d="M73.3691 113.337C75.9269 109.641 83.2477 109.786 83.3212 109.787L83.3278 109.543C83.0197 109.536 75.8023 109.393 73.168 113.199L73.3691 113.337Z" fill="#BEB8F2"/>
<path id="Vector_11" d="M74.549 109.952L74.7783 110.037C76.0215 106.708 73.4004 100.675 72.5391 98.6937C72.4172 98.4138 72.312 98.172 72.3019 98.125L72.0625 98.1738C72.0757 98.2401 72.1452 98.401 72.3147 98.7891C73.1662 100.751 75.7583 106.716 74.549 109.952Z" fill="#BEB8F2"/>
</g>
</g>
</g>
</g>
<path id="Vector_12" d="M83.9678 84.7428C86.7844 87.3118 86.5133 90.9955 85.8998 93.6308C85.5561 93.757 85.3902 93.9174 85.0729 94.1209C82.2066 95.959 80.5915 96.133 77.4801 97.4991C76.8103 97.7935 74.5817 98.0594 73.6641 98.1096L71.9517 98.1764C71.9517 98.1764 66.2451 91.515 69.6597 87.8736C73.0744 84.2321 68.4583 77.2191 66.4713 73.2032C65.2514 70.7366 65.4842 69.2185 65.1819 68.2406C61.9776 57.8868 57.7937 56.0307 58.8231 52.0244C59.9589 47.602 65.3803 48.5962 66.8731 43.8529C68.5556 38.4938 62.7693 33.6261 65.4965 28.9091C65.9639 28.1009 66.4647 27.2829 67.4641 26.5357C69.9286 24.6897 72.7773 25.4598 73.8982 22.4482C76.1515 16.396 82.0895 12.3735 87.8732 15.6795C93.5811 18.9404 92.5235 29.9148 83.7539 41.5937C78.4654 50.6096 79.0776 52.5163 81.4721 56.8332C83.1493 59.8571 89.7017 66.9458 86.3131 71.9435C82.9244 76.9413 80.749 81.806 83.9678 84.7428Z" fill="url(#paint2_linear_201_12340)"/>
<g id="Clip path group_2">
<mask id="mask1_201_12340" style="mask-type:luminance" maskUnits="userSpaceOnUse" x="64" y="14" width="28" height="85">
<g id="clip-path-2">
<path id="Vector_13" d="M84.8743 96.9374L72.3204 98.361C72.3204 98.361 66.2472 91.515 69.6627 87.8736C73.0782 84.2321 68.4613 77.2191 66.4743 73.2032C61.0832 62.3057 74.6951 58.5597 68.9872 44.012C67.4689 40.1442 63.167 33.2705 65.4995 28.9101C68.1567 23.9435 72.4595 26.3217 73.9012 22.4491C76.1544 16.3973 82.0925 12.3744 87.8761 15.6805C93.584 18.9413 92.5265 29.9157 83.7569 41.5946C78.4684 50.6105 79.0806 52.5172 81.4751 56.8341C83.1522 59.8581 89.7047 66.9466 86.316 71.9444C82.9274 76.9422 80.7507 81.8082 83.9695 84.7451C88.8685 89.2115 84.8743 96.9374 84.8743 96.9374Z" fill="white"/>
</g>
</mask>
<g mask="url(#mask1_201_12340)">
<g id="Group_4">
<g id="Group_5" style="mix-blend-mode:soft-light" opacity="0.5">
<path id="Vector_14" d="M79.1937 97.0171L78.9499 97.0747C78.6198 95.7332 78.3052 94.3764 78.0143 93.0416C75.8605 83.1581 74.7836 73.4214 74.8131 64.1009C74.8382 56.2032 75.6559 48.4935 77.2441 41.186C78.5204 35.3096 80.3014 29.66 82.5348 24.3963C84.1046 20.6947 85.8795 17.2194 87.8159 14.0676C88.1525 13.5182 88.5297 12.9732 88.8941 12.4457C89.3782 11.7425 89.8825 11.0173 90.2931 10.2754L90.5132 10.3774C90.0964 11.1294 89.589 11.8607 89.1018 12.5679C88.7392 13.0923 88.3638 13.6347 88.0306 14.1788C86.1035 17.3209 84.3339 20.7857 82.7668 24.4772C80.5391 29.7299 78.762 35.3659 77.4893 41.2291C75.9049 48.5216 75.0882 56.2168 75.0631 64.0978C75.0336 73.4029 76.1091 83.1243 78.2594 92.9924C78.5499 94.3211 78.8641 95.6779 79.1937 97.0171Z" fill="#FCFDFE"/>
<path id="Vector_15" d="M75.9467 50.1808L75.6976 50.1659C76.6764 40.2151 66.803 26.0476 66.7031 25.9043L66.9135 25.7725C67.0129 25.9175 76.9343 40.1501 75.9467 50.1808Z" fill="#FCFDFE"/>
<path id="Vector_16" d="M75.8305 78.1747L75.5806 78.1866C75.3957 71.374 85.8258 62.297 85.931 62.2061L86.0986 62.3744C85.9939 62.4645 75.6488 71.4659 75.8305 78.1747Z" fill="#FCFDFE"/>
<path id="Vector_17" d="M76.297 82.0234L76.0519 82.0762C75.0859 77.739 71.2602 72.3658 65.2794 66.9461C64.9789 66.6736 64.9789 66.6736 64.9688 66.6305L65.213 66.5752L65.0907 66.6028L65.1936 66.5352C65.2112 66.5554 65.3257 66.6582 65.4577 66.7778C71.4715 72.2283 75.3213 77.6423 76.297 82.0234Z" fill="#FCFDFE"/>
<path id="Vector_18" d="M78.628 94.5607L78.3789 94.5467C78.8392 89.65 85.3406 85.4363 85.4062 85.3945L85.5444 85.5844C85.4797 85.6262 79.0778 89.7766 78.628 94.5607Z" fill="#FCFDFE"/>
<path id="Vector_19" d="M78.845 97.1618C76.546 93.8905 73.1428 91.1509 68.4414 88.7863L68.5651 88.5811C73.3026 90.9641 76.734 93.7283 79.0559 97.0313L78.845 97.1618Z" fill="#FCFDFE"/>
<path id="Vector_20" d="M81.5051 27.5946L81.2578 27.5669C82.1331 22.0544 81.6825 16.1081 81.5342 14.1545C81.4985 13.6815 81.4862 13.515 81.4933 13.4561L81.7415 13.4745C81.7371 13.5185 81.7578 13.7897 81.7855 14.1338C81.9342 16.0923 82.3844 22.057 81.5051 27.5946Z" fill="#FCFDFE"/>
<path id="Vector_21" d="M78.6594 36.3962L78.4336 36.3017C80.8505 31.5461 91.4302 27.8514 91.8791 27.6963L91.9605 27.9138C91.8518 27.953 81.031 31.7293 78.6594 36.3962Z" fill="#FCFDFE"/>
</g>
</g>
</g>
</g>
<path id="Vector_22" d="M86.0429 105.782C85.1786 105.838 83.2263 114.049 79.6968 108.956C78.8167 107.684 77.1884 103.008 70.8925 103.992L67.2274 104.563C65.6568 102.043 64.6441 99.3771 68.1243 97.6234C73.5286 94.901 71.689 85.3696 69.4169 82.3105C66.603 78.524 60.2446 69.5793 68.5301 65.2474C75.428 61.6407 80.6492 60.6364 79.3096 51.6249C77.97 42.6134 81.9809 36.0566 90.6774 34.9323C99.8312 33.7496 104.883 20.9995 113.074 23.3602C127.345 27.4741 119.746 49.3666 105.243 58.0788C90.7395 66.791 100.846 70.3788 102.786 77.5909C102.996 78.5897 103.087 79.6098 103.056 80.6298C102.806 88.5979 95.0796 91.453 90.5811 98.8058C84.4463 108.835 87.4991 105.688 86.0429 105.782Z" fill="#7CACE4"/>
<g id="Clip path group_3">
<mask id="mask2_201_12340" style="mask-type:luminance" maskUnits="userSpaceOnUse" x="64" y="23" width="57" height="84">
<g id="clip-path-3">
<path id="Vector_23" d="M88.059 102.927L68.3405 106.575C66.6681 104.158 64.2345 99.5834 68.1204 97.6253C73.5247 94.9029 71.6851 85.3714 69.413 82.3124C66.5991 78.5259 60.2407 69.5812 68.5262 65.2488C75.4241 61.6448 80.6453 60.6383 79.3057 51.6268C77.966 42.6153 81.977 36.0585 90.6735 34.9346C99.8273 33.7514 104.879 21.0018 113.07 23.362C127.342 27.476 119.743 49.3681 105.239 58.0807C90.7356 66.7933 100.842 70.3807 102.783 77.5928C105.432 87.4381 90.6894 88.0666 87.7258 92.7062C85.4039 96.3428 86.8342 100.469 88.059 102.927Z" fill="white"/>
</g>
</mask>
<g mask="url(#mask2_201_12340)">
<g id="Group_6">
<g id="Group_7" style="mix-blend-mode:soft-light" opacity="0.5">
<path id="Vector_24" d="M78.1887 101.725H77.7539C78.0342 71.7536 93.7383 41.9338 118.738 23.9033L119.002 24.2281C94.1071 42.183 78.469 71.8779 78.1887 101.725Z" fill="#FCFDFE"/>
<path id="Vector_25" d="M79.828 85.385L79.4011 85.4659C77.0423 73.9179 64.7022 66.9045 64.5781 66.835L64.8021 66.4834C64.928 66.5524 77.4322 73.6551 79.828 85.385Z" fill="#FCFDFE"/>
<path id="Vector_26" d="M78.4028 96.2114L77.9883 96.0919C81.7889 84.6709 104.085 78.9352 104.312 78.8789L104.421 79.2745C104.2 79.3312 82.1313 85.008 78.4028 96.2114Z" fill="#FCFDFE"/>
<path id="Vector_27" d="M89.8799 57.5007L89.4552 57.4128C91.6411 48.1494 83.0559 36.1571 82.9688 36.0371L83.3283 35.8037C83.4163 35.9272 92.1058 48.0664 89.8799 57.5007Z" fill="#FCFDFE"/>
<path id="Vector_28" d="M100.731 41.3627L100.438 41.063C108.883 33.7089 124.342 33.9621 124.497 33.9656L124.483 34.3757C124.33 34.3708 109.045 34.1234 100.731 41.3627Z" fill="#FCFDFE"/>
</g>
</g>
</g>
</g>
<path id="Vector_29" d="M67.9239 11.9082L80.3555 115.104C80.5421 116.652 79.4753 118.039 77.979 118.187L26.1993 123.864C23.0272 124.061 21.2906 122.443 21.0943 120.797L8.04357 11.0828C7.84906 9.44647 9.4052 7.96484 12.5905 7.96484L64.8407 9.06365C66.355 9.08914 67.7386 10.369 67.9239 11.9082Z" fill="url(#paint3_linear_201_12340)"/>
<path id="Vector_30" d="M70.2547 11.7308L82.7531 115.443C82.9406 116.998 81.869 118.392 80.3678 118.542L26.6888 123.879C25.0054 124.046 23.4634 122.831 23.2662 121.177L10.1415 10.8953C9.94566 9.25057 11.1819 7.92849 12.8832 7.9575L67.1587 8.87171C68.677 8.89764 70.0681 10.1837 70.2547 11.7308Z" fill="url(#paint4_linear_201_12340)"/>
<path id="Vector_31" d="M69.2358 17.4515L80.8215 113.613C80.9976 115.066 79.9933 116.366 78.5881 116.503L28.1032 121.404C26.5386 121.556 25.1053 120.421 24.9218 118.882L12.7925 17.0067C12.6099 15.4754 13.7577 14.2377 15.338 14.2531L66.3409 14.7954C67.7607 14.8121 69.0615 16.0054 69.2358 17.4515Z" fill="url(#paint5_linear_201_12340)"/>
<path id="Vector_32" d="M42.1629 11.6591C42.229 12.2111 41.8324 12.6528 41.2762 12.6458C40.7199 12.6387 40.2138 12.1847 40.1478 11.6318C40.0818 11.0789 40.4796 10.6367 41.0363 10.6446C41.593 10.6525 42.0965 11.107 42.1629 11.6591Z" fill="url(#paint6_linear_201_12340)"/>
<g id="Group_8" style="mix-blend-mode:soft-light" opacity="0.5">
<path id="Vector_33" d="M60.5063 82.0012C50.1709 62.9172 34.7318 57.2048 30.0831 37.5366C27.5702 26.9051 29.2822 16.7297 32.1656 8.28211L12.8832 7.95555C11.1819 7.92654 9.94566 9.24862 10.1415 10.8933L23.2649 121.176C23.462 122.83 25.0041 124.046 26.6874 123.879L68.8855 119.682C69.1976 102.584 65.1131 90.5082 60.5063 82.0012Z" fill="white"/>
</g>
<g id="Group_9" opacity="0.63">
<path id="Vector_34" d="M68.8694 70.8666L27.9136 72.5012C27.3526 72.5235 26.8031 72.3386 26.37 71.9819C25.9369 71.6251 25.6506 71.1215 25.5657 70.5673L25.534 70.3603C25.4853 70.0421 25.5046 69.7172 25.5906 69.4071C25.6766 69.0969 25.8274 68.8084 26.0331 68.5606C26.2387 68.3127 26.4946 68.1112 26.7838 67.9692C27.073 67.8272 27.3891 67.748 27.7112 67.7368L68.6973 66.3022C69.2564 66.2827 69.8031 66.4689 70.2339 66.8253C70.6647 67.1818 70.9494 67.6838 71.0341 68.2361V68.2427C71.0828 68.5599 71.0638 68.8837 70.9785 69.1931C70.8933 69.5025 70.7436 69.7904 70.5392 70.0381C70.3349 70.2857 70.0806 70.4875 69.7928 70.6303C69.5051 70.7731 69.1904 70.8536 68.8694 70.8666Z" fill="white"/>
<path id="Vector_35" d="M70.079 78.6299L29.1756 80.6077C28.6114 80.6349 28.0571 80.4523 27.6199 80.0951C27.1827 79.7379 26.8936 79.2315 26.8084 78.6738L26.7763 78.4628C26.7278 78.1464 26.7465 77.8232 26.8314 77.5145C26.9162 77.2058 27.0652 76.9183 27.2686 76.6709C27.472 76.4234 27.7253 76.2215 28.012 76.0783C28.2988 75.9352 28.6125 75.8539 28.9327 75.8398L69.8665 74.0637C70.4288 74.0392 70.9804 74.2232 71.4153 74.5801C71.8502 74.937 72.1377 75.4418 72.2227 75.9976V76.0081C72.2709 76.3235 72.2522 76.6454 72.1681 76.9531C72.0839 77.2608 71.936 77.5475 71.734 77.7946C71.532 78.0416 71.2803 78.2436 70.9952 78.3875C70.7102 78.5314 70.398 78.614 70.079 78.6299Z" fill="white"/>
<path id="Vector_36" d="M71.2847 86.3975L30.4337 88.7164C29.8663 88.7483 29.3074 88.5679 28.866 88.2103C28.4247 87.8527 28.1327 87.3436 28.0471 86.7825L28.0146 86.5676C27.9663 86.2526 27.9847 85.9311 28.0685 85.6236C28.1523 85.3162 28.2997 85.0298 28.5012 84.7827C28.7026 84.5357 28.9537 84.3336 29.2382 84.1895C29.5227 84.0453 29.8344 83.9623 30.1529 83.9458L71.0343 81.8273C71.6001 81.7978 72.1567 81.9793 72.5959 82.3367C73.0351 82.6941 73.3255 83.2019 73.4108 83.7612L73.413 83.7757C73.4612 84.0899 73.4432 84.4106 73.36 84.7174C73.2767 85.0241 73.1302 85.3101 72.9298 85.557C72.7294 85.8039 72.4796 86.0062 72.1962 86.1509C71.9129 86.2957 71.6025 86.3796 71.2847 86.3975Z" fill="white"/>
</g>
<path id="Vector_37" d="M73.9913 34.9055C73.9913 49.1824 62.8131 60.4139 48.5257 59.9757C33.6574 59.5195 21.1523 46.6947 21.1523 31.3475C21.1523 16.0003 33.6574 4.85978 48.5257 6.40601C62.8131 7.8916 73.9913 20.628 73.9913 34.9055Z" fill="url(#paint7_linear_201_12340)"/>
<path id="Vector_38" d="M77.8507 33.675C77.8507 47.9524 66.6725 59.1835 52.3851 58.7453C37.5163 58.289 25.0117 45.4643 25.0117 30.1171C25.0117 14.7699 37.5168 3.62931 52.3851 5.17555C66.6721 6.66113 77.8507 19.3976 77.8507 33.675Z" fill="url(#paint8_linear_201_12340)"/>
<path id="Vector_39" d="M76.7307 33.5988C76.7307 47.2473 66.0366 57.9659 52.3868 57.5246C38.2086 57.0662 26.3047 44.8268 26.3047 30.2035C26.3047 15.5802 38.2086 4.94426 52.3868 6.39512C66.0352 7.79148 76.7307 19.9504 76.7307 33.5988Z" fill="url(#paint9_linear_201_12340)"/>
<path id="Vector_40" d="M75.9257 33.5446C75.9257 46.743 65.5766 57.095 52.385 56.6529C38.6983 56.194 27.2227 44.3726 27.2227 30.2653C27.2227 16.158 38.6992 5.88246 52.385 7.26651C65.5766 8.60046 75.9257 20.3462 75.9257 33.5446Z" fill="url(#paint10_linear_201_12340)"/>
<path id="Vector_41" style="mix-blend-mode:multiply" opacity="0.3" d="M48.1268 36.7769C48.922 28.9314 56.1416 25.61 55.1994 18.3935C54.6189 13.9455 51.2435 10.1964 47.4759 7.27051C36.0543 8.46688 27.2227 17.9118 27.2227 30.2654C27.2227 44.374 38.6992 56.1941 52.385 56.6529C53.6843 56.6959 54.9848 56.6324 56.2736 56.463C50.8399 51.0618 47.4433 43.5169 48.1268 36.7769Z" fill="url(#paint11_linear_201_12340)"/>
<path id="Vector_42" d="M63.0638 40.5024C63.4467 39.9177 63.6621 39.2395 63.6866 38.5413C63.7345 36.7217 62.3835 35.3029 62.2017 35.3842C62.104 35.4281 62.2281 35.9613 62.2977 36.1973C62.4424 36.6891 62.5982 36.737 62.585 36.9629C62.5582 37.428 61.8857 37.4464 61.5315 38.0618C61.2758 38.5061 61.2555 39.139 61.5315 39.6401C61.9887 40.4725 63.0203 40.502 63.0638 40.5024Z" fill="url(#paint12_linear_201_12340)"/>
<path id="Vector_43" d="M91.926 80.0211L91.4062 78.2362L93.5746 76.632L94.9261 76.127L94.126 78.6243L91.926 80.0211Z" fill="url(#paint13_linear_201_12340)"/>
<path id="Vector_44" d="M89.2422 115.968C89.2422 115.968 90.4282 118.948 90.1162 120.269C91.3894 120.244 92.2132 120.083 92.2132 120.083C92.2132 120.083 91.7014 118.724 91.6015 118.05C91.4668 117.141 91.4769 115.669 91.4769 115.669L89.2422 115.968Z" fill="url(#paint14_linear_201_12340)"/>
<path id="Vector_45" d="M76.1673 122.937C76.2994 123.09 76.378 123.283 76.3913 123.484C76.3953 123.61 76.3725 123.735 76.3244 123.851C76.122 124.382 75.8042 124.453 75.4618 125.017C75.2523 125.361 75.2919 125.465 75.1001 125.621C74.847 125.825 74.5412 125.837 74.2762 125.84C73.6395 125.846 73.0031 125.81 72.3711 125.733C72.7965 125.185 73.2496 124.63 73.7305 124.066C73.9418 123.82 74.1524 123.579 74.3625 123.344L75.6141 122.922L76.1673 122.937Z" fill="#26264F"/>
<path id="Vector_46" d="M75.1269 116.868C75.1269 116.868 74.4113 120.596 75.3214 121.639C76.0969 122.683 74.9469 121.938 74.9469 121.938L73.5738 123.135L72.75 124.56C72.75 124.56 73.5083 120.912 73.3063 119.464C73.1043 118.015 73.0026 117.04 73.0026 117.04L75.1269 116.868Z" fill="url(#paint15_linear_201_12340)"/>
<path id="Vector_47" d="M72.4331 76.097C72.4331 76.097 70.5117 77.8142 70.5117 84.8844C70.5117 91.9545 71.4218 107.308 71.4218 107.308L72.8785 118.299C72.8785 118.299 74.3884 118.353 75.4002 118.05C76.3103 113.909 77.7934 106.904 77.0853 101.046C76.7821 94.6822 79.614 86.7027 79.614 86.7027C79.614 86.7027 82.0411 94.7828 83.7605 98.8233C85.4799 102.864 88.7533 115.52 89.0565 116.43C91.0682 116.612 91.9276 116.078 91.9276 116.078C91.9276 116.078 90.6377 102.457 89.424 97.3061C88.2102 92.1549 88.3115 79.731 86.2888 76.1959C81.7379 74.3798 72.4331 76.097 72.4331 76.097Z" fill="url(#paint16_linear_201_12340)"/>
<path id="Vector_48" d="M72.4331 76.097C72.4331 76.097 70.5117 77.8142 70.5117 84.8844C70.5117 91.9545 71.4218 107.308 71.4218 107.308L72.8785 118.299C72.8785 118.299 74.3884 118.353 75.4002 118.05C76.3103 113.909 77.7934 106.904 77.0857 101.046C76.7821 94.6822 79.614 86.7027 79.614 86.7027C79.614 86.7027 82.0411 94.7828 83.7605 98.8233C85.4799 102.864 88.7533 115.521 89.0565 116.43C91.0682 116.612 91.9276 116.078 91.9276 116.078C91.9276 116.078 90.6377 102.457 89.424 97.3061C88.2102 92.1549 88.3115 79.731 86.2888 76.1959C81.7379 74.3798 72.4331 76.097 72.4331 76.097Z" fill="url(#paint17_linear_201_12340)"/>
<path id="Vector_49" style="mix-blend-mode:multiply" opacity="0.25" d="M82.4143 89.0513C83.0133 92.9411 84.2117 95.0354 87.2078 97.7283C89.6045 99.5238 87.8067 103.414 88.7041 106.405C89.0033 107.303 89.9024 108.201 90.2004 109.098C91.3155 111.325 90.2743 114.049 90.7795 116.407C91.5664 116.299 91.9237 116.08 91.9237 116.08C91.9237 116.08 90.6338 102.459 89.4201 97.3077C88.2063 92.1565 88.3075 79.7326 86.2849 76.1975C81.734 74.3792 72.4292 76.0964 72.4292 76.0964C72.4292 76.0964 70.5078 77.8136 70.5078 84.8838C70.5078 85.4573 70.514 86.0863 70.525 86.7566C72.5199 88.5199 76.5982 88.9102 79.1159 86.957C79.2579 86.8493 79.4223 86.775 79.5969 86.7394L79.6101 86.7021C79.6101 86.7021 79.6141 86.7161 79.6207 86.7368C80.7684 86.5284 82.1538 88.0136 82.4143 89.0513Z" fill="url(#paint18_linear_201_12340)"/>
<path id="Vector_50" d="M89.8038 121.4C89.8038 121.4 89.5081 121.4 89.5327 121.781C89.5574 122.163 89.4007 123.474 90.9023 123.536C92.4038 123.598 92.6362 123.43 92.6855 123.43C92.7348 123.43 92.2894 122.175 92.2894 122.175L91.8088 121.56L90.5159 121.425L89.8038 121.4Z" fill="#26264F"/>
<path id="Vector_51" d="M93.137 122.716C93.1049 122.399 92.9275 121.901 92.7488 121.5C92.4848 120.904 92.7013 120.681 92.4478 120.137C92.3598 119.949 92.2749 119.771 92.09 119.595C92.046 119.554 91.6328 119.171 91.029 119.191C90.8555 119.189 90.6841 119.229 90.5295 119.308C90.2967 119.432 90.1796 119.618 90.0802 119.782C89.9235 120.039 89.9596 120.118 89.718 120.854C89.6433 121.078 89.5989 121.311 89.5859 121.546C89.982 121.546 91.495 121.608 91.815 121.841C92.1349 122.075 92.2955 122.469 92.2955 122.862C92.2955 123.256 92.4927 123.44 92.6916 123.428C92.8633 123.417 93.2131 123.092 93.137 122.716Z" fill="#444B8C"/>
<path id="Vector_52" d="M74.9356 121.117C75.274 121.123 75.5222 121.391 75.7097 122.04C75.8972 122.689 76.7954 123.262 75.7471 123.125C74.6988 122.988 73.937 124.471 73.5625 125.02C73.188 125.568 72.1828 126.056 72.2075 125.519C72.2321 124.983 72.6762 124.733 72.8012 124.185C72.9261 123.636 74.1641 121.105 74.9356 121.117Z" fill="#444B8C"/>
<path id="Vector_53" d="M92.7218 76.9499C92.9705 76.259 94.5235 71.7196 92.0137 67.5815C89.959 64.1933 86.4035 63.0879 85.8965 62.9384C82.8102 62.0282 81.2637 63.1973 80.2898 62.1214C78.6373 60.2952 80.5099 54.0742 84.1296 52.8281C88.2105 51.4217 93.1073 56.8243 95.0904 60.3716C97.693 65.0257 97.0527 69.6512 96.9018 70.6037C96.5904 72.5501 95.9207 74.4221 94.9266 76.125L92.7218 76.9499Z" fill="white"/>
<path id="Vector_54" d="M82.064 51.951C78.421 51.8055 75.6115 51.8631 74.0245 53.4454C72.3487 55.1182 74.0426 57.0055 73.6786 61.3827C73.1215 68.0823 68.8465 69.7191 68.5252 76.5158C68.4453 78.2982 68.6412 80.0823 69.1061 81.805C70.0439 82.972 71.5798 84.618 73.8459 85.9954C77.1434 87.9992 79.0556 87.6498 83.7918 88.9442C91.5373 91.0618 92.2274 93.5833 96.0702 92.9407C99.9522 92.2916 103.358 89.029 102.947 87.2371C102.701 86.1642 101.136 86.4679 99.3339 84.8316C97.0116 82.7219 97.9071 80.7089 96.1415 78.4423C93.6057 75.1867 90.0727 77.1769 87.9119 74.3547C85.7255 71.5005 86.5916 65.8759 88.4356 62.8102C89.6392 60.8078 90.1546 58.4612 91.1787 56.3616C91.3038 56.1083 91.3525 55.8241 91.319 55.5436C91.1527 54.1763 88.8704 53.4339 87.1417 52.8902C84.5025 52.0618 82.3624 51.9615 82.064 51.951Z" fill="white"/>
<path id="Vector_55" d="M78.9961 51.7998L79.7148 51.5801C79.7148 51.5801 79.9027 52.5514 82.2127 52.6727C83.4947 52.6727 84.3251 51.9554 84.3251 51.9554L84.8162 52.3128C84.8162 52.3128 83.7389 53.6564 82.0261 53.6221C79.8142 53.5777 78.9961 51.7998 78.9961 51.7998Z" fill="#7CABE3"/>
<path id="Vector_56" d="M80.4598 48.8448C80.598 47.778 81.4425 47.0946 81.6269 46.9482C82.3984 46.3355 82.5555 46.274 82.8204 46.2234L83.1826 46.1689H83.2218C83.4339 46.1817 84.069 46.4291 84.1843 46.51C84.5531 46.7693 84.2815 48.6035 83.1633 50.885C83.1193 51.0781 83.0752 51.2712 83.0312 51.4643C84.0056 51.6357 84.2468 51.8111 84.2547 51.9513C84.2714 52.255 83.2042 52.6422 82.2153 52.6677C80.9756 52.6994 79.6589 52.1662 79.6839 51.7689C79.6941 51.6076 79.9282 51.4094 80.8282 51.2142C80.969 51.017 81.1097 50.8194 81.2502 50.6213C81.1235 50.4688 80.3577 49.6311 80.4598 48.8448Z" fill="url(#paint19_linear_201_12340)"/>
<path id="Vector_57" d="M81.9907 48.4432C82.272 48.2749 82.4863 48.6361 82.3538 48.9522C82.2213 49.2682 81.776 49.4655 81.5058 49.277C81.2355 49.0884 81.6123 48.6691 81.9907 48.4432Z" fill="url(#paint20_linear_201_12340)"/>
<path id="Vector_58" d="M118.447 48.4373C114.744 44.4253 106.131 45.5255 101.353 48.748C99.1323 50.245 97.993 52.0137 95.3696 52.1622C93.3756 52.2752 90.203 51.5262 88.532 49.3686C88.3216 49.097 87.4797 47.9569 86.2154 46.5192C85.6582 45.8854 85.1037 45.2886 84.2447 45.1567C84.0246 45.1224 83.3002 45.0046 82.8201 45.4727C82.4311 45.852 82.336 46.5122 82.4509 46.9877C82.5195 47.2721 82.6089 47.302 82.5961 47.4884C82.5605 48.0114 81.6063 48.2391 81.6596 48.5023C81.6974 48.6904 82.1939 48.6219 82.2792 48.8579C82.373 49.1168 81.8277 49.3414 81.5936 49.991C81.1535 50.2842 80.8776 51.0146 80.7816 51.9917C80.6404 53.428 80.7847 54.595 81.0576 55.474C82.3695 59.7062 83.3082 62.7332 85.5794 64.4235C88.5866 66.6616 91.2944 64.5954 98.944 64.2684C109.418 63.821 112.03 67.367 115.795 64.9409C120.495 61.9117 122.29 52.6031 118.447 48.4373Z" fill="url(#paint21_linear_201_12340)"/>
<path id="Vector_59" d="M63.5053 40.2479C63.412 41.1234 63.096 44.9947 65.7704 48.2647C68.2692 51.3194 71.808 51.9299 72.4654 52.0292C75.6473 52.5092 77.0195 51.1397 78.1316 52.0732C80.0182 53.6555 79.0157 60.0725 75.6002 61.8033C71.7494 63.7522 66.1603 59.0704 63.7095 55.8258C60.4938 51.5708 60.4969 46.9035 60.514 45.9366C60.5561 43.9653 60.9633 42.0188 61.715 40.1956C62.3016 40.0193 62.9296 40.037 63.5053 40.2461V40.2479Z" fill="white"/>
<path id="Vector_60" style="mix-blend-mode:multiply" opacity="0.3" d="M96.1846 90.3811C95.253 89.4273 96.2784 87.504 94.9027 86.0738C93.6264 84.7464 92.1798 85.8189 90.1242 84.677C87.4872 83.2125 88.2138 80.531 85.6952 79.0898C83.8838 78.0529 83.0327 79.1676 80.217 78.6239C77.4013 78.0802 73.9827 76.1463 72.2915 72.6877C71.5732 71.218 71.3083 69.757 71.2731 68.4512C70.0087 70.7068 68.6977 72.8684 68.5252 76.5164C68.4453 78.2988 68.6412 80.0829 69.1061 81.8056C70.0439 82.9725 71.5798 84.6185 73.8459 85.996C77.1434 87.9998 79.0556 87.6503 83.7918 88.9447C91.5373 91.0623 92.2274 93.5839 96.0702 92.9413C98.5514 92.5264 100.832 91.0439 102.052 89.5605C98.47 91.1524 96.8606 91.0733 96.1846 90.3811Z" fill="url(#paint22_linear_201_12340)"/>
<path id="Vector_61" d="M16.7598 122.652C14.5122 122.474 11.6367 121.85 8.87649 120.048C5.8905 118.098 2.00102 114.092 3.0163 111.566C3.39521 110.623 4.48619 109.816 5.44558 109.893C6.86266 110.006 7.02989 111.972 9.48865 114.112C9.94326 114.508 12.2946 116.551 13.4635 115.862C14.0444 115.52 14.2165 114.571 14.1214 113.85C13.8446 111.741 11.267 111.418 8.78935 109.136C6.2769 106.822 4.18297 102.785 5.38001 100.056C6.06786 98.4876 7.8885 97.2491 9.08333 97.5972C9.59471 97.7457 9.91949 98.1633 11.4708 101.512C12.7444 104.26 13.0278 105.061 13.8473 105.322C14.6927 105.59 16.0068 105.254 16.5063 104.422C17.8072 102.256 12.1846 99.0573 11.6741 92.9941C11.4453 90.2774 12.1811 86.2505 14.6443 85.3877C16.3096 84.804 18.6821 85.6954 19.5398 87.2209C20.313 88.5966 19.3739 89.6313 19.9636 92.7211C20.1427 93.6591 20.5111 95.5885 21.2882 95.6896C22.201 95.8087 23.222 93.3483 23.4579 92.7492C25.2345 88.238 23.1973 85.9186 24.8723 83.7289C26.1785 82.0214 29.021 81.3353 31.2725 82.1977C33.2428 82.9528 34.8191 84.9152 34.9252 86.9493C35.0326 89.0186 33.2898 91.0786 29.8039 95.1991C28.151 97.1528 26.836 98.4731 26.9108 100.415C26.9473 101.362 27.3232 102.693 28.0022 102.815C29.5007 103.084 30.2383 97.0574 33.7898 96.1261C35.6078 95.6501 37.8667 96.5863 38.8596 98.2226C40.076 100.228 39.2609 103.07 37.733 104.564C35.7394 106.514 33.6947 105.033 29.9434 107.127C28.2795 108.056 25.664 110.033 26.0469 111.667C26.2137 112.378 26.9605 113.073 27.7804 113.168C29.6173 113.376 30.2242 110.37 33.1781 109.048C35.3059 108.095 38.2487 108.198 38.9476 109.399C39.9343 111.091 36.4299 114.933 34.5665 116.63C32.3146 118.68 27.0023 122.571 16.7598 122.652Z" fill="#7CACE4"/>
<path id="Vector_62" opacity="0.5" d="M17.7686 121.689C17.4715 116.659 20.8051 106.415 23.234 101.572C25.6105 96.8328 27.88 89.3359 27.9029 89.2607L28.0507 89.3047C28.0278 89.3803 25.7526 96.8899 23.3722 101.64C20.9517 106.468 17.6268 116.675 17.9226 121.679L17.7686 121.689Z" fill="white"/>
<path id="Vector_63" d="M11.4623 123.308C9.76974 120.962 7.28721 116.727 6.8414 111.062C6.65789 108.728 6.29966 104.169 9.09245 100.236C10.4844 98.2759 13.4361 95.3768 15.4297 96.2133C16.713 96.7512 17.51 98.7981 17.146 100.354C16.7808 101.924 15.4526 102.069 14.0065 104.732C13.4713 105.718 12.86 106.875 13.3296 107.528C13.7217 108.074 14.7995 108.173 15.6075 107.846C17.2763 107.17 16.7548 105.094 18.5591 103.606C19.8424 102.547 21.9813 102.05 22.9041 102.917C23.7055 103.67 23.5642 105.428 22.8601 106.6C21.726 108.477 19.6915 107.926 18.3673 109.979C17.7793 110.889 17.3612 112.264 17.8757 112.808C18.4623 113.428 20.1883 112.892 21.2943 112.207C22.7549 111.302 22.8086 110.34 23.7706 110.22C24.8436 110.085 26.1845 111.106 26.3944 112.235C26.688 113.817 24.7459 115.521 23.2082 116.262C21.2393 117.21 19.7755 116.654 18.8144 117.949C18.4623 118.425 18.1384 119.201 18.4276 119.672C18.8408 120.344 20.3331 120.122 21.3238 119.975C23.7354 119.616 24.3995 118.744 25.2634 119.167C26.1383 119.597 26.5894 121.048 26.2114 122.068C26.001 122.634 25.3695 123.51 22.2391 124.059C20.0493 124.441 16.3684 124.711 11.4623 123.308Z" fill="#ED569A"/>
</g>
</g>
<path id="&#226;&#130;&#185;" d="M51.1304 51L42 34.8235V32.6667H43.0628C44.7697 32.6667 46.2029 32.5033 47.3623 32.1765C48.5539 31.8497 49.4879 31.3105 50.1643 30.5588C50.8406 29.8072 51.2432 28.7778 51.372 27.4706H42V24.3333H51.3237C51.0982 23.1242 50.6473 22.1438 49.971 21.3922C49.2947 20.6078 48.3768 20.0359 47.2174 19.6765C46.0902 19.317 44.7053 19.1373 43.0628 19.1373H42V16H62V19.1373H52.8696C53.6103 19.7582 54.2222 20.4935 54.7053 21.3431C55.1884 22.1928 55.4944 23.1895 55.6232 24.3333H62V27.4706H55.7198C55.4944 29.8562 54.5926 31.719 53.0145 33.0588C51.4686 34.366 49.4074 35.1993 46.8309 35.5588L56.058 51H51.1304Z" fill="#FEE620"/>
</g>
<defs>
<linearGradient id="paint0_linear_201_12340" x1="64.2099" y1="96.7275" x2="128.019" y2="78.8769" gradientUnits="userSpaceOnUse">
<stop stop-color="#FFC444"/>
<stop offset="1" stop-color="#F36F56"/>
</linearGradient>
<linearGradient id="paint1_linear_201_12340" x1="115.712" y1="58.2004" x2="74.7899" y2="114.223" gradientUnits="userSpaceOnUse">
<stop stop-color="#FCB148"/>
<stop offset="0.05" stop-color="#FDBA46"/>
<stop offset="0.14" stop-color="#FFC244"/>
<stop offset="0.32" stop-color="#FFC444"/>
<stop offset="0.48" stop-color="#FDB946"/>
<stop offset="0.78" stop-color="#F99C4D"/>
<stop offset="0.87" stop-color="#F8924F"/>
<stop offset="1" stop-color="#F8924F"/>
</linearGradient>
<linearGradient id="paint2_linear_201_12340" x1="81.4682" y1="12.2263" x2="72.8488" y2="69.8768" gradientUnits="userSpaceOnUse">
<stop stop-color="#FF9085"/>
<stop offset="1" stop-color="#FB6FBB"/>
</linearGradient>
<linearGradient id="paint3_linear_201_12340" x1="43.5585" y1="63.254" x2="23.1532" y2="65.4827" gradientUnits="userSpaceOnUse">
<stop stop-color="#444B8C"/>
<stop offset="1" stop-color="#26264F"/>
</linearGradient>
<linearGradient id="paint4_linear_201_12340" x1="61.5379" y1="11.8833" x2="11.1995" y2="183.477" gradientUnits="userSpaceOnUse">
<stop stop-color="#444B8C"/>
<stop offset="1" stop-color="#26264F"/>
</linearGradient>
<linearGradient id="paint5_linear_201_12340" x1="49.248" y1="-2.44829" x2="43.0881" y2="169.025" gradientUnits="userSpaceOnUse">
<stop stop-color="#FF9085"/>
<stop offset="1" stop-color="#FB6FBB"/>
</linearGradient>
<linearGradient id="paint6_linear_201_12340" x1="42.6299" y1="7.65677" x2="-16.5377" y2="168.108" gradientUnits="userSpaceOnUse">
<stop stop-color="#311944"/>
<stop offset="1" stop-color="#893976"/>
</linearGradient>
<linearGradient id="paint7_linear_201_12340" x1="38.5164" y1="36.0223" x2="7.70851" y2="45.9218" gradientUnits="userSpaceOnUse">
<stop stop-color="#FCB148"/>
<stop offset="0.05" stop-color="#FDBA46"/>
<stop offset="0.14" stop-color="#FFC244"/>
<stop offset="0.32" stop-color="#FFC444"/>
<stop offset="0.48" stop-color="#FDB946"/>
<stop offset="0.78" stop-color="#F99C4D"/>
<stop offset="0.87" stop-color="#F8924F"/>
<stop offset="1" stop-color="#F8924F"/>
</linearGradient>
<linearGradient id="paint8_linear_201_12340" x1="63.4427" y1="5.38871" x2="35.9911" y2="66.0292" gradientUnits="userSpaceOnUse">
<stop stop-color="#FFDB44"/>
<stop offset="1" stop-color="#FEEF06"/>
</linearGradient>
<linearGradient id="paint9_linear_201_12340" x1="58.3839" y1="69.3899" x2="53.0892" y2="40.427" gradientUnits="userSpaceOnUse">
<stop stop-color="#FCB148"/>
<stop offset="0.05" stop-color="#FDBA46"/>
<stop offset="0.14" stop-color="#FFC244"/>
<stop offset="0.32" stop-color="#FFC444"/>
<stop offset="0.48" stop-color="#FDB946"/>
<stop offset="0.78" stop-color="#F99C4D"/>
<stop offset="0.87" stop-color="#F8924F"/>
<stop offset="1" stop-color="#F8924F"/>
</linearGradient>
<linearGradient id="paint10_linear_201_12340" x1="47.1278" y1="22.5135" x2="68.9572" y2="68.913" gradientUnits="userSpaceOnUse">
<stop stop-color="#FCB148"/>
<stop offset="0.05" stop-color="#FDBA46"/>
<stop offset="0.14" stop-color="#FFC244"/>
<stop offset="0.32" stop-color="#FFC444"/>
<stop offset="0.48" stop-color="#FDB946"/>
<stop offset="0.78" stop-color="#F99C4D"/>
<stop offset="0.87" stop-color="#F8924F"/>
<stop offset="1" stop-color="#F8924F"/>
</linearGradient>
<linearGradient id="paint11_linear_201_12340" x1="40.6941" y1="25.515" x2="62.4792" y2="71.8208" gradientUnits="userSpaceOnUse">
<stop stop-color="#FCB148"/>
<stop offset="0.05" stop-color="#FDBA46"/>
<stop offset="0.14" stop-color="#FFC244"/>
<stop offset="0.32" stop-color="#FFC444"/>
<stop offset="0.48" stop-color="#FDB946"/>
<stop offset="0.78" stop-color="#F99C4D"/>
<stop offset="0.87" stop-color="#F8924F"/>
<stop offset="1" stop-color="#F8924F"/>
</linearGradient>
<linearGradient id="paint12_linear_201_12340" x1="62.321" y1="46.6715" x2="62.4237" y2="42.3022" gradientUnits="userSpaceOnUse">
<stop stop-color="#311944"/>
<stop offset="1" stop-color="#893976"/>
</linearGradient>
<linearGradient id="paint13_linear_201_12340" x1="92.3832" y1="85.9023" x2="93.0509" y2="78.4492" gradientUnits="userSpaceOnUse">
<stop stop-color="#311944"/>
<stop offset="1" stop-color="#893976"/>
</linearGradient>
<linearGradient id="paint14_linear_201_12340" x1="90.5444" y1="114.634" x2="91.1603" y2="126.045" gradientUnits="userSpaceOnUse">
<stop stop-color="#311944"/>
<stop offset="1" stop-color="#893976"/>
</linearGradient>
<linearGradient id="paint15_linear_201_12340" x1="73.7477" y1="115.54" x2="74.364" y2="126.951" gradientUnits="userSpaceOnUse">
<stop stop-color="#311944"/>
<stop offset="1" stop-color="#893976"/>
</linearGradient>
<linearGradient id="paint16_linear_201_12340" x1="70.5113" y1="96.8332" x2="91.9276" y2="96.8332" gradientUnits="userSpaceOnUse">
<stop stop-color="#311944"/>
<stop offset="1" stop-color="#893976"/>
</linearGradient>
<linearGradient id="paint17_linear_201_12340" x1="69.8309" y1="80.8891" x2="85.2306" y2="106.788" gradientUnits="userSpaceOnUse">
<stop stop-color="#311944"/>
<stop offset="1" stop-color="#893976"/>
</linearGradient>
<linearGradient id="paint18_linear_201_12340" x1="75.9037" y1="77.277" x2="91.3034" y2="103.176" gradientUnits="userSpaceOnUse">
<stop stop-color="#311944"/>
<stop offset="1" stop-color="#893976"/>
</linearGradient>
<linearGradient id="paint19_linear_201_12340" x1="223.579" y1="143.057" x2="216.019" y2="138.036" gradientUnits="userSpaceOnUse">
<stop stop-color="#311944"/>
<stop offset="1" stop-color="#893976"/>
</linearGradient>
<linearGradient id="paint20_linear_201_12340" x1="192.786" y1="88.9443" x2="184.252" y2="85.8519" gradientUnits="userSpaceOnUse">
<stop stop-color="#311944"/>
<stop offset="1" stop-color="#893976"/>
</linearGradient>
<linearGradient id="paint21_linear_201_12340" x1="81.425" y1="24.0821" x2="110.5" y2="70.3543" gradientUnits="userSpaceOnUse">
<stop stop-color="#444B8C"/>
<stop offset="1" stop-color="#26264F"/>
</linearGradient>
<linearGradient id="paint22_linear_201_12340" x1="70.2719" y1="54.2498" x2="86.7866" y2="88.2529" gradientUnits="userSpaceOnUse">
<stop stop-color="#E38DDD"/>
<stop offset="1" stop-color="#9571F6"/>
</linearGradient>
<clipPath id="clip0_201_12340">
<rect width="128" height="128" fill="white"/>
</clipPath>
</defs>
</svg>
