<svg width="128" height="122" viewBox="0 0 128 122" fill="none" xmlns="http://www.w3.org/2000/svg">
<g id="Frame" clip-path="url(#clip0_201_12250)">
<g id="Group">
<g id="Illustration">
<path id="Vector" d="M53.4231 120.811C21.6686 116.012 -4.13574 86.0518 0.552262 52.7513C4.55181 24.3513 29.5027 2.24965 59.4231 0.162522C61.5894 0.0104539 63.7794 -0.034254 65.9932 0.0283978C82.6844 0.509235 97.515 7.17208 108.484 17.2542C119.401 27.2879 126.495 40.7084 127.785 54.7882C131.224 92.2502 92.9175 126.78 53.4231 120.811Z" fill="#F4F7FA"/>
<path id="Vector_2" d="M23.6212 119.089C16.1954 118.137 6.78056 115.636 2.99908 108.581C2.09942 106.903 1.19702 103.643 3.46765 102.416C5.54308 101.294 8.22696 102.479 9.76936 103.939C10.9035 105.013 11.7886 107.409 13.0608 108.167C14.9259 109.276 15.9298 106.251 15.8905 105.001C15.8027 102.209 12.3609 101.065 10.0738 100.459C6.27679 99.4527 1.85576 98.5887 2.09393 94.32C2.33211 90.0513 6.50354 87.4888 9.71314 89.3565C12.3572 90.8962 11.9851 94.1813 13.7918 96.1539C15.3968 97.9053 15.9554 95.0627 15.8489 93.6695C15.6158 90.6426 12.9492 88.4532 10.9867 86.4245C8.77005 84.1294 6.31885 79.5162 8.68411 76.4839C10.045 74.7389 13.5019 74.3301 15.5454 74.6244C25.5472 76.0655 18.915 88.9824 20.7335 90.4236C22.552 91.8647 24.2727 89.3419 24.2681 85.5062C24.2635 81.6704 24.8519 78.8411 28.8633 80.0687C32.8747 81.2963 33.6382 91.3159 29.0576 95.169C24.477 99.0221 29.3451 103.221 30.5748 100.461C31.4626 98.4683 32.243 93.2502 34.8089 92.6781C39.0836 91.726 39.0206 100.438 37.7899 102.465C36.0656 105.307 32.1671 105.924 29.9879 108.377C29.3552 109.089 27.9266 110.853 28.4793 111.894C29.2533 113.346 31.4123 111.793 32.2055 111.119C33.9883 109.606 36.4569 104.463 38.9712 107.88C42.0734 112.095 36.8857 118.345 23.6212 119.089Z" fill="url(#paint0_linear_201_12250)"/>
<g id="Group_2" style="mix-blend-mode:soft-light" opacity="0.8">
<path id="Vector_3" d="M22.5522 118.461C22.7268 118.461 22.8694 118.262 22.8722 118.087C22.8749 117.936 23.0815 102.716 16.4342 84.6476C16.406 84.5666 16.3472 84.4998 16.2703 84.4615C16.1935 84.4231 16.1047 84.4163 16.0228 84.4423C15.9834 84.4559 15.9472 84.4772 15.9162 84.505C15.8852 84.5328 15.8601 84.5665 15.8423 84.6041C15.8246 84.6417 15.8145 84.6825 15.8128 84.7241C15.811 84.7656 15.8176 84.8071 15.8322 84.846C22.4383 102.8 22.2322 117.927 22.2322 118.077C22.229 118.254 22.3693 118.459 22.5471 118.459L22.5522 118.461Z" fill="white"/>
</g>
<path id="Vector_4" d="M17.7148 117.838C17.9639 116.281 20.9481 115.836 22.1491 115.61C22.8467 115.478 23.8405 115.343 24.1975 114.624C24.5742 113.869 24.0019 113.285 23.2681 113.151C21.9543 112.912 20.5413 113.744 19.3203 114.123C18.0087 114.53 16.6483 114.722 15.3477 114.16C14.3109 113.712 13.2489 112.647 13.0236 111.527C12.3991 108.424 15.5127 108.603 17.5415 109.039C18.5262 109.251 20.4617 109.41 20.6355 108.022C20.8183 106.544 18.9367 105.799 17.7733 105.755C16.2528 105.698 14.7561 106.029 13.2476 106.14C11.8876 106.239 10.2761 106.091 9.89992 104.529C9.60872 103.323 10.2894 101.936 11.2713 101.22C13.5438 99.5649 16.5385 102.387 18.9646 102.381C19.8222 102.381 21.238 101.751 21.4752 100.83C21.7161 99.8934 20.4974 99.2629 19.8295 98.9212C17.8492 97.9093 8.75249 96.6132 12.0124 92.6936C12.8325 91.7072 14.4169 90.8779 15.696 90.8427C18.1088 90.777 20.8201 92.4112 22.6789 93.8213C25.6046 96.0389 28.1609 99.0904 29.8222 102.36C33.4931 109.588 31.7148 114.433 31.7148 114.433C30.6505 116.185 29.0035 118.006 27.1891 118.993C25.0569 120.153 21.7545 120.662 19.4355 119.761C18.6894 119.471 17.5607 118.801 17.7148 117.838Z" fill="#7CACE4"/>
<g id="Vector_5" style="mix-blend-mode:multiply" opacity="0.7">
<path d="M117.003 74.7684L113.922 74.9759C113.574 73.6171 113.107 72.2913 112.527 71.0138L115.083 69.3017C115.249 69.1898 115.391 69.0463 115.501 68.8793C115.612 68.7124 115.687 68.5253 115.725 68.3289C115.762 68.1326 115.76 67.9308 115.719 67.7352C115.677 67.5396 115.598 67.3541 115.484 67.1895L112.502 62.8099C112.274 62.4733 111.923 62.2398 111.524 62.1601C111.125 62.0804 110.71 62.161 110.371 62.3843L107.779 64.1101C106.795 63.1023 105.725 62.1805 104.583 61.3546L105.95 58.5549C106.318 57.8004 105.995 56.8834 105.229 56.507L100.429 54.1494C99.6597 53.7716 98.7377 54.0782 98.3651 54.8337L96.9895 57.642C95.628 57.2496 94.2351 56.9749 92.8263 56.8209L92.5868 53.6731C92.5524 53.2635 92.3589 52.8836 92.0475 52.6145C91.7361 52.3455 91.3316 52.2086 90.9205 52.2333L85.5541 52.5495C85.3517 52.5596 85.1533 52.6099 84.9706 52.6976C84.788 52.7853 84.6247 52.9086 84.4905 53.0602C84.3562 53.2117 84.2537 53.3885 84.1889 53.5802C84.1241 53.7719 84.0984 53.9745 84.1132 54.1763L84.3532 57.3355C82.9719 57.6584 81.6216 58.1011 80.3175 58.6585L78.5068 56.0271C78.2715 55.6854 77.912 55.4487 77.5047 55.3674C77.0973 55.286 76.6742 55.3664 76.3253 55.5914L71.8339 58.5362C71.6629 58.6475 71.5161 58.792 71.4022 58.9611C71.2883 59.1302 71.2096 59.3204 71.1708 59.5204C71.132 59.7204 71.134 59.9262 71.1765 60.1255C71.219 60.3247 71.3013 60.5134 71.4183 60.6804L73.2346 63.3145C72.2044 64.2867 71.2613 65.347 70.4163 66.4833L67.5102 65.0827C66.7235 64.7032 65.7777 65.017 65.3978 65.7839L63.0206 70.5841C62.6398 71.3528 62.9708 72.2825 63.7598 72.6602L66.6444 74.0421C66.2487 75.4068 65.9769 76.8043 65.8321 78.2177L62.6385 78.4326C61.7639 78.4914 61.1075 79.2327 61.1724 80.0881L61.5792 85.4371C61.6442 86.2925 62.4062 86.9362 63.2803 86.8746L66.4478 86.6524C66.7998 88.0405 67.2756 89.3942 67.8695 90.6976L65.2638 92.4312C65.0925 92.5436 64.9455 92.6891 64.8314 92.8591C64.7173 93.0291 64.6385 93.2202 64.5996 93.421C64.5606 93.6219 64.5624 93.8285 64.6047 94.0287C64.647 94.2289 64.7291 94.4186 64.846 94.5867L67.9253 99.0119C68.1662 99.3513 68.5302 99.5835 68.94 99.6592C69.3498 99.7348 69.773 99.648 70.1196 99.417L72.7052 97.6834C73.721 98.7092 74.825 99.6442 76.0044 100.478L74.6531 103.236C74.5634 103.42 74.5114 103.619 74.4999 103.822C74.4884 104.026 74.5177 104.23 74.5862 104.422C74.6547 104.614 74.7609 104.791 74.8986 104.941C75.0363 105.092 75.2027 105.214 75.3882 105.299L80.2796 107.598C80.6547 107.774 81.0842 107.796 81.4756 107.66C81.867 107.523 82.189 107.239 82.3724 106.868L83.7059 104.135C85.1016 104.518 86.5283 104.777 87.9697 104.911L88.1982 107.932C88.2145 108.134 88.2708 108.331 88.3637 108.512C88.4566 108.693 88.5844 108.854 88.7398 108.985C88.8951 109.117 89.0749 109.216 89.2688 109.278C89.4628 109.34 89.6671 109.363 89.87 109.346L95.2286 108.924C95.6377 108.893 96.0179 108.702 96.2862 108.392C96.5544 108.082 96.6888 107.679 96.6599 107.271L96.4314 104.26C97.8238 103.91 99.1825 103.438 100.492 102.849L102.202 105.33C102.435 105.665 102.791 105.895 103.193 105.969C103.596 106.044 104.011 105.956 104.348 105.725L108.743 102.735C108.909 102.623 109.052 102.478 109.162 102.31C109.273 102.142 109.349 101.954 109.386 101.756C109.424 101.559 109.422 101.356 109.381 101.159C109.339 100.962 109.26 100.776 109.146 100.61L107.43 98.1141C108.446 97.1262 109.372 96.0516 110.2 94.9024L112.942 96.2158C113.308 96.3914 113.729 96.415 114.113 96.2813C114.496 96.1476 114.811 95.8676 114.987 95.5028L117.276 90.7619C117.451 90.3973 117.474 89.9781 117.34 89.5965C117.206 89.2149 116.925 88.9021 116.56 88.7268L113.812 87.4038C114.189 86.0512 114.445 84.6679 114.576 83.2701L117.633 83.0557C117.832 83.042 118.027 82.989 118.206 82.8997C118.385 82.8104 118.545 82.6867 118.676 82.5357C118.806 82.3846 118.906 82.2092 118.969 82.0196C119.031 81.8299 119.056 81.6298 119.04 81.4307L118.641 76.1876C118.611 75.7833 118.422 75.4075 118.115 75.1417C117.808 74.8759 117.409 74.7417 117.003 74.7684ZM89.2241 65.3469C97.8609 64.7994 105.349 71.2529 105.996 79.7578C106.643 88.2628 100.209 95.6738 91.5788 96.3148C82.8967 96.959 75.2899 90.516 74.6362 81.9157C73.9825 73.3153 80.5347 65.898 89.2241 65.3469Z" fill="#D8DEE8"/>
</g>
<g id="Vector_6" style="mix-blend-mode:multiply" opacity="0.7">
<path d="M107.265 28.2523L105.571 28.3663C105.379 27.6192 105.122 26.8903 104.803 26.1879L106.209 25.2468C106.3 25.1853 106.378 25.1063 106.439 25.0145C106.499 24.9227 106.541 24.8199 106.561 24.712C106.582 24.604 106.581 24.4931 106.558 24.3857C106.535 24.2782 106.491 24.1762 106.429 24.0858L104.79 21.6784C104.665 21.4934 104.471 21.3652 104.252 21.3214C104.033 21.2775 103.805 21.3217 103.618 21.4443L102.194 22.3932C101.652 21.8391 101.064 21.3323 100.436 20.8782L101.187 19.3394C101.284 19.1376 101.296 18.9059 101.222 18.695C101.148 18.484 100.993 18.3109 100.792 18.2135L98.1521 16.9174C98.0528 16.8676 97.9447 16.8378 97.8339 16.8297C97.7231 16.8217 97.6118 16.8355 97.5064 16.8705C97.401 16.9055 97.3035 16.9609 97.2196 17.0335C97.1357 17.1061 97.067 17.1946 97.0174 17.2938L96.2608 18.8381C95.5125 18.6219 94.7468 18.4705 93.9724 18.3855L93.8407 16.6542C93.8215 16.4295 93.7152 16.2211 93.5445 16.0734C93.3738 15.9256 93.1521 15.85 92.9264 15.8627L89.976 16.0361C89.8646 16.0414 89.7553 16.069 89.6547 16.1171C89.5541 16.1653 89.4641 16.233 89.3901 16.3164C89.3161 16.3997 89.2596 16.497 89.2238 16.6025C89.1881 16.708 89.1739 16.8196 89.182 16.9307L89.3141 18.6674C88.5547 18.8457 87.8123 19.0899 87.0956 19.3974L86.1004 17.9494C85.971 17.7615 85.7733 17.6314 85.5493 17.5867C85.3253 17.542 85.0927 17.5862 84.9008 17.7099L82.4323 19.328C82.3384 19.3892 82.2578 19.4686 82.1953 19.5615C82.1328 19.6544 82.0896 19.7589 82.0683 19.8687C82.0469 19.9786 82.0479 20.0916 82.0712 20.201C82.0945 20.3105 82.1395 20.4142 82.2037 20.5059L83.2021 21.9539C82.6358 22.4885 82.1174 23.0715 81.6528 23.6962L80.0528 22.9261C79.8474 22.825 79.6103 22.8089 79.393 22.881C79.1757 22.9532 78.9956 23.1079 78.8917 23.3116L77.5847 25.9507C77.5356 26.0521 77.5071 26.1622 77.5009 26.2747C77.4947 26.3871 77.511 26.4997 77.5488 26.6058C77.5867 26.7119 77.6452 26.8095 77.7212 26.8928C77.7971 26.9762 77.8889 27.0436 77.9911 27.0912L79.577 27.8508C79.3595 28.6011 79.21 29.3694 79.1303 30.1464L77.3745 30.2646C77.2612 30.2709 77.1504 30.2996 77.0484 30.349C76.9464 30.3984 76.8552 30.4676 76.7802 30.5525C76.7052 30.6374 76.6479 30.7363 76.6115 30.8435C76.5752 30.9507 76.5606 31.0641 76.5685 31.177L76.7921 34.1177C76.8115 34.3461 76.9208 34.5575 77.0961 34.7057C77.2714 34.8539 77.4984 34.9267 77.7274 34.9082L79.4691 34.7855C79.6622 35.5489 79.9237 36.2934 80.2503 37.01L78.8195 37.9616C78.7251 38.0234 78.6442 38.1035 78.5814 38.1971C78.5187 38.2907 78.4754 38.3959 78.454 38.5065C78.4327 38.6171 78.4339 38.7308 78.4574 38.8409C78.4809 38.9511 78.5263 39.0554 78.5909 39.1477L80.2823 41.5807C80.4145 41.7679 80.6148 41.8961 80.8405 41.9377C81.0662 41.9793 81.2992 41.9311 81.4897 41.8033L82.9114 40.8512C83.4698 41.4152 84.0766 41.9293 84.7248 42.3877L83.982 43.9041C83.9327 44.0049 83.9041 44.1144 83.8978 44.2263C83.8915 44.3382 83.9077 44.4503 83.9453 44.5559C83.9829 44.6615 84.0413 44.7586 84.117 44.8414C84.1927 44.9242 84.2842 44.9911 84.3861 45.0382L87.0746 46.3019C87.2811 46.3998 87.518 46.4124 87.7339 46.3371C87.9497 46.2618 88.1271 46.1046 88.2275 45.8995L88.9589 44.3968C89.7262 44.6076 90.5107 44.7503 91.3031 44.8234L91.4293 46.4844C91.4385 46.5956 91.4696 46.7039 91.5208 46.8031C91.5721 46.9023 91.6424 46.9904 91.7278 47.0625C91.8132 47.1345 91.9119 47.189 92.0185 47.2229C92.125 47.2568 92.2372 47.2694 92.3486 47.2599L95.2945 47.0277C95.5194 47.0109 95.7284 46.9058 95.8759 46.7355C96.0234 46.5652 96.0972 46.3435 96.0812 46.119L95.9555 44.4634C96.721 44.2709 97.4679 44.0114 98.1877 43.6879L99.128 45.0519C99.2561 45.2363 99.452 45.3627 99.673 45.4035C99.8941 45.4442 100.122 45.3961 100.308 45.2695L102.724 43.6272C102.815 43.5651 102.894 43.4856 102.955 43.3932C103.015 43.3009 103.057 43.1975 103.078 43.0889C103.098 42.9804 103.097 42.8689 103.075 42.7608C103.052 42.6527 103.008 42.5501 102.946 42.4589L102.002 41.0866C102.56 40.5435 103.07 39.9526 103.525 39.3206L105.033 40.0428C105.235 40.1395 105.466 40.1525 105.677 40.079C105.888 40.0056 106.061 39.8516 106.158 39.6509L107.416 37.0446C107.512 36.8441 107.525 36.6137 107.451 36.4039C107.377 36.1941 107.223 36.0221 107.022 35.9256L105.514 35.1957C105.721 34.4521 105.861 33.6917 105.934 32.9233L107.61 32.8065C107.72 32.799 107.827 32.7699 107.926 32.7209C108.024 32.6718 108.112 32.6038 108.184 32.5208C108.256 32.4377 108.31 32.3413 108.345 32.237C108.379 32.1328 108.393 32.0227 108.384 31.9133L108.165 29.031C108.148 28.809 108.044 28.6027 107.875 28.4569C107.707 28.3111 107.487 28.2375 107.265 28.2523ZM91.9925 23.0725C96.7409 22.7714 100.857 26.3193 101.213 30.9954C101.568 35.6715 98.0314 39.7454 93.2871 40.0976C88.5136 40.452 84.3317 36.9087 83.9724 32.1815C83.6131 27.4544 87.2154 23.3754 91.9925 23.0725Z" fill="#D8DEE8"/>
</g>
<path id="Vector_7" d="M110.069 115.537C110.995 116.284 111.048 116.814 111.018 117.074C110.97 117.491 110.655 117.653 109.901 118.44C108.881 119.505 109.037 119.647 108.517 120.032C107.371 120.882 105.75 120.826 105.653 120.537C105.584 120.334 106.317 120.168 107.151 119.204C107.665 118.617 108.04 117.924 108.251 117.174C108.353 116.796 108.409 116.407 108.417 116.016L110.069 115.537Z" fill="url(#paint1_linear_201_12250)"/>
<path id="Vector_8" d="M106.969 113.26L108.793 116.432C109.232 116.626 109.652 116.528 110.042 115.962L109.33 112.106L106.969 113.26Z" fill="url(#paint2_linear_201_12250)"/>
<path id="Vector_9" d="M104.757 72.5787C102.98 75.5723 100.098 81.3497 99.5149 89.1622C98.9393 96.872 100.886 102.75 101.705 104.942C103.235 109.048 105.895 113.36 107.441 115.415C108.483 114.98 109.097 114.298 110.138 113.864C109.982 113.298 109.498 111.429 109.194 110.316C108.959 109.454 108.524 107.857 108.434 107.517C107.686 104.661 108.277 102.517 108.068 98.9856C107.828 94.8661 106.883 95.3446 107.025 92.8724C107.237 89.1799 109.334 88.3177 111.741 82.9728C113.387 79.3141 115.119 75.4715 113.529 73.3707C111.53 70.7234 105.438 72.3858 104.757 72.5787Z" fill="#7CACE4"/>
<path id="Vector_10" d="M117.616 118.436C118.172 118.788 118.507 119.626 118.253 120.154C118.005 120.673 117.371 120.509 115.83 120.982C114.18 121.488 113.854 121.999 112.637 121.998C112.146 121.998 111.255 121.913 111.18 121.583C111.128 121.351 111.506 121.12 112.752 120.286C114.52 119.1 114.501 119.067 114.896 118.885C115.886 118.43 116.882 117.972 117.616 118.436Z" fill="url(#paint3_linear_201_12250)"/>
<path id="Vector_11" d="M114.977 115.927L115.654 119.014C115.748 119.151 116.713 119.483 117.388 119.014L117.139 115.927H114.977Z" fill="url(#paint4_linear_201_12250)"/>
<g id="Vector_12" style="mix-blend-mode:multiply" opacity="0.3">
<path d="M113.534 73.3681C111.531 70.7221 105.439 72.3859 104.756 72.5788C103.796 74.2004 102.955 75.89 102.242 77.634C104.401 77.2102 105.338 77.5952 105.775 78.1062C107.47 80.0897 102.164 84.4693 103.254 91.1153C103.681 93.7156 104.795 94.8839 104.591 98.0587C104.44 100.421 103.704 101.617 103.196 103.347C102.832 104.6 102.646 105.898 102.644 107.202C104.17 110.551 106.176 113.736 107.439 115.414C108.481 114.979 109.094 114.297 110.136 113.863C109.979 113.297 109.496 111.428 109.192 110.315C108.956 109.452 108.521 107.856 108.432 107.515C107.684 104.659 108.275 102.516 108.066 98.9843C107.826 94.8648 106.88 95.3433 107.023 92.8712C107.235 89.1787 109.332 88.3165 111.739 82.9716C113.393 79.3115 115.124 75.4689 113.534 73.3681Z" fill="#7CACE4"/>
</g>
<path id="Vector_13" d="M109.517 74.2014C109.154 88.6842 110.829 103.146 114.492 117.165C114.697 117.28 115.416 117.652 116.336 117.478C116.812 117.386 117.254 117.168 117.616 116.847C117.383 115.181 117.319 113.497 117.425 111.819C117.653 108.178 118.514 107.436 118.883 103.669C119.206 100.366 118.865 97.6667 118.7 96.4153C118.192 92.5636 117.502 92.4842 117.488 90.1776C117.467 86.6252 119.094 85.3533 119.989 81.9692C120.586 79.7114 120.903 76.341 119.402 71.7188L109.517 74.2014Z" fill="#7CACE4"/>
<path id="Vector_14" d="M105.995 46.7158C104.315 47.6506 102.807 48.8655 101.537 50.308C97.9235 54.4375 95.689 61.2331 98.0113 63.4562C99.5916 64.9689 103.339 64.5105 104.63 62.7158C105.58 61.3951 104.896 59.7737 104.568 57.4694C104.216 54.9886 104.23 51.3914 105.995 46.7158Z" fill="url(#paint5_linear_201_12250)"/>
<path id="Vector_15" d="M120.027 73.3804C118.689 55.7797 114.423 48.5749 114.796 46.4362C114.259 46.0507 112.138 45.4385 107.332 46.0712C106.374 46.4281 105.493 46.9655 104.739 47.6543C104.528 47.8542 104.328 48.0657 104.141 48.2879C107.517 48.9239 110.956 50.8427 112.194 53.5603C114.338 58.7573 110.355 64.5657 112.194 69.1514C113.16 71.5616 114.705 73.6975 116.549 75.6943C118.659 75.1678 120.104 74.395 120.027 73.3804Z" fill="url(#paint6_linear_201_12250)"/>
<g id="Vector_16" style="mix-blend-mode:multiply" opacity="0.3">
<path d="M119.4 71.7207L116.506 72.4474C117.009 74.181 117.495 76.7855 116.913 79.7407C116.108 83.8219 114.029 84.717 113.723 88.3972C113.449 91.7079 115.015 92.383 115.764 96.7991C116.533 101.324 115.37 103.453 115.124 107.237C114.958 109.828 115.228 113.216 116.807 117.341C117.102 117.224 117.374 117.058 117.612 116.849C117.379 115.183 117.315 113.499 117.421 111.82C117.649 108.18 118.51 107.438 118.878 103.671C119.202 100.367 118.861 97.6686 118.696 96.4172C118.187 92.5655 117.497 92.4861 117.484 90.1796C117.463 86.6271 119.09 85.3552 119.985 81.9711C120.585 79.7111 120.901 76.3407 119.4 71.7207Z" fill="#7CACE4"/>
</g>
<path id="Vector_17" d="M104.739 47.6529C104.739 47.6529 103.459 48.8139 102.715 50.5201C101.592 53.0899 102.801 55.2961 103.164 59.4927C103.563 64.0967 102.999 71.7646 101.702 74.5136C101.65 74.6253 101.63 74.7492 101.646 74.8713C101.996 77.5264 120.297 76.9242 120.028 73.3804C118.69 55.7797 114.424 48.5749 114.796 46.4362C114.26 46.0507 112.139 45.4385 107.333 46.0712C106.375 46.4277 105.494 46.9647 104.739 47.6529Z" fill="url(#paint7_linear_201_12250)"/>
<path id="Vector_18" d="M110.176 41.6494C110.176 41.6494 111.358 45.351 111.74 45.7968C112.123 46.2425 110.204 47.4067 108.733 46.8816C107.382 46.3994 108.733 44.3447 108.733 44.3447L110.176 41.6494Z" fill="url(#paint8_linear_201_12250)"/>
<path id="Vector_19" d="M106.51 40.7848C106.047 40.0549 106.112 38.8523 106.771 38.1388C107.338 37.5275 108.155 37.5002 108.645 37.4828C110.062 37.4335 111.787 38.1612 112.299 39.5006C112.603 40.2944 111.684 41.819 111.537 42.0946C111.371 42.4062 111.108 42.4965 110.854 42.7214C110.501 43.0339 109.947 43.5312 109.043 44.3637C108.991 44.0328 108.91 43.707 108.801 43.3902C108.752 43.2483 108.553 42.6926 108.224 42.2191C107.563 41.2698 106.949 41.4741 106.51 40.7848Z" fill="url(#paint9_linear_201_12250)"/>
<path id="Vector_20" d="M110.289 43.7063C110.289 43.7063 109.244 45.1434 107.415 44.876C105.778 44.6365 105.835 40.9344 106.949 40.2374C107.32 40.0051 108.032 39.9531 108.59 40.1589C108.92 40.2802 109.022 40.4294 109.565 40.6151C110.065 40.7884 110.214 40.7437 110.358 40.8856C110.538 41.0631 110.647 41.4718 110.238 42.5225C110.578 42.2305 110.964 42.1393 111.221 42.2866C111.309 42.3432 111.378 42.423 111.423 42.517C111.619 42.9586 111.191 43.465 110.289 43.7063Z" fill="url(#paint10_linear_201_12250)"/>
<path id="Vector_21" d="M106.731 43.0954C106.731 43.0954 107.071 43.3093 107.688 43.3235C107.718 43.3235 107.75 43.3358 107.753 43.3513C107.763 43.4106 107.347 43.6396 106.992 43.5087C106.74 43.4174 106.56 43.1556 106.599 43.0981C106.616 43.0712 106.674 43.0808 106.731 43.0954Z" fill="url(#paint11_linear_201_12250)"/>
<path id="Vector_22" style="mix-blend-mode:multiply" opacity="0.3" d="M114.865 57.8388C112.868 58.5386 110.218 60.5049 110.04 63.024C109.766 66.8935 115.542 69.0167 114.772 71.7279C114.562 72.4669 113.899 73.1339 109.576 74.6932C107.827 75.3232 106.202 75.8369 104.727 76.2621C110.016 77.0399 120.227 76.0363 120.025 73.3821C119.513 66.6444 118.572 61.4346 117.626 57.4446C116.689 57.4008 115.752 57.5346 114.865 57.8388Z" fill="url(#paint12_linear_201_12250)"/>
<path id="Vector_23" d="M108.578 65.7564C111.827 69.0474 116.464 70.0844 120.03 68.4379C124.981 66.1514 125.747 59.6683 124.593 55.6109C122.665 48.8372 114.265 44.8869 111.619 46.6912C109.705 47.9964 109.723 53.0452 112.004 55.5726C114.054 57.8444 117.203 57.2705 118.059 59.5871C118.699 61.3207 117.461 63.0671 117.355 63.2126C115.976 65.0958 112.971 65.7349 110.132 64.4416L108.578 65.7564Z" fill="url(#paint13_linear_201_12250)"/>
<path id="Vector_24" d="M102.145 60.0843C102.41 59.2367 103.269 58.8019 103.945 58.708C104.607 58.6167 105.698 58.7659 106.132 59.6295C106.538 60.437 106.218 61.5665 105.285 62.1792C105.154 61.8539 104.919 61.426 104.504 61.296C103.741 61.0574 103.08 62.0492 102.516 61.7901C102.067 61.5834 101.951 60.7071 102.145 60.0843Z" fill="url(#paint14_linear_201_12250)"/>
<path id="Vector_25" d="M105.265 65.2245L107.765 65.6579C107.877 65.6772 107.992 65.6689 108.099 65.6338C108.207 65.5986 108.304 65.5376 108.383 65.4561C108.462 65.3746 108.519 65.2751 108.55 65.1663C108.581 65.0576 108.585 64.9428 108.562 64.8322L107.652 60.6119C107.621 60.4631 107.541 60.3288 107.425 60.2299C107.309 60.1309 107.164 60.0728 107.012 60.0644L104.019 59.9043C103.905 59.8983 103.792 59.9204 103.688 59.9687C103.585 60.017 103.495 60.09 103.427 60.1813C103.359 60.2725 103.314 60.3792 103.297 60.4918C103.28 60.6044 103.291 60.7194 103.329 60.8267L104.731 64.7729C104.772 64.8887 104.843 64.9915 104.937 65.0709C105.031 65.1503 105.144 65.2033 105.265 65.2245Z" fill="white"/>
<path id="Vector_26" d="M109.629 64.8636C109.424 63.3942 108.803 63.0096 108.578 62.902C108.201 62.7195 108.015 62.8609 106.7 62.8399C105.526 62.8212 105.247 62.7031 105.1 62.902C104.819 63.2815 105.397 64.2797 106.053 64.8636C106.971 65.6848 108.11 65.7546 108.58 65.7555L109.629 64.8636Z" fill="url(#paint15_linear_201_12250)"/>
<path id="Vector_27" d="M73.1886 5.83028L84.006 114.402C84.1674 116.018 83.0519 117.432 81.5233 117.543L28.8147 121.949C25.6019 122.061 23.8679 120.334 23.6947 118.623L11.974 3.70119C11.798 1.97492 13.403 0.447093 16.6487 0.512786L70.0737 2.76095C71.6257 2.81798 73.0254 4.19982 73.1886 5.83028Z" fill="url(#paint16_linear_201_12250)"/>
<path id="Vector_28" d="M75.5846 5.69157L86.4464 114.822C86.6082 116.447 85.4864 117.868 83.9536 117.98L29.3099 121.978C27.6039 122.103 26.061 120.798 25.8855 119.078L14.114 3.54559C13.9371 1.81202 15.2148 0.443412 16.9483 0.509106L72.4578 2.60581C74.0162 2.6633 75.4214 4.05243 75.5846 5.69157Z" fill="#26264F"/>
<path id="Vector_29" d="M74.4325 11.7132L84.5075 112.862C84.6588 114.38 83.6105 115.705 82.176 115.807L30.7804 119.453C29.1936 119.565 27.7591 118.347 27.5959 116.746L16.7301 10.0335C16.5655 8.41851 17.7518 7.13886 19.3619 7.18996L71.5113 8.84643C72.966 8.8925 74.2798 10.1826 74.4325 11.7132Z" fill="#D8DEE8"/>
<path id="Vector_30" d="M46.7891 5.02426C46.848 5.6082 46.4352 6.06577 45.8661 6.04661C45.2969 6.02745 44.7872 5.53795 44.7282 4.95173C44.6693 4.36551 45.0834 3.90885 45.653 3.92938C46.2226 3.94991 46.7305 4.43987 46.7891 5.02426Z" fill="white"/>
<g id="Group_3" style="mix-blend-mode:soft-light" opacity="0.3">
<path id="Vector_31" d="M41.7323 58.2925C36.3015 42.2798 45.7552 34.2123 40.4007 19.3784C37.4864 11.3105 31.6583 5.29725 25.2445 0.82236L16.9483 0.507125C15.2148 0.441888 13.9371 1.80822 14.114 3.54361L25.8868 119.076C26.0624 120.796 27.6052 122.101 29.3113 121.976L76.4884 118.525C76.3403 106.462 73.2692 97.8763 69.8539 91.7728C60.4679 75.005 47.3556 74.8736 41.7323 58.2925Z" fill="#F4F7FA"/>
</g>
<path id="Vector_32" d="M72.8172 19.8896L97.2255 40.0675C76.2362 49.4867 78.6787 78.2763 57.6895 87.695L33.2812 67.5177C54.271 58.0984 51.828 29.3084 72.8172 19.8896Z" fill="#7CACE4"/>
<path id="Vector_33" d="M93.1097 39.7236C75.304 49.7358 75.9751 75.0227 58.1694 85.0354L37.3945 67.8617C55.2002 57.8489 54.5292 32.5621 72.3344 22.5498L93.1097 39.7236Z" fill="white"/>
<path id="Vector_34" d="M41.0883 64.9089C41.1798 64.9846 41.2602 65.0563 41.3434 65.137L41.3644 65.1575C42.3116 66.0668 42.756 67.2168 42.6444 68.3168C42.5503 69.278 42.0278 70.1972 41.0381 70.8751C40.8887 70.9763 40.734 71.0694 40.5745 71.1539C39.9555 71.4864 39.2456 71.7077 38.4927 71.8281L33.2812 67.5189C35.4093 66.5667 37.4097 65.3527 39.236 63.9053C39.8696 64.0887 40.5402 64.4559 41.0883 64.9089Z" fill="url(#paint17_linear_201_12250)"/>
<path id="Vector_35" d="M62.3472 82.4827C62.9182 82.9548 63.2986 83.4735 63.6172 84.1035C61.7982 85.5415 59.807 86.748 57.6894 87.6952L52.3555 83.2856C52.8194 82.845 53.3425 82.471 53.9098 82.1743C54.0734 82.0867 54.2412 82.0036 54.4126 81.9261C56.9461 80.766 60.0524 80.7664 62.1242 82.3061C62.1324 82.3116 62.1402 82.318 62.1484 82.3244C62.2133 82.3741 62.2837 82.4302 62.3472 82.4827Z" fill="url(#paint18_linear_201_12250)"/>
<path id="Vector_36" d="M72.8173 19.8896L78.0287 24.1989C77.5648 24.6395 77.0417 25.0136 76.4745 25.3103C76.3108 25.3983 76.1435 25.4809 75.9739 25.5589C73.466 26.7062 70.4054 26.7245 68.3337 25.2313C68.2367 25.1624 68.1577 25.1022 68.0662 25.0269C67.5177 24.5739 67.0747 24.0192 66.8594 23.5032C68.6867 22.0557 70.6882 20.8417 72.8173 19.8896Z" fill="#7CACE4"/>
<path id="Vector_37" d="M91.8917 35.6582L97.2256 40.0679C95.1082 41.0151 93.1172 42.2216 91.2983 43.6595C90.5266 43.3858 89.899 43.0738 89.328 42.6016C89.2645 42.5487 89.1964 42.4908 89.136 42.4346C89.1287 42.4278 89.1209 42.4214 89.1141 42.4146C88.1911 41.5647 87.717 40.4908 87.7349 39.4397C87.7527 38.3886 88.2743 37.3562 89.3532 36.6176C89.5014 36.5153 89.6551 36.421 89.8135 36.3352C90.432 36.0031 91.1388 35.7786 91.8917 35.6582Z" fill="#7CACE4"/>
<path id="Vector_38" d="M69.5048 45.3848C73.4011 48.6056 74.5522 54.8962 72.3071 59.6257C70.0621 64.3551 64.8676 65.4003 60.9362 62.1507C57.0399 58.9295 55.8888 52.6394 58.1339 47.9095C60.3789 43.1796 65.5739 42.1349 69.5048 45.3848Z" fill="url(#paint19_linear_201_12250)"/>
<path id="Vector_39" d="M66.6497 51.0302C65.964 51.1908 65.2545 51.6556 64.4348 52.6086L62.7023 51.1762L62.7699 51.0576C62.9826 50.6891 63.2354 50.3451 63.5237 50.032C63.6784 49.8662 63.8444 49.7113 64.0207 49.5685C64.2145 49.4129 64.2145 49.0758 64.0252 48.8842L63.3125 48.168C63.1631 48.0188 62.9468 48.0142 62.8097 48.1556C62.5756 48.391 62.3448 48.6575 62.1331 48.9143C61.8414 49.2716 61.5734 49.6476 61.3308 50.0398L60.7251 49.5379C60.5482 49.392 60.3164 49.4148 60.1985 49.6109C60.143 49.7092 60.1241 49.8239 60.1451 49.9347C60.1661 50.0456 60.2256 50.1455 60.3132 50.2168L60.9317 50.7282C60.4376 51.7464 60.2305 52.6994 60.3251 53.5612C60.4197 54.423 60.8111 55.147 61.4972 55.714C62.161 56.2615 62.8342 56.4541 63.5169 56.292C64.1996 56.1299 64.9023 55.6129 65.6252 54.7409L67.5498 56.3413C67.3049 56.7692 67.0194 57.1727 66.6972 57.5461C66.4953 57.7791 66.2781 57.9986 66.0472 58.2031C65.8501 58.3778 65.8469 58.7318 66.0472 58.9284L66.9711 59.8408C67.1251 59.9923 67.3409 59.9877 67.4808 59.8363C67.717 59.5788 67.9375 59.3075 68.1413 59.0238C68.4398 58.6057 68.7111 58.169 68.9537 57.7163C68.9848 57.6583 69.0159 57.6004 69.0451 57.5425L69.7043 58.0872C69.8826 58.2341 70.1116 58.2131 70.2136 58.0028L70.2168 57.9959C70.2659 57.8934 70.2795 57.7774 70.2555 57.6663C70.2315 57.5552 70.1713 57.4552 70.0842 57.3819L69.4159 56.8294C69.7331 56.0726 69.9091 55.3491 69.9356 54.673C69.9498 54.3849 69.9357 54.0961 69.8936 53.8107C69.7564 52.8956 69.3377 52.1602 68.6433 51.5863C67.9983 51.0525 67.3327 50.8728 66.6497 51.0302ZM66.1391 54.1196C66.4133 53.8381 66.6876 53.6401 66.929 53.5927C67.1704 53.5452 67.4072 53.6137 67.6408 53.8062C67.8845 54.001 68.0466 54.2797 68.0952 54.5876C68.1436 54.8928 68.0842 55.2177 67.9068 55.5813L66.1391 54.1196ZM63.2133 53.709C62.9939 53.7619 62.7806 53.7032 62.5733 53.5329C62.3583 53.3578 62.2192 53.1066 62.1852 52.8317C62.1445 52.5439 62.2095 52.1971 62.3306 51.8897L63.9219 53.2049C63.6618 53.4991 63.4319 53.6556 63.212 53.7081L63.2133 53.709Z" fill="white"/>
<path id="Vector_40" style="mix-blend-mode:multiply" opacity="0.2" d="M97.1459 40.0023L97.225 40.068C76.2357 49.4872 78.6782 78.2768 57.689 87.6956C49.725 81.1116 41.7609 74.5279 33.7969 67.9443C35.045 67.8096 36.3003 67.7519 37.5555 67.7714C39.2652 67.8006 40.9687 67.9827 42.6458 68.3156C44.6942 68.7198 46.9347 69.3827 49.4179 70.4301C61.6844 75.6249 65.2094 71.2513 67.3379 63.8644C67.9217 61.906 68.4259 59.7504 69.0371 57.5588C69.3064 56.5953 69.6072 55.6241 69.9422 54.6596C70.5996 52.7714 71.3905 50.9087 72.3459 49.1788C75.47 43.2637 80.9539 39.2605 87.7365 39.4394C89.0079 39.4595 90.2741 39.6064 91.5162 39.8778C91.8609 39.9513 92.2093 40.0063 92.5598 40.0425C93.8782 40.1852 95.4129 40.1296 97.1459 40.0023Z" fill="url(#paint20_linear_201_12250)"/>
<path id="Vector_41" d="M76.6822 44.3072C77.4105 44.595 77.7881 45.3646 77.5207 46.0179L60.6585 87.3955C60.37 88.099 59.3593 88.6049 58.6082 88.2933L31.1389 76.8951C30.4034 76.5899 30.0985 75.5265 30.4011 74.8381L47.4068 34.1115C47.6866 33.4728 48.4985 33.1799 49.2112 33.4619L76.6822 44.3072Z" fill="url(#paint21_linear_201_12250)"/>
<path id="Vector_42" d="M77.1297 43.4882C77.8634 43.7778 78.2428 44.5538 77.9727 45.2126L60.8001 87.1166C60.5098 87.8251 59.6531 88.1481 58.897 87.8347L31.2563 76.3708C30.5162 76.0642 30.1592 75.2458 30.465 74.5533L47.6513 33.2345C47.9333 32.5895 48.7507 32.2938 49.4684 32.5776L77.1297 43.4882Z" fill="url(#paint22_linear_201_12250)"/>
<g id="Group_4" opacity="0.7">
<path id="Vector_43" d="M56.3845 72.159L53.4748 78.9596C53.4084 79.1079 53.2897 79.2266 53.1412 79.2933C52.9928 79.3599 52.825 79.3697 52.6697 79.3209L50.9541 78.7461C50.8808 78.7227 50.8133 78.6842 50.756 78.633C50.6987 78.5819 50.6529 78.5192 50.6216 78.4491C50.5903 78.379 50.5741 78.3031 50.5742 78.2264C50.5743 78.1497 50.5907 78.0738 50.6222 78.0038L53.5529 71.2064C53.6196 71.06 53.7377 70.943 53.885 70.8778C54.0323 70.8125 54.1985 70.8035 54.352 70.8524L56.0531 71.4249C56.1256 71.4479 56.1925 71.4859 56.2493 71.5364C56.3062 71.5869 56.3517 71.6488 56.383 71.7181C56.4143 71.7874 56.4306 71.8624 56.4308 71.9384C56.4311 72.0143 56.4153 72.0895 56.3845 72.159Z" fill="#F4F7FA"/>
<path id="Vector_44" d="M60.2149 63.2097L57.3587 69.8858C57.2926 70.0316 57.1751 70.1482 57.0285 70.2131C56.8818 70.2781 56.7164 70.2869 56.5637 70.238L54.8645 69.6677C54.7923 69.6449 54.7258 69.6071 54.6692 69.5569C54.6127 69.5067 54.5673 69.4452 54.5361 69.3763C54.505 69.3075 54.4887 69.2328 54.4883 69.1573C54.4879 69.0817 54.5035 69.0069 54.534 68.9378L57.4112 62.2654C57.4775 62.1213 57.5944 62.0065 57.7399 61.9429C57.8854 61.8793 58.0493 61.8714 58.2003 61.9205L59.8848 62.4903C59.956 62.5128 60.0217 62.5499 60.0777 62.5993C60.1337 62.6487 60.1786 62.7092 60.2097 62.777C60.2408 62.8447 60.2573 62.9183 60.2582 62.9928C60.2591 63.0673 60.2444 63.1412 60.2149 63.2097Z" fill="#F4F7FA"/>
<path id="Vector_45" d="M63.9716 54.4231L61.1661 60.9782C61.1004 61.1219 60.9839 61.2363 60.8389 61.2996C60.6939 61.3629 60.5307 61.3706 60.3803 61.3213L58.698 60.7524C58.6266 60.7301 58.5606 60.693 58.5045 60.6435C58.4483 60.5941 58.4033 60.5334 58.3722 60.4653C58.3412 60.3973 58.3248 60.3236 58.3242 60.2488C58.3237 60.1741 58.3389 60.1001 58.3689 60.0316L61.194 53.4801C61.2598 53.3388 61.3753 53.2265 61.5186 53.1646C61.6618 53.1027 61.8229 53.0955 61.9712 53.1443L63.6393 53.7109C63.7103 53.7325 63.776 53.7688 63.8321 53.8174C63.8881 53.866 63.9333 53.9258 63.9646 53.993C63.996 54.0602 64.0128 54.1332 64.014 54.2073C64.0152 54.2814 64.0008 54.3549 63.9716 54.4231Z" fill="#F4F7FA"/>
<path id="Vector_46" d="M67.6623 45.7949L64.9081 52.2324C64.8428 52.3741 64.7272 52.4866 64.5838 52.5483C64.4403 52.6101 64.279 52.6167 64.1309 52.5668L62.4646 52.0006C62.394 51.9789 62.3288 51.9425 62.2732 51.8939C62.2177 51.8454 62.173 51.7857 62.142 51.7187C62.1111 51.6517 62.0947 51.579 62.0938 51.5053C62.0929 51.4316 62.1076 51.3585 62.1369 51.2908L64.9108 44.8583C65.0329 44.575 65.3794 44.4281 65.6811 44.5308L67.3332 45.0946C67.403 45.1159 67.4676 45.1516 67.5228 45.1994C67.578 45.2471 67.6225 45.3059 67.6535 45.3719C67.6845 45.4379 67.7013 45.5096 67.7029 45.5825C67.7044 45.6553 67.6906 45.7277 67.6623 45.7949Z" fill="#F4F7FA"/>
</g>
<path id="Vector_47" d="M48.1667 72.6219L46.7953 75.8473C46.5457 76.4339 45.8262 76.7022 45.1953 76.4426L41.7667 75.0284C41.1391 74.7697 40.8323 74.0795 41.0842 73.4946L42.4689 70.283C42.7194 69.7022 43.4353 69.4372 44.0602 69.6936L47.4755 71.0946C48.1046 71.3518 48.415 72.0403 48.1667 72.6219Z" fill="url(#paint23_linear_201_12250)"/>
<path id="Vector_48" d="M47.7393 72.714L46.5603 75.4836C46.329 76.0264 45.6671 76.2728 45.0851 76.031L42.1416 74.8171C41.561 74.5776 41.2785 73.9425 41.5112 73.4028L42.6998 70.6428C42.9311 70.1054 43.5903 69.8613 44.169 70.0985L47.103 71.3025C47.684 71.5415 47.9693 72.1743 47.7393 72.714ZM41.6593 73.4635C41.4586 73.9293 41.7018 74.4763 42.2019 74.6825L45.145 75.896C45.6479 76.1026 46.2166 75.8905 46.4154 75.4233L47.5949 72.6537C47.7928 72.1889 47.5491 71.6442 47.0463 71.4393L44.1119 70.2349C43.6131 70.0306 43.0458 70.2404 42.8461 70.7039L41.6593 73.4635Z" fill="url(#paint24_linear_201_12250)"/>
<path id="Vector_49" d="M44.5757 70.3459L42.6072 74.9307L42.4609 74.8705L44.4294 70.2861L44.5757 70.3459Z" fill="url(#paint25_linear_201_12250)"/>
<path id="Vector_50" d="M45.6814 70.7985L43.7171 75.3865L43.5703 75.3263L45.5356 70.7383L45.6814 70.7985Z" fill="url(#paint26_linear_201_12250)"/>
<path id="Vector_51" d="M46.7837 71.2516L44.8225 75.8433L44.6758 75.7831L46.6378 71.1914L46.7837 71.2516Z" fill="url(#paint27_linear_201_12250)"/>
<path id="Vector_52" d="M46.8202 73.2062L46.2716 74.49C46.1344 74.8162 45.7317 74.9653 45.3815 74.8212L42.8124 73.7628C42.4631 73.6186 42.2917 73.2345 42.4316 72.9092L42.9802 71.6291C43.1173 71.3048 43.5191 71.1565 43.8679 71.2998L46.433 72.3536C46.7863 72.4959 46.9591 72.881 46.8202 73.2062Z" fill="#FEC045"/>
<path id="Vector_53" d="M46.8943 73.237L46.3457 74.5208C46.1903 74.8858 45.745 75.0514 45.3532 74.8899L42.7841 73.8315C42.3932 73.6704 42.2031 73.2439 42.3594 72.8798L42.9103 71.5997C43.0666 71.2348 43.5105 71.0724 43.9004 71.2325L46.465 72.2863C46.8581 72.4469 47.0492 72.8735 46.8943 73.237ZM42.5057 72.9401C42.3813 73.2288 42.5327 73.5678 42.8426 73.6955L45.4117 74.7535C45.7226 74.8817 46.076 74.7503 46.1994 74.4606L46.748 73.1768C46.8714 72.8881 46.7187 72.5496 46.4083 72.4223L43.8437 71.3684C43.5338 71.2412 43.1813 71.3716 43.0575 71.66L42.5057 72.9401Z" fill="url(#paint28_linear_201_12250)"/>
<path id="Vector_54" style="mix-blend-mode:multiply" opacity="0.15" d="M59.4332 70.3658C58.4316 74.0022 57.5447 76.2166 55.6444 78.3403C53.0341 81.2568 49.7825 82.5861 47.75 83.213L58.8938 87.8348C59.6499 88.1482 60.5066 87.8252 60.7969 87.1167L77.9713 45.2127C78.2414 44.5539 77.862 43.7779 77.1283 43.4882L72.6995 41.7373C65.9461 46.3308 63.3971 51.0165 62.3356 54.5288C61.0524 58.7728 61.8117 61.7299 59.4332 70.3658Z" fill="url(#paint29_linear_201_12250)"/>
<g id="Group_5" style="mix-blend-mode:multiply" opacity="0.42">
<path id="Vector_55" d="M62.5563 72.2731L58.6779 81.653C58.638 81.741 58.5648 81.8096 58.4743 81.8438C58.3839 81.878 58.2835 81.875 58.1952 81.8355L56.6185 81.185C56.5284 81.1508 56.4555 81.0825 56.4156 80.9949C56.3757 80.9073 56.3721 80.8076 56.4055 80.7174L60.2967 71.3511C60.3694 71.1759 60.5847 71.0956 60.7744 71.1731L62.3406 71.8118C62.5326 71.8898 62.6281 72.0974 62.5563 72.2731Z" fill="url(#paint30_linear_201_12250)"/>
<path id="Vector_56" d="M70.0499 54.2808L64.8888 66.7584C64.8152 66.9363 64.5985 67.018 64.407 66.9409L62.8298 66.3022C62.7853 66.2858 62.7444 66.2607 62.7096 66.2285C62.6747 66.1962 62.6466 66.1575 62.6267 66.1144C62.6069 66.0713 62.5958 66.0247 62.594 65.9774C62.5922 65.93 62.5998 65.8827 62.6163 65.8383L67.7958 53.3807C67.8685 53.2069 68.0824 53.1266 68.2721 53.2024L69.8355 53.8283C70.0257 53.9022 70.1217 54.1066 70.0499 54.2808Z" fill="url(#paint31_linear_201_12250)"/>
</g>
<path id="Vector_57" style="mix-blend-mode:multiply" opacity="0.26" d="M54.0324 39.2343C55.9341 39.9893 56.8095 42.1841 55.9931 44.1188C55.1839 46.0349 53.0185 46.9683 51.1515 46.221C49.2845 45.4738 48.4004 43.3246 49.1753 41.4008C49.9547 39.4583 52.1316 38.4802 54.0324 39.2343Z" fill="url(#paint32_linear_201_12250)"/>
<g id="Group_6" opacity="0.53">
<path id="Vector_58" d="M46.9377 68.4624C46.9969 68.6093 46.9958 68.7735 46.9348 68.9196C46.8737 69.0657 46.7575 69.182 46.6113 69.2434C46.5393 69.2742 46.462 69.2903 46.3837 69.2909C46.3054 69.2914 46.2278 69.2764 46.1555 69.2467C46.0831 69.2169 46.0174 69.1731 45.9622 69.1177C45.907 69.0623 45.8635 68.9965 45.8341 68.9241C45.7767 68.7771 45.7795 68.6135 45.8417 68.4684C45.9039 68.3234 46.0207 68.2085 46.1669 68.1485C46.2382 68.1186 46.3147 68.103 46.392 68.1025C46.4693 68.1021 46.5459 68.1169 46.6175 68.1461C46.6891 68.1752 46.7542 68.2182 46.8091 68.2724C46.8641 68.3267 46.9077 68.3913 46.9377 68.4624Z" fill="#F4F7FA"/>
<path id="Vector_59" d="M49.824 67.6201C49.8134 67.6469 49.7976 67.6713 49.7774 67.6919C49.7572 67.7126 49.7331 67.7289 49.7065 67.7401C49.6519 67.7626 49.5905 67.7627 49.5357 67.7404C49.481 67.7182 49.4372 67.6753 49.4139 67.621C48.6871 65.9486 46.7438 65.1575 45.0254 65.8331C44.9708 65.8557 44.9095 65.8558 44.8548 65.8335C44.8001 65.8112 44.7564 65.7683 44.7333 65.7141C44.7229 65.687 44.718 65.6582 44.7188 65.6293C44.7197 65.6004 44.7263 65.5719 44.7383 65.5455C44.7503 65.5192 44.7675 65.4955 44.7887 65.4758C44.81 65.4561 44.8349 65.4408 44.8622 65.4308C46.8009 64.6744 48.9929 65.5676 49.8185 67.4504C49.8306 67.4769 49.8373 67.5056 49.8382 67.5347C49.8392 67.5638 49.8343 67.5928 49.824 67.6201Z" fill="#F4F7FA"/>
<path id="Vector_60" d="M49.0064 67.9637C48.9956 67.9909 48.9795 68.0156 48.959 68.0365C48.9385 68.0573 48.9141 68.0739 48.8871 68.0851C48.8321 68.108 48.7702 68.1082 48.715 68.0858C48.6599 68.0633 48.6159 68.0199 48.5926 67.9651C48.0624 66.7238 46.6242 66.1376 45.3556 66.6449C45.3007 66.6678 45.239 66.6681 45.1839 66.6457C45.1288 66.6233 45.0849 66.58 45.0617 66.5253C45.0512 66.498 45.0462 66.4689 45.047 66.4397C45.0478 66.4104 45.0543 66.3816 45.0663 66.3549C45.0783 66.3282 45.0954 66.3041 45.1168 66.284C45.1381 66.264 45.1632 66.2483 45.1906 66.2379C46.6841 65.6449 48.376 66.3342 49.0041 67.7927C49.0157 67.8196 49.022 67.8486 49.0223 67.878C49.0227 67.9073 49.0173 67.9365 49.0064 67.9637Z" fill="#F4F7FA"/>
<path id="Vector_61" d="M48.1802 68.3112C48.1632 68.3526 48.1342 68.3879 48.097 68.4128C48.0598 68.4377 48.0161 68.451 47.9713 68.451C47.9265 68.451 47.8827 68.4377 47.8455 68.4128C47.8083 68.3879 47.7794 68.3526 47.7624 68.3112C47.5985 67.9259 47.2887 67.6209 46.9005 67.4625C46.5123 67.3042 46.077 67.3054 45.6897 67.4659C45.6621 67.4802 45.6319 67.4887 45.6009 67.4907C45.5698 67.4927 45.5387 67.4883 45.5095 67.4776C45.4804 67.4669 45.4537 67.4502 45.4314 67.4287C45.409 67.4071 45.3914 67.3812 45.3797 67.3524C45.368 67.3237 45.3624 67.2928 45.3634 67.2618C45.3643 67.2308 45.3717 67.2003 45.3852 67.1724C45.3986 67.1444 45.4177 67.1195 45.4414 67.0994C45.465 67.0792 45.4926 67.0642 45.5224 67.0553C46.0213 66.8514 46.5805 66.8514 47.0794 67.0553C47.3253 67.1548 47.549 67.3018 47.7377 67.4879C47.9264 67.674 48.0763 67.8955 48.1788 68.1397C48.2016 68.1945 48.2021 68.256 48.1802 68.3112Z" fill="#F4F7FA"/>
</g>
<path id="Vector_62" d="M55.3663 64.4644C55.3663 71.9502 49.5007 77.8389 42.0041 77.609C34.2025 77.3699 27.6406 70.6459 27.6406 62.5999C27.6406 54.5539 34.2025 48.7117 42.0041 49.5224C49.5007 50.3011 55.3663 56.979 55.3663 64.4644Z" fill="url(#paint33_linear_201_12250)"/>
<path id="Vector_63" d="M57.3932 63.8194C57.3932 71.3048 51.5276 77.1934 44.0314 76.964C36.2293 76.7245 29.668 70.0005 29.668 61.9549C29.668 53.9093 36.2293 48.0672 44.0314 48.8779C51.5276 49.6557 57.3932 56.3336 57.3932 63.8194Z" fill="url(#paint34_linear_201_12250)"/>
<path id="Vector_64" d="M56.8032 63.7789C56.8032 70.9349 51.1908 76.5526 44.0297 76.3245C36.5901 76.0841 30.3438 69.6671 30.3438 61.9997C30.3438 54.3323 36.5901 48.7562 44.0297 49.5167C51.1908 50.248 56.8032 56.6229 56.8032 63.7789Z" fill="url(#paint35_linear_201_12250)"/>
<path id="Vector_65" d="M56.3833 63.7509C56.3833 70.6706 50.9529 76.0985 44.0313 75.8667C36.8501 75.6258 30.8281 69.4279 30.8281 62.0315C30.8281 54.6351 36.8501 49.2473 44.0313 49.9727C50.9529 50.6725 56.3833 56.8308 56.3833 63.7509Z" fill="url(#paint36_linear_201_12250)"/>
<path id="&#226;&#130;&#185;" d="M43.4783 73L38 64.2185V63.0476H38.6377C39.6618 63.0476 40.5217 62.9589 41.2174 62.7815C41.9324 62.6041 42.4928 62.3114 42.8986 61.9034C43.3043 61.4953 43.5459 60.9365 43.6232 60.2269H38V58.5238H43.5942C43.4589 57.8674 43.1884 57.3352 42.7826 56.9272C42.3768 56.5014 41.8261 56.1909 41.1304 55.9958C40.4541 55.8007 39.6232 55.7031 38.6377 55.7031H38V54H50V55.7031H44.5217C44.9662 56.0401 45.3333 56.4393 45.6232 56.9006C45.913 57.3618 46.0966 57.9029 46.1739 58.5238H50V60.2269H46.2319C46.0966 61.5219 45.5556 62.5331 44.6087 63.2605C43.6812 63.9701 42.4444 64.4225 40.8986 64.6176L46.4348 73H43.4783Z" fill="#FEE620"/>
<path id="Vector_66" style="mix-blend-mode:multiply" opacity="0.3" d="M41.7959 65.4449C42.2133 61.3318 46.0016 59.5905 45.507 55.8067C45.2025 53.4746 43.4311 51.5093 41.4553 49.9746C35.4622 50.6019 30.8281 55.554 30.8281 62.0311C30.8281 69.4275 36.8501 75.626 44.0313 75.8664C44.713 75.889 45.3953 75.8557 46.0716 75.7669C43.2194 72.9348 41.4375 68.9791 41.7959 65.4449Z" fill="url(#paint37_linear_201_12250)"/>
<path id="Vector_67" d="M48.2203 34.625C48.2203 39.6665 44.2696 43.6327 39.2205 43.478C33.9661 43.317 29.5469 38.7883 29.5469 33.3686C29.5469 27.9489 33.9661 24.0164 39.2205 24.5611C44.2696 25.0858 48.2203 29.5835 48.2203 34.625Z" fill="url(#paint38_linear_201_12250)"/>
<path id="Vector_68" d="M49.5835 34.1904C49.5835 39.2324 45.6334 43.1981 40.5842 43.0435C35.3271 42.8824 30.9102 38.3537 30.9102 32.934C30.9102 27.5143 35.3294 23.5819 40.5842 24.1266C45.6334 24.6512 49.5835 29.1489 49.5835 34.1904Z" fill="url(#paint39_linear_201_12250)"/>
<path id="Vector_69" d="M49.188 34.1642C49.188 38.9835 45.4079 42.7686 40.5846 42.6131C35.5738 42.4511 31.3672 38.1291 31.3672 32.9653C31.3672 27.8015 35.5729 24.0452 40.5846 24.5575C45.4074 25.0516 49.188 29.3444 49.188 34.1642Z" fill="url(#paint40_linear_201_12250)"/>
<path id="Vector_70" d="M48.9037 34.1452C48.9037 38.8058 45.2466 42.4613 40.5837 42.3053C35.7472 42.1434 31.6914 37.9686 31.6914 32.9869C31.6914 28.0052 35.7472 24.377 40.5837 24.8665C45.2462 25.3369 48.9037 29.4846 48.9037 34.1452Z" fill="url(#paint41_linear_201_12250)"/>
<path id="&#226;&#130;&#185;_2" d="M39.7391 39L37 33.916V33.2381H37.3188C37.8309 33.2381 38.2609 33.1867 38.6087 33.084C38.9662 32.9813 39.2464 32.8119 39.4493 32.5756C39.6522 32.3394 39.7729 32.0159 39.8116 31.605H37V30.619H39.7971C39.7295 30.239 39.5942 29.9309 39.3913 29.6947C39.1884 29.4482 38.913 29.2684 38.5652 29.1555C38.2271 29.0425 37.8116 28.986 37.3188 28.986H37V28H43V28.986H40.2609C40.4831 29.1811 40.6667 29.4122 40.8116 29.6793C40.9565 29.9463 41.0483 30.2596 41.087 30.619H43V31.605H41.1159C41.0483 32.3548 40.7778 32.9402 40.3043 33.3613C39.8406 33.7722 39.2222 34.0341 38.4493 34.1471L41.2174 39H39.7391Z" fill="#FEE620"/>
<path id="Vector_71" style="mix-blend-mode:multiply" opacity="0.3" d="M39.0784 35.2859C39.3595 32.5154 41.9127 31.3425 41.5776 28.7941C41.3723 27.2234 40.1796 25.8995 38.8489 24.8662C34.8123 25.2887 31.6914 28.624 31.6914 32.9866C31.6914 37.9684 35.7472 42.1426 40.5837 42.3046C41.0429 42.3197 41.5025 42.2973 41.9579 42.2375C40.037 40.3301 38.8365 37.6659 39.0784 35.2859Z" fill="url(#paint42_linear_201_12250)"/>
<path id="Vector_72" d="M77.3386 72.3786L80.3498 107.464C80.4275 108.369 80.1523 109.219 79.5726 109.828C79.0685 110.372 78.3793 110.708 77.6398 110.772L33.2828 114.5C31.4035 114.658 29.7939 113.324 29.6604 111.534L26.8718 74.207C26.7406 72.4497 28.1372 70.9224 30.0055 70.8603L74.0874 69.4292C75.7614 69.3768 77.1969 70.7262 77.3386 72.3786Z" fill="url(#paint43_linear_201_12250)"/>
<path id="Vector_73" style="mix-blend-mode:multiply" opacity="0.2" d="M79.6229 109.829C79.1111 110.373 78.4156 110.709 77.6705 110.772L33.2979 114.5C31.4186 114.658 29.7939 113.324 29.6604 111.537L26.8718 74.2093C26.7406 72.452 28.1372 70.9246 30.0055 70.8626L30.5189 70.8457C30.705 71.8092 30.9546 72.8909 31.1932 73.9292C31.2261 74.0733 31.2599 74.2294 31.2928 74.3676C31.5694 75.5656 31.8067 76.551 31.8487 76.6778C33.232 80.811 35.1859 85.5605 39.3189 87.8712C45.632 91.4045 53.6252 90.7699 60.2638 92.7047C64.6359 93.9788 69.1242 95.701 72.6026 98.5833C75.1443 100.69 77.2887 103.286 78.5454 106.325C79.0056 107.459 79.3661 108.632 79.6229 109.829Z" fill="url(#paint44_linear_201_12250)"/>
<g id="Group_7" opacity="0.7">
<path id="Vector_74" d="M74.094 109.245H74.0917L72.5639 109.339C72.4788 109.343 72.3955 109.313 72.3318 109.257C72.268 109.2 72.2286 109.121 72.222 109.037C72.2073 108.864 72.3353 108.734 72.5091 108.721L74.0341 108.62C74.2951 108.62 74.5497 108.517 74.7939 108.438C74.8319 108.423 74.8725 108.416 74.9131 108.418C74.9538 108.419 74.9938 108.429 75.0308 108.446C75.0678 108.463 75.101 108.487 75.1285 108.517C75.156 108.547 75.1773 108.582 75.1911 108.62C75.246 108.784 75.1591 108.985 74.995 109.038C74.7056 109.135 74.4053 109.245 74.094 109.245ZM70.1708 109.504L67.7657 109.7C67.7243 109.704 67.6826 109.699 67.643 109.686C67.6035 109.674 67.5668 109.653 67.5351 109.626C67.5034 109.6 67.4772 109.567 67.4582 109.53C67.4392 109.493 67.4277 109.453 67.4243 109.411C67.4208 109.37 67.4256 109.329 67.4383 109.289C67.451 109.25 67.4713 109.213 67.4982 109.181C67.5251 109.15 67.5579 109.124 67.5949 109.105C67.6319 109.086 67.6722 109.074 67.7136 109.071L70.1186 108.876C70.1605 108.872 70.2027 108.876 70.2429 108.888C70.2831 108.9 70.3205 108.92 70.3528 108.947C70.3852 108.974 70.4119 109.007 70.4313 109.044C70.4507 109.081 70.4625 109.122 70.466 109.163C70.4694 109.205 70.4645 109.247 70.4515 109.287C70.4384 109.327 70.4176 109.364 70.3901 109.396C70.3626 109.427 70.329 109.453 70.2914 109.472C70.2537 109.491 70.2127 109.502 70.1708 109.504ZM65.3465 109.898L62.9127 110.097C62.8687 110.105 62.8234 110.104 62.7799 110.093C62.7363 110.083 62.6954 110.064 62.6598 110.037C62.6242 110.009 62.5948 109.975 62.5733 109.936C62.5518 109.897 62.5388 109.853 62.5351 109.809C62.5315 109.764 62.5372 109.72 62.552 109.677C62.5668 109.635 62.5903 109.597 62.6209 109.564C62.6516 109.531 62.6888 109.506 62.7301 109.488C62.7714 109.471 62.8158 109.463 62.8606 109.464L65.2944 109.266C65.3365 109.262 65.379 109.266 65.4195 109.278C65.4599 109.291 65.4976 109.311 65.5301 109.338C65.5627 109.365 65.5895 109.398 65.609 109.435C65.6286 109.473 65.6404 109.514 65.6439 109.556C65.6473 109.598 65.6424 109.64 65.6292 109.68C65.6161 109.72 65.5951 109.758 65.5674 109.789C65.5397 109.821 65.5059 109.847 65.4679 109.866C65.43 109.885 65.3887 109.896 65.3465 109.898ZM60.4643 110.297L58.0016 110.498C57.9168 110.505 57.8326 110.478 57.7678 110.423C57.7029 110.368 57.6626 110.289 57.6558 110.205C57.6489 110.12 57.6761 110.036 57.7313 109.971C57.7864 109.907 57.8651 109.866 57.95 109.859L60.4126 109.661C60.4558 109.655 60.4997 109.657 60.5418 109.669C60.5839 109.68 60.6231 109.7 60.6572 109.728C60.6912 109.755 60.7193 109.789 60.7398 109.827C60.7602 109.865 60.7726 109.908 60.7761 109.951C60.7797 109.994 60.7743 110.038 60.7603 110.079C60.7463 110.12 60.724 110.158 60.6948 110.191C60.6656 110.223 60.6301 110.249 60.5904 110.267C60.5508 110.285 60.5078 110.295 60.4643 110.296V110.297ZM55.5235 110.7L53.0293 110.904C52.944 110.911 52.8596 110.884 52.7945 110.828C52.7295 110.773 52.6891 110.694 52.6823 110.609C52.6755 110.524 52.7029 110.44 52.7583 110.375C52.8138 110.31 52.8928 110.27 52.9781 110.263L55.4709 110.061C55.5557 110.054 55.6398 110.082 55.7047 110.137C55.7695 110.192 55.8097 110.27 55.8165 110.355C55.8233 110.44 55.7961 110.524 55.7409 110.588C55.6856 110.653 55.607 110.693 55.5221 110.7L55.5235 110.7ZM50.5228 111.111L48.0007 111.315C47.9571 111.32 47.9129 111.317 47.8706 111.305C47.8284 111.293 47.789 111.272 47.7549 111.245C47.7208 111.217 47.6927 111.183 47.6723 111.144C47.6519 111.105 47.6396 111.063 47.6362 111.019C47.6327 110.975 47.6382 110.931 47.6523 110.89C47.6664 110.848 47.6888 110.81 47.7181 110.777C47.7475 110.745 47.7831 110.718 47.823 110.7C47.8629 110.681 47.906 110.671 47.95 110.67L50.4729 110.466C50.5584 110.459 50.6431 110.487 50.7083 110.542C50.7735 110.598 50.8139 110.677 50.8206 110.762C50.8273 110.847 50.7998 110.932 50.7441 110.997C50.6885 111.062 50.6092 111.102 50.5237 111.109L50.5228 111.111ZM45.4613 111.524L42.9072 111.733C42.8638 111.737 42.82 111.733 42.7782 111.72C42.7364 111.708 42.6975 111.687 42.6637 111.66C42.63 111.632 42.6021 111.598 42.5815 111.56C42.561 111.521 42.5484 111.479 42.5443 111.436C42.5391 111.348 42.5691 111.261 42.6277 111.195C42.6863 111.129 42.7687 111.089 42.8569 111.083L45.4105 110.877C45.4539 110.872 45.4977 110.876 45.5394 110.889C45.5812 110.901 45.62 110.922 45.6535 110.95C45.6871 110.977 45.7147 111.012 45.7348 111.05C45.7548 111.089 45.7669 111.131 45.7703 111.174C45.7737 111.218 45.7684 111.261 45.7546 111.303C45.7407 111.344 45.7188 111.382 45.69 111.415C45.6611 111.447 45.6261 111.474 45.5868 111.493C45.5475 111.511 45.5048 111.522 45.4613 111.524ZM40.3376 111.943L37.752 112.154C37.7083 112.158 37.6642 112.154 37.6222 112.141C37.5801 112.129 37.541 112.108 37.507 112.08C37.473 112.052 37.4449 112.018 37.4242 111.98C37.4035 111.941 37.3906 111.899 37.3863 111.855C37.3818 111.766 37.4126 111.679 37.472 111.613C37.5314 111.546 37.6146 111.506 37.7036 111.5L40.2887 111.292C40.3323 111.287 40.3764 111.291 40.4185 111.304C40.4605 111.316 40.4997 111.337 40.5337 111.365C40.5676 111.392 40.5958 111.426 40.6165 111.465C40.6373 111.504 40.6501 111.546 40.6544 111.589C40.6588 111.678 40.6279 111.764 40.5686 111.83C40.5092 111.896 40.4262 111.936 40.3376 111.941V111.943ZM35.1513 112.29C35.1281 112.292 35.1047 112.292 35.0814 112.29C34.1415 112.187 33.2616 111.779 32.5767 111.128C32.5451 111.098 32.52 111.062 32.5031 111.021C32.4861 110.981 32.4776 110.938 32.4781 110.894C32.4787 110.85 32.4882 110.807 32.5061 110.767C32.524 110.727 32.5499 110.691 32.5822 110.662C32.6487 110.6 32.7364 110.565 32.8274 110.565C32.9185 110.565 33.0062 110.6 33.0727 110.662C33.6462 111.207 34.3832 111.55 35.1705 111.637C35.2144 111.641 35.257 111.653 35.2958 111.674C35.3347 111.694 35.369 111.722 35.3968 111.756C35.4245 111.79 35.4452 111.83 35.4574 111.872C35.4697 111.914 35.4733 111.958 35.4681 112.002C35.4555 112.078 35.4173 112.148 35.3598 112.2C35.3023 112.252 35.2288 112.283 35.1513 112.288V112.29ZM76.766 107.604C76.7075 107.609 76.6489 107.597 76.5968 107.57C76.5448 107.543 76.5013 107.502 76.4714 107.452C76.4416 107.401 76.4264 107.344 76.4277 107.285C76.429 107.226 76.4468 107.169 76.4789 107.12C76.8797 106.517 77.063 105.795 76.9987 105.073C76.995 105.033 76.9995 104.992 77.0119 104.953C77.0242 104.914 77.0442 104.878 77.0706 104.847C77.097 104.816 77.1293 104.79 77.1657 104.772C77.2021 104.753 77.2418 104.742 77.2825 104.739C77.3652 104.733 77.4469 104.76 77.51 104.814C77.573 104.867 77.6123 104.944 77.6194 105.026C77.6964 105.886 77.4781 106.746 77.0005 107.466C76.9744 107.505 76.9397 107.538 76.8991 107.562C76.8584 107.585 76.8129 107.599 76.766 107.603V107.604ZM31.7479 109.006C31.5618 109.021 31.3922 108.9 31.3721 108.723C31.3666 108.675 31.3566 108.632 31.3529 108.583L31.1765 106.229C31.1628 106.047 31.2775 105.888 31.4686 105.874C31.5111 105.87 31.5541 105.874 31.5947 105.888C31.6354 105.901 31.6729 105.922 31.705 105.95C31.737 105.978 31.7629 106.013 31.781 106.052C31.7991 106.09 31.809 106.132 31.8101 106.175L31.987 108.526C31.9902 108.568 32.029 108.604 32.0327 108.645C32.0389 108.688 32.0362 108.731 32.0247 108.773C32.0132 108.815 31.9932 108.854 31.9659 108.888C31.9386 108.922 31.9047 108.95 31.8661 108.97C31.8276 108.99 31.7853 109.002 31.742 109.005C31.7383 109.004 31.752 109.004 31.7479 109.005V109.006ZM77.2693 104.175C77.0979 104.188 77.0055 104.06 76.9909 103.888L76.7902 101.536C76.776 101.365 76.8446 101.217 77.016 101.203C77.1875 101.189 77.2798 101.319 77.2944 101.49L77.4947 103.84C77.5093 104.01 77.4407 104.16 77.2693 104.173V104.175ZM31.3314 104.045C31.2889 104.049 31.2459 104.044 31.2053 104.031C31.1646 104.018 31.1271 103.996 31.095 103.968C31.063 103.94 31.0371 103.905 31.0189 103.867C31.0008 103.828 30.9908 103.786 30.9895 103.744L30.803 101.26C30.7897 101.078 30.904 100.921 31.0956 100.908C31.1381 100.904 31.181 100.909 31.2216 100.922C31.2622 100.935 31.2996 100.957 31.3316 100.985C31.3635 101.014 31.3893 101.048 31.4074 101.087C31.4255 101.125 31.4354 101.167 31.4366 101.21L31.6231 103.691C31.635 103.87 31.5225 104.029 31.3314 104.043V104.045ZM76.8688 99.474C76.6974 99.4859 76.605 99.3573 76.5904 99.1862L76.3902 96.8386C76.376 96.6675 76.4446 96.5192 76.616 96.5083C76.7875 96.4973 76.8798 96.626 76.8944 96.7966L77.0942 99.1424C77.1088 99.3112 77.0403 99.4581 76.8688 99.4722V99.474ZM30.9584 99.0826C30.9158 99.0863 30.8728 99.0813 30.8322 99.0678C30.7916 99.0543 30.7542 99.0328 30.7222 99.0044C30.6902 98.976 30.6644 98.9413 30.6463 98.9026C30.6282 98.8639 30.6182 98.8219 30.6169 98.7792L30.4309 96.3012C30.4172 96.1187 30.5319 95.964 30.723 95.9521C30.7656 95.9487 30.8085 95.9539 30.849 95.9674C30.8896 95.981 30.9269 96.0026 30.9588 96.0311C30.9907 96.0595 31.0165 96.0941 31.0346 96.1327C31.0527 96.1714 31.0627 96.2133 31.064 96.256L31.2501 98.7318C31.2638 98.9106 31.1495 99.068 30.9584 99.0808V99.0826ZM76.4693 94.7829C76.2979 94.7939 76.2051 94.6643 76.1909 94.4932L75.9911 92.1506C75.9765 91.98 76.0455 91.8313 76.2169 91.8231C76.3884 91.8148 76.4803 91.943 76.4949 92.1132L76.6947 94.454C76.7093 94.6223 76.6403 94.7701 76.4693 94.7811V94.7829ZM30.5863 94.131C30.5436 94.1343 30.5007 94.129 30.4601 94.1154C30.4196 94.1017 30.3822 94.08 30.3503 94.0515C30.3184 94.023 30.2926 93.9884 30.2744 93.9496C30.2563 93.9109 30.2462 93.869 30.2448 93.8263L30.0592 91.3532C30.046 91.1734 30.1603 91.0179 30.3513 91.0074C30.394 91.0041 30.4369 91.0096 30.4774 91.0234C30.518 91.0371 30.5553 91.059 30.5871 91.0876C30.6189 91.1161 30.6446 91.1508 30.6626 91.1896C30.6807 91.2283 30.6906 91.2703 30.6919 91.313L30.878 93.7829C30.8917 93.9613 30.7774 94.1178 30.5863 94.1292V94.131ZM76.072 90.1013C75.9006 90.1114 75.8083 89.9809 75.7936 89.8103L75.5948 87.4727C75.5801 87.3021 75.6492 87.157 75.8201 87.1479C75.9911 87.1388 76.0835 87.2692 76.0981 87.4394L76.2974 89.7752C76.3102 89.9435 76.2412 90.0895 76.0693 90.0995L76.072 90.1013ZM30.2165 89.1889C30.1738 89.1917 30.131 89.1859 30.0906 89.1719C30.0503 89.1579 30.0131 89.136 29.9813 89.1074C29.9496 89.0788 29.9239 89.0442 29.9058 89.0055C29.8877 88.9669 29.8775 88.925 29.8759 88.8824L29.6903 86.4152C29.677 86.2355 29.7913 86.0818 29.9824 86.0722C30.0252 86.0694 30.068 86.0752 30.1085 86.0893C30.1489 86.1033 30.1861 86.1254 30.2179 86.154C30.2496 86.1827 30.2753 86.2174 30.2934 86.2562C30.3114 86.295 30.3215 86.3369 30.323 86.3797L30.5059 88.8431C30.52 89.0233 30.4057 89.1775 30.2147 89.188L30.2165 89.1889ZM75.6739 85.4285C75.5029 85.4376 75.4101 85.3062 75.3959 85.136L75.197 82.803C75.1824 82.6333 75.2515 82.4896 75.4229 82.4809C75.5943 82.4723 75.6857 82.6046 75.7004 82.7743L75.8992 85.105C75.912 85.2743 75.843 85.4184 75.672 85.4276L75.6739 85.4285ZM29.8462 84.2588C29.8034 84.2615 29.7605 84.2557 29.72 84.2416C29.6796 84.2275 29.6423 84.2055 29.6106 84.1768C29.5788 84.148 29.5532 84.1132 29.5351 84.0744C29.5171 84.0356 29.5071 83.9936 29.5056 83.9508L29.3205 81.4873C29.3072 81.308 29.4215 81.1557 29.6126 81.1475C29.6554 81.1447 29.6983 81.1507 29.7388 81.1648C29.7793 81.179 29.8165 81.2012 29.8482 81.23C29.88 81.2588 29.9056 81.2937 29.9235 81.3326C29.9415 81.3714 29.9514 81.4135 29.9527 81.4563L30.1356 83.9157C30.1493 84.0954 30.035 84.2487 29.8444 84.2579L29.8462 84.2588ZM75.2766 80.7661C75.1056 80.7743 75.0133 80.642 74.9987 80.4723L74.8003 78.1457C74.7861 77.9759 74.8551 77.8336 75.0261 77.8263C75.197 77.819 75.2889 77.9513 75.3036 78.121L75.502 80.4476C75.5143 80.6142 75.4457 80.7574 75.2748 80.7652L75.2766 80.7661ZM29.4745 79.3395C29.4317 79.3419 29.3888 79.3358 29.3484 79.3214C29.308 79.3071 29.2708 79.2848 29.2391 79.256C29.2074 79.2272 29.1817 79.1923 29.1637 79.1535C29.1456 79.1146 29.1355 79.0726 29.134 79.0298L28.9968 77.1817C28.9819 76.9614 28.9865 76.7402 29.0105 76.5207C29.0284 76.3427 29.2007 76.2182 29.3904 76.2383C29.5801 76.2583 29.6866 76.4207 29.6688 76.6C29.651 76.7793 29.6144 76.9696 29.6286 77.1548L29.7657 79.001C29.7794 79.179 29.6652 79.3304 29.4745 79.3395ZM74.8807 76.1124C74.7097 76.1197 74.6169 75.9864 74.6028 75.8172L74.5644 75.3669C74.5155 74.7926 74.2649 74.2369 73.928 73.7579C73.8279 73.616 73.8366 73.4267 73.9765 73.3341C74.1164 73.2415 74.2869 73.2834 74.3879 73.4253C74.7812 73.9938 75.0161 74.6562 75.0686 75.345L75.1065 75.7948C75.118 75.9636 75.0489 76.1055 74.8807 76.1124ZM30.4519 74.7223C30.3554 74.7258 30.2613 74.6914 30.19 74.6265C30.1575 74.5983 30.1313 74.5638 30.1129 74.525C30.0946 74.4862 30.0845 74.444 30.0833 74.4011C30.0822 74.3582 30.09 74.3156 30.1062 74.2758C30.1224 74.2361 30.1467 74.2002 30.1776 74.1703C30.8548 73.5339 31.7238 73.1387 32.6494 73.0462C32.7382 73.0364 32.8276 73.0603 32.8996 73.1131C32.9717 73.1659 33.0212 73.2438 33.0384 73.3313C33.0441 73.374 33.0411 73.4173 33.0294 73.4587C33.0177 73.5 32.9976 73.5386 32.9704 73.5719C32.9432 73.6053 32.9095 73.6327 32.8712 73.6525C32.833 73.6723 32.7911 73.6841 32.7481 73.6872C31.9724 73.765 31.2443 74.0967 30.6773 74.6306C30.6153 74.6881 30.5342 74.7207 30.4496 74.7223H30.4519ZM72.2709 72.4924C72.2324 72.4936 72.194 72.4879 72.1575 72.4755C71.7774 72.3484 71.3774 72.2908 70.9767 72.3053L69.9166 72.3432C69.8329 72.3459 69.7513 72.3168 69.6883 72.2618C69.6254 72.2067 69.5857 72.1298 69.5774 72.0467C69.5737 72.0066 69.5784 71.9662 69.5911 71.928C69.6038 71.8897 69.6243 71.8546 69.6512 71.8246C69.6782 71.7946 69.711 71.7705 69.7477 71.7538C69.7844 71.737 69.8241 71.728 69.8645 71.7273L70.925 71.6899C71.4027 71.6733 71.8795 71.7425 72.3326 71.8943C72.4118 71.9192 72.4782 71.9739 72.5178 72.0467C72.5574 72.1196 72.5671 72.205 72.5447 72.2848C72.5266 72.3441 72.4901 72.3961 72.4405 72.4334C72.3909 72.4707 72.3307 72.4913 72.2686 72.4924H72.2709ZM67.5385 72.4285L65.1468 72.5143C65.0624 72.5172 64.9801 72.4881 64.9165 72.4327C64.8529 72.3772 64.8128 72.2998 64.8044 72.2159C64.8011 72.1756 64.8062 72.1351 64.8193 72.0968C64.8323 72.0585 64.8531 72.0233 64.8804 71.9934C64.9076 71.9634 64.9408 71.9394 64.9777 71.9228C65.0146 71.9061 65.0546 71.8972 65.0951 71.8966L67.4869 71.8126C67.5708 71.8099 67.6526 71.8391 67.7158 71.8944C67.7789 71.9496 67.8187 72.0267 67.827 72.1101C67.8304 72.1504 67.8254 72.191 67.8124 72.2292C67.7994 72.2675 67.7785 72.3027 67.7512 72.3326C67.724 72.3625 67.6908 72.3864 67.6538 72.4029C67.6168 72.4194 67.5768 72.4282 67.5363 72.4285H67.5385ZM62.7408 72.6005L60.318 72.6876C60.2329 72.6909 60.1498 72.6616 60.0856 72.6058C60.0214 72.5501 59.9809 72.472 59.9724 72.3875C59.9691 72.3466 59.9743 72.3056 59.9876 72.2668C60.0009 72.2281 60.022 72.1924 60.0496 72.1622C60.0773 72.1319 60.1108 72.1076 60.1483 72.0908C60.1857 72.074 60.2262 72.065 60.2672 72.0645L62.6869 71.9796C62.7716 71.9766 62.8543 72.0059 62.9182 72.0614C62.9821 72.117 63.0225 72.1947 63.0311 72.2789C63.0344 72.3195 63.0294 72.3603 63.0162 72.3989C63.0031 72.4374 62.9822 72.4729 62.9547 72.503C62.9273 72.5332 62.894 72.5574 62.8568 72.5742C62.8196 72.5909 62.7793 72.5999 62.7385 72.6005H62.7408ZM57.886 72.7748L55.4366 72.8628C55.3508 72.8663 55.2669 72.837 55.202 72.7809C55.1371 72.7247 55.0961 72.6461 55.0873 72.5608C55.0842 72.5196 55.0896 72.4782 55.1031 72.4392C55.1167 72.4001 55.1381 72.3643 55.1661 72.3339C55.194 72.3034 55.228 72.279 55.2658 72.2622C55.3036 72.2454 55.3445 72.2364 55.3859 72.236L57.8348 72.1502C57.9201 72.1468 58.0036 72.176 58.0682 72.2318C58.1328 72.2877 58.1735 72.366 58.1822 72.4509C58.1855 72.492 58.1802 72.5335 58.1667 72.5725C58.1532 72.6116 58.1318 72.6474 58.1037 72.6778C58.0757 72.7082 58.0417 72.7325 58.0038 72.7492C57.966 72.7659 57.9251 72.7746 57.8837 72.7748H57.886ZM52.9708 72.9527L50.4926 73.0412C50.4061 73.045 50.3213 73.0158 50.2556 72.9594C50.19 72.903 50.1483 72.8238 50.1392 72.7378C50.1364 72.6962 50.142 72.6545 50.1559 72.6152C50.1698 72.5758 50.1917 72.5398 50.22 72.5092C50.2484 72.4786 50.2828 72.4541 50.321 72.4372C50.3592 72.4204 50.4005 72.4115 50.4423 72.4112L52.9205 72.324C53.0065 72.3206 53.0907 72.3499 53.1559 72.406C53.2211 72.4622 53.2625 72.541 53.2716 72.6265C53.2746 72.6679 53.269 72.7095 53.2553 72.7487C53.2416 72.7879 53.22 72.8239 53.1918 72.8545C53.1636 72.885 53.1295 72.9095 53.0915 72.9264C53.0535 72.9433 53.0124 72.9522 52.9708 72.9527ZM47.9993 73.1306L45.491 73.2218C45.4037 73.2257 45.3182 73.1963 45.2519 73.1395C45.1856 73.0827 45.1434 73.0029 45.134 72.9162C45.1312 72.8742 45.1371 72.8321 45.1513 72.7924C45.1655 72.7528 45.1876 72.7165 45.2164 72.6857C45.2452 72.6549 45.28 72.6304 45.3186 72.6135C45.3573 72.5967 45.399 72.5879 45.4412 72.5877L47.949 72.4997C48.0359 72.4957 48.121 72.525 48.1869 72.5816C48.2529 72.6381 48.2947 72.7177 48.3038 72.804C48.3063 72.8454 48.3004 72.887 48.2864 72.9261C48.2723 72.9652 48.2505 73.001 48.2221 73.0315C48.1938 73.0619 48.1595 73.0862 48.1215 73.103C48.0834 73.1199 48.0423 73.1288 48.0007 73.1292L47.9993 73.1306ZM42.9676 73.3131L40.429 73.4043C40.341 73.4087 40.2547 73.3793 40.1876 73.3223C40.1206 73.2652 40.0779 73.1847 40.0684 73.0973C40.0657 73.0549 40.0719 73.0123 40.0863 72.9723C40.1008 72.9323 40.1232 72.8957 40.1524 72.8647C40.1816 72.8337 40.2168 72.8089 40.2558 72.792C40.2949 72.775 40.3371 72.7662 40.3797 72.7661L42.9182 72.6749C43.0058 72.6708 43.0916 72.7001 43.1582 72.757C43.2248 72.8139 43.2671 72.894 43.2766 72.981C43.2792 73.0231 43.2732 73.0654 43.2588 73.1051C43.2445 73.1448 43.2222 73.1812 43.1932 73.212C43.1643 73.2428 43.1293 73.2674 43.0905 73.2842C43.0517 73.3011 43.0099 73.3098 42.9676 73.3099V73.3131ZM37.875 73.4956L35.3054 73.5868C35.2164 73.5916 35.129 73.5622 35.061 73.5047C34.993 73.4472 34.9496 73.3659 34.9397 73.2775C34.9373 73.2347 34.9437 73.1918 34.9585 73.1516C34.9733 73.1113 34.9961 73.0745 35.0256 73.0433C35.0552 73.0122 35.0907 72.9873 35.1302 72.9703C35.1696 72.9533 35.2121 72.9445 35.2551 72.9445L37.8247 72.8532C37.9131 72.8488 37.9998 72.8781 38.0672 72.9354C38.1346 72.9926 38.1775 73.0734 38.1872 73.1612C38.1896 73.2037 38.1834 73.2462 38.1688 73.2862C38.1542 73.3262 38.1316 73.3629 38.1024 73.3939C38.0732 73.4249 38.038 73.4497 37.9989 73.4667C37.9598 73.4837 37.9176 73.4926 37.875 73.4928V73.4956Z" fill="white"/>
</g>
<path id="Vector_75" d="M79.1271 82.041C78.9974 81.96 78.85 81.9114 78.6974 81.8994C78.5448 81.8874 78.3916 81.9124 78.2508 81.9721L69.2309 85.8234C67.9367 86.3813 67.0535 87.6892 67.1705 89.0957L67.4819 92.8343C67.6067 94.3311 68.8195 95.582 70.3056 95.9086L79.64 97.9483C79.7865 97.9805 79.9385 97.9784 80.0841 97.9422C80.2296 97.9059 80.3647 97.8365 80.4789 97.7394C80.5915 97.6428 80.6799 97.5212 80.7369 97.3844C80.794 97.2476 80.8182 97.0993 80.8076 96.9515L79.5884 82.7983C79.5766 82.6448 79.5286 82.4962 79.4485 82.3646C79.3683 82.233 79.2582 82.1221 79.1271 82.041Z" fill="url(#paint45_linear_201_12250)"/>
<path id="Vector_76" d="M73.1694 90.5401C73.1905 90.7851 73.162 91.0319 73.0856 91.2657C73.0092 91.4995 72.8864 91.7156 72.7246 91.9011C72.5627 92.0866 72.3652 92.2377 72.1436 92.3455C71.9221 92.4532 71.6811 92.5153 71.435 92.5282C70.3863 92.5921 69.4633 91.801 69.3778 90.7618C69.3567 90.5161 69.3855 90.2687 69.4624 90.0344C69.5394 89.8 69.6629 89.5836 69.8257 89.3981C69.9884 89.2125 70.187 89.0617 70.4096 88.9545C70.6321 88.8474 70.8741 88.7862 71.1209 88.7746C72.165 88.7157 73.0816 89.5059 73.1694 90.5401Z" fill="url(#paint46_linear_201_12250)"/>
</g>
</g>
</g>
<defs>
<linearGradient id="paint0_linear_201_12250" x1="14.5008" y1="56.8858" x2="33.5431" y2="204.613" gradientUnits="userSpaceOnUse">
<stop stop-color="#FF9085"/>
<stop offset="1" stop-color="#FB6FBB"/>
</linearGradient>
<linearGradient id="paint1_linear_201_12250" x1="105.765" y1="118.025" x2="110.965" y2="118.267" gradientUnits="userSpaceOnUse">
<stop stop-color="#444B8C"/>
<stop offset="1" stop-color="#26264F"/>
</linearGradient>
<linearGradient id="paint2_linear_201_12250" x1="110.098" y1="112.005" x2="107.272" y2="116.658" gradientUnits="userSpaceOnUse">
<stop stop-color="#FFC444"/>
<stop offset="1" stop-color="#F36F56"/>
</linearGradient>
<linearGradient id="paint3_linear_201_12250" x1="111.175" y1="120.121" x2="118.339" y2="120.121" gradientUnits="userSpaceOnUse">
<stop stop-color="#444B8C"/>
<stop offset="1" stop-color="#26264F"/>
</linearGradient>
<linearGradient id="paint4_linear_201_12250" x1="115.074" y1="119.758" x2="117.825" y2="114.051" gradientUnits="userSpaceOnUse">
<stop stop-color="#FFC444"/>
<stop offset="1" stop-color="#F36F56"/>
</linearGradient>
<linearGradient id="paint5_linear_201_12250" x1="98.633" y1="43.8395" x2="103.897" y2="62.549" gradientUnits="userSpaceOnUse">
<stop stop-color="#311944"/>
<stop offset="1" stop-color="#893976"/>
</linearGradient>
<linearGradient id="paint6_linear_201_12250" x1="107.759" y1="41.3108" x2="118.098" y2="78.0599" gradientUnits="userSpaceOnUse">
<stop stop-color="#311944"/>
<stop offset="1" stop-color="#893976"/>
</linearGradient>
<linearGradient id="paint7_linear_201_12250" x1="101.793" y1="37.9102" x2="112.132" y2="74.6598" gradientUnits="userSpaceOnUse">
<stop stop-color="#311944"/>
<stop offset="1" stop-color="#893976"/>
</linearGradient>
<linearGradient id="paint8_linear_201_12250" x1="111.375" y1="48.875" x2="107.552" y2="40.8958" gradientUnits="userSpaceOnUse">
<stop stop-color="#FFC444"/>
<stop offset="1" stop-color="#F36F56"/>
</linearGradient>
<linearGradient id="paint9_linear_201_12250" x1="109.04" y1="35.9907" x2="109.464" y2="42.8618" gradientUnits="userSpaceOnUse">
<stop stop-color="#444B8C"/>
<stop offset="1" stop-color="#26264F"/>
</linearGradient>
<linearGradient id="paint10_linear_201_12250" x1="109.373" y1="41.1542" x2="107.407" y2="56.4538" gradientUnits="userSpaceOnUse">
<stop stop-color="#FFC444"/>
<stop offset="1" stop-color="#F36F56"/>
</linearGradient>
<linearGradient id="paint11_linear_201_12250" x1="107.161" y1="42.619" x2="107.215" y2="44.562" gradientUnits="userSpaceOnUse">
<stop stop-color="#FFC444"/>
<stop offset="1" stop-color="#F36F56"/>
</linearGradient>
<linearGradient id="paint12_linear_201_12250" x1="102.91" y1="37.5944" x2="113.25" y2="74.3439" gradientUnits="userSpaceOnUse">
<stop stop-color="#311944"/>
<stop offset="1" stop-color="#893976"/>
</linearGradient>
<linearGradient id="paint13_linear_201_12250" x1="118.352" y1="39.7025" x2="116.505" y2="67.6159" gradientUnits="userSpaceOnUse">
<stop stop-color="#311944"/>
<stop offset="1" stop-color="#893976"/>
</linearGradient>
<linearGradient id="paint14_linear_201_12250" x1="104.068" y1="63.4967" x2="104.302" y2="57.2581" gradientUnits="userSpaceOnUse">
<stop stop-color="#FFC444"/>
<stop offset="1" stop-color="#F36F56"/>
</linearGradient>
<linearGradient id="paint15_linear_201_12250" x1="107.22" y1="66.865" x2="107.418" y2="61.5685" gradientUnits="userSpaceOnUse">
<stop stop-color="#FFC444"/>
<stop offset="1" stop-color="#F36F56"/>
</linearGradient>
<linearGradient id="paint16_linear_201_12250" x1="10.8132" y1="60.9992" x2="85.064" y2="62.4798" gradientUnits="userSpaceOnUse">
<stop stop-color="#444B8C"/>
<stop offset="1" stop-color="#26264F"/>
</linearGradient>
<linearGradient id="paint17_linear_201_12250" x1="20.0043" y1="59.903" x2="118.203" y2="101.434" gradientUnits="userSpaceOnUse">
<stop stop-color="#AA80F9"/>
<stop offset="1" stop-color="#6165D7"/>
</linearGradient>
<linearGradient id="paint18_linear_201_12250" x1="10.6512" y1="64.1669" x2="114.01" y2="107.881" gradientUnits="userSpaceOnUse">
<stop stop-color="#AA80F9"/>
<stop offset="1" stop-color="#6165D7"/>
</linearGradient>
<linearGradient id="paint19_linear_201_12250" x1="57.0906" y1="50.3411" x2="73.3349" y2="57.2115" gradientUnits="userSpaceOnUse">
<stop stop-color="#AA80F9"/>
<stop offset="1" stop-color="#6165D7"/>
</linearGradient>
<linearGradient id="paint20_linear_201_12250" x1="46.865" y1="78.7486" x2="86.3067" y2="31.0414" gradientUnits="userSpaceOnUse">
<stop stop-color="#AA80F9"/>
<stop offset="1" stop-color="#6165D7"/>
</linearGradient>
<linearGradient id="paint21_linear_201_12250" x1="68.8185" y1="33.1908" x2="48.535" y2="86.3331" gradientUnits="userSpaceOnUse">
<stop stop-color="#311944"/>
<stop offset="1" stop-color="#893976"/>
</linearGradient>
<linearGradient id="paint22_linear_201_12250" x1="44.5953" y1="81.101" x2="69.2066" y2="4.48715" gradientUnits="userSpaceOnUse">
<stop stop-color="#E38DDD"/>
<stop offset="1" stop-color="#9571F6"/>
</linearGradient>
<linearGradient id="paint23_linear_201_12250" x1="33.5852" y1="82.4606" x2="55.4144" y2="61.8751" gradientUnits="userSpaceOnUse">
<stop stop-color="#F68252"/>
<stop offset="0.04" stop-color="#F99A4D"/>
<stop offset="0.08" stop-color="#FCAD49"/>
<stop offset="0.13" stop-color="#FEBA46"/>
<stop offset="0.2" stop-color="#FFC244"/>
<stop offset="0.32" stop-color="#FFC444"/>
<stop offset="0.45" stop-color="#FDB946"/>
<stop offset="0.69" stop-color="#F99C4C"/>
<stop offset="1" stop-color="#F36F56"/>
</linearGradient>
<linearGradient id="paint24_linear_201_12250" x1="44.6859" y1="74.8692" x2="46.1558" y2="69.6321" gradientUnits="userSpaceOnUse">
<stop stop-color="#FF9085"/>
<stop offset="1" stop-color="#FB6FBB"/>
</linearGradient>
<linearGradient id="paint25_linear_201_12250" x1="41.9281" y1="75.5266" x2="43.273" y2="70.7352" gradientUnits="userSpaceOnUse">
<stop stop-color="#FF9085"/>
<stop offset="1" stop-color="#FB6FBB"/>
</linearGradient>
<linearGradient id="paint26_linear_201_12250" x1="43.0341" y1="75.9763" x2="44.3796" y2="71.1827" gradientUnits="userSpaceOnUse">
<stop stop-color="#FF9085"/>
<stop offset="1" stop-color="#FB6FBB"/>
</linearGradient>
<linearGradient id="paint27_linear_201_12250" x1="44.1365" y1="76.4274" x2="45.4826" y2="71.6311" gradientUnits="userSpaceOnUse">
<stop stop-color="#FF9085"/>
<stop offset="1" stop-color="#FB6FBB"/>
</linearGradient>
<linearGradient id="paint28_linear_201_12250" x1="45.1273" y1="73.7788" x2="45.968" y2="70.7833" gradientUnits="userSpaceOnUse">
<stop stop-color="#FF9085"/>
<stop offset="1" stop-color="#FB6FBB"/>
</linearGradient>
<linearGradient id="paint29_linear_201_12250" x1="54.2053" y1="84.2771" x2="78.0654" y2="10.0023" gradientUnits="userSpaceOnUse">
<stop stop-color="#FB6FBB"/>
<stop offset="1" stop-color="#FF9085"/>
</linearGradient>
<linearGradient id="paint30_linear_201_12250" x1="58.5009" y1="80.7881" x2="61.4474" y2="70.2902" gradientUnits="userSpaceOnUse">
<stop stop-color="#FB6FBB"/>
<stop offset="1" stop-color="#FF9085"/>
</linearGradient>
<linearGradient id="paint31_linear_201_12250" x1="64.651" y1="65.9618" x2="68.4876" y2="52.2925" gradientUnits="userSpaceOnUse">
<stop stop-color="#FB6FBB"/>
<stop offset="1" stop-color="#FF9085"/>
</linearGradient>
<linearGradient id="paint32_linear_201_12250" x1="51.2804" y1="46.7206" x2="52.4675" y2="39.2859" gradientUnits="userSpaceOnUse">
<stop stop-color="#FF9085"/>
<stop offset="1" stop-color="#FB6FBB"/>
</linearGradient>
<linearGradient id="paint33_linear_201_12250" x1="36.7519" y1="65.0502" x2="20.589" y2="70.2479" gradientUnits="userSpaceOnUse">
<stop stop-color="#FCB148"/>
<stop offset="0.05" stop-color="#FDBA46"/>
<stop offset="0.14" stop-color="#FFC244"/>
<stop offset="0.32" stop-color="#FFC444"/>
<stop offset="0.48" stop-color="#FDB946"/>
<stop offset="0.78" stop-color="#F99C4D"/>
<stop offset="0.87" stop-color="#F8924F"/>
<stop offset="1" stop-color="#F8924F"/>
</linearGradient>
<linearGradient id="paint34_linear_201_12250" x1="49.8335" y1="48.9883" x2="35.4475" y2="80.7914" gradientUnits="userSpaceOnUse">
<stop stop-color="#FFDB44"/>
<stop offset="1" stop-color="#FEEF06"/>
</linearGradient>
<linearGradient id="paint35_linear_201_12250" x1="47.1762" y1="82.5444" x2="44.4019" y2="67.3581" gradientUnits="userSpaceOnUse">
<stop stop-color="#FCB148"/>
<stop offset="0.05" stop-color="#FDBA46"/>
<stop offset="0.14" stop-color="#FFC244"/>
<stop offset="0.32" stop-color="#FFC444"/>
<stop offset="0.48" stop-color="#FDB946"/>
<stop offset="0.78" stop-color="#F99C4D"/>
<stop offset="0.87" stop-color="#F8924F"/>
<stop offset="1" stop-color="#F8924F"/>
</linearGradient>
<linearGradient id="paint36_linear_201_12250" x1="41.2725" y1="57.9672" x2="52.7122" y2="82.3014" gradientUnits="userSpaceOnUse">
<stop stop-color="#FCB148"/>
<stop offset="0.05" stop-color="#FDBA46"/>
<stop offset="0.14" stop-color="#FFC244"/>
<stop offset="0.32" stop-color="#FFC444"/>
<stop offset="0.48" stop-color="#FDB946"/>
<stop offset="0.78" stop-color="#F99C4D"/>
<stop offset="0.87" stop-color="#F8924F"/>
<stop offset="1" stop-color="#F8924F"/>
</linearGradient>
<linearGradient id="paint37_linear_201_12250" x1="37.8956" y1="59.5403" x2="49.3125" y2="83.8256" gradientUnits="userSpaceOnUse">
<stop stop-color="#FCB148"/>
<stop offset="0.05" stop-color="#FDBA46"/>
<stop offset="0.14" stop-color="#FFC244"/>
<stop offset="0.32" stop-color="#FFC444"/>
<stop offset="0.48" stop-color="#FDB946"/>
<stop offset="0.78" stop-color="#F99C4D"/>
<stop offset="0.87" stop-color="#F8924F"/>
<stop offset="1" stop-color="#F8924F"/>
</linearGradient>
<linearGradient id="paint38_linear_201_12250" x1="35.6831" y1="35.0191" x2="24.7972" y2="38.5203" gradientUnits="userSpaceOnUse">
<stop stop-color="#FCB148"/>
<stop offset="0.05" stop-color="#FDBA46"/>
<stop offset="0.14" stop-color="#FFC244"/>
<stop offset="0.32" stop-color="#FFC444"/>
<stop offset="0.48" stop-color="#FDB946"/>
<stop offset="0.78" stop-color="#F99C4D"/>
<stop offset="0.87" stop-color="#F8924F"/>
<stop offset="1" stop-color="#F8924F"/>
</linearGradient>
<linearGradient id="paint39_linear_201_12250" x1="44.4919" y1="24.2018" x2="34.803" y2="45.6214" gradientUnits="userSpaceOnUse">
<stop stop-color="#FFDB44"/>
<stop offset="1" stop-color="#FEEF06"/>
</linearGradient>
<linearGradient id="paint40_linear_201_12250" x1="42.7034" y1="46.8028" x2="40.8352" y2="36.5748" gradientUnits="userSpaceOnUse">
<stop stop-color="#FCB148"/>
<stop offset="0.05" stop-color="#FDBA46"/>
<stop offset="0.14" stop-color="#FFC244"/>
<stop offset="0.32" stop-color="#FFC444"/>
<stop offset="0.48" stop-color="#FDB946"/>
<stop offset="0.78" stop-color="#F99C4D"/>
<stop offset="0.87" stop-color="#F8924F"/>
<stop offset="1" stop-color="#F8924F"/>
</linearGradient>
<linearGradient id="paint41_linear_201_12250" x1="38.7264" y1="30.2497" x2="46.4311" y2="46.6391" gradientUnits="userSpaceOnUse">
<stop stop-color="#FCB148"/>
<stop offset="0.05" stop-color="#FDBA46"/>
<stop offset="0.14" stop-color="#FFC244"/>
<stop offset="0.32" stop-color="#FFC444"/>
<stop offset="0.48" stop-color="#FDB946"/>
<stop offset="0.78" stop-color="#F99C4D"/>
<stop offset="0.87" stop-color="#F8924F"/>
<stop offset="1" stop-color="#F8924F"/>
</linearGradient>
<linearGradient id="paint42_linear_201_12250" x1="36.4516" y1="31.3087" x2="44.1409" y2="47.6653" gradientUnits="userSpaceOnUse">
<stop stop-color="#FCB148"/>
<stop offset="0.05" stop-color="#FDBA46"/>
<stop offset="0.14" stop-color="#FFC244"/>
<stop offset="0.32" stop-color="#FFC444"/>
<stop offset="0.48" stop-color="#FDB946"/>
<stop offset="0.78" stop-color="#F99C4D"/>
<stop offset="0.87" stop-color="#F8924F"/>
<stop offset="1" stop-color="#F8924F"/>
</linearGradient>
<linearGradient id="paint43_linear_201_12250" x1="61.1434" y1="24.6534" x2="47.0139" y2="149.439" gradientUnits="userSpaceOnUse">
<stop stop-color="#AB316D"/>
<stop offset="1" stop-color="#792D3D"/>
</linearGradient>
<linearGradient id="paint44_linear_201_12250" x1="201.536" y1="35.1611" x2="-0.100134" y2="111.407" gradientUnits="userSpaceOnUse">
<stop stop-color="#AB316D"/>
<stop offset="1" stop-color="#792D3D"/>
</linearGradient>
<linearGradient id="paint45_linear_201_12250" x1="123.288" y1="73.3458" x2="59.7509" y2="97.371" gradientUnits="userSpaceOnUse">
<stop stop-color="#AB316D"/>
<stop offset="1" stop-color="#792D3D"/>
</linearGradient>
<linearGradient id="paint46_linear_201_12250" x1="83.4103" y1="86.0807" x2="67.4697" y2="92.1087" gradientUnits="userSpaceOnUse">
<stop stop-color="#FFC444"/>
<stop offset="1" stop-color="#F36F56"/>
</linearGradient>
<clipPath id="clip0_201_12250">
<rect width="128" height="122" fill="white"/>
</clipPath>
</defs>
</svg>
