<svg width="127" height="125" viewBox="0 0 127 125" fill="none" xmlns="http://www.w3.org/2000/svg">
<g id="Frame" clip-path="url(#clip0_201_12208)">
<g id="Group">
<g id="Illustration">
<path id="Vector" d="M110.78 107.054C107.501 110.415 104.568 112.391 102.323 113.882C80.4209 128.43 55.3879 124.236 47.6482 122.803C35.1605 120.491 24.6192 118.86 15.5622 110.718C-5.01767 92.2218 -4.01657 53.6366 11.709 29.7343C13.5711 26.9005 29.2753 3.74628 54.3637 0.483768C54.9773 0.403937 55.4353 0.358508 55.8366 0.316167C59.7178 -0.0926947 83.7683 -2.24991 103.379 14.0948C106.187 16.4324 110.705 20.6547 114.894 27.0911C130.212 50.6295 130.26 87.0777 110.78 107.054Z" fill="#F4F7FA"/>
<path id="Vector_2" d="M116.34 59.64C116.34 85.5001 95.2753 107.422 68.3997 108.644C40.4875 109.913 17.0586 88.5271 17.0586 60.833C17.0586 33.139 40.4888 11.1893 68.3997 11.7873C95.2753 12.3642 116.34 33.7816 116.34 59.64Z" fill="url(#paint0_linear_201_12208)"/>
<path id="Vector_3" d="M118.551 59.64C118.551 85.5001 97.4862 107.422 70.6106 108.644C42.698 109.913 19.2695 88.5271 19.2695 60.833C19.2695 33.139 42.6998 11.1893 70.6106 11.7873C97.4862 12.3642 118.551 33.7816 118.551 59.64Z" fill="url(#paint1_linear_201_12208)"/>
<path id="Vector_4" d="M115.78 59.6716C115.78 84.0379 95.9095 104.654 70.6087 105.754C44.3911 106.894 22.4297 86.7813 22.4297 60.7928C22.4297 34.8043 44.3911 14.165 70.6087 14.6753C95.9095 15.1688 115.78 35.3071 115.78 59.6716Z" fill="url(#paint2_linear_201_12208)"/>
<path id="Vector_5" d="M51.918 33.5961C53.0727 32.6254 54.2921 31.7335 55.5677 30.9264C56.9185 30.0713 58.3457 29.3419 59.8311 28.7475C61.3512 28.1353 62.9974 27.6584 64.7696 27.3167C66.5363 26.9765 68.4427 26.8176 70.489 26.84C73.2606 26.8708 75.7768 27.2709 78.0376 28.0401C80.292 28.8063 82.2188 29.8838 83.8182 31.2726C85.4061 32.6479 86.6703 34.3539 87.5211 36.2698C88.393 38.2131 88.829 40.3847 88.829 42.7847C88.829 45.124 88.4866 47.1491 87.8017 48.8598C87.1169 50.5705 86.2507 52.0628 85.2032 53.3366C84.1978 54.5686 83.054 55.6821 81.7942 56.6555C80.5679 57.5964 79.4026 58.4834 78.2983 59.3164C77.1941 60.1494 76.237 60.968 75.4271 61.7722C74.6184 62.5753 74.1346 63.4756 73.9756 64.4733L72.8787 71.3048L64.7692 71.4649L63.9485 63.8254C63.9193 63.695 63.9031 63.562 63.9002 63.4284V63.0293C63.9002 61.6517 64.2549 60.4499 64.9643 59.424C65.6737 58.3981 66.5565 57.4355 67.6129 56.536C68.6693 55.6368 69.8041 54.7615 71.0175 53.9099C72.2117 53.0735 73.3443 52.1532 74.4065 51.156C75.4458 50.1818 76.3281 49.0541 77.0223 47.8127C77.7175 46.5704 78.0651 45.112 78.0651 43.4374C78.0651 42.3201 77.8519 41.3196 77.4254 40.436C77.0026 39.5566 76.3956 38.7774 75.6453 38.1505C74.8839 37.5112 73.971 37.0181 72.9066 36.6712C71.8423 36.3242 70.6864 36.1478 69.4391 36.1419C67.6145 36.1334 66.0674 36.3218 64.7976 36.7073C63.5278 37.0928 62.4476 37.5272 61.5571 38.0106C60.6677 38.4949 59.9153 38.9323 59.2999 39.3228C58.6845 39.7133 58.1328 39.9084 57.6448 39.9081C56.4744 39.9057 55.6283 39.4316 55.1066 38.4857L51.918 33.5961ZM61.1399 89.136C61.1371 88.1774 61.3266 87.228 61.6972 86.3432C62.0516 85.4795 62.5786 84.6964 63.2463 84.0413C63.9259 83.3834 64.719 82.8524 65.5876 82.4738C66.4975 82.0718 67.4786 81.854 68.4739 81.8329C69.4397 81.8021 70.4016 81.9672 71.3012 82.3181C72.1927 82.6674 72.9566 83.1442 73.5929 83.7484C74.2417 84.3724 74.7597 85.1182 75.1168 85.9427C75.4976 86.8032 75.692 87.7339 75.6874 88.6742C75.6944 89.6339 75.5001 90.5845 75.1168 91.4652C74.753 92.3078 74.2364 93.0765 73.5929 93.7331C72.9362 94.3921 72.1582 94.9192 71.3012 95.2856C70.409 95.6759 69.4502 95.8934 68.4761 95.9265C67.4948 95.9708 66.5143 95.8235 65.5899 95.4929C64.724 95.187 63.9281 94.7126 63.2485 94.0974C62.5825 93.4884 62.0544 92.7454 61.6994 91.9177C61.3275 91.0674 61.1416 90.1395 61.1416 89.1342L61.1399 89.136Z" fill="white"/>
<path id="Vector_6" style="mix-blend-mode:multiply" opacity="0.3" d="M48.9765 39.2338C47.3259 33.882 47.4017 25.7537 55.4496 13.7441C34.6861 19.6945 19.2656 38.4258 19.2656 60.832C19.2656 88.527 42.6959 109.913 70.6067 108.643C80.8989 108.175 90.3216 104.68 98.0214 99.1349C97.7829 91.7489 96.1673 83.6638 91.6251 76.2064C79.1378 55.702 54.1558 56.0249 48.9765 39.2338Z" fill="url(#paint3_linear_201_12208)"/>
<path id="Vector_7" d="M120.566 2.8349L85.5661 1.24709C83.007 1.17432 80.9259 3.12379 80.9259 5.6021V19.2308L75.332 24.5328L80.9259 24.6025L85.4433 24.6585L121.997 25.1132C122.57 25.1231 123.139 25.0192 123.671 24.8078C124.203 24.5964 124.687 24.2816 125.095 23.8819C125.503 23.4822 125.827 23.0055 126.048 22.4798C126.269 21.954 126.382 21.3897 126.381 20.82V6.75724C126.381 4.35567 122.991 2.90415 120.566 2.8349Z" fill="url(#paint4_linear_201_12208)"/>
<path id="Vector_8" d="M122.615 2.28402L86.1828 1.24709C83.6242 1.17432 81.5431 3.12379 81.5431 5.6021V19.2308L75.9492 24.5328L81.5431 24.6025L86.06 24.6585L122.615 25.1132C123.187 25.123 123.756 25.0191 124.288 24.8075C124.82 24.596 125.305 24.2811 125.713 23.8811C126.121 23.4812 126.445 23.0044 126.666 22.4785C126.887 21.9525 127 21.3881 126.999 20.8182V6.75679C126.999 4.35523 125.039 2.35282 122.615 2.28402Z" fill="url(#paint5_linear_201_12208)"/>
<g id="Group_2" opacity="0.54">
<path id="Vector_9" d="M86.0781 9.59151L121.981 10.4079V8.71953L86.0781 7.86035V9.59151Z" fill="white"/>
<path id="Vector_10" d="M86.0781 12.9612L121.981 13.6951V12.0067L86.0781 11.2305V12.9612Z" fill="white"/>
<path id="Vector_11" d="M100.203 16.5884L121.979 16.9832V15.2948L100.203 14.874V16.5884Z" fill="white"/>
</g>
<path id="Vector_12" d="M78.4423 116.211C84.7571 115.448 86.061 116.924 92.4853 116.635C98.8049 116.35 99.2385 114.845 104.401 115.153C109.042 115.43 115.019 117.024 115.042 118.751C115.065 120.653 107.881 123.327 100.998 122.349C97.168 121.806 97.4327 120.7 93.7639 120.232C87.1175 119.386 85.1627 122.879 78.4441 122.138C74.5558 121.709 70.4973 120.021 70.5713 118.751C70.6631 117.152 77.317 116.347 78.4423 116.211Z" fill="#D8DEE8"/>
<path id="Vector_13" d="M92.8455 116.758C90.8868 107.129 91.7301 99.3914 92.6199 94.7184C93.699 89.0499 95.8932 77.5254 105.102 71.1019C105.828 70.5955 113.032 65.6667 116.268 68.1146C117.937 69.3773 118.317 72.4264 117.588 74.8332C115.704 81.0469 107.21 80.3575 104.388 87.4294C103.448 89.7842 103.275 92.6582 103.93 92.929C104.737 93.2624 107.038 89.7485 107.257 89.4137C109.309 86.2822 109.328 84.5074 110.893 84.0267C111.854 83.7311 113.12 84.0081 113.686 84.7628C114.976 86.4829 112.428 90.3969 111.716 91.4916C109.854 94.3549 108.298 95.0055 107.919 97.4432C107.756 98.4929 107.786 100.045 108.411 100.286C109.257 100.614 110.873 98.4206 111.91 97.0136C114.696 93.2315 114.993 91.0324 116.379 90.8745C117.671 90.7277 119.127 92.4465 119.501 93.4935C120.521 96.3516 116.418 102.435 92.8455 116.758Z" fill="url(#paint6_linear_201_12208)"/>
<g id="Vector_14" style="mix-blend-mode:soft-light" opacity="0.28">
<path d="M93.1434 115.107C92.8508 106.159 94.3063 99.0663 95.6262 94.4118C97.3216 88.4288 100.51 77.1756 109.455 72.3059C110.091 71.9597 114.768 69.4139 116.074 70.7772C116.946 71.6862 116.174 74.1813 114.893 75.8335C112.707 78.6528 110.189 77.5342 106.619 80.3019C103.416 82.785 102.29 86.1291 102.008 87.006C100.963 90.2522 101.506 93.0357 101.653 94.0629C102.213 97.9552 101.068 104.334 93.1434 115.107Z" fill="white"/>
</g>
<g id="Vector_15" style="mix-blend-mode:soft-light" opacity="0.28">
<path d="M96.332 112.873C101.348 108.404 102.508 104.742 102.596 102.173C102.666 100.171 102.121 97.7949 103.66 95.5878C104.645 94.1764 105.387 94.4036 107.088 92.8837C110.642 89.7081 111.084 85.4298 111.816 85.5934C112.224 85.6852 112.437 87.0895 112.171 88.4162C111.624 91.1508 109.473 91.4392 107.324 94.7674C105.856 97.0398 105.347 99.249 105.079 100.413C104.424 103.249 104.868 104.244 104.488 105.822C103.994 107.862 102.207 110.5 96.332 112.873Z" fill="white"/>
</g>
<path id="Vector_16" d="M95.8617 118.314C104.557 118.81 107.142 119.328 111.24 117.939C115.09 116.634 119.04 114.063 118.693 112.884C118.444 112.037 116.027 112.048 114.583 112.055C110.708 112.073 107.513 113.254 105.272 114.395L111.073 110.478C112.423 109.998 114.709 108.979 116.732 106.823C117.999 105.475 120.91 101.821 119.816 100.065C118.673 98.232 113.242 98.602 110.112 101.203C108.61 102.451 108.607 103.406 106.594 105.584C105.128 107.165 103.426 108.512 101.549 109.58C103.312 107.393 104.744 104.961 105.798 102.362C107.796 97.4151 109.304 89.5895 106.763 88.1666C105.078 87.2232 101.735 89.1674 100.064 91.4719C98.7085 93.3402 98.8416 94.9073 97.9087 100.911C97.5035 103.521 97.1058 105.622 96.8478 106.927C94.2616 101.283 93.5115 96.5357 93.3599 93.046C93.1652 88.5627 93.911 85.0492 92.1872 84.1146C90.6505 83.2819 87.907 84.9085 86.5153 86.4319C80.8846 92.6041 88.3144 107.089 89.1001 108.584C86.2243 106.422 83.6447 103.896 81.4268 101.07C78.4772 97.3049 77.2313 94.502 75.7319 94.7529C74.2404 95.0026 73.2575 98.1614 73.3692 100.606C73.6796 107.421 82.6279 111.423 83.5829 111.835C82.4119 112.027 81.2163 112.014 80.0498 111.797C76.7144 111.163 75.6738 109.15 72.291 108.469C70.9963 108.207 68.3499 107.937 68.0241 108.734C67.4384 110.164 74.1229 115.539 82.2337 117.588C85.2043 118.341 84.4935 117.666 95.8617 118.314Z" fill="url(#paint7_linear_201_12208)"/>
<g id="Vector_17" style="mix-blend-mode:soft-light" opacity="0.28">
<path d="M101.6 113.384C105.559 111.634 105.021 109.253 109.352 106.305C112.125 104.417 112.77 105.105 115.741 103.3C117.229 102.393 118.592 101.298 119.797 100.043C119.802 100.051 119.809 100.058 119.814 100.066C120.908 101.821 117.996 105.475 116.73 106.824C114.706 108.978 112.421 109.999 111.071 110.479L105.27 114.395C107.512 113.254 110.707 112.073 114.581 112.055C115.839 112.049 117.838 112.04 118.494 112.599C117.331 113.317 116.284 113.662 115.432 113.834C113.49 114.228 112.271 113.787 110.591 114.795C109.243 115.603 109.355 116.29 108.168 116.728C107.051 117.14 106.481 116.705 103.724 116.255C101.043 115.817 99.6803 115.611 98.5971 116.288C97.7783 116.8 97.3433 117.644 97.1035 118.387C96.8256 118.37 96.5411 118.353 96.25 118.336C96.4655 117.483 96.8614 116.506 97.6156 115.634C98.8113 114.251 100.119 114.039 101.6 113.384Z" fill="white"/>
</g>
<g id="Vector_18" style="mix-blend-mode:soft-light" opacity="0.28">
<path d="M90.3171 116.411C89.6915 116.261 89.3927 116.706 88.5241 116.819C86.9098 117.027 86.3047 115.702 84.4071 115.072C82.161 114.327 81.5913 115.713 79.3528 115.024C77.582 114.478 77.8103 113.568 75.4955 112.245C73.0336 110.834 71.993 111.413 70.1814 110.248C69.6002 109.874 68.9365 109.317 68.3047 108.45C69.1001 108.021 71.1816 108.249 72.2838 108.472C75.668 109.155 76.7086 111.166 80.0426 111.8C81.2092 112.017 82.4048 112.03 83.5758 111.838C82.6208 111.426 73.6742 107.424 73.3621 100.609C73.2583 98.3412 74.0972 95.4611 75.4095 94.8564C75.2776 96.1781 75.2262 97.5065 75.2557 98.8344C75.3115 101.297 75.3559 102.549 76.1389 103.577C77.4973 105.359 79.1537 104.43 81.4113 106.283C83.4672 107.969 82.7511 109.277 84.8957 110.967C86.7462 112.422 87.8427 111.893 89.5842 113.075C90.6766 113.816 92.0032 115.221 92.8003 118.159C92.4376 118.142 92.0906 118.128 91.7593 118.115C91.4481 117.279 90.9914 116.571 90.3171 116.411Z" fill="white"/>
</g>
<g id="Vector_19" style="mix-blend-mode:soft-light" opacity="0.28">
<path d="M92.2707 107.124C91.1871 104.188 89.306 104.49 88.5212 101.904C87.7413 99.334 89.4478 98.5352 89.0129 94.8136C88.687 92.0252 87.6287 91.6146 87.5582 89.7092C87.5064 88.304 88.0043 86.3898 90.3071 84.0174C91.0054 83.8348 91.6642 83.8343 92.1847 84.1162C93.9085 85.0508 93.1628 88.5642 93.3574 93.0476C93.509 96.5372 94.2592 101.285 96.8453 106.928C97.1033 105.624 97.501 103.522 97.9063 100.912C98.8373 94.908 98.7043 93.3409 100.061 91.4735C101.733 89.1689 105.075 87.2247 106.761 88.1682C106.857 88.2226 106.948 88.2863 107.032 88.3583C106.162 88.9406 105.396 89.6622 104.763 90.4939C102.54 93.4406 103.805 95.5519 101.79 101.365C99.8513 106.955 97.885 107.301 96.3248 112.132C95.8265 113.675 95.3574 115.717 95.2607 118.282C94.6915 118.251 94.155 118.223 93.6469 118.198C93.1396 116.555 92.8126 114.861 92.6715 113.148C92.4104 109.967 93.0023 109.107 92.2707 107.124Z" fill="white"/>
</g>
<path id="Vector_20" d="M26.4439 115.709C36.2656 115.795 46.4731 115.885 46.791 118.009C47.0761 119.912 39.3066 122.635 34.7675 123.759C30.3166 124.862 22.6886 125.988 13.727 123.53C10.439 122.628 2.34504 119.975 2.62834 118.009C2.99013 115.504 16.7383 115.624 26.4439 115.709Z" fill="#D8DEE8"/>
<path id="Vector_21" d="M32.3247 117.627C32.0972 117.87 31.9726 118.19 31.9767 118.522C31.9768 118.607 31.9963 118.691 32.0338 118.768C32.0713 118.844 32.1257 118.911 32.193 118.963C32.4976 119.202 33.1684 119.673 34.2192 120.107C35.7027 120.722 36.2037 120.668 36.2662 120.422C36.3287 120.175 35.5657 119.504 34.9121 118.917C34.2586 118.331 32.3247 117.627 32.3247 117.627Z" fill="url(#paint8_linear_201_12208)"/>
<path id="Vector_22" d="M31.8555 115.333C31.8555 115.333 32.325 117.57 32.2851 118.386C32.2851 118.386 32.8783 118.909 33.7229 118.386C33.7229 118.386 33.2915 116.344 33.5039 115.497L31.8555 115.333Z" fill="url(#paint9_linear_201_12208)"/>
<path id="Vector_23" d="M15.7171 118.396C15.458 118.604 15.2898 118.904 15.2476 119.234C15.2358 119.318 15.2434 119.404 15.2699 119.485C15.2964 119.566 15.3411 119.64 15.4006 119.701C15.6666 119.979 16.27 120.539 17.2481 121.112C18.6313 121.926 19.1354 121.941 19.2312 121.706C19.327 121.471 18.6655 120.7 18.0998 120.03C17.534 119.359 15.7171 118.396 15.7171 118.396Z" fill="url(#paint10_linear_201_12208)"/>
<path id="Vector_24" d="M15.0195 116.331C15.0195 116.331 15.489 118.568 15.4487 119.384C15.4487 119.384 16.0424 119.907 16.887 119.384C16.887 119.384 16.4551 117.342 16.6679 116.495L15.0195 116.331Z" fill="url(#paint11_linear_201_12208)"/>
<path id="Vector_25" d="M37.7025 68.6101C37.8466 75.3244 37.7517 82.5273 37.3088 90.1572C36.7555 99.6871 35.7375 108.519 34.4713 116.561C33.4438 116.846 32.3613 116.873 31.3208 116.64C31.1155 115.691 30.7954 114.245 30.3755 112.487C29.6156 109.304 29.4321 108.88 29.1944 107.786C28.2084 103.25 29.5048 101.967 28.8792 97.2891C28.7422 96.2628 28.6841 96.3536 27.3039 91.4129C25.5837 85.2526 24.7138 82.1745 24.3113 79.817C23.2299 73.49 22.6894 70.3268 24.4686 68.3773C26.7958 65.828 32.2026 66.2249 37.7025 68.6101Z" fill="url(#paint12_linear_201_12208)"/>
<path id="Vector_26" style="mix-blend-mode:multiply" opacity="0.3" d="M32.978 112.722C32.2393 110.637 33.5353 109.578 33.5291 105.984C33.5237 102.883 32.5572 102.496 32.269 99.0106C32.003 95.8143 32.7151 94.9053 32.8991 91.959C33.2462 86.4052 31.0409 84.5417 30.6149 80.2846C30.3218 77.3533 30.8552 73.0887 34.7824 67.5283C30.3706 66.1778 26.3821 66.2827 24.4726 68.3747C22.6934 70.3242 23.2338 73.4874 24.3152 79.8144C24.7177 82.1719 25.5876 85.25 27.3078 91.4103C28.688 96.3502 28.7461 96.262 28.8831 97.2865C29.5069 101.967 28.2123 103.249 29.1983 107.784C29.436 108.877 29.6195 109.301 30.3794 112.485C30.7993 114.243 31.1194 115.688 31.3247 116.637C32.3652 116.87 33.4477 116.843 34.4752 116.559C34.5523 116.068 34.6286 115.573 34.704 115.076C33.9582 114.463 33.3216 113.692 32.978 112.722Z" fill="url(#paint13_linear_201_12208)"/>
<path id="Vector_27" d="M30.456 68.14C27.748 75.4554 25.1047 83.5858 22.7548 92.4815C20.4702 101.132 18.785 109.286 17.5392 116.796C16.9838 117.051 16.3799 117.185 15.7682 117.189C15.1565 117.193 14.551 117.067 13.9923 116.819C12.9067 114.081 12.1274 111.233 11.6686 108.326C11.3219 106.127 10.9446 103.733 11.2381 100.656C11.6283 96.568 12.7597 95.9222 13.2856 91.8786C13.6788 88.8578 13.1716 88.2619 13.0497 83.8866C12.8599 77.1027 12.7624 73.6064 14.4684 71.1938C18.1302 66.0127 28.7038 67.8211 30.456 68.14Z" fill="url(#paint14_linear_201_12208)"/>
<path id="Vector_28" d="M11.9741 37.897C13.1495 36.6731 17.1579 32.805 23.7396 31.836C30.4396 30.8489 35.4762 33.5041 36.9335 34.3412C39.7555 40.5813 39.7112 45.0885 39.1206 48.0824C38.7597 49.9128 38.3044 50.6198 38.0965 52.8617C37.7374 56.7368 38.7411 58.4667 39.6004 63.4471C39.85 64.8938 41.2851 73.2033 39.5143 73.8561C38.5558 74.2089 37.7941 71.8978 35.0249 71.3487C33.1136 70.9698 32.4649 71.8713 29.9843 71.6623C27.7108 71.47 27.6146 70.6589 25.7724 70.3783C22.8232 69.9289 21.7573 71.8109 16.1298 73.5253C13.3419 74.3748 11.1828 75.0055 10.1604 73.9822C9.49532 73.3158 9.51173 72.1488 10.0717 69.7397C11.2027 64.8708 12.6942 62.928 13.6908 59.9888C14.8037 56.7051 14.6503 54.0914 14.3891 49.6455C14.1502 45.635 13.337 41.6789 11.9741 37.897Z" fill="url(#paint15_linear_201_12208)"/>
<path id="Vector_29" style="mix-blend-mode:multiply" opacity="0.3" d="M40.378 70.3892C38.3718 70.3107 37.2231 69.6857 36.5208 69.0034C34.5394 67.0835 35.7227 64.3776 33.5671 62.657C30.8892 60.5192 27.2634 63.2582 25.4155 61.3643C23.6953 59.6 26.3909 56.7698 25.1792 51.6094C24.9469 50.6205 24.1595 47.2561 21.3987 45.0279C18.0947 42.3586 15.0222 43.7877 13.247 41.6194C13.1796 41.5374 13.1146 41.45 13.052 41.3574C13.7754 44.0699 14.2233 46.8478 14.3891 49.6493C14.6503 54.0952 14.8037 56.7089 13.6908 59.9926C12.6942 62.9318 11.2027 64.8747 10.0717 69.7435C9.51173 72.1526 9.49532 73.3196 10.1604 73.9861C11.1828 75.0093 13.3419 74.3786 16.1298 73.5291C21.7573 71.8147 22.8245 69.9327 25.7724 70.3822C27.6137 70.6627 27.7099 71.4738 29.9843 71.6661C32.4671 71.8752 33.1136 70.9736 35.0249 71.3525C37.7941 71.9016 38.5558 74.215 39.5143 73.8599C40.2113 73.6006 40.4099 72.1433 40.378 70.3892Z" fill="url(#paint16_linear_201_12208)"/>
<path id="Vector_30" d="M34.0801 35.0757C34.2672 34.2937 34.4437 33.7084 34.9039 33.5417C36.7842 32.8638 42.0464 39.6848 43.2603 47.2075C43.3876 47.9965 44.5057 54.9322 42.006 56.049C40.0242 56.9342 36.6449 53.7233 34.9464 51.3737C31.3024 46.3311 32.7913 40.4606 34.0801 35.0757Z" fill="#7CACE4"/>
<path id="Vector_31" d="M13.2286 60.0565C12.748 60.023 6.12819 59.461 3.54119 54.3562C0.855311 49.0578 4.81097 43.3964 6.02178 41.6634C10.6771 35.0035 21.5004 30.9898 23.315 33.0253C24.6234 34.4927 20.7409 39.8952 18.9581 42.3096C15.7371 46.6726 12.2958 46.8746 11.5155 49.9492C11.1417 51.421 11.3226 53.7709 14.3499 57.3532L13.2286 60.0565Z" fill="#7CACE4"/>
<path id="Vector_32" d="M24.3081 27.5713C24.516 28.1447 24.7923 29.4043 24.1751 30.5414C23.6333 31.5373 22.6282 31.9748 22.2243 32.1543C21.252 32.5879 20.6677 32.4582 20.6415 32.6395C20.5834 33.0435 23.354 34.349 26.2203 33.7757C27.9051 33.4391 29.5012 32.4781 29.3939 31.9391C29.2751 31.3344 27.111 31.7547 26.3657 30.5833C25.8891 29.8335 26.203 28.767 26.5932 27.9118C26.0377 27.4469 24.8659 28.0384 24.3081 27.5713Z" fill="url(#paint17_linear_201_12208)"/>
<path id="Vector_33" d="M27.5325 27.6275C27.7746 27.0982 27.6606 26.2854 27.2093 25.8452C26.8205 25.4659 26.3128 25.5007 26.0082 25.521C25.1255 25.581 24.0969 26.191 23.8593 27.1397C23.7187 27.7021 24.3833 28.6834 24.4915 28.8598C24.6139 29.0614 24.7832 29.1051 24.9553 29.2418C25.1938 29.4314 25.5684 29.7336 26.1816 30.2408C26.193 30.0111 26.2227 29.7826 26.2703 29.5576C26.3326 29.2681 26.4287 28.9868 26.5567 28.7196C26.91 28.0284 27.3028 28.1281 27.5325 27.6275Z" fill="url(#paint18_linear_201_12208)"/>
<path id="Vector_34" d="M25.3658 29.8755C25.3658 29.8755 26.1031 30.7858 27.2221 30.4779C28.2215 30.2032 27.9594 27.6843 27.227 27.2838C26.9823 27.1515 26.5385 27.1625 26.2046 27.3398C26.0078 27.4443 25.9528 27.5528 25.6283 27.7174C25.3277 27.8695 25.2323 27.8497 25.1517 27.9551C25.0506 28.0874 25.0076 28.375 25.3263 29.0648C25.0971 28.8884 24.8511 28.8522 24.6999 28.9704C24.6479 29.0165 24.6094 29.0756 24.5881 29.1415C24.4919 29.4551 24.7899 29.7718 25.3658 29.8755Z" fill="url(#paint19_linear_201_12208)"/>
<path id="Vector_35" d="M26.3755 30.9866C25.9844 30.7819 26.0288 30.302 26.1241 29.9545C26.137 29.9098 26.1606 29.8689 26.193 29.8355C26.2254 29.802 26.2655 29.7769 26.3099 29.7623C26.3543 29.7478 26.4015 29.7443 26.4476 29.7521C26.4936 29.7599 26.5371 29.7788 26.5741 29.8072C26.8228 29.9964 27.1842 30.2363 27.5016 30.3131C28.0509 30.4454 28.516 33.4296 28.516 33.4296L28.0505 33.7454C28.0505 33.7454 27.5832 32.6463 27.0809 31.8255C26.8375 31.4285 26.5861 31.0964 26.3755 30.9866Z" fill="url(#paint20_linear_201_12208)"/>
<path id="Vector_36" d="M27.2873 33.0523L28.5872 32.4736C29.7597 34.5593 31.0732 36.5634 32.5185 38.472C34.1816 40.6628 35.2368 41.6874 37.9643 45.2348C39.5094 47.2451 40.0924 48.1145 40.6568 49.1029C41.7134 50.9522 43.5387 54.1468 42.35 55.6455C42.0609 56.0094 41.6899 56.1532 41.3157 56.2979C39.5981 56.9621 37.7874 56.0967 36.8763 55.6455C32.1323 53.2969 29.4004 48.3434 29.4004 48.3434C25.9302 42.0548 26.7996 35.5774 27.2873 33.0523Z" fill="#87B3E6"/>
<path id="Vector_37" d="M13.9598 58.2928C13.9598 58.2928 15.0004 57.1183 15.8862 57.3534C16.7721 57.5885 17.8946 58.6461 17.8946 58.6461C17.8946 58.6461 17.8946 59.7047 17.0678 59.41C16.2409 59.1154 13.4766 59.4616 13.4766 59.4616L13.9598 58.2928Z" fill="url(#paint21_linear_201_12208)"/>
</g>
</g>
</g>
<defs>
<linearGradient id="paint0_linear_201_12208" x1="31.7405" y1="126.646" x2="106.005" y2="-16.0623" gradientUnits="userSpaceOnUse">
<stop stop-color="#444B8C"/>
<stop offset="1" stop-color="#26264F"/>
</linearGradient>
<linearGradient id="paint1_linear_201_12208" x1="33.9514" y1="126.646" x2="108.216" y2="-16.0623" gradientUnits="userSpaceOnUse">
<stop stop-color="#FFC444"/>
<stop offset="1" stop-color="#F36F56"/>
</linearGradient>
<linearGradient id="paint2_linear_201_12208" x1="95.4227" y1="31.2238" x2="-34.156" y2="175.316" gradientUnits="userSpaceOnUse">
<stop stop-color="#FFC444"/>
<stop offset="1" stop-color="#F36F56"/>
</linearGradient>
<linearGradient id="paint3_linear_201_12208" x1="19.2665" y1="61.221" x2="98.0241" y2="61.221" gradientUnits="userSpaceOnUse">
<stop stop-color="#FFC444"/>
<stop offset="1" stop-color="#F36F56"/>
</linearGradient>
<linearGradient id="paint4_linear_201_12208" x1="75.332" y1="13.1791" x2="126.381" y2="13.1791" gradientUnits="userSpaceOnUse">
<stop stop-color="#444B8C"/>
<stop offset="1" stop-color="#26264F"/>
</linearGradient>
<linearGradient id="paint5_linear_201_12208" x1="112.534" y1="-9.52092" x2="84.4366" y2="68.5796" gradientUnits="userSpaceOnUse">
<stop stop-color="#FF9085"/>
<stop offset="1" stop-color="#FB6FBB"/>
</linearGradient>
<linearGradient id="paint6_linear_201_12208" x1="90.3472" y1="75.5689" x2="122.654" y2="114.185" gradientUnits="userSpaceOnUse">
<stop stop-color="#E38DDD"/>
<stop offset="1" stop-color="#9571F6"/>
</linearGradient>
<linearGradient id="paint7_linear_201_12208" x1="92.8474" y1="120.125" x2="94.2369" y2="96.7143" gradientUnits="userSpaceOnUse">
<stop stop-color="#7CABE3"/>
<stop offset="1" stop-color="#6198FF"/>
</linearGradient>
<linearGradient id="paint8_linear_201_12208" x1="31.9767" y1="119.112" x2="36.2697" y2="119.112" gradientUnits="userSpaceOnUse">
<stop stop-color="#444B8C"/>
<stop offset="1" stop-color="#26264F"/>
</linearGradient>
<linearGradient id="paint9_linear_201_12208" x1="33.5429" y1="121.067" x2="32.4514" y2="114.052" gradientUnits="userSpaceOnUse">
<stop stop-color="#311944"/>
<stop offset="1" stop-color="#893976"/>
</linearGradient>
<linearGradient id="paint10_linear_201_12208" x1="15.2414" y1="120.117" x2="19.2401" y2="120.117" gradientUnits="userSpaceOnUse">
<stop stop-color="#444B8C"/>
<stop offset="1" stop-color="#26264F"/>
</linearGradient>
<linearGradient id="paint11_linear_201_12208" x1="16.0144" y1="121.205" x2="15.8977" y2="114.741" gradientUnits="userSpaceOnUse">
<stop stop-color="#311944"/>
<stop offset="1" stop-color="#893976"/>
</linearGradient>
<linearGradient id="paint12_linear_201_12208" x1="25.1714" y1="124.356" x2="30.3168" y2="82.7444" gradientUnits="userSpaceOnUse">
<stop stop-color="#444B8C"/>
<stop offset="1" stop-color="#3E4177"/>
</linearGradient>
<linearGradient id="paint13_linear_201_12208" x1="25.1265" y1="124.349" x2="30.2715" y2="82.7387" gradientUnits="userSpaceOnUse">
<stop stop-color="#444B8C"/>
<stop offset="1" stop-color="#3E4177"/>
</linearGradient>
<linearGradient id="paint14_linear_201_12208" x1="7.65445" y1="83.2559" x2="27.0882" y2="95.6875" gradientUnits="userSpaceOnUse">
<stop stop-color="#444B8C"/>
<stop offset="1" stop-color="#3E4177"/>
</linearGradient>
<linearGradient id="paint15_linear_201_12208" x1="22.4964" y1="58.7697" x2="45.8973" y2="37.6701" gradientUnits="userSpaceOnUse">
<stop stop-color="#7CABE3"/>
<stop offset="1" stop-color="#6198FF"/>
</linearGradient>
<linearGradient id="paint16_linear_201_12208" x1="21.0763" y1="65.6514" x2="37.6518" y2="40.1868" gradientUnits="userSpaceOnUse">
<stop stop-color="#E38DDD"/>
<stop offset="1" stop-color="#9571F6"/>
</linearGradient>
<linearGradient id="paint17_linear_201_12208" x1="29.6657" y1="23.5638" x2="23.2206" y2="35.8926" gradientUnits="userSpaceOnUse">
<stop stop-color="#311944"/>
<stop offset="1" stop-color="#893976"/>
</linearGradient>
<linearGradient id="paint18_linear_201_12208" x1="24.7732" y1="33.5463" x2="26.7995" y2="26.1569" gradientUnits="userSpaceOnUse">
<stop stop-color="#444B8C"/>
<stop offset="1" stop-color="#26264F"/>
</linearGradient>
<linearGradient id="paint19_linear_201_12208" x1="27.3082" y1="31.7782" x2="26.4009" y2="29.336" gradientUnits="userSpaceOnUse">
<stop stop-color="#311944"/>
<stop offset="1" stop-color="#893976"/>
</linearGradient>
<linearGradient id="paint20_linear_201_12208" x1="27.4919" y1="34.3743" x2="27.3751" y2="32.9642" gradientUnits="userSpaceOnUse">
<stop stop-color="#311944"/>
<stop offset="1" stop-color="#893976"/>
</linearGradient>
<linearGradient id="paint21_linear_201_12208" x1="18.8235" y1="54.7811" x2="14.4227" y2="60.7384" gradientUnits="userSpaceOnUse">
<stop stop-color="#311944"/>
<stop offset="1" stop-color="#893976"/>
</linearGradient>
<clipPath id="clip0_201_12208">
<rect width="127" height="125" fill="white"/>
</clipPath>
</defs>
</svg>
