<svg width="24" height="24" viewBox="0 0 24 24" fill="none" xmlns="http://www.w3.org/2000/svg">
<g id="Frame" clip-path="url(#clip0_201_11931)">
<g id="Group">
<path id="Vector" d="M24.1388 11.9507L24.1356 11.9337L24.1287 11.918C23.7915 11.1491 23.4331 10.3819 23.0755 9.61649C22.8302 9.09141 22.5853 8.5672 22.348 8.04394L22.3481 8.04387L22.3449 8.03757C22.3243 7.99738 22.3056 7.9536 22.2841 7.90339L22.2772 7.88742C22.2538 7.83272 22.227 7.77136 22.1948 7.71265C22.1301 7.59489 22.034 7.47018 21.8685 7.41027L16.3914 5.30989L15.2758 3.12601L15.2756 3.12566C15.2093 2.99668 15.097 2.89723 14.961 2.84693C14.825 2.79663 14.675 2.79913 14.5408 2.85393L14.5403 2.85411L13.6141 3.23556L13.6713 3.37426L13.6141 3.23556C13.5439 3.26451 13.48 3.30701 13.4261 3.36065C13.3723 3.41428 13.3295 3.478 13.3003 3.54816C13.2413 3.68986 13.2409 3.84919 13.2994 3.99112C13.3579 4.13305 13.4703 4.24594 13.612 4.30497C13.7537 4.36399 13.913 4.3643 14.055 4.30584L14.0551 4.3058L14.4877 4.1272C14.8657 4.86834 15.9456 6.97655 17.0799 9.1913C18.369 11.708 19.7285 14.3624 20.2089 15.3046L17.0374 16.7168L11.2838 5.44332L12.4681 4.95783L12.4682 4.9578C12.5385 4.92893 12.6024 4.88649 12.6563 4.83291C12.7102 4.77933 12.7531 4.71566 12.7824 4.64553C12.8117 4.57539 12.8269 4.50018 12.8271 4.42417C12.8274 4.34816 12.8126 4.27285 12.7838 4.20254C12.7549 4.13223 12.7125 4.06829 12.6589 4.01438C12.6053 3.96046 12.5416 3.91763 12.4715 3.88833C12.4014 3.85902 12.3261 3.84382 12.2501 3.84358C12.1741 3.84335 12.0988 3.85809 12.0285 3.88695L12.0285 3.8869L12.0245 3.88866C10.9688 4.35816 8.36189 5.31109 7.23416 5.71189L7.23415 5.71187L7.2317 5.71279C7.15537 5.74142 7.08591 5.78576 7.0278 5.84293C6.96969 5.9001 6.92423 5.96884 6.89436 6.04469C6.86449 6.12053 6.85087 6.20181 6.85439 6.28325C6.85791 6.36469 6.87848 6.44449 6.91478 6.51748L6.91478 6.51748L6.91549 6.51888L8.31432 9.25925L5.7685 10.1981C5.76847 10.1981 5.76845 10.1981 5.76842 10.1981C5.62444 10.2512 5.50742 10.3592 5.44309 10.4985C5.37875 10.6378 5.37238 10.797 5.4254 10.941C5.47842 11.085 5.58647 11.2021 5.72579 11.2664C5.86511 11.3308 6.02428 11.3371 6.1683 11.2841L6.16838 11.2841L8.84383 10.2973L9.84239 12.254L7.42878 13.2594L4.29205 11.9742L4.51256 11.8932C4.51257 11.8932 4.51258 11.8932 4.51259 11.8931C4.58392 11.8669 4.64938 11.8269 4.70526 11.7754C4.76114 11.7239 4.80632 11.6619 4.83823 11.5929C4.87014 11.5239 4.88815 11.4493 4.89124 11.3734C4.89432 11.2975 4.88242 11.2217 4.85621 11.1503C4.83 11.079 4.78999 11.0135 4.73847 10.9576C4.68696 10.9017 4.62494 10.8566 4.55596 10.8246L4.49298 10.9608L4.55596 10.8246C4.48698 10.7927 4.4124 10.7747 4.33645 10.7716C4.26051 10.7686 4.18471 10.7805 4.11337 10.8067L4.11329 10.8067L2.51333 11.3956C2.37071 11.4409 2.25136 11.5402 2.18083 11.6723L2.18061 11.6727L2.31315 11.7429L2.18058 11.6728L2.18051 11.6729L2.1802 11.6735L2.17897 11.6758L2.17412 11.6849L2.15521 11.7206L2.08344 11.8561L1.82722 12.3397L1.04939 13.8078C0.492064 14.8598 -0.0685161 15.918 -0.0865406 15.9524L-0.0865515 15.9524C-0.122436 16.023 -0.143599 16.1002 -0.148758 16.1793C-0.153917 16.2584 -0.142965 16.3377 -0.116565 16.4125C-0.0901647 16.4872 -0.0488664 16.5558 0.00482692 16.6141C0.0585205 16.6724 0.123491 16.7191 0.195801 16.7516L0.210271 16.7581L0.212261 16.7585L0.219738 16.7617L0.278906 16.7869L0.502554 16.8827L1.29779 17.224L3.70652 18.2584C4.58216 18.6344 5.45787 19.0102 6.11545 19.2919C6.44423 19.4328 6.71856 19.5501 6.91112 19.6322C7.00737 19.6732 7.08334 19.7055 7.13552 19.7275L7.19608 19.7528L7.21362 19.76L7.22147 19.763L7.22309 19.7635C7.3648 19.8185 7.52236 19.8163 7.66261 19.7575L7.66262 19.7575L7.66531 19.7563L12.565 17.5851L14.2448 20.8763L14.2448 20.8763L14.2459 20.8783C14.3153 21.0091 14.4316 21.1089 14.5714 21.1575C14.7112 21.2061 14.8643 21.2 14.9998 21.1404L14.9998 21.1404L15.0019 21.1395L21.4577 18.1861L21.4578 18.186C21.5678 18.1356 21.6592 18.052 21.7192 17.947C21.7791 17.842 21.8047 17.7208 21.7923 17.6005C21.7923 17.6005 21.7923 17.6005 21.7923 17.6005L21.578 15.5257L21.5772 15.5185L21.5758 15.5114C21.5695 15.4802 21.5563 15.4368 21.5469 15.4068L21.5334 15.3645L21.5295 15.3523L21.5265 15.3386L21.5177 15.3215L20.8086 13.9352L23.8091 12.6052L23.8091 12.6054L23.8154 12.6023C23.9328 12.5436 24.0279 12.4482 24.0863 12.3307C24.145 12.2127 24.1628 12.0792 24.1388 11.9507ZM0.201981 16.7542L0.202009 16.7542L0.201981 16.7542ZM6.85278 14.2737L6.85199 18.3484L1.23143 15.9363L2.95767 12.6777L6.85278 14.2737ZM18.1724 8.78325L17.1855 6.8539L20.1103 7.97542L18.1724 8.78325ZM8.00913 18.3377V14.2713L10.3701 13.2874L12.0371 16.5533L8.00913 18.3377ZM14.8161 19.4512L8.24391 6.5761L10.2 5.86506L16.1053 17.4365L14.8161 19.4512ZM17.1648 17.9271L20.5079 16.4378L20.5977 17.3066L16.3056 19.2699L17.1648 17.9271ZM20.28 12.9035L18.7007 9.81662L21.3763 8.7015L22.802 11.7854L20.28 12.9035Z" fill="#64748B" stroke="#64748B" stroke-width="0.3"/>
</g>
</g>
<defs>
<clipPath id="clip0_201_11931">
<rect width="24" height="24" fill="white"/>
</clipPath>
</defs>
</svg>
