<svg width="18" height="14" viewBox="0 0 18 14" fill="none" xmlns="http://www.w3.org/2000/svg">
<g id="Group">
<path id="Vector" d="M5.35546 8.61845C5.35546 8.61845 1.87733 7.18126 1.78046 7.14032L0.28671 9.9622C0.266345 10.0004 0.254146 10.0424 0.250886 10.0856C0.247627 10.1288 0.253379 10.1722 0.267776 10.213C0.282174 10.2539 0.304904 10.2913 0.334523 10.3229C0.364142 10.3545 0.400005 10.3796 0.439835 10.3966L5.35546 12.5059C5.35234 12.1091 5.35765 9.09251 5.35546 8.61845ZM7.45233 1.86501C7.12265 1.98532 5.91265 2.42563 5.56171 2.55251C5.52041 2.56784 5.48279 2.59169 5.45131 2.62251C5.41982 2.65333 5.39517 2.69043 5.37896 2.73139C5.36275 2.77236 5.35535 2.81628 5.35722 2.86029C5.35909 2.90431 5.3702 2.94744 5.38983 2.98688C7.08484 6.30688 8.96171 9.98001 10.6523 13.2966C10.868 12.9706 12.118 11.0028 12.118 11.0028C11.7726 10.3266 7.66609 2.2747 7.45233 1.86532V1.86501ZM15.712 9.2497C15.712 9.2497 11.5692 1.15845 11.2901 0.612197C11.254 0.542856 11.1932 0.489601 11.1197 0.462978C11.0462 0.436356 10.9654 0.438308 10.8933 0.468447C10.487 0.63376 8.39765 1.49126 8.04015 1.6372C8.06515 1.68001 12.4073 10.2041 12.6214 10.6153C13.367 10.2869 15.6995 9.25282 15.712 9.2497ZM12.6901 11.2656C12.6855 11.2659 11.5642 13.0272 11.2308 13.5563L15.8495 11.4438C15.9091 11.4169 15.9587 11.3719 15.9912 11.3153C16.0238 11.2586 16.0376 11.1931 16.0308 11.1281L15.8964 9.84657C15.8964 9.84657 13.1176 11.0766 12.6901 11.2653V11.2656ZM16.0214 3.73688L12.9964 2.57751C13.2411 3.05563 13.7764 4.09813 14.0245 4.58376C14.5089 4.37813 15.5448 3.94251 16.0214 3.73688Z" fill="white"/>
<path id="Vector_2" d="M2.23828 6.64922C2.86859 6.91359 5.09359 7.83953 5.76328 8.11172C5.82575 8.13244 5.88016 8.17222 5.91884 8.22548C5.95752 8.27873 5.97853 8.34278 5.97891 8.40859V12.5055L8.88828 11.2148C8.71922 10.8883 6.23203 6.00797 5.87266 5.31172L2.23828 6.64922ZM17.7198 6.95859L16.4573 4.23047C16.062 4.39922 14.7248 4.96266 14.3073 5.13984C14.5189 5.55422 15.6605 7.77422 15.8417 8.13672L17.5636 7.37422C17.6391 7.33948 17.6979 7.27635 17.7272 7.19853C17.7564 7.12071 17.7538 7.03449 17.7198 6.95859Z" fill="white"/>
</g>
</svg>
