<svg width="23" height="23" viewBox="0 0 23 23" fill="none" xmlns="http://www.w3.org/2000/svg">
<g id="google">
<path id="vector" d="M21.1278 11.7139C21.1278 10.9225 21.0623 10.345 20.9204 9.74609H11.6992V13.318H17.1119C17.0028 14.2057 16.4135 15.5425 15.104 16.4408L15.0856 16.5603L18.0012 18.7738L18.2032 18.7936C20.0583 17.1145 21.1278 14.6441 21.1278 11.7139Z" fill="#4285F4"/>
<path id="vector_2" d="M11.6957 21.1248C14.3474 21.1248 16.5736 20.2692 18.1996 18.7934L15.1004 16.4405C14.2711 17.0073 13.1579 17.403 11.6957 17.403C9.09848 17.403 6.89414 15.724 6.10835 13.4033L5.99317 13.4129L2.96152 15.7122L2.92188 15.8202C4.53693 18.9644 7.85439 21.1248 11.6957 21.1248Z" fill="#34A853"/>
<path id="vector_3" d="M6.10908 13.4038C5.90174 12.805 5.78175 12.1632 5.78175 11.5002C5.78175 10.8371 5.90174 10.1955 6.09817 9.59661L6.09268 9.46906L3.02303 7.13281L2.92259 7.17963C2.25695 8.48437 1.875 9.94953 1.875 11.5002C1.875 13.0509 2.25695 14.516 2.92259 15.8207L6.10908 13.4038Z" fill="#FBBC05"/>
<path id="vector_4" d="M11.6957 5.59664C13.5399 5.59664 14.784 6.37733 15.4933 7.02974L18.2651 4.3775C16.5628 2.82681 14.3475 1.875 11.6957 1.875C7.85441 1.875 4.53694 4.03526 2.92188 7.1794L6.09746 9.59638C6.89416 7.27569 9.09851 5.59664 11.6957 5.59664Z" fill="#EB4335"/>
</g>
</svg>
