<svg width="39" height="38" viewBox="0 0 39 38" fill="none" xmlns="http://www.w3.org/2000/svg">
<rect x="0.509766" y="0.5" width="37" height="37" rx="1.5" fill="#FCFDFC"/>
<g clip-path="url(#clip0_360_11592)">
<path fill-rule="evenodd" clip-rule="evenodd" d="M28.5098 28H24.3105V21.67C24.3105 20.0157 23.6535 18.885 22.209 18.885C21.1038 18.885 20.4897 19.6475 20.2037 20.3839C20.0973 20.6477 20.1138 21.0145 20.1138 21.3828V28H15.9525C15.9525 28 16.0068 16.7894 15.9525 15.771H20.1138V17.6903C20.3581 16.852 21.6874 15.6547 23.8105 15.6547C26.4425 15.6547 28.5098 17.4122 28.5098 21.2012V28ZM11.7455 14.2422H11.7189C10.3782 14.2422 9.50977 13.3073 9.50977 12.1217C9.50977 10.914 10.4061 10 11.7721 10C13.138 10 13.9774 10.914 14.0053 12.1204C14.0053 13.3047 13.138 14.2422 11.7455 14.2422ZM13.6919 28H9.98751V15.7711H13.6919V28Z" fill="#005A42"/>
</g>
<rect x="0.509766" y="0.5" width="37" height="37" rx="1.5" stroke="#C6C8C8"/>
<defs>
<clipPath id="clip0_360_11592">
<rect width="19" height="18" fill="white" transform="translate(9.50977 10)"/>
</clipPath>
</defs>
</svg>
