<svg width="24" height="25" viewBox="0 0 24 25" fill="none" xmlns="http://www.w3.org/2000/svg">
<g id="vuesax/outline/logout">
<g id="vuesax/outline/logout_2">
<g id="logout">
<path id="Vector" d="M15.2405 22.7705H15.1105C10.6705 22.7705 8.5305 21.0205 8.1605 17.1005C8.1205 16.6905 8.4205 16.3205 8.8405 16.2805C9.2405 16.2405 9.6205 16.5505 9.6605 16.9605C9.9505 20.1005 11.4305 21.2705 15.1205 21.2705H15.2505C19.3205 21.2705 20.7605 19.8305 20.7605 15.7605V9.24047C20.7605 5.17047 19.3205 3.73047 15.2505 3.73047H15.1205C11.4105 3.73047 9.9305 4.92047 9.6605 8.12047C9.6105 8.53047 9.2605 8.84047 8.8405 8.80047C8.4205 8.77047 8.1205 8.40047 8.1505 7.99047C8.4905 4.01047 10.6405 2.23047 15.1105 2.23047H15.2405C20.1505 2.23047 22.2505 4.33047 22.2505 9.24047V15.7605C22.2505 20.6705 20.1505 22.7705 15.2405 22.7705Z" fill="#94A3B8"/>
<path id="Vector_2" d="M15.0011 13.25H3.62109C3.21109 13.25 2.87109 12.91 2.87109 12.5C2.87109 12.09 3.21109 11.75 3.62109 11.75H15.0011C15.4111 11.75 15.7511 12.09 15.7511 12.5C15.7511 12.91 15.4111 13.25 15.0011 13.25Z" fill="#94A3B8"/>
<path id="Vector_3" d="M5.85141 16.5998C5.66141 16.5998 5.47141 16.5298 5.32141 16.3798L1.97141 13.0298C1.68141 12.7398 1.68141 12.2598 1.97141 11.9698L5.32141 8.61984C5.61141 8.32984 6.09141 8.32984 6.38141 8.61984C6.67141 8.90984 6.67141 9.38984 6.38141 9.67984L3.56141 12.4998L6.38141 15.3198C6.67141 15.6098 6.67141 16.0898 6.38141 16.3798C6.24141 16.5298 6.04141 16.5998 5.85141 16.5998Z" fill="#94A3B8"/>
</g>
</g>
</g>
</svg>
