<svg width="24" height="24" viewBox="0 0 24 24" fill="none" xmlns="http://www.w3.org/2000/svg">
<g id="Frame">
<g id="Group">
<path id="Vector" d="M9.38657 9.05691H6.64832C6.16725 9.05691 5.69408 9.1793 5.27334 9.41255C4.8526 9.6458 4.49811 9.98226 4.24323 10.3903C3.98829 10.7984 3.45069 10.9225 3.04264 10.6674L3.04247 10.6673C2.63437 10.4122 2.51032 9.87463 2.76539 9.46653L2.76543 9.46645C3.17712 8.80778 3.74957 8.26465 4.42894 7.88812C5.10831 7.51159 5.87228 7.31403 6.64902 7.31402H9.38657M17.0749 21.17H17.4455C19.853 21.17 21.8046 19.2184 21.8046 16.8109C21.8046 15.9594 21.5552 15.1265 21.0872 14.4151L16.3581 7.22688H12.4705M13.1483 5.48399H16.3581L17.8831 1.5625H10.0402L10.7518 3.39253" stroke="#64748B" stroke-width="1.39431" stroke-miterlimit="10" stroke-linecap="round" stroke-linejoin="round"/>
<path id="Vector_2" d="M11.999 23.0004H13.5222C15.9297 23.0004 17.8813 21.0488 17.8813 18.6413C17.8813 17.7898 17.6319 16.9569 17.1639 16.2455L12.4348 9.05729H7.64183L2.91273 16.2455C2.44471 16.9569 2.19531 17.7898 2.19531 18.6413C2.19531 21.0488 4.14691 23.0004 6.55436 23.0004H8.07755M13.1464 5.48438H16.3563C16.8376 5.48438 17.2277 5.87452 17.2277 6.35582C17.2277 6.83712 16.8376 7.22726 16.3563 7.22726H12.4687" stroke="#64748B" stroke-width="1.39431" stroke-miterlimit="10" stroke-linecap="round" stroke-linejoin="round"/>
<path id="Vector_3" d="M7.64221 7.31407L6.11719 3.39258H13.9602L12.4351 7.31407M7.64221 7.31407H12.4351M7.64221 7.31407C7.16091 7.31407 6.77077 7.70422 6.77077 8.18552C6.77077 8.66681 7.16091 9.05696 7.64221 9.05696H12.4351C12.9164 9.05696 13.3066 8.66681 13.3066 8.18552C13.3066 7.70422 12.9164 7.31407 12.4351 7.31407" stroke="#64748B" stroke-width="1.39431" stroke-miterlimit="10" stroke-linecap="round" stroke-linejoin="round"/>
<path id="&#226;&#130;&#185;" d="M10.1216 20.0151L8 16.3107V15.8167H8.24696C8.6436 15.8167 8.97663 15.7793 9.24605 15.7045C9.52295 15.6296 9.73998 15.5061 9.89714 15.334C10.0543 15.1619 10.1478 14.9262 10.1778 14.6268H8V13.9084H10.1666C10.1142 13.6315 10.0094 13.4069 9.85223 13.2348C9.69507 13.0552 9.48179 12.9242 9.21237 12.8419C8.95044 12.7596 8.62864 12.7184 8.24696 12.7184H8V12H12.6474V12.7184H10.5258C10.6979 12.8606 10.8401 13.029 10.9523 13.2236C11.0646 13.4182 11.1357 13.6464 11.1656 13.9084H12.6474V14.6268H11.1881C11.1357 15.1731 10.9262 15.5997 10.5594 15.9065C10.2002 16.2059 9.72127 16.3967 9.12257 16.479L11.2667 20.0151H10.1216Z" fill="#64748B"/>
</g>
</g>
</svg>
