<svg width="170" height="50" viewBox="0 0 170 50" fill="none" xmlns="http://www.w3.org/2000/svg">
<g clip-path="url(#clip0_104_8105)">
<path d="M162.01 0H7.00977C3.14377 0 0.00976562 3.13401 0.00976562 7V43C0.00976562 46.866 3.14377 50 7.00977 50H162.01C165.876 50 169.01 46.866 169.01 43V7C169.01 3.13401 165.876 0 162.01 0Z" fill="black"/>
<path fill-rule="evenodd" clip-rule="evenodd" d="M6.26903 0H162.751C166.208 0 169.01 2.79822 169.01 6.25V43.75C169.01 47.2018 166.208 50 162.751 50H6.26903C2.81214 50 0.00976562 47.2018 0.00976562 43.75V6.25C0.00976562 2.79822 2.81214 0 6.26903 0ZM168.009 6.25C168.009 3.3505 165.655 1 162.751 1H6.2695C3.36571 1 1.01172 3.3505 1.01172 6.25V43.75C1.01172 46.6495 3.36571 49 6.2695 49H162.751C165.655 49 168.009 46.6495 168.009 43.75V6.25Z" fill="#A6A6A6"/>
<path d="M59.3728 12.8001C59.4144 13.7264 59.0752 14.6295 58.434 15.3001C57.7147 16.0416 56.7129 16.4417 55.6799 16.4001C54.6416 16.4232 53.64 16.016 52.9133 15.2751C51.3961 13.7255 51.3961 11.2497 52.9133 9.70012C54.0536 8.58751 55.7514 8.26719 57.2197 8.88762C57.6711 9.07291 58.0737 9.35947 58.3964 9.72512L57.7329 10.3876C57.2289 9.78131 56.468 9.44778 55.6799 9.48762C54.33 9.49694 53.152 10.4041 52.8001 11.7055C52.4482 13.0068 53.0087 14.3828 54.1705 15.0693C55.3322 15.7558 56.8099 15.5844 57.783 14.6501C58.1654 14.2315 58.3871 13.6913 58.4089 13.1251H55.6799V12.2251H59.3228C59.3513 12.4156 59.368 12.6076 59.3728 12.8001Z" fill="white" stroke="white" stroke-width="0.2"/>
<path d="M65.1065 9.675H61.7265V12.05H64.806V12.95H61.7265V15.325H65.1065V16.25H60.75V8.75H65.1065V9.675Z" fill="white" stroke="white" stroke-width="0.2"/>
<path d="M69.2126 16.25H68.2487V9.675H66.1455V8.75H71.3658V9.675H69.2126V16.25Z" fill="white" stroke="white" stroke-width="0.2"/>
<path d="M75.0459 16.25V8.75H76.0099V16.25H75.0459Z" fill="white" stroke="white" stroke-width="0.2"/>
<path d="M80.2917 16.25H79.3278V9.675H77.2246V8.75H82.3823V9.675H80.2917V16.25Z" fill="white" stroke="white" stroke-width="0.2"/>
<path fill-rule="evenodd" clip-rule="evenodd" d="M89.4047 16.4144C90.4378 16.4144 91.4285 16.0044 92.1588 15.2747C92.8947 14.5418 93.2936 13.5371 93.2604 12.4997C93.2833 11.4641 92.886 10.4633 92.1588 9.72469C91.4371 8.98246 90.4405 8.57083 89.4047 8.58719C88.3668 8.56007 87.366 8.97341 86.6506 9.72469C85.1816 11.2839 85.1816 13.7154 86.6506 15.2747C87.3808 16.0044 88.3716 16.4144 89.4047 16.4144ZM89.4049 15.5019C88.638 15.5019 87.9031 15.195 87.3644 14.65C86.2445 13.4347 86.2445 11.5652 87.3644 10.3499C87.9031 9.80488 88.638 9.49805 89.4049 9.49805C90.1719 9.49805 90.9068 9.80488 91.4455 10.3499C92.5654 11.5652 92.5654 13.4347 91.4455 14.65C90.9068 15.195 90.1719 15.5019 89.4049 15.5019Z" fill="white"/>
<path d="M93.2603 12.4996L93.1602 12.4974L93.1603 12.5028L93.2603 12.4996ZM89.4046 8.58709L89.402 8.68715L89.4062 8.68708L89.4046 8.58709ZM86.6505 15.2746L86.5777 15.3432L86.5798 15.3453L86.6505 15.2746ZM87.3643 14.6499L87.2907 14.7177L87.2932 14.7201L87.3643 14.6499ZM87.3643 10.3498L87.2932 10.2795L87.2908 10.2821L87.3643 10.3498ZM91.4454 10.3498L91.5189 10.282L91.5165 10.2796L91.4454 10.3498ZM91.4454 14.6499L91.5165 14.7202L91.5189 14.7176L91.4454 14.6499ZM92.0881 15.2037C91.3766 15.9146 90.4112 16.3143 89.4046 16.3143V16.5143C90.4642 16.5143 91.4804 16.0938 92.2293 15.3453L92.0881 15.2037ZM93.1603 12.5028C93.1927 13.5124 92.8045 14.4904 92.0881 15.2037L92.2293 15.3453C92.9849 14.5928 93.3943 13.5615 93.3602 12.4964L93.1603 12.5028ZM92.087 9.7943C92.7953 10.5138 93.1825 11.4889 93.1602 12.4974L93.3603 12.5018C93.3838 11.4392 92.9761 10.4123 92.2299 9.65444L92.087 9.7943ZM89.4062 8.68708C90.4145 8.67115 91.3846 9.07184 92.087 9.7943L92.2299 9.65444C91.489 8.89242 90.4664 8.47031 89.403 8.48711L89.4062 8.68708ZM86.7229 9.79355C87.4188 9.06277 88.3923 8.66076 89.402 8.68715L89.4072 8.48713C88.3411 8.45926 87.313 8.88385 86.5781 9.65563L86.7229 9.79355ZM86.7233 15.206C85.2906 13.6853 85.2902 11.3143 86.7229 9.79355L86.5781 9.65563C85.0728 11.2534 85.0724 13.7454 86.5777 15.3432L86.7233 15.206ZM89.4046 16.3143C88.398 16.3143 87.4326 15.9148 86.7212 15.2039L86.5798 15.3453C87.3288 16.0938 88.345 16.5143 89.4046 16.5143V16.3143ZM87.2932 14.7201C87.8507 15.2842 88.6112 15.6018 89.4048 15.6018V15.4018C88.6646 15.4018 87.9553 15.1056 87.4355 14.5796L87.2932 14.7201ZM87.2908 10.2821C86.1355 11.5356 86.1354 13.4642 87.2907 14.7177L87.4379 14.5821C86.3532 13.4052 86.3532 11.5945 87.4379 10.4176L87.2908 10.2821ZM89.4048 9.39795C88.6112 9.39795 87.8507 9.71536 87.2932 10.2795L87.4355 10.4201C87.9553 9.8941 88.6646 9.59795 89.4048 9.59795V9.39795ZM91.5165 10.2796C90.959 9.71546 90.1985 9.39795 89.4048 9.39795V9.59795C90.1451 9.59795 90.8544 9.8941 91.3742 10.4201L91.5165 10.2796ZM91.5189 14.7176C92.6742 13.4641 92.6742 11.5355 91.5189 10.282L91.3718 10.4176C92.4565 11.5945 92.4565 13.4052 91.3718 14.5821L91.5189 14.7176ZM89.4048 15.6018C90.1985 15.6018 90.959 15.2843 91.5165 14.7202L91.3742 14.5796C90.8544 15.1056 90.1451 15.4018 89.4048 15.4018V15.6018Z" fill="white"/>
<path d="M94.625 16.25V8.75H95.7893L99.4447 14.5875V13.1375V8.75H100.409V16.25H99.4071L95.589 10.1375V11.575V16.25H94.625Z" fill="white" stroke="white" stroke-width="0.2"/>
<path fill-rule="evenodd" clip-rule="evenodd" d="M59.7733 28.8254V31.0754H65.1813C65.0965 32.1352 64.6553 33.1352 63.9295 33.9129C62.8324 35.029 61.3131 35.6286 59.7483 35.5629C56.4297 35.5629 53.7394 32.8766 53.7394 29.5629C53.7394 26.2492 56.4297 23.5629 59.7483 23.5629C61.2761 23.5402 62.7513 24.1196 63.8544 25.1754L65.4442 23.5879C63.937 22.0994 61.893 21.2794 59.7733 21.3129C56.7425 21.1951 53.8901 22.7425 52.3396 25.3455C50.7892 27.9485 50.7892 31.1899 52.3396 33.7928C53.8901 36.3958 56.7425 37.9432 59.7733 37.8254C61.9393 37.9118 64.0391 37.0704 65.5444 35.5129C66.8589 34.0709 67.5594 32.1744 67.4972 30.2254C67.5017 29.7563 67.464 29.2878 67.3846 28.8254H59.7733ZM73.6436 27.1875C70.6984 27.1944 68.3164 29.5841 68.3233 32.525C68.3302 35.4659 70.7234 37.8444 73.6687 37.8375C76.6139 37.8306 78.996 35.4409 78.989 32.5C79.0097 31.0805 78.4523 29.7134 77.4446 28.7119C76.4369 27.7104 75.0652 27.1602 73.6436 27.1875ZM79.9903 32.526C79.9834 29.5851 82.3654 27.1954 85.3106 27.1885C86.7321 27.1612 88.1039 27.7113 89.1116 28.7128C90.1193 29.7144 90.6767 31.0814 90.656 32.501C90.6629 35.4419 88.2809 37.8315 85.3357 37.8384C82.3904 37.8453 79.9972 35.4669 79.9903 32.526ZM82.1711 33.8985C82.7427 35.0934 83.9877 35.8178 85.3107 35.7255C86.141 35.7062 86.9284 35.3529 87.4941 34.7457C88.0598 34.1385 88.3559 33.3288 88.3151 32.5005C88.3119 31.1763 87.4983 29.9886 86.2636 29.5056C85.0288 29.0225 83.6238 29.3422 82.7205 30.3118C81.8173 31.2813 81.5994 32.7037 82.1711 33.8985ZM70.5042 33.8985C71.0759 35.0933 72.3209 35.8178 73.6438 35.7254C74.4742 35.7062 75.2615 35.3529 75.8272 34.7456C76.3929 34.1384 76.689 33.3288 76.6483 32.5004C76.6451 31.1762 75.8315 29.9886 74.5967 29.5055C73.362 29.0225 71.957 29.3422 71.0537 30.3117C70.1505 31.2813 69.9326 32.7036 70.5042 33.8985ZM111.938 27.1875C114.014 27.2638 115.827 28.6115 116.495 30.575L116.758 31.125L109.635 34.0625C110.079 35.0802 111.103 35.7208 112.214 35.675C113.284 35.6854 114.28 35.1289 114.83 34.2125L116.645 35.4625C115.352 37.4184 112.924 38.291 110.679 37.6064C108.435 36.9219 106.909 34.8435 106.931 32.5C106.844 31.1207 107.334 29.7671 108.282 28.7607C109.231 27.7543 110.554 27.1848 111.938 27.1875ZM109.234 32.3507C109.183 31.5663 109.45 30.7944 109.975 30.2089C110.5 29.6233 111.239 29.2735 112.026 29.2382C112.85 29.1879 113.625 29.6362 113.991 30.3757L109.234 32.3507ZM105.791 37.5H103.45V21.875H105.791V37.5ZM99.6198 28.3754H99.5321C98.8245 27.5707 97.8005 27.1142 96.728 27.1254C93.8865 27.263 91.6534 29.6035 91.6534 32.4442C91.6534 35.2848 93.8865 37.6253 96.728 37.7629C97.8026 37.7844 98.8307 37.3261 99.5321 36.5129H99.6198V37.2754C99.6198 39.3129 98.5307 40.4004 96.7781 40.4004C95.5807 40.3741 94.5177 39.6287 94.0866 38.5129L92.0586 39.3504C92.8262 41.2754 94.7032 42.5282 96.7781 42.5004C99.5196 42.5004 101.786 40.8879 101.786 36.9629V27.5004H99.6198V28.3754ZM93.8995 32.5067C93.8995 34.2099 95.2259 35.6194 96.9283 35.7254C97.7419 35.6942 98.5072 35.3318 99.0464 34.7226C99.5855 34.1135 99.8515 33.3105 99.7825 32.5004C99.8443 31.6932 99.5754 30.8956 99.0374 30.29C98.4994 29.6844 97.7383 29.3228 96.9283 29.2879C95.2259 29.3939 93.8995 30.8035 93.8995 32.5067ZM127.461 21.8758H121.853V37.5008H124.194V31.5758H127.461C129.28 31.7063 131.019 30.8115 131.968 29.257C132.917 27.7026 132.917 25.749 131.968 24.1946C131.019 22.6402 129.28 21.7454 127.461 21.8758ZM124.194 29.3758H127.461L127.511 29.4008C128.468 29.4008 129.352 28.8909 129.831 28.0633C130.31 27.2356 130.31 26.2159 129.831 25.3883C129.352 24.5606 128.468 24.0508 127.511 24.0508H124.194V29.3758ZM141.908 27.1382C140.165 27.0309 138.526 27.9697 137.739 29.5257L139.805 30.3882C140.231 29.6206 141.069 29.175 141.945 29.2507C142.546 29.1807 143.149 29.3544 143.62 29.7328C144.09 30.1113 144.389 30.6627 144.449 31.2632V31.4132C143.696 31.0181 142.858 30.8121 142.008 30.8132C139.78 30.8132 137.501 32.0632 137.501 34.3382C137.546 35.3152 137.985 36.2324 138.719 36.8802C139.453 37.528 140.418 37.8512 141.394 37.7757C142.591 37.8418 143.729 37.2589 144.374 36.2507H144.449V37.5007H146.702V31.4882C146.702 28.7507 144.624 27.1632 141.958 27.1632L141.908 27.1382ZM139.792 34.3755C139.792 35.313 140.856 35.7005 141.62 35.7005L141.67 35.7255C143.085 35.6973 144.262 34.6294 144.424 33.2255C143.775 32.8635 143.04 32.6822 142.296 32.7005C141.119 32.7005 139.792 33.1255 139.792 34.3755ZM154.914 27.5L152.235 34.275H152.16L149.381 27.5H146.877L151.046 36.975L148.667 42.2375H151.108L157.518 27.5H154.914ZM136.211 37.5H133.883V21.875H136.211V37.5Z" fill="white"/>
<path d="M13.079 9.42539C12.6665 9.91242 12.456 10.5385 12.4907 11.1754V38.8254C12.4481 39.4634 12.6595 40.0923 13.079 40.5754L13.1667 40.6754L28.6771 25.1879V24.8129L13.1667 9.33789L13.079 9.42539Z" fill="url(#paint0_linear_104_8105)"/>
<path d="M33.8094 30.3504L28.6768 25.1879V24.8129L33.8094 19.6504L33.9221 19.7254L40.0686 23.2004C41.8212 24.1879 41.8212 25.8129 40.0686 26.8129L33.9471 30.2879L33.8094 30.3504Z" fill="url(#paint1_linear_104_8105)"/>
<path d="M33.96 30.275L28.6772 25L13.0791 40.575C13.809 41.2237 14.8984 41.2605 15.6705 40.6625L33.96 30.275Z" fill="url(#paint2_linear_104_8105)"/>
<path d="M33.96 19.7246L15.6705 9.3496C14.903 8.743 13.8101 8.77463 13.0791 9.4246L28.6772 24.9996L33.96 19.7246Z" fill="url(#paint3_linear_104_8105)"/>
<path opacity="0.2" d="M33.8098 30.1621L15.6705 40.4746C14.9296 41.033 13.9077 41.033 13.1668 40.4746L13.0791 40.5621L13.1668 40.6621C13.9077 41.2205 14.9296 41.2205 15.6705 40.6621L33.96 30.2746L33.8098 30.1621Z" fill="black"/>
<path opacity="0.12" d="M13.0785 40.4002C12.6764 39.9044 12.4794 39.2739 12.5277 38.6377V38.8252C12.4851 39.4632 12.6966 40.0921 13.1161 40.5752L13.2037 40.4877L13.0785 40.4002Z" fill="black"/>
<path opacity="0.12" d="M40.0689 26.625L33.8096 30.1625L33.9223 30.275L40.0689 26.8C40.808 26.4879 41.317 25.7974 41.3958 25C41.2371 25.7214 40.7446 26.3245 40.0689 26.625Z" fill="black"/>
<path opacity="0.25" d="M15.6709 9.52522L40.0695 23.3752C40.7452 23.6757 41.2378 24.2788 41.3965 25.0002C41.3177 24.2028 40.8086 23.5123 40.0695 23.2002L15.6709 9.35022C13.9309 8.35022 12.4912 9.17522 12.4912 11.1752V11.3627C12.5288 9.36272 13.9309 8.53772 15.6709 9.52522Z" fill="white"/>
</g>
<defs>
<linearGradient id="paint0_linear_104_8105" x1="21.8813" y1="-9.43958" x2="-2.9515" y2="-2.81976" gradientUnits="userSpaceOnUse">
<stop stop-color="#00A0FF"/>
<stop offset="0.01" stop-color="#00A1FF"/>
<stop offset="0.26" stop-color="#00BEFF"/>
<stop offset="0.51" stop-color="#00D2FF"/>
<stop offset="0.76" stop-color="#00DFFF"/>
<stop offset="1" stop-color="#00E3FF"/>
</linearGradient>
<linearGradient id="paint1_linear_104_8105" x1="42.3595" y1="12.25" x2="12.0772" y2="12.25" gradientUnits="userSpaceOnUse">
<stop stop-color="#FFE000"/>
<stop offset="0.41" stop-color="#FFBD00"/>
<stop offset="0.78" stop-color="#FFA500"/>
<stop offset="1" stop-color="#FF9C00"/>
</linearGradient>
<linearGradient id="paint2_linear_104_8105" x1="12.6379" y1="16.8993" x2="-7.29991" y2="50.4242" gradientUnits="userSpaceOnUse">
<stop stop-color="#FF3A44"/>
<stop offset="1" stop-color="#C31162"/>
</linearGradient>
<linearGradient id="paint3_linear_104_8105" x1="0.904786" y1="5.12325" x2="9.80137" y2="20.0946" gradientUnits="userSpaceOnUse">
<stop stop-color="#32A071"/>
<stop offset="0.07" stop-color="#2DA771"/>
<stop offset="0.48" stop-color="#15CF74"/>
<stop offset="0.8" stop-color="#06E775"/>
<stop offset="1" stop-color="#00F076"/>
</linearGradient>
<clipPath id="clip0_104_8105">
<rect width="169" height="50" fill="white" transform="translate(0.00976562)"/>
</clipPath>
</defs>
</svg>
