<svg width="20" height="20" viewBox="0 0 20 20" fill="none" xmlns="http://www.w3.org/2000/svg">
<g id="Search">
<g id="Vector">
<path fill-rule="evenodd" clip-rule="evenodd" d="M9.80687 2.94043C6.01518 2.94043 2.94141 6.0142 2.94141 9.8059C2.94141 13.5976 6.01518 16.6714 9.80687 16.6714C13.5986 16.6714 16.6723 13.5976 16.6723 9.8059C16.6723 6.0142 13.5986 2.94043 9.80687 2.94043ZM1.69141 9.8059C1.69141 5.32385 5.32482 1.69043 9.80687 1.69043C14.2889 1.69043 17.9223 5.32385 17.9223 9.8059C17.9223 14.2879 14.2889 17.9214 9.80687 17.9214C5.32482 17.9214 1.69141 14.2879 1.69141 9.8059Z" fill="#64748B"/>
<path fill-rule="evenodd" clip-rule="evenodd" d="M14.5741 14.9633C14.8179 14.7189 15.2136 14.7184 15.458 14.9622L18.3947 17.8912C18.6391 18.135 18.6396 18.5307 18.3958 18.7751C18.1521 19.0195 17.7564 19.02 17.512 18.7763L14.5753 15.8472C14.3309 15.6034 14.3304 15.2077 14.5741 14.9633Z" fill="#64748B"/>
</g>
</g>
</svg>
