<svg width="22" height="21" viewBox="0 0 22 21" fill="none" xmlns="http://www.w3.org/2000/svg">
<path d="M11 13.5C12.6569 13.5 14 12.1569 14 10.5C14 8.8431 12.6569 7.5 11 7.5C9.3431 7.5 8 8.8431 8 10.5C8 12.1569 9.3431 13.5 11 13.5Z" stroke="white" stroke-width="1.5" stroke-miterlimit="10" stroke-linecap="round" stroke-linejoin="round"/>
<path d="M1 11.3804V9.62041C1 8.58041 1.85 7.72044 2.9 7.72044C4.71 7.72044 5.45 6.44042 4.54 4.87042C4.02 3.97042 4.33 2.80042 5.24 2.28042L6.97 1.29042C7.76 0.820425 8.78 1.10042 9.25 1.89042L9.36 2.08042C10.26 3.65042 11.74 3.65042 12.65 2.08042L12.76 1.89042C13.23 1.10042 14.25 0.820425 15.04 1.29042L16.77 2.28042C17.68 2.80042 17.99 3.97042 17.47 4.87042C16.56 6.44042 17.3 7.72044 19.11 7.72044C20.15 7.72044 21.01 8.57041 21.01 9.62041V11.3804C21.01 12.4204 20.16 13.2804 19.11 13.2804C17.3 13.2804 16.56 14.5604 17.47 16.1304C17.99 17.0404 17.68 18.2004 16.77 18.7204L15.04 19.7104C14.25 20.1804 13.23 19.9004 12.76 19.1104L12.65 18.9204C11.75 17.3504 10.27 17.3504 9.36 18.9204L9.25 19.1104C8.78 19.9004 7.76 20.1804 6.97 19.7104L5.24 18.7204C4.33 18.2004 4.02 17.0304 4.54 16.1304C5.45 14.5604 4.71 13.2804 2.9 13.2804C1.85 13.2804 1 12.4204 1 11.3804Z" stroke="white" stroke-width="1.5" stroke-miterlimit="10" stroke-linecap="round" stroke-linejoin="round"/>
</svg>
