<svg width="232" height="205" viewBox="0 0 232 205" fill="none" xmlns="http://www.w3.org/2000/svg">
<g id="Frame" clip-path="url(#clip0_336_387)">
<g id="Group">
<g id="Layer 4">
<path id="Vector" d="M53.1447 200.744C53.1447 200.744 4.04596 184.017 16.0615 151.286C28.077 118.554 44.0289 103.556 27.2538 76.6639C10.4786 49.7715 48.4043 29.8845 105.158 30.2983C161.912 30.7122 253.677 89.3362 181.173 200.744H53.1447Z" fill="#ECF3FE"/>
<path id="Vector_2" d="M58.5748 198.111L67.779 183.639C67.779 183.639 54.0111 195.809 54.0111 195.581C54.0111 195.352 43.5315 172.153 43.5315 172.153C43.5315 172.153 48.8331 193.906 48.6859 197.102C48.6859 197.102 43.3739 192.266 40.8571 191.869C38.3404 191.473 44.3135 196.413 44.3076 199.308H58.0255L58.5748 198.111Z" fill="#B7CAE5"/>
<path id="Vector_3" d="M50.7708 99.6523L49.4203 94.8852L59.5214 89.3937L68.6196 119.99C69.2086 121.919 69.6538 123.164 69.9552 123.725C70.2753 124.314 70.6719 124.693 71.1452 124.863C71.3577 124.95 71.5869 124.988 71.8161 124.976C72.0454 124.963 72.269 124.899 72.4706 124.789C73.8451 124.04 75.1356 122.175 76.3422 119.193C77.5488 116.211 78.1183 112.73 78.0505 108.747C77.9857 104.768 76.9549 100.939 74.9579 97.2606C73.3612 94.2794 71.1686 91.6583 68.5164 89.5601C65.9111 87.4982 62.8878 86.0288 59.6569 85.254C56.3817 84.4578 52.8261 84.3753 48.9903 85.0066C45.1545 85.6378 41.195 87.0614 37.1118 89.2773C32.9529 91.5354 29.4338 94.1509 26.5542 97.1237C23.6746 100.097 21.4725 103.31 19.9478 106.764C18.4116 110.268 17.565 114.035 17.4546 117.859C17.3245 121.423 17.7089 124.987 18.5959 128.441C19.4995 132.047 20.8563 135.523 22.6339 138.787C25.0196 143.176 28.074 146.71 31.7969 149.39C35.5198 152.07 39.7154 153.74 44.3838 154.397C49.0512 155.049 54.0249 154.607 59.3049 153.072C64.5849 151.536 70.0309 148.848 75.6427 145.008C80.0607 141.881 83.4768 138.635 85.891 135.272C88.29 131.952 89.8984 128.128 90.5933 124.091L98.743 119.66C98.9039 123.079 98.4943 126.501 97.531 129.786C96.5286 133.166 94.9977 136.366 92.9952 139.267C90.9334 142.286 88.3386 145.143 85.2106 147.837C82.0826 150.531 78.426 153.014 74.2407 155.287C67.9662 158.699 61.8693 160.948 55.9501 162.033C50.031 163.118 44.5129 163.044 39.3959 161.812C34.3285 160.603 29.603 158.255 25.5778 154.948C21.4799 151.61 18.0166 147.339 15.1881 142.136C12.23 136.712 10.3754 131.15 9.62438 125.45C8.87332 119.751 9.25232 114.233 10.7613 108.895C12.2742 103.562 14.952 98.5787 18.7947 93.9457C22.6374 89.3126 27.5173 85.3855 33.4345 82.1643C38.2826 79.5302 43.1124 77.8219 47.9241 77.0394C52.7358 76.2569 57.3045 76.4086 61.6303 77.4945C65.9195 78.5627 69.9226 80.5573 73.3586 83.338C76.8517 86.1479 79.7917 89.7466 82.1784 94.1342C84.0406 97.5679 85.2678 101.31 85.8012 105.179C86.36 109.074 86.2053 113.037 85.3446 116.877C84.5063 120.68 82.9134 124.277 80.6601 127.453C78.3811 130.666 75.3858 133.305 71.911 135.16C69.8492 136.283 68.0516 136.806 66.5181 136.728C64.9845 136.651 63.6124 135.951 62.4019 134.628C61.3759 138.03 59.5774 140.801 57.0061 142.94C54.5117 145.049 51.4388 146.357 48.1892 146.692C44.8836 147.054 41.681 146.374 38.5815 144.654C35.482 142.934 32.8852 140.149 30.7911 136.298C28.6125 132.294 27.3308 127.884 26.9459 123.071C26.5611 118.257 27.2836 113.75 29.1137 109.549C30.9437 105.349 33.8616 102.158 37.8672 99.9763C42.4551 97.4816 46.7563 97.3735 50.7708 99.6523ZM40.6167 130.851C42.2809 133.911 44.1953 135.911 46.3602 136.85C48.525 137.79 50.6397 137.698 52.7044 136.575C55.1019 135.272 56.6924 133.168 57.4759 130.262C58.2593 127.356 58.3295 124.186 57.6864 120.754C57.0414 117.318 55.9772 114.237 54.4937 111.51C53.8375 110.27 53.0079 109.129 52.0299 108.123C51.1777 107.252 50.1722 106.547 49.064 106.041C48.0411 105.575 46.9218 105.36 45.7991 105.413C44.6221 105.491 43.4779 105.833 42.4517 106.415C40.2064 107.635 38.6595 109.608 37.8113 112.333C36.963 115.059 36.8133 118.081 37.3621 121.401C37.9088 124.711 39.0091 127.906 40.6167 130.851Z" fill="#52D1BD"/>
<path id="Vector_4" d="M164.08 163.707L160.172 169.696C161 170.483 161.987 171.083 163.067 171.454C164.148 171.825 165.295 171.96 166.432 171.848C168.513 171.646 170.431 170.634 171.771 169.029C171.991 169.752 172.233 170.55 172.491 171.397C173.399 174.382 174.489 177.974 175.399 180.99C173.093 190.723 171.09 199.283 171.09 199.652C171.09 200.525 186.7 199.652 186.7 199.652C186.7 199.652 186.446 195.319 186.111 189.377L191.254 183.82L192.183 182.822C192.955 183.633 193.965 184.178 195.067 184.377C196.169 184.576 197.306 184.419 198.312 183.928L196.432 180.15L201.162 180.265C201.317 179.526 201.311 178.762 201.144 178.025C200.977 177.288 200.654 176.595 200.196 175.995C199.777 175.443 199.254 174.98 198.656 174.631C198.058 174.282 197.397 174.055 196.711 173.961C196.025 173.868 195.327 173.911 194.658 174.087C193.988 174.263 193.36 174.57 192.809 174.989C191.907 175.675 191.25 176.634 190.935 177.723C190.621 178.812 190.665 179.974 191.063 181.035C190.942 181.119 190.817 181.206 190.687 181.293C189.345 182.211 187.518 183.401 185.827 184.474C185.556 179.629 185.268 174.291 185.029 169.537C184.939 167.736 184.855 166.017 184.785 164.44C186.642 165.435 188.716 165.954 190.822 165.951C193.794 165.952 196.675 164.923 198.972 163.038C201.27 161.153 202.843 158.529 203.423 155.614L193.325 153.687L200.521 144.689C199.317 143.299 197.827 142.186 196.153 141.423C194.48 140.661 192.662 140.268 190.822 140.271C187.417 140.271 184.151 141.625 181.743 144.033C179.336 146.442 177.983 149.708 177.984 153.114C177.98 155.736 178.782 158.297 180.283 160.448L179.693 162.905C178.957 165.998 178.113 169.519 177.25 173.141C176.112 171.244 174.921 169.267 173.902 167.591C173.66 167.188 173.424 166.804 173.203 166.44C173.559 165.382 173.687 164.261 173.579 163.15C173.375 161.046 172.343 159.109 170.712 157.765C169.08 156.422 166.981 155.781 164.877 155.984C163.04 156.162 161.322 156.971 160.015 158.274C158.708 159.577 157.894 161.293 157.711 163.129L164.08 163.707Z" fill="#B7CAE5"/>
<path id="Vector_5" d="M179.707 162.896C180.921 165.253 183.303 167.831 185.032 169.532C184.942 167.731 184.858 166.013 184.788 164.435C181.739 162.681 180.542 160.553 180.293 160.438L179.707 162.896Z" fill="#92AFCC"/>
<path id="Vector_6" d="M171.766 169.028C171.987 169.752 172.228 170.55 172.486 171.397C173.001 170.485 173.693 169.073 173.913 167.582C173.671 167.179 173.436 166.794 173.215 166.431C173.218 166.431 172.693 167.943 171.766 169.028Z" fill="#92AFCC"/>
<path id="Vector_7" d="M190.688 181.288C190.794 181.961 191.038 183.001 191.251 183.82L192.181 182.821C191.584 182.182 191.06 181.038 191.06 181.038C190.942 181.118 190.817 181.202 190.688 181.288Z" fill="#92AFCC"/>
<path id="Vector_8" d="M166.324 82.3014C166.29 82.3013 166.255 82.2931 166.225 82.2775C166.194 82.2619 166.167 82.2393 166.146 82.2116C166.111 82.1643 166.095 82.1049 166.104 82.0464C166.112 81.9879 166.143 81.9351 166.19 81.8994C166.383 81.7521 166.58 81.6049 166.779 81.4679C166.827 81.4338 166.887 81.4201 166.945 81.4298C167.003 81.4394 167.055 81.4716 167.09 81.5194C167.125 81.5677 167.138 81.6277 167.129 81.6862C167.119 81.7448 167.087 81.7971 167.038 81.8317C166.843 81.9701 166.648 82.1129 166.458 82.2558C166.42 82.2856 166.373 82.3017 166.324 82.3014Z" fill="#92AFCC"/>
<path id="Vector_9" d="M141.092 134.232C141.068 134.233 141.044 134.229 141.021 134.222C140.993 134.213 140.967 134.199 140.944 134.18C140.921 134.161 140.902 134.138 140.889 134.112C140.875 134.086 140.867 134.057 140.864 134.028C140.862 133.999 140.865 133.969 140.874 133.941C141.021 133.489 141.179 133.026 141.341 132.568C141.35 132.541 141.365 132.515 141.385 132.494C141.404 132.472 141.428 132.454 141.455 132.442C141.481 132.429 141.51 132.422 141.539 132.42C141.568 132.419 141.597 132.423 141.625 132.433C141.652 132.442 141.678 132.457 141.7 132.477C141.722 132.496 141.74 132.52 141.752 132.546C141.765 132.573 141.772 132.602 141.774 132.631C141.776 132.66 141.771 132.689 141.762 132.717C141.6 133.172 141.444 133.63 141.296 134.079C141.282 134.123 141.255 134.161 141.218 134.188C141.182 134.216 141.137 134.231 141.092 134.232ZM142.055 131.509C142.028 131.51 142.001 131.505 141.975 131.495C141.947 131.484 141.921 131.468 141.899 131.448C141.878 131.427 141.86 131.402 141.848 131.375C141.836 131.347 141.829 131.318 141.829 131.288C141.829 131.258 141.834 131.228 141.846 131.2C142.016 130.758 142.195 130.297 142.376 129.851C142.387 129.824 142.403 129.798 142.424 129.777C142.445 129.756 142.47 129.739 142.497 129.728C142.525 129.717 142.554 129.711 142.584 129.711C142.614 129.711 142.643 129.717 142.67 129.729C142.698 129.74 142.723 129.756 142.745 129.777C142.766 129.798 142.783 129.823 142.795 129.85C142.806 129.878 142.812 129.907 142.812 129.937C142.812 129.967 142.806 129.996 142.794 130.024C142.614 130.465 142.436 130.916 142.267 131.362C142.251 131.406 142.223 131.444 142.185 131.47C142.146 131.496 142.101 131.51 142.055 131.509ZM143.14 128.834C143.11 128.833 143.08 128.827 143.052 128.816C143.025 128.804 143 128.788 142.98 128.767C142.959 128.745 142.943 128.72 142.932 128.693C142.921 128.666 142.916 128.636 142.916 128.607C142.917 128.577 142.924 128.548 142.935 128.521C143.127 128.08 143.326 127.638 143.525 127.196C143.549 127.143 143.594 127.101 143.649 127.081C143.704 127.06 143.766 127.063 143.819 127.087C143.872 127.112 143.914 127.157 143.935 127.212C143.955 127.267 143.954 127.328 143.929 127.382C143.731 127.815 143.533 128.256 143.34 128.695C143.325 128.736 143.297 128.771 143.262 128.797C143.226 128.822 143.184 128.837 143.14 128.838V128.834ZM144.345 126.211C144.311 126.211 144.278 126.203 144.248 126.189C144.196 126.162 144.156 126.117 144.137 126.062C144.118 126.007 144.12 125.947 144.145 125.894C144.357 125.452 144.576 125.024 144.795 124.6C144.823 124.549 144.869 124.511 144.923 124.493C144.978 124.475 145.038 124.479 145.09 124.504C145.141 124.531 145.179 124.577 145.197 124.632C145.215 124.687 145.211 124.747 145.186 124.799C144.968 125.22 144.744 125.653 144.539 126.084C144.522 126.121 144.494 126.152 144.46 126.175C144.426 126.197 144.386 126.21 144.345 126.211ZM182.284 125.893H182.276C181.804 125.877 181.315 125.841 180.821 125.79C180.763 125.783 180.709 125.753 180.672 125.707C180.635 125.661 180.618 125.602 180.624 125.544C180.63 125.485 180.66 125.431 180.705 125.394C180.751 125.357 180.81 125.34 180.868 125.346C181.351 125.396 181.83 125.432 182.291 125.448C182.32 125.449 182.349 125.456 182.376 125.468C182.402 125.48 182.426 125.497 182.446 125.518C182.466 125.54 182.482 125.565 182.492 125.592C182.502 125.619 182.507 125.648 182.506 125.678C182.504 125.735 182.48 125.79 182.438 125.83C182.397 125.87 182.341 125.893 182.284 125.893ZM183.725 125.893C183.668 125.892 183.613 125.87 183.572 125.831C183.531 125.791 183.506 125.738 183.503 125.681C183.501 125.651 183.506 125.622 183.516 125.594C183.525 125.567 183.541 125.541 183.56 125.519C183.58 125.498 183.604 125.48 183.63 125.467C183.657 125.455 183.686 125.448 183.715 125.446C184.2 125.423 184.675 125.376 185.127 125.308C185.156 125.304 185.186 125.305 185.215 125.312C185.243 125.319 185.27 125.332 185.293 125.35C185.317 125.367 185.337 125.389 185.352 125.414C185.367 125.44 185.377 125.468 185.381 125.497C185.385 125.525 185.384 125.555 185.377 125.583C185.37 125.612 185.357 125.638 185.34 125.662C185.322 125.686 185.3 125.705 185.275 125.72C185.25 125.736 185.223 125.746 185.194 125.75C184.727 125.819 184.236 125.868 183.737 125.897L183.725 125.893ZM179.418 125.598H179.38C178.913 125.519 178.433 125.423 177.954 125.315C177.896 125.302 177.846 125.266 177.814 125.216C177.782 125.166 177.772 125.105 177.785 125.047C177.798 124.99 177.834 124.94 177.884 124.909C177.934 124.877 177.995 124.867 178.053 124.88C178.523 124.987 178.995 125.08 179.455 125.158C179.513 125.168 179.565 125.201 179.599 125.249C179.633 125.297 179.647 125.357 179.637 125.416C179.628 125.466 179.602 125.511 179.563 125.544C179.525 125.577 179.476 125.596 179.425 125.598H179.418ZM186.571 125.451C186.522 125.451 186.475 125.435 186.436 125.405C186.397 125.376 186.37 125.334 186.357 125.287C186.349 125.259 186.347 125.23 186.35 125.201C186.354 125.171 186.363 125.143 186.378 125.118C186.392 125.092 186.412 125.07 186.435 125.052C186.458 125.034 186.485 125.021 186.513 125.014C186.965 124.889 187.408 124.733 187.839 124.548C187.866 124.536 187.895 124.53 187.924 124.53C187.953 124.529 187.983 124.534 188.01 124.545C188.037 124.556 188.062 124.572 188.083 124.593C188.105 124.613 188.121 124.638 188.133 124.665C188.145 124.691 188.152 124.72 188.152 124.75C188.153 124.779 188.147 124.809 188.137 124.836C188.126 124.863 188.11 124.888 188.089 124.91C188.068 124.931 188.044 124.948 188.017 124.959C187.566 125.153 187.102 125.316 186.628 125.445C186.609 125.449 186.59 125.451 186.571 125.451ZM176.605 124.959C176.585 124.959 176.565 124.956 176.546 124.95C176.084 124.821 175.617 124.678 175.156 124.526C175.128 124.517 175.102 124.503 175.079 124.484C175.056 124.465 175.037 124.441 175.024 124.415C175.01 124.389 175.002 124.36 174.999 124.331C174.997 124.301 175 124.272 175.009 124.243C175.017 124.215 175.032 124.189 175.051 124.166C175.07 124.143 175.093 124.124 175.119 124.111C175.146 124.097 175.174 124.088 175.204 124.086C175.233 124.084 175.263 124.087 175.291 124.096C175.745 124.243 176.205 124.391 176.66 124.514C176.717 124.53 176.765 124.568 176.794 124.62C176.823 124.672 176.83 124.733 176.814 124.79C176.802 124.836 176.775 124.878 176.738 124.908C176.7 124.939 176.653 124.956 176.605 124.958V124.959ZM189.205 124.304C189.168 124.304 189.131 124.295 189.098 124.277C189.065 124.259 189.037 124.232 189.017 124.201C188.985 124.151 188.975 124.09 188.987 124.033C189 123.975 189.035 123.925 189.084 123.893C189.48 123.642 189.853 123.358 190.199 123.043C190.243 123.003 190.301 122.983 190.36 122.985C190.419 122.988 190.474 123.014 190.514 123.058C190.554 123.102 190.574 123.159 190.571 123.218C190.569 123.277 190.543 123.333 190.5 123.373C190.133 123.704 189.739 124.004 189.322 124.27C189.287 124.291 189.246 124.303 189.205 124.302V124.304ZM173.869 124.052C173.841 124.052 173.814 124.047 173.788 124.037C173.333 123.862 172.881 123.676 172.445 123.485C172.418 123.473 172.393 123.456 172.373 123.435C172.353 123.414 172.337 123.389 172.326 123.362C172.315 123.334 172.31 123.305 172.311 123.276C172.311 123.246 172.318 123.217 172.33 123.19C172.342 123.163 172.358 123.139 172.38 123.119C172.401 123.098 172.426 123.082 172.453 123.071C172.481 123.061 172.51 123.056 172.539 123.056C172.569 123.057 172.598 123.064 172.624 123.075C173.053 123.264 173.499 123.447 173.95 123.619C173.978 123.629 174.003 123.646 174.025 123.666C174.047 123.687 174.064 123.712 174.076 123.739C174.088 123.767 174.094 123.796 174.095 123.826C174.095 123.856 174.089 123.886 174.078 123.913C174.061 123.955 174.032 123.99 173.994 124.014C173.957 124.039 173.913 124.051 173.869 124.05V124.052ZM145.672 123.648C145.634 123.648 145.597 123.639 145.564 123.622C145.513 123.593 145.474 123.545 145.458 123.488C145.441 123.432 145.448 123.371 145.476 123.318C145.708 122.894 145.949 122.47 146.189 122.058C146.203 122.032 146.223 122.01 146.246 121.992C146.269 121.975 146.296 121.962 146.324 121.954C146.352 121.946 146.382 121.945 146.411 121.949C146.44 121.952 146.468 121.962 146.493 121.977C146.544 122.007 146.581 122.056 146.596 122.113C146.611 122.17 146.602 122.231 146.573 122.282C146.336 122.691 146.097 123.112 145.866 123.533C145.847 123.568 145.819 123.597 145.784 123.617C145.75 123.637 145.711 123.647 145.672 123.647V123.648ZM171.23 122.888C171.195 122.889 171.161 122.88 171.13 122.865L170.96 122.778C170.591 122.587 170.224 122.379 169.853 122.164C169.802 122.134 169.765 122.085 169.75 122.028C169.736 121.971 169.744 121.91 169.773 121.859C169.804 121.808 169.853 121.771 169.91 121.757C169.968 121.742 170.029 121.751 170.08 121.781C170.438 121.992 170.803 122.193 171.165 122.382L171.331 122.467C171.383 122.494 171.422 122.54 171.44 122.595C171.458 122.65 171.454 122.71 171.429 122.762C171.411 122.799 171.382 122.831 171.347 122.853C171.312 122.875 171.271 122.887 171.23 122.887V122.888ZM191.327 122.374C191.278 122.375 191.229 122.358 191.19 122.327C191.167 122.309 191.148 122.287 191.133 122.261C191.119 122.236 191.109 122.208 191.106 122.179C191.102 122.149 191.105 122.12 191.112 122.091C191.12 122.063 191.134 122.037 191.152 122.014C191.44 121.642 191.699 121.248 191.925 120.836C191.954 120.784 192.002 120.746 192.059 120.73C192.116 120.713 192.177 120.72 192.229 120.749C192.254 120.763 192.277 120.782 192.295 120.805C192.314 120.828 192.327 120.854 192.335 120.882C192.343 120.91 192.346 120.94 192.342 120.969C192.339 120.998 192.33 121.026 192.315 121.052C192.077 121.483 191.805 121.895 191.503 122.283C191.482 122.311 191.456 122.333 191.425 122.349C191.395 122.364 191.361 122.373 191.327 122.373V122.374ZM168.747 121.426C168.703 121.426 168.66 121.412 168.623 121.388C168.226 121.12 167.828 120.834 167.445 120.54C167.422 120.522 167.402 120.5 167.388 120.474C167.373 120.449 167.364 120.421 167.36 120.392C167.356 120.363 167.358 120.334 167.365 120.305C167.373 120.277 167.386 120.251 167.404 120.227C167.421 120.204 167.443 120.184 167.469 120.169C167.494 120.154 167.522 120.145 167.551 120.141C167.58 120.137 167.61 120.138 167.638 120.146C167.666 120.154 167.693 120.167 167.716 120.185C168.096 120.479 168.486 120.755 168.877 121.018C168.901 121.034 168.922 121.055 168.938 121.08C168.954 121.104 168.965 121.132 168.971 121.16C168.977 121.189 168.976 121.219 168.971 121.247C168.965 121.276 168.953 121.303 168.937 121.327C168.916 121.358 168.887 121.383 168.854 121.4C168.821 121.417 168.784 121.426 168.747 121.425V121.426ZM147.122 121.155C147.081 121.155 147.041 121.143 147.006 121.121C146.981 121.106 146.959 121.086 146.941 121.063C146.924 121.039 146.912 121.012 146.905 120.984C146.898 120.955 146.897 120.925 146.902 120.896C146.906 120.868 146.917 120.84 146.932 120.815C147.187 120.403 147.449 119.99 147.71 119.593C147.742 119.543 147.793 119.508 147.851 119.496C147.909 119.484 147.969 119.496 148.019 119.528C148.068 119.561 148.103 119.611 148.115 119.669C148.126 119.727 148.115 119.788 148.082 119.837C147.823 120.232 147.564 120.64 147.312 121.049C147.292 121.081 147.264 121.108 147.231 121.126C147.197 121.144 147.16 121.154 147.122 121.154V121.155ZM192.729 119.867C192.702 119.867 192.674 119.862 192.648 119.852C192.62 119.841 192.594 119.825 192.573 119.805C192.551 119.784 192.533 119.759 192.521 119.732C192.509 119.704 192.503 119.675 192.503 119.645C192.503 119.615 192.509 119.585 192.52 119.557C192.689 119.117 192.83 118.666 192.943 118.208C192.957 118.151 192.993 118.102 193.044 118.071C193.094 118.04 193.155 118.031 193.212 118.045C193.27 118.059 193.32 118.096 193.35 118.147C193.381 118.197 193.39 118.258 193.376 118.316C193.258 118.791 193.11 119.259 192.934 119.716C192.919 119.759 192.891 119.796 192.855 119.822C192.818 119.849 192.774 119.864 192.729 119.865V119.867ZM166.454 119.68C166.4 119.68 166.347 119.661 166.307 119.625C165.941 119.313 165.578 118.984 165.227 118.65C165.184 118.609 165.16 118.553 165.158 118.494C165.156 118.435 165.178 118.378 165.218 118.335C165.26 118.292 165.316 118.268 165.375 118.266C165.434 118.265 165.492 118.287 165.535 118.328C165.88 118.657 166.237 118.98 166.597 119.286C166.642 119.325 166.669 119.38 166.674 119.439C166.678 119.498 166.659 119.557 166.62 119.601C166.6 119.625 166.574 119.645 166.546 119.658C166.517 119.671 166.486 119.678 166.454 119.678V119.68ZM148.704 118.741C148.659 118.742 148.614 118.728 148.577 118.702C148.553 118.685 148.532 118.664 148.517 118.639C148.501 118.615 148.49 118.587 148.485 118.559C148.479 118.53 148.48 118.5 148.486 118.472C148.493 118.443 148.504 118.416 148.521 118.392C148.798 117.995 149.082 117.599 149.367 117.214C149.402 117.167 149.455 117.136 149.513 117.127C149.572 117.119 149.631 117.133 149.679 117.169C149.726 117.204 149.757 117.257 149.766 117.315C149.775 117.373 149.761 117.433 149.726 117.481C149.443 117.861 149.16 118.254 148.888 118.647C148.867 118.676 148.839 118.7 148.807 118.716C148.775 118.732 148.74 118.74 148.704 118.74V118.741ZM164.366 117.69C164.335 117.69 164.305 117.684 164.277 117.671C164.249 117.659 164.224 117.642 164.204 117.619C163.872 117.27 163.545 116.905 163.233 116.537C163.214 116.515 163.2 116.489 163.191 116.461C163.182 116.433 163.178 116.404 163.181 116.375C163.183 116.346 163.191 116.317 163.204 116.291C163.218 116.265 163.236 116.242 163.258 116.223C163.281 116.204 163.306 116.19 163.334 116.181C163.362 116.172 163.391 116.168 163.42 116.171C163.449 116.173 163.478 116.181 163.504 116.194C163.53 116.208 163.553 116.226 163.572 116.248C163.881 116.61 164.202 116.968 164.528 117.314C164.568 117.357 164.59 117.415 164.588 117.474C164.586 117.533 164.562 117.589 164.519 117.63C164.477 117.668 164.422 117.689 164.366 117.688V117.69ZM193.423 117.076H193.394C193.335 117.068 193.282 117.037 193.246 116.99C193.21 116.943 193.193 116.884 193.201 116.825C193.26 116.356 193.295 115.884 193.305 115.412C193.306 115.354 193.33 115.298 193.372 115.257C193.413 115.217 193.469 115.194 193.527 115.194C193.557 115.194 193.586 115.201 193.613 115.213C193.639 115.224 193.664 115.241 193.684 115.263C193.704 115.284 193.72 115.309 193.731 115.336C193.741 115.364 193.746 115.393 193.746 115.422C193.736 115.911 193.701 116.398 193.639 116.883C193.632 116.935 193.606 116.983 193.566 117.018C193.527 117.053 193.476 117.073 193.423 117.074V117.076ZM150.421 116.426C150.371 116.426 150.322 116.409 150.283 116.378C150.259 116.36 150.24 116.337 150.226 116.312C150.211 116.286 150.202 116.258 150.199 116.229C150.195 116.199 150.198 116.17 150.206 116.142C150.214 116.113 150.227 116.087 150.246 116.064C150.54 115.684 150.855 115.307 151.163 114.942C151.182 114.92 151.205 114.901 151.231 114.888C151.257 114.874 151.285 114.866 151.315 114.864C151.344 114.861 151.373 114.864 151.401 114.873C151.429 114.882 151.455 114.897 151.477 114.915C151.522 114.954 151.55 115.008 151.555 115.068C151.56 115.127 151.542 115.185 151.503 115.231C151.199 115.591 150.894 115.967 150.595 116.341C150.574 116.367 150.548 116.388 150.519 116.402C150.489 116.417 150.457 116.425 150.424 116.425L150.421 116.426ZM162.497 115.493C162.463 115.493 162.429 115.485 162.398 115.47C162.367 115.455 162.341 115.433 162.32 115.406C162.026 115.023 161.731 114.627 161.466 114.228C161.449 114.204 161.438 114.177 161.431 114.148C161.425 114.119 161.425 114.09 161.43 114.061C161.435 114.032 161.446 114.005 161.462 113.98C161.479 113.956 161.499 113.935 161.523 113.918C161.547 113.902 161.575 113.89 161.603 113.884C161.632 113.878 161.661 113.877 161.69 113.882C161.719 113.888 161.746 113.899 161.771 113.915C161.795 113.931 161.816 113.952 161.833 113.976C162.102 114.368 162.385 114.756 162.674 115.133C162.691 115.157 162.705 115.183 162.712 115.211C162.72 115.24 162.722 115.269 162.718 115.298C162.714 115.327 162.704 115.355 162.69 115.38C162.675 115.406 162.656 115.428 162.632 115.446C162.593 115.475 162.546 115.491 162.497 115.491V115.493ZM152.285 114.223C152.231 114.223 152.179 114.202 152.138 114.166C152.094 114.126 152.068 114.071 152.065 114.012C152.062 113.953 152.082 113.895 152.122 113.851C152.446 113.493 152.78 113.136 153.113 112.793C153.155 112.752 153.212 112.728 153.271 112.728C153.331 112.728 153.387 112.752 153.43 112.793C153.471 112.835 153.495 112.892 153.495 112.951C153.495 113.01 153.471 113.067 153.43 113.108C153.098 113.449 152.768 113.801 152.447 114.154C152.426 114.176 152.401 114.193 152.373 114.205C152.346 114.216 152.316 114.222 152.285 114.222V114.223ZM193.48 114.198C193.425 114.198 193.371 114.177 193.33 114.139C193.289 114.101 193.264 114.049 193.259 113.994C193.22 113.522 193.156 113.053 193.068 112.589C193.063 112.56 193.063 112.53 193.069 112.502C193.074 112.473 193.086 112.446 193.102 112.422C193.119 112.397 193.14 112.377 193.164 112.361C193.189 112.345 193.216 112.333 193.245 112.328C193.273 112.322 193.303 112.323 193.332 112.328C193.36 112.334 193.388 112.346 193.412 112.362C193.436 112.379 193.457 112.4 193.473 112.424C193.489 112.449 193.5 112.476 193.505 112.505C193.597 112.985 193.663 113.47 193.703 113.957C193.705 113.986 193.702 114.015 193.693 114.043C193.685 114.071 193.67 114.097 193.651 114.119C193.632 114.142 193.609 114.16 193.583 114.173C193.557 114.187 193.529 114.195 193.5 114.197L193.48 114.198ZM160.87 113.116C160.831 113.116 160.794 113.106 160.76 113.087C160.727 113.069 160.699 113.042 160.678 113.01C160.426 112.597 160.18 112.175 159.951 111.752C159.922 111.7 159.916 111.639 159.932 111.582C159.949 111.525 159.987 111.477 160.039 111.449C160.065 111.435 160.093 111.426 160.122 111.423C160.151 111.42 160.181 111.423 160.209 111.431C160.237 111.439 160.263 111.453 160.285 111.472C160.308 111.49 160.327 111.513 160.341 111.539C160.568 111.954 160.809 112.371 161.058 112.776C161.089 112.826 161.099 112.887 161.086 112.944C161.072 113.002 161.036 113.052 160.986 113.083C160.951 113.105 160.911 113.116 160.87 113.116ZM154.301 112.154C154.272 112.154 154.242 112.148 154.214 112.137C154.187 112.125 154.162 112.108 154.141 112.086C154.12 112.066 154.104 112.041 154.092 112.014C154.081 111.987 154.075 111.958 154.075 111.928C154.075 111.899 154.081 111.87 154.092 111.842C154.104 111.815 154.12 111.791 154.141 111.77C154.491 111.436 154.851 111.106 155.209 110.789C155.253 110.75 155.311 110.731 155.37 110.734C155.429 110.738 155.484 110.764 155.524 110.808C155.563 110.853 155.582 110.911 155.579 110.97C155.575 111.029 155.548 111.084 155.503 111.123C155.15 111.435 154.795 111.762 154.449 112.092C154.408 112.132 154.353 112.154 154.296 112.154H154.301ZM192.95 111.369C192.902 111.369 192.856 111.354 192.817 111.325C192.779 111.296 192.751 111.256 192.737 111.21C192.6 110.759 192.437 110.317 192.249 109.885C192.226 109.83 192.225 109.769 192.247 109.714C192.269 109.659 192.311 109.614 192.366 109.59C192.393 109.578 192.422 109.572 192.451 109.571C192.48 109.571 192.51 109.576 192.537 109.587C192.565 109.598 192.59 109.614 192.611 109.634C192.632 109.655 192.649 109.679 192.66 109.707C192.854 110.156 193.022 110.615 193.164 111.084C193.173 111.111 193.176 111.141 193.173 111.17C193.171 111.199 193.162 111.228 193.148 111.254C193.135 111.279 193.116 111.302 193.093 111.321C193.071 111.34 193.045 111.353 193.017 111.362C192.993 111.368 192.969 111.37 192.944 111.369H192.95ZM159.49 110.584C159.447 110.585 159.406 110.573 159.37 110.55C159.335 110.528 159.306 110.496 159.288 110.458C159.079 110.016 158.88 109.574 158.699 109.132C158.687 109.105 158.681 109.076 158.681 109.046C158.68 109.016 158.686 108.987 158.697 108.96C158.708 108.932 158.725 108.907 158.746 108.886C158.767 108.865 158.792 108.849 158.82 108.838C158.847 108.826 158.876 108.82 158.906 108.819C158.935 108.819 158.965 108.825 158.992 108.836C159.02 108.847 159.045 108.864 159.066 108.885C159.087 108.906 159.103 108.931 159.114 108.958C159.295 109.4 159.493 109.842 159.703 110.263C159.728 110.316 159.73 110.377 159.711 110.432C159.691 110.487 159.651 110.532 159.599 110.558C159.563 110.577 159.524 110.586 159.484 110.584H159.49ZM156.463 110.247C156.43 110.247 156.397 110.24 156.367 110.225C156.337 110.211 156.311 110.19 156.29 110.165C156.271 110.142 156.257 110.116 156.249 110.088C156.24 110.06 156.238 110.03 156.241 110.001C156.244 109.972 156.252 109.944 156.266 109.918C156.28 109.892 156.299 109.869 156.322 109.851C156.696 109.545 157.082 109.246 157.466 108.958C157.514 108.923 157.573 108.908 157.632 108.917C157.69 108.926 157.743 108.957 157.778 109.004C157.796 109.027 157.809 109.054 157.816 109.082C157.823 109.111 157.825 109.14 157.82 109.169C157.816 109.198 157.806 109.226 157.791 109.251C157.776 109.276 157.756 109.298 157.733 109.315C157.353 109.599 156.973 109.895 156.603 110.198C156.56 110.233 156.506 110.25 156.452 110.247H156.463ZM191.796 108.732C191.757 108.732 191.719 108.722 191.685 108.703C191.652 108.684 191.624 108.656 191.604 108.623C191.472 108.4 191.332 108.181 191.187 107.978C191.065 107.804 190.936 107.63 190.803 107.464C190.785 107.441 190.771 107.415 190.763 107.387C190.754 107.358 190.752 107.329 190.755 107.3C190.758 107.271 190.767 107.242 190.781 107.217C190.795 107.191 190.814 107.168 190.837 107.15C190.86 107.132 190.886 107.118 190.914 107.11C190.942 107.102 190.972 107.099 191.001 107.102C191.03 107.106 191.059 107.115 191.084 107.129C191.11 107.143 191.132 107.162 191.151 107.185C191.289 107.359 191.426 107.54 191.554 107.723C191.701 107.938 191.849 108.165 191.987 108.394C192.017 108.445 192.026 108.506 192.011 108.564C191.997 108.621 191.96 108.67 191.909 108.701C191.875 108.721 191.836 108.732 191.796 108.732ZM158.768 108.523C158.732 108.523 158.696 108.514 158.664 108.497C158.632 108.48 158.604 108.455 158.584 108.425C158.551 108.376 158.538 108.316 158.549 108.258C158.56 108.2 158.594 108.148 158.643 108.115C159.042 107.842 159.453 107.577 159.859 107.325C159.91 107.294 159.97 107.284 160.028 107.298C160.086 107.311 160.136 107.347 160.167 107.397C160.198 107.448 160.208 107.509 160.194 107.567C160.18 107.624 160.144 107.674 160.093 107.705C159.693 107.953 159.288 108.215 158.893 108.484C158.856 108.509 158.812 108.522 158.767 108.523H158.768ZM158.382 107.922C158.336 107.922 158.291 107.908 158.254 107.882C158.216 107.855 158.187 107.818 158.172 107.774C158.01 107.316 157.861 106.851 157.73 106.39C157.713 106.334 157.719 106.273 157.746 106.221C157.774 106.169 157.821 106.131 157.877 106.113C157.933 106.097 157.994 106.103 158.045 106.13C158.097 106.158 158.135 106.205 158.152 106.261C158.284 106.714 158.431 107.172 158.594 107.621C158.614 107.677 158.611 107.739 158.586 107.792C158.56 107.846 158.515 107.887 158.459 107.907C158.434 107.917 158.408 107.924 158.381 107.926L158.382 107.922ZM161.22 107.009C161.181 107.009 161.142 106.998 161.107 106.978C161.073 106.958 161.045 106.93 161.026 106.895C161.011 106.87 161.002 106.842 160.999 106.813C160.995 106.783 160.997 106.754 161.005 106.726C161.013 106.698 161.027 106.671 161.045 106.648C161.063 106.625 161.086 106.606 161.111 106.592C161.534 106.356 161.967 106.129 162.397 105.916C162.449 105.891 162.51 105.888 162.565 105.907C162.62 105.926 162.665 105.966 162.691 106.018C162.716 106.07 162.719 106.13 162.7 106.185C162.681 106.24 162.642 106.286 162.59 106.312C162.167 106.521 161.74 106.745 161.323 106.976C161.292 106.996 161.256 107.007 161.219 107.009H161.22ZM189.998 106.492C189.943 106.491 189.891 106.47 189.85 106.433C189.506 106.113 189.141 105.818 188.756 105.549C188.708 105.515 188.676 105.463 188.666 105.405C188.656 105.347 188.669 105.287 188.703 105.239C188.72 105.215 188.741 105.194 188.766 105.179C188.791 105.163 188.818 105.152 188.847 105.147C188.876 105.143 188.906 105.143 188.934 105.15C188.963 105.156 188.99 105.169 189.014 105.185C189.414 105.468 189.796 105.778 190.155 106.112C190.198 106.152 190.223 106.208 190.225 106.267C190.227 106.326 190.206 106.384 190.165 106.427C190.143 106.449 190.117 106.466 190.088 106.478C190.059 106.489 190.027 106.494 189.996 106.492H189.998ZM163.802 105.73C163.758 105.731 163.716 105.718 163.68 105.695C163.643 105.671 163.614 105.637 163.597 105.598C163.574 105.543 163.573 105.482 163.594 105.427C163.616 105.372 163.658 105.327 163.712 105.303C164.154 105.11 164.606 104.926 165.056 104.755C165.111 104.734 165.173 104.736 165.226 104.76C165.28 104.784 165.322 104.829 165.344 104.884C165.355 104.911 165.361 104.941 165.361 104.971C165.361 105.001 165.355 105.031 165.342 105.059C165.33 105.086 165.313 105.111 165.291 105.132C165.268 105.152 165.242 105.168 165.214 105.178C164.772 105.347 164.33 105.53 163.889 105.72C163.86 105.729 163.83 105.732 163.8 105.73H163.802ZM157.581 105.153C157.531 105.153 157.482 105.136 157.442 105.104C157.403 105.073 157.375 105.029 157.365 104.979C157.257 104.507 157.163 104.025 157.085 103.552C157.08 103.523 157.081 103.494 157.088 103.465C157.094 103.437 157.106 103.41 157.124 103.386C157.141 103.362 157.162 103.342 157.187 103.326C157.212 103.311 157.24 103.301 157.269 103.296C157.327 103.287 157.387 103.301 157.435 103.335C157.483 103.37 157.515 103.422 157.525 103.48C157.602 103.944 157.693 104.417 157.799 104.881C157.806 104.909 157.807 104.939 157.802 104.968C157.797 104.997 157.787 105.025 157.771 105.05C157.755 105.075 157.735 105.096 157.711 105.113C157.687 105.13 157.66 105.142 157.631 105.149C157.614 105.152 157.597 105.153 157.58 105.153H157.581ZM187.653 104.829C187.617 104.829 187.581 104.82 187.548 104.803C187.131 104.58 186.703 104.381 186.264 104.205C186.237 104.194 186.212 104.177 186.19 104.156C186.169 104.136 186.152 104.111 186.141 104.083C186.129 104.056 186.123 104.027 186.123 103.997C186.123 103.967 186.129 103.938 186.141 103.91C186.152 103.883 186.168 103.857 186.189 103.836C186.21 103.815 186.235 103.798 186.262 103.787C186.289 103.775 186.319 103.769 186.349 103.769C186.378 103.769 186.408 103.775 186.435 103.786C186.888 103.969 187.33 104.175 187.761 104.405C187.812 104.433 187.851 104.481 187.868 104.537C187.885 104.594 187.879 104.655 187.852 104.707C187.834 104.745 187.805 104.776 187.77 104.799C187.734 104.821 187.693 104.833 187.652 104.834L187.653 104.829ZM166.494 104.707C166.447 104.707 166.401 104.692 166.363 104.664C166.325 104.636 166.296 104.597 166.282 104.552C166.273 104.524 166.269 104.495 166.272 104.465C166.275 104.436 166.283 104.407 166.297 104.381C166.31 104.355 166.329 104.332 166.352 104.313C166.375 104.294 166.401 104.28 166.429 104.271C166.67 104.193 166.913 104.124 167.153 104.046C167.196 104.032 167.427 103.965 167.825 103.86C167.882 103.845 167.943 103.854 167.994 103.884C168.045 103.914 168.083 103.963 168.097 104.021C168.112 104.078 168.104 104.138 168.074 104.189C168.044 104.24 167.995 104.277 167.938 104.292C167.547 104.395 167.323 104.461 167.282 104.473C167.045 104.543 166.804 104.62 166.567 104.695C166.543 104.703 166.518 104.707 166.492 104.707H166.494ZM169.28 103.96C169.229 103.96 169.18 103.943 169.141 103.912C169.102 103.88 169.074 103.836 169.064 103.786C169.057 103.758 169.056 103.728 169.061 103.7C169.066 103.671 169.077 103.643 169.092 103.618C169.108 103.594 169.128 103.572 169.152 103.555C169.176 103.538 169.203 103.526 169.231 103.52C169.698 103.417 170.175 103.317 170.651 103.225C170.709 103.214 170.77 103.226 170.819 103.26C170.868 103.293 170.902 103.344 170.913 103.402C170.924 103.46 170.911 103.52 170.878 103.569C170.845 103.618 170.793 103.652 170.735 103.663C170.264 103.753 169.791 103.851 169.329 103.957L169.28 103.96ZM184.988 103.747C184.966 103.747 184.945 103.744 184.924 103.738C184.482 103.607 184.02 103.489 183.544 103.387C183.516 103.381 183.489 103.37 183.464 103.353C183.44 103.337 183.42 103.316 183.404 103.291C183.388 103.267 183.377 103.239 183.372 103.211C183.367 103.182 183.367 103.152 183.373 103.124C183.379 103.095 183.391 103.068 183.407 103.044C183.424 103.02 183.445 102.999 183.47 102.983C183.494 102.967 183.521 102.956 183.55 102.95C183.579 102.945 183.608 102.945 183.637 102.951C184.123 103.055 184.599 103.175 185.051 103.311C185.107 103.328 185.154 103.367 185.182 103.419C185.209 103.471 185.215 103.531 185.198 103.588C185.185 103.633 185.157 103.674 185.118 103.702C185.08 103.731 185.034 103.746 184.986 103.747H184.988ZM172.115 103.42C172.062 103.42 172.01 103.401 171.97 103.366C171.929 103.332 171.902 103.284 171.894 103.231C171.889 103.202 171.891 103.173 171.897 103.144C171.904 103.116 171.917 103.089 171.934 103.065C171.951 103.042 171.973 103.022 171.998 103.006C172.023 102.991 172.051 102.981 172.08 102.976C172.558 102.9 173.041 102.829 173.514 102.77C173.573 102.763 173.632 102.779 173.679 102.816C173.725 102.852 173.756 102.905 173.764 102.963C173.771 103.022 173.755 103.081 173.718 103.128C173.682 103.174 173.629 103.205 173.57 103.212C173.102 103.272 172.624 103.34 172.15 103.417L172.115 103.42ZM182.172 103.143H182.141C181.683 103.078 181.204 103.025 180.72 102.985C180.69 102.983 180.662 102.975 180.636 102.961C180.61 102.948 180.587 102.929 180.568 102.907C180.549 102.884 180.535 102.858 180.526 102.83C180.517 102.802 180.514 102.773 180.516 102.744C180.519 102.715 180.527 102.686 180.54 102.66C180.554 102.634 180.572 102.611 180.594 102.592C180.617 102.574 180.642 102.559 180.67 102.55C180.698 102.542 180.727 102.538 180.757 102.541C181.25 102.58 181.736 102.635 182.203 102.701C182.261 102.71 182.314 102.741 182.35 102.788C182.385 102.835 182.401 102.894 182.393 102.953C182.385 103.006 182.358 103.054 182.317 103.089C182.276 103.124 182.224 103.143 182.17 103.143H182.172ZM174.976 103.056C174.921 103.056 174.867 103.035 174.826 102.998C174.785 102.961 174.759 102.909 174.754 102.854C174.751 102.825 174.754 102.796 174.763 102.767C174.771 102.739 174.785 102.713 174.804 102.691C174.823 102.668 174.846 102.649 174.872 102.636C174.898 102.622 174.926 102.614 174.956 102.611C175.443 102.566 175.929 102.529 176.402 102.502C176.461 102.499 176.519 102.519 176.563 102.559C176.607 102.598 176.634 102.654 176.637 102.713C176.639 102.742 176.635 102.771 176.625 102.799C176.615 102.827 176.6 102.852 176.581 102.874C176.561 102.895 176.538 102.913 176.511 102.926C176.485 102.938 176.456 102.946 176.427 102.947C175.96 102.974 175.479 103.01 174.997 103.055L174.976 103.056ZM179.299 102.909H179.291C178.826 102.896 178.338 102.893 177.86 102.9C177.83 102.901 177.801 102.896 177.774 102.885C177.746 102.874 177.721 102.858 177.7 102.838C177.679 102.817 177.662 102.793 177.651 102.766C177.639 102.739 177.633 102.71 177.633 102.68C177.632 102.651 177.638 102.622 177.648 102.595C177.659 102.567 177.675 102.543 177.695 102.521C177.716 102.5 177.74 102.484 177.767 102.472C177.794 102.46 177.823 102.454 177.852 102.454C178.337 102.454 178.832 102.454 179.304 102.464C179.334 102.465 179.362 102.471 179.389 102.483C179.416 102.495 179.44 102.512 179.46 102.533C179.48 102.554 179.496 102.579 179.506 102.607C179.517 102.634 179.522 102.663 179.521 102.692C179.518 102.75 179.493 102.804 179.452 102.843C179.41 102.883 179.355 102.905 179.297 102.904L179.299 102.909ZM157.114 102.32C157.059 102.319 157.006 102.298 156.965 102.261C156.924 102.224 156.899 102.173 156.893 102.118C156.843 101.635 156.809 101.146 156.792 100.666C156.79 100.607 156.811 100.549 156.852 100.506C156.892 100.463 156.948 100.437 157.007 100.435C157.066 100.433 157.123 100.454 157.167 100.494C157.21 100.535 157.236 100.591 157.238 100.65C157.256 101.121 157.288 101.6 157.337 102.074C157.342 102.132 157.325 102.191 157.288 102.237C157.25 102.283 157.197 102.312 157.138 102.318L157.114 102.32ZM157.01 99.4391H157.002C156.943 99.4372 156.887 99.412 156.847 99.3689C156.806 99.3259 156.784 99.2685 156.786 99.2094C156.801 98.7249 156.832 98.236 156.877 97.7559C156.88 97.7267 156.888 97.6985 156.902 97.6726C156.916 97.6468 156.935 97.6239 156.957 97.6053C156.98 97.5867 157.006 97.5727 157.034 97.5642C157.062 97.5557 157.091 97.5527 157.12 97.5556C157.149 97.5584 157.178 97.5668 157.203 97.5806C157.229 97.5943 157.252 97.613 157.271 97.6355C157.289 97.6581 157.303 97.6841 157.312 97.7121C157.32 97.7401 157.323 97.7695 157.32 97.7986C157.276 98.2684 157.245 98.747 157.232 99.2227C157.228 99.2793 157.203 99.3324 157.161 99.371C157.12 99.4096 157.065 99.4308 157.008 99.4303L157.01 99.4391ZM157.287 96.5704C157.274 96.5718 157.262 96.5718 157.25 96.5704C157.221 96.5657 157.193 96.5554 157.168 96.54C157.143 96.5245 157.122 96.5043 157.105 96.4805C157.088 96.4566 157.076 96.4296 157.069 96.4011C157.063 96.3725 157.062 96.343 157.067 96.3141C157.147 95.837 157.244 95.3554 157.362 94.8856C157.376 94.8283 157.412 94.7789 157.463 94.748C157.513 94.7172 157.574 94.7073 157.631 94.7207C157.688 94.735 157.738 94.7713 157.769 94.8217C157.8 94.8721 157.809 94.9326 157.796 94.9902C157.686 95.4497 157.591 95.9195 157.513 96.3878C157.502 96.4389 157.472 96.4843 157.431 96.516C157.389 96.5478 157.338 96.5639 157.285 96.5615L157.287 96.5704ZM157.958 93.7723C157.935 93.7718 157.912 93.7683 157.89 93.762C157.862 93.7534 157.836 93.7394 157.813 93.7206C157.791 93.7019 157.772 93.6789 157.758 93.6528C157.745 93.6268 157.736 93.5983 157.734 93.569C157.731 93.5398 157.734 93.5102 157.743 93.4822C157.89 93.0212 158.052 92.5588 158.229 92.1082C158.24 92.0802 158.256 92.0546 158.276 92.0329C158.297 92.0113 158.322 91.9942 158.35 91.9825C158.377 91.9707 158.407 91.9648 158.437 91.9649C158.467 91.9649 158.496 91.9711 158.524 91.983C158.552 91.9935 158.577 92.0096 158.599 92.0303C158.621 92.051 158.638 92.0758 158.65 92.1033C158.661 92.1308 158.668 92.1604 158.668 92.1904C158.668 92.2203 158.662 92.25 158.65 92.2775C158.477 92.7193 158.316 93.1715 158.175 93.6221C158.157 93.6648 158.127 93.7011 158.088 93.7259C158.049 93.7507 158.003 93.7628 157.957 93.7605L157.958 93.7723ZM159.011 91.0906C158.978 91.0904 158.945 91.0829 158.915 91.0685C158.863 91.043 158.822 90.9979 158.802 90.9428C158.782 90.8878 158.785 90.8272 158.809 90.774C159.017 90.3322 159.242 89.9036 159.479 89.4795C159.494 89.4539 159.513 89.4314 159.536 89.4132C159.559 89.3951 159.585 89.3817 159.613 89.3737C159.642 89.3658 159.671 89.3635 159.7 89.367C159.729 89.3705 159.757 89.3797 159.783 89.3941C159.808 89.4083 159.831 89.4275 159.849 89.4505C159.867 89.4735 159.881 89.4998 159.888 89.528C159.896 89.5562 159.899 89.5857 159.895 89.6147C159.892 89.6438 159.883 89.6719 159.868 89.6974C159.636 90.1127 159.415 90.5383 159.213 90.9654C159.193 91.0011 159.163 91.0306 159.127 91.0506C159.091 91.0706 159.051 91.0803 159.01 91.0788L159.011 91.0906ZM160.419 88.5767C160.376 88.5764 160.334 88.5642 160.298 88.5414C160.249 88.5089 160.214 88.4581 160.202 88.4001C160.19 88.3422 160.201 88.2818 160.233 88.2321C160.494 87.8301 160.774 87.428 161.065 87.0378C161.083 87.0142 161.105 86.9943 161.13 86.9792C161.155 86.9642 161.183 86.9542 161.212 86.95C161.241 86.9457 161.271 86.9473 161.299 86.9545C161.328 86.9618 161.354 86.9745 161.378 86.9921C161.425 87.0276 161.456 87.0803 161.465 87.1388C161.473 87.1973 161.458 87.2568 161.423 87.3043C161.138 87.6872 160.864 88.0804 160.607 88.4751C160.586 88.5044 160.557 88.5279 160.524 88.5435C160.49 88.5592 160.454 88.5665 160.418 88.5649L160.419 88.5767ZM162.139 86.2646C162.085 86.2655 162.033 86.2467 161.992 86.2116C161.969 86.1928 161.951 86.1697 161.938 86.1437C161.924 86.1178 161.916 86.0894 161.913 86.0603C161.911 86.0311 161.914 86.0018 161.923 85.974C161.932 85.9461 161.946 85.9203 161.965 85.8979C162.275 85.5313 162.601 85.1616 162.936 84.8141C162.976 84.7713 163.032 84.7464 163.091 84.7447C163.15 84.7431 163.208 84.7648 163.251 84.8052C163.293 84.8462 163.318 84.9022 163.319 84.9613C163.321 85.0203 163.299 85.0775 163.258 85.1204C162.93 85.4664 162.61 85.8258 162.305 86.1851C162.284 86.2076 162.258 86.2253 162.229 86.237C162.2 86.2486 162.169 86.2541 162.138 86.2528L162.139 86.2646ZM164.124 84.1734C164.094 84.1736 164.063 84.1673 164.035 84.1552C164.007 84.143 163.982 84.1252 163.961 84.1028C163.921 84.0595 163.899 84.0021 163.901 83.9431C163.903 83.884 163.928 83.8281 163.971 83.7876C164.32 83.4592 164.687 83.1337 165.056 82.8201C165.102 82.7824 165.161 82.7642 165.22 82.7694C165.279 82.7747 165.333 82.8029 165.372 82.848C165.39 82.8704 165.405 82.8964 165.413 82.9243C165.422 82.9522 165.425 82.9815 165.423 83.0107C165.42 83.0398 165.412 83.0682 165.398 83.0941C165.385 83.12 165.366 83.143 165.344 83.1617C164.98 83.4695 164.62 83.7891 164.276 84.1131C164.233 84.1478 164.178 84.1651 164.123 84.1617L164.124 84.1734Z" fill="#92AFCC"/>
<path id="Vector_10" d="M140.461 136.285C140.441 136.288 140.421 136.288 140.401 136.285C140.344 136.269 140.296 136.231 140.267 136.179C140.238 136.128 140.231 136.067 140.246 136.01C140.298 135.828 140.364 135.594 140.45 135.31C140.467 135.254 140.506 135.207 140.558 135.179C140.61 135.152 140.67 135.146 140.727 135.163C140.783 135.18 140.83 135.219 140.857 135.271C140.885 135.323 140.891 135.383 140.874 135.44C140.79 135.721 140.727 135.954 140.672 136.132C140.658 136.177 140.63 136.215 140.592 136.243C140.554 136.271 140.508 136.285 140.461 136.285Z" fill="#92AFCC"/>
<path id="Vector_11" d="M113.475 204.896C159.267 204.896 196.388 203.037 196.388 200.744C196.388 198.451 159.267 196.593 113.475 196.593C67.6838 196.593 30.5625 198.451 30.5625 200.744C30.5625 203.037 67.6838 204.896 113.475 204.896Z" fill="#B7CAE5"/>
<g id="Vector_12" style="mix-blend-mode:multiply" opacity="0.2">
<path d="M170.831 136.57C170.831 136.517 170.828 136.464 170.821 136.412C170.818 136.35 170.811 136.289 170.8 136.228C170.793 136.176 170.787 136.125 170.777 136.081C170.766 136.037 170.759 135.982 170.749 135.933C170.738 135.885 170.722 135.807 170.704 135.742C170.671 135.611 170.632 135.483 170.585 135.356C170.585 135.356 170.585 135.356 170.585 135.346C170.554 135.266 170.525 135.188 170.489 135.113C170.373 134.835 170.225 134.571 170.048 134.327C170.006 134.268 169.962 134.21 169.915 134.151C169.813 134.024 169.704 133.903 169.587 133.789C169.548 133.752 169.511 133.714 169.47 133.68C169.419 133.628 169.366 133.579 169.31 133.533C169.301 133.525 169.292 133.518 169.282 133.512L169.062 133.344L162.756 128.557V108.107C162.756 106.102 161.96 104.18 160.542 102.762C159.125 101.345 157.202 100.548 155.197 100.548H125.847L117.058 93.8754C116.314 93.3094 115.406 93.0029 114.471 93.0029C113.537 93.0029 112.628 93.3094 111.884 93.8754L103.096 100.548H72.3683C71.3755 100.548 70.3923 100.743 69.475 101.123C68.5577 101.503 67.7243 102.06 67.0222 102.762C66.3201 103.464 65.7632 104.297 65.3832 105.214C65.0032 106.131 64.8076 107.115 64.8076 108.107V129.608L59.8904 133.342L59.6724 133.509C59.6623 133.515 59.6529 133.522 59.6444 133.53C59.0608 134.009 58.6167 134.636 58.3588 135.346C58.1904 135.808 58.1046 136.296 58.1055 136.788V195.817C58.1055 195.88 58.1055 195.942 58.1055 196.005C58.1055 196.02 58.1055 196.035 58.1055 196.049C58.1055 196.064 58.1055 196.095 58.1055 196.118L58.1187 196.278C58.1187 196.278 58.1187 196.291 58.1187 196.298C58.1187 196.316 58.1187 196.335 58.1261 196.353C58.1261 196.395 58.1364 196.437 58.1438 196.478C58.1438 196.493 58.1438 196.509 58.1438 196.523C58.1438 196.538 58.1438 196.547 58.1438 196.557C58.1438 196.568 58.1511 196.587 58.1541 196.602C58.1614 196.649 58.1717 196.694 58.1821 196.74C58.1821 196.758 58.1894 196.777 58.1939 196.794C58.2086 196.852 58.2233 196.909 58.2395 196.967C58.2395 196.976 58.2395 196.986 58.2468 196.995L58.2557 197.026C58.2645 197.052 58.2719 197.08 58.2807 197.107C58.2896 197.133 58.291 197.136 58.2969 197.152C58.3263 197.241 58.3588 197.329 58.3941 197.416C58.3941 197.416 58.3941 197.428 58.3941 197.432C58.4206 197.495 58.4486 197.557 58.4781 197.619C58.4914 197.65 58.506 197.68 58.5207 197.709C58.5355 197.738 58.562 197.787 58.5811 197.827L58.5959 197.852L58.6224 197.897C58.6327 197.915 58.643 197.934 58.6548 197.952L58.7019 198.032L58.7564 198.117L58.8374 198.236L58.858 198.264L58.8683 198.277C58.9804 198.433 59.1029 198.58 59.235 198.719C59.2674 198.753 59.3013 198.788 59.3352 198.821L59.3749 198.861C59.4176 198.899 59.4589 198.939 59.5016 198.975L59.5738 199.039L59.6798 199.124L59.7637 199.19C59.8182 199.232 59.8756 199.271 59.9331 199.31C59.9684 199.333 60.0038 199.357 60.0406 199.379C60.0774 199.401 60.0995 199.417 60.1304 199.435L60.207 199.481L60.2556 199.51L60.2997 199.531L60.3425 199.553L60.4456 199.606C60.5118 199.638 60.5781 199.669 60.6473 199.697L60.7018 199.719C60.7607 199.743 60.8196 199.766 60.88 199.787L60.9051 199.797L60.9624 199.815C61.0302 199.837 61.0979 199.858 61.1672 199.877L61.1966 199.886L61.3159 199.915L61.3763 199.93H61.391C61.4676 199.946 61.5471 199.962 61.6267 199.972H61.6428L61.7194 199.983H61.7326H61.7533L61.8829 199.998H61.9079H61.9447H62.0139C62.1053 199.998 62.198 200.008 62.2908 200.008H166.61C166.708 200.008 166.803 200.008 166.898 199.996H166.993H167.037L167.113 199.986H167.154L167.239 199.975C167.239 199.975 167.246 199.975 167.252 199.975L167.305 199.965L167.401 199.949H167.444H167.46C167.543 199.933 167.624 199.912 167.705 199.891L167.737 199.881C167.821 199.859 167.902 199.833 167.983 199.806L168.026 199.793L168.064 199.778L168.087 199.769C168.162 199.741 168.235 199.71 168.31 199.678L168.413 199.631C168.495 199.593 168.576 199.551 168.656 199.507H168.665C168.69 199.495 168.715 199.479 168.74 199.464L168.816 199.419C168.847 199.401 168.878 199.38 168.909 199.36C168.919 199.354 168.928 199.348 168.937 199.341L169.04 199.269L169.132 199.207C169.137 199.199 169.144 199.193 169.152 199.189L169.176 199.17C169.236 199.124 169.294 199.076 169.351 199.023C169.358 199.015 169.366 199.008 169.375 199.002H169.382C169.42 198.97 169.455 198.936 169.492 198.902L169.519 198.878L169.55 198.846C169.68 198.72 169.801 198.586 169.914 198.444L169.978 198.36L169.987 198.348L170.034 198.288C170.048 198.266 170.063 198.244 170.078 198.221C170.13 198.145 170.18 198.074 170.226 197.989C170.239 197.97 170.249 197.948 170.263 197.928C170.276 197.909 170.296 197.87 170.314 197.84L170.361 197.747C170.375 197.724 170.385 197.699 170.398 197.674C170.403 197.665 170.406 197.656 170.41 197.647C170.438 197.588 170.466 197.529 170.491 197.47C170.491 197.46 170.498 197.45 170.501 197.442C170.511 197.413 170.525 197.384 170.538 197.35C170.547 197.331 170.554 197.311 170.562 197.292C170.569 197.273 170.57 197.264 170.576 197.25C170.577 197.247 170.577 197.244 170.576 197.241C170.576 197.227 170.587 197.213 170.591 197.199C170.595 197.186 170.609 197.152 170.616 197.127C170.623 197.102 170.632 197.074 170.64 197.048C170.642 197.037 170.646 197.027 170.65 197.017C170.651 197.009 170.651 197.001 170.65 196.993C170.65 196.98 170.657 196.965 170.662 196.952L170.697 196.805C170.698 196.798 170.698 196.791 170.697 196.784C170.697 196.755 170.712 196.724 170.718 196.693C170.718 196.69 170.718 196.688 170.718 196.685C170.717 196.682 170.717 196.678 170.718 196.674C170.718 196.652 170.718 196.63 170.729 196.607C170.741 196.585 170.741 196.544 170.746 196.515V196.491V196.46L170.754 196.389V196.351C170.754 196.334 170.754 196.316 170.763 196.295C170.772 196.275 170.763 196.269 170.763 196.254V196.188C170.772 196.07 170.778 195.954 170.778 195.834V136.791C170.837 136.717 170.834 136.643 170.831 136.57Z" fill="#4076A3"/>
</g>
<path id="Vector_13" d="M174.3 136.791V195.82C174.3 195.892 174.3 195.967 174.292 196.038C174.292 196.073 174.292 196.107 174.292 196.141C174.292 196.175 174.292 196.205 174.292 196.239C174.292 196.273 174.292 196.267 174.292 196.281C174.292 196.294 174.285 196.326 174.282 196.345C174.282 196.397 174.269 196.448 174.261 196.493C174.254 196.537 174.244 196.591 174.233 196.64C174.229 196.664 174.224 196.688 174.217 196.712C174.216 196.731 174.213 196.749 174.207 196.767C174.202 196.79 174.197 196.814 174.189 196.837C174.179 196.883 174.166 196.927 174.155 196.968C174.157 196.976 174.157 196.984 174.155 196.992C174.132 197.067 174.111 197.139 174.083 197.214C174.084 197.218 174.084 197.221 174.083 197.225C174.07 197.261 174.057 197.3 174.042 197.333C174.027 197.367 174.015 197.398 174.005 197.429C174 197.438 173.997 197.447 173.995 197.457C173.954 197.548 173.912 197.644 173.865 197.734C173.85 197.761 173.834 197.796 173.817 197.827L173.765 197.915C173.749 197.942 173.734 197.973 173.714 198.001C173.68 198.058 173.643 198.117 173.605 198.171C173.566 198.226 173.557 198.239 173.537 198.275C173.478 198.35 173.423 198.422 173.362 198.497C173.3 198.572 173.273 198.603 173.229 198.644C173.185 198.685 173.136 198.743 173.082 198.791C173.063 198.815 173.038 198.836 173.014 198.859C172.994 198.88 172.972 198.9 172.949 198.918C172.926 198.942 172.898 198.965 172.87 198.99L172.846 199.011C172.781 199.068 172.714 199.123 172.644 199.174C172.637 199.179 172.63 199.185 172.624 199.192C172.569 199.229 172.515 199.27 172.457 199.308L172.401 199.345C172.37 199.366 172.341 199.386 172.31 199.404C172.286 199.42 172.261 199.435 172.235 199.448C172.207 199.464 172.179 199.482 172.153 199.495C171.96 199.605 171.759 199.698 171.55 199.772L171.513 199.787L171.468 199.8C171.421 199.818 171.372 199.834 171.32 199.847C171.235 199.875 171.15 199.896 171.063 199.917L170.93 199.947C170.902 199.947 170.871 199.958 170.845 199.961L170.739 199.981C170.731 199.981 170.728 199.981 170.726 199.981L170.64 199.992C170.625 199.992 170.612 199.992 170.599 199.992L170.524 200.002H170.478L170.322 200.012C170.247 200.012 170.175 200.012 170.095 200.012H65.7904C65.7153 200.012 65.6431 200.012 65.5651 200.012L65.4075 200.002C65.3492 199.999 65.2912 199.992 65.2337 199.981C65.1999 199.981 65.1645 199.981 65.1336 199.968C65.0526 199.958 64.9701 199.94 64.892 199.924C64.8686 199.92 64.8455 199.914 64.8229 199.906C64.7375 199.886 64.652 199.865 64.5666 199.837C64.515 199.821 64.4679 199.808 64.4193 199.79C64.1911 199.709 63.9695 199.611 63.7566 199.495L63.6094 199.403C63.5519 199.369 63.4931 199.33 63.4386 199.294C63.1016 199.065 62.7986 198.79 62.5387 198.476C62.4783 198.404 62.4195 198.329 62.365 198.249C62.1751 197.989 62.0178 197.707 61.8967 197.409C61.8687 197.341 61.8422 197.261 61.8142 197.194C61.7862 197.126 61.7671 197.046 61.7421 196.971C61.717 196.896 61.7008 196.824 61.6846 196.746C61.6684 196.668 61.6537 196.599 61.6404 196.534C61.6404 196.524 61.6404 196.509 61.6404 196.5C61.6301 196.431 61.6198 196.353 61.6124 196.291C61.6124 196.291 61.6124 196.281 61.6124 196.273C61.6124 196.219 61.6021 196.167 61.5992 196.113C61.5889 196.007 61.5859 195.901 61.5859 195.792V136.791C61.5853 136.299 61.6705 135.811 61.8378 135.349C62.0962 134.639 62.5402 134.012 63.1234 133.533C63.1318 133.525 63.1412 133.518 63.1514 133.512L63.3708 133.345C64.0825 132.838 64.9346 132.567 65.8081 132.568H170.094C170.192 132.568 170.29 132.572 170.388 132.582C170.406 132.579 170.425 132.579 170.443 132.582C170.538 132.582 170.637 132.599 170.737 132.613L170.802 132.623C170.885 132.638 170.966 132.654 171.045 132.674C171.066 132.677 171.087 132.682 171.107 132.688C171.206 132.713 171.301 132.739 171.401 132.77C171.502 132.801 171.583 132.832 171.668 132.866C171.791 132.915 171.911 132.971 172.027 133.034C172.093 133.065 172.157 133.099 172.219 133.137C172.328 133.198 172.434 133.266 172.534 133.342L172.753 133.509C172.763 133.515 172.772 133.522 172.78 133.53C172.836 133.576 172.89 133.625 172.94 133.677C172.982 133.711 173.02 133.749 173.057 133.786C173.174 133.9 173.283 134.021 173.385 134.149C173.434 134.208 173.478 134.265 173.519 134.324C173.696 134.568 173.844 134.832 173.961 135.11C173.995 135.185 174.026 135.258 174.057 135.343C174.057 135.343 174.057 135.343 174.057 135.353C174.104 135.479 174.144 135.608 174.176 135.739C174.194 135.804 174.207 135.866 174.222 135.931C174.236 135.995 174.242 136.029 174.248 136.078C174.254 136.126 174.266 136.181 174.272 136.225C174.282 136.286 174.289 136.347 174.292 136.409C174.299 136.461 174.303 136.514 174.303 136.567C174.297 136.643 174.3 136.717 174.3 136.791Z" fill="#DFE5EA"/>
<path id="Vector_14" d="M174.047 135.345H61.8203C62.0787 134.636 62.5227 134.009 63.106 133.53C63.1144 133.522 63.1238 133.515 63.1339 133.509L63.3534 133.341L115.347 93.8735C116.091 93.3075 117 93.001 117.934 93.001C118.869 93.001 119.777 93.3075 120.521 93.8735L172.506 133.341L172.726 133.509C172.736 133.514 172.745 133.521 172.752 133.53C172.808 133.575 172.862 133.625 172.913 133.677C172.954 133.711 172.992 133.749 173.029 133.786C173.146 133.899 173.256 134.02 173.357 134.148C173.406 134.207 173.45 134.264 173.491 134.323C173.668 134.568 173.817 134.832 173.933 135.11C173.967 135.185 173.998 135.257 174.029 135.342C174.044 135.338 174.047 135.341 174.047 135.345Z" fill="#3B77A8"/>
<path id="Vector_15" d="M75.8312 100.545H158.647C160.652 100.545 162.574 101.341 163.992 102.759C165.41 104.177 166.206 106.099 166.206 108.104V196.967H68.2734V108.104C68.2734 106.1 69.0696 104.177 70.487 102.759C71.9043 101.342 73.8266 100.545 75.8312 100.545Z" fill="white"/>
<path id="Vector_16" d="M153.221 117.436H81.2593C80.2467 117.436 79.4258 118.256 79.4258 119.269V120.048C79.4258 121.061 80.2467 121.882 81.2593 121.882H153.221C154.234 121.882 155.055 121.061 155.055 120.048V119.269C155.055 118.256 154.234 117.436 153.221 117.436Z" fill="#E4ECF9"/>
<path id="Vector_17" d="M153.221 126.933H81.2593C80.2467 126.933 79.4258 127.753 79.4258 128.766V129.545C79.4258 130.558 80.2467 131.379 81.2593 131.379H153.221C154.234 131.379 155.055 130.558 155.055 129.545V128.766C155.055 127.753 154.234 126.933 153.221 126.933Z" fill="#E4ECF9"/>
<path id="Vector_18" d="M153.221 136.428H81.2593C80.2467 136.428 79.4258 137.249 79.4258 138.261V139.04C79.4258 140.053 80.2467 140.874 81.2593 140.874H153.221C154.234 140.874 155.055 140.053 155.055 139.04V138.261C155.055 137.249 154.234 136.428 153.221 136.428Z" fill="#E4ECF9"/>
<path id="Vector_19" d="M153.221 145.926H81.2593C80.2467 145.926 79.4258 146.747 79.4258 147.759V148.538C79.4258 149.551 80.2467 150.372 81.2593 150.372H153.221C154.234 150.372 155.055 149.551 155.055 148.538V147.759C155.055 146.747 154.234 145.926 153.221 145.926Z" fill="#E4ECF9"/>
<path id="Vector_20" d="M153.221 155.423H81.2593C80.2467 155.423 79.4258 156.244 79.4258 157.256V158.035C79.4258 159.048 80.2467 159.869 81.2593 159.869H153.221C154.234 159.869 155.055 159.048 155.055 158.035V157.256C155.055 156.244 154.234 155.423 153.221 155.423Z" fill="#E4ECF9"/>
<path id="Vector_21" d="M117.935 167.886C117.764 168.071 117.569 168.233 117.355 168.365L66.029 200.04H65.7964C65.3815 200.042 64.9689 199.98 64.5726 199.858L64.4121 199.808C63.7436 199.577 63.1447 199.18 62.6714 198.654C62.6272 198.607 62.583 198.556 62.5374 198.507C62.4078 198.351 62.2902 198.185 62.1854 198.011C62.1485 197.952 62.1176 197.895 62.0838 197.837C62.0499 197.78 62.0175 197.713 61.991 197.652C61.716 197.081 61.5735 196.456 61.5742 195.822V136.791C61.5736 136.299 61.6588 135.811 61.826 135.349C62.0845 134.639 62.5284 134.012 63.1117 133.533C63.1201 133.525 63.1295 133.518 63.1397 133.512L63.3591 133.344C64.0707 132.838 64.9229 132.567 65.7964 132.568H66.761L71.2673 135.349L112.816 160.985L114.378 161.948L117.36 163.789C117.575 163.921 117.77 164.082 117.941 164.268C118.388 164.764 118.635 165.409 118.634 166.078C118.633 166.746 118.384 167.391 117.935 167.886Z" fill="#4987C4"/>
<path id="Vector_22" d="M174.298 136.79V195.819C174.298 195.891 174.298 195.966 174.29 196.037C174.29 196.073 174.29 196.106 174.29 196.14C174.29 196.174 174.29 196.205 174.29 196.239C174.29 196.273 174.29 196.267 174.29 196.28C174.29 196.293 174.283 196.326 174.28 196.345C174.28 196.396 174.267 196.448 174.259 196.492C174.252 196.536 174.242 196.591 174.231 196.639C174.231 196.639 174.231 196.656 174.231 196.663C174.228 196.679 174.223 196.696 174.218 196.712C174.217 196.73 174.214 196.749 174.208 196.766C174.203 196.79 174.198 196.814 174.19 196.837C174.18 196.882 174.17 196.924 174.156 196.968C174.158 196.976 174.158 196.984 174.156 196.991C174.136 197.067 174.112 197.141 174.084 197.214C174.085 197.217 174.085 197.221 174.084 197.224C174.072 197.261 174.059 197.298 174.043 197.333C174.033 197.364 174.019 197.395 174.006 197.429C174.002 197.438 173.998 197.447 173.996 197.457C173.955 197.548 173.913 197.644 173.866 197.734C173.851 197.76 173.835 197.796 173.818 197.826L173.766 197.915C173.75 197.941 173.735 197.972 173.715 198C173.681 198.058 173.644 198.117 173.606 198.171C173.567 198.226 173.558 198.239 173.538 198.274C173.479 198.352 173.421 198.421 173.363 198.497C173.304 198.572 173.274 198.603 173.23 198.644C173.186 198.685 173.137 198.742 173.083 198.791C173.064 198.815 173.039 198.835 173.015 198.859C172.995 198.88 172.973 198.9 172.95 198.918C172.927 198.941 172.899 198.965 172.871 198.99L172.847 199.01C172.782 199.068 172.715 199.122 172.645 199.174C172.638 199.179 172.631 199.185 172.625 199.192C172.57 199.228 172.516 199.27 172.458 199.308L172.402 199.345C172.371 199.365 172.342 199.386 172.311 199.404C172.287 199.42 172.262 199.435 172.236 199.448C172.208 199.464 172.18 199.482 172.154 199.495C171.961 199.605 171.76 199.698 171.551 199.772L171.514 199.787L171.469 199.8C171.422 199.817 171.373 199.834 171.321 199.847C171.236 199.875 171.151 199.896 171.064 199.916L170.931 199.947C170.903 199.947 170.872 199.957 170.846 199.96L170.74 199.981H170.729C170.699 199.981 170.668 199.991 170.641 199.994C170.615 199.997 170.613 199.994 170.6 199.994L170.525 200.005H170.479L170.323 200.015C170.248 200.015 170.176 200.015 170.096 200.015H169.863L118.534 168.342C118.319 168.21 118.124 168.049 117.955 167.864C117.506 167.368 117.258 166.723 117.258 166.054C117.258 165.386 117.506 164.741 117.955 164.245C118.124 164.059 118.319 163.898 118.534 163.767L121.511 161.926L123.075 160.963L164.625 135.326L169.133 132.546H170.096C170.195 132.545 170.293 132.55 170.391 132.559C170.409 132.556 170.427 132.556 170.445 132.559C170.541 132.559 170.64 132.577 170.74 132.59L170.805 132.6C170.887 132.615 170.968 132.631 171.048 132.652C171.068 132.655 171.089 132.659 171.109 132.665C171.208 132.69 171.304 132.717 171.404 132.748C171.504 132.779 171.585 132.81 171.67 132.843C171.793 132.892 171.913 132.949 172.03 133.011C172.095 133.042 172.159 133.077 172.221 133.114C172.331 133.175 172.436 133.244 172.536 133.319L172.756 133.487C172.766 133.492 172.775 133.499 172.782 133.508C172.839 133.553 172.892 133.603 172.943 133.655C172.984 133.689 173.022 133.727 173.059 133.764C173.176 133.878 173.286 133.999 173.388 134.126C173.436 134.185 173.48 134.242 173.522 134.301C173.699 134.546 173.847 134.81 173.963 135.088C173.997 135.163 174.028 135.235 174.059 135.32C174.059 135.32 174.059 135.32 174.059 135.331C174.106 135.457 174.146 135.586 174.178 135.717C174.196 135.781 174.209 135.843 174.224 135.908C174.239 135.973 174.245 136.007 174.251 136.055C174.256 136.104 174.268 136.158 174.274 136.203C174.285 136.263 174.292 136.325 174.295 136.387C174.302 136.439 174.305 136.492 174.305 136.544C174.295 136.643 174.298 136.717 174.298 136.79Z" fill="#4987C4"/>
<path id="Vector_23" opacity="0.29" d="M174.298 195.017V195.631C174.298 198.066 172.407 200.04 170.074 200.04H65.7885C63.4573 200.04 61.5664 198.066 61.5664 195.631V195.017L115.204 159.726C116.012 159.191 116.959 158.905 117.928 158.905C118.898 158.905 119.845 159.191 120.653 159.726L174.298 195.017Z" fill="#474747"/>
<path id="Vector_24" d="M174.298 195.227V195.817C174.297 196.937 173.852 198.011 173.06 198.803C172.268 199.595 171.194 200.04 170.074 200.04H65.7885C64.6686 200.04 63.5947 199.595 62.8029 198.803C62.0112 198.011 61.5664 196.936 61.5664 195.817V195.227L115.204 161.419C116.02 160.905 116.964 160.633 117.928 160.633C118.893 160.633 119.837 160.905 120.653 161.419L174.298 195.227Z" fill="#5693DB"/>
<path id="Vector_25" d="M112.643 107.938H81.2593C80.2467 107.938 79.4258 108.758 79.4258 109.771V110.55C79.4258 111.563 80.2467 112.383 81.2593 112.383H112.643C113.656 112.383 114.477 111.563 114.477 110.55V109.771C114.477 108.758 113.656 107.938 112.643 107.938Z" fill="#5693DB"/>
<g id="Vector_26" style="mix-blend-mode:multiply" opacity="0.2">
<path d="M123.168 62.9992C120.854 60.6856 117.358 60.827 116.737 54.8892C116.115 48.9514 118.768 44.4332 111.041 43.4245C103.313 42.4157 98.573 44.9766 97.2756 48.9381C97.1548 49.3092 95.9222 53.798 98.1592 58.4575C100.396 63.117 102.135 63.4925 101.923 66.0299C101.924 66.0412 101.924 66.0525 101.923 66.0638C101.178 66.7353 100.417 67.7883 99.9779 69.4289C98.9072 73.4345 98.7364 75.916 99.6951 77.3813C100 77.8481 100.3 78.3149 100.545 78.7788C100.901 79.4577 101.134 80.1234 101.084 80.7611C101.062 81.0606 100.974 81.3516 100.825 81.6123C100.259 82.6122 96.177 87.3969 94.3332 89.6177L92.1874 80.0277L84.6223 80.0571L77.1544 80.0851L75.0279 80.0939L70.6953 80.1101L70.7395 80.3119L74.0648 95.1579L80.2324 95.1343C79.0675 95.9089 78.4342 97.8809 78.9938 100.679C79.6138 103.78 82.7447 120.394 82.7447 120.394H83.3014C83.3235 120.541 83.3515 120.712 83.3809 120.899C83.4148 121.109 83.4501 121.332 83.484 121.533C82.9877 121.145 82.8949 121.108 82.4045 121.448L82.3456 121.488L82.1409 121.635C81.5445 122.061 79.8274 123.549 78.5668 124.336C78.3055 124.508 78.0272 124.653 77.7362 124.767C77.5552 124.832 77.3908 124.937 77.2546 125.072C77.2368 125.088 77.2201 125.105 77.2045 125.122C77.0746 125.275 76.9814 125.455 76.9322 125.65C76.8829 125.844 76.8788 126.047 76.9203 126.243C76.9836 126.552 77.1574 126.792 77.3901 126.823C77.7656 126.878 81.7816 126.194 84.8757 125.576C85.2674 125.498 85.6429 125.429 85.9963 125.348C85.9242 125.384 85.8491 125.417 85.7917 125.443C85.5905 125.522 85.4127 125.651 85.2747 125.817C85.1513 125.976 85.0657 126.16 85.0244 126.356C84.983 126.552 84.987 126.755 85.0362 126.95C85.1127 127.256 85.2968 127.487 85.5295 127.511C86.1495 127.574 96.4582 125.247 96.5318 124.916C96.5489 124.725 96.541 124.533 96.5083 124.345C96.4681 124.034 96.4115 123.726 96.3389 123.421C96.1916 122.803 95.9678 122.186 95.6895 121.949C95.6895 121.949 95.283 121.379 94.4745 121.813L94.4436 121.371L94.4039 120.782H95.1578C95.1578 120.782 92.1963 100.754 93.0431 100.588C93.8177 100.432 110.126 101.01 113.283 100.698C113.578 100.669 113.756 100.633 113.8 100.588L113.828 100.561H113.836L113.861 100.535L113.875 100.52L113.9 100.493L113.918 100.474L113.943 100.448L113.965 100.424L113.993 100.393L114.017 100.367L114.048 100.334C114.055 100.324 114.065 100.314 114.074 100.303L114.105 100.268L114.136 100.234L114.167 100.196C114.179 100.184 114.189 100.171 114.199 100.159L114.235 100.118C114.245 100.105 114.257 100.091 114.267 100.077L114.304 100.032L114.339 99.9897L114.376 99.9411C114.389 99.9264 114.401 99.9102 114.414 99.894L114.453 99.8454C114.465 99.8277 114.478 99.8115 114.491 99.7938L114.531 99.7423L114.571 99.6878L114.61 99.6333L114.653 99.5744L114.693 99.5185L114.736 99.4566L114.777 99.3977L114.821 99.3314L114.858 99.274L114.906 99.2004L114.928 99.168C114.967 99.1076 115.005 99.0472 115.043 98.9839L115.077 98.9279L115.126 98.8454C115.139 98.8248 115.152 98.8027 115.164 98.7807C115.176 98.7586 115.196 98.7247 115.211 98.6967L115.251 98.626L115.3 98.5406C115.311 98.5156 115.325 98.492 115.338 98.4684L115.385 98.3771L115.423 98.3035C115.439 98.2726 115.456 98.2402 115.47 98.2078C115.485 98.1754 115.495 98.1592 115.507 98.1341C115.519 98.1091 115.54 98.0679 115.554 98.0355C115.569 98.0031 115.579 97.9839 115.591 97.9574C115.603 97.9309 115.622 97.8912 115.637 97.8558L115.672 97.7763C115.687 97.7424 115.703 97.7071 115.718 97.6717C115.733 97.6364 115.74 97.6172 115.752 97.5907L115.796 97.4817L115.828 97.3978C115.843 97.361 115.858 97.3227 115.871 97.2844L115.902 97.202L115.945 97.0841C115.955 97.0562 115.964 97.0282 115.973 97.0002C115.981 96.9722 116.001 96.9192 116.014 96.878L116.04 96.794C116.055 96.7513 116.068 96.7086 116.08 96.6644C116.092 96.6202 116.096 96.6114 116.104 96.5834L116.143 96.4465C116.143 96.4229 116.157 96.3964 116.164 96.3714C116.176 96.3228 116.189 96.2742 116.202 96.2241C116.202 96.2035 116.213 96.1814 116.217 96.1608L116.257 95.9958C116.256 95.9865 116.256 95.9772 116.257 95.9679C116.317 95.691 116.369 95.4038 116.404 95.1063C116.404 95.0872 116.404 95.0695 116.404 95.0518C116.404 94.9929 116.417 94.934 116.423 94.8737C116.423 94.8486 116.423 94.8236 116.431 94.7985C116.431 94.7411 116.441 94.6837 116.445 94.6262C116.445 94.5983 116.445 94.5688 116.453 94.5408C116.453 94.4849 116.453 94.4274 116.463 94.3715V94.2772C116.463 94.2213 116.463 94.1653 116.463 94.1093C116.463 94.0534 116.463 94.0431 116.463 94.0107C116.463 93.9532 116.463 93.8973 116.463 93.8398V93.7382C116.463 93.6808 116.463 93.6234 116.463 93.5659V93.4599C116.463 93.4025 116.463 93.345 116.456 93.2861C116.456 93.2508 116.456 93.2154 116.456 93.1786L116.442 93.0019C116.442 92.9651 116.442 92.9297 116.432 92.8929C116.432 92.8321 116.426 92.7717 116.414 92.7118L116.401 92.6028C116.394 92.5409 116.386 92.4806 116.378 92.4187C116.378 92.3819 116.367 92.3451 116.363 92.3083C116.353 92.2449 116.344 92.1816 116.333 92.1183C116.333 92.083 116.32 92.0461 116.314 92.0108L116.279 91.8149C116.272 91.7796 116.264 91.7457 116.258 91.7118C116.244 91.6426 116.23 91.5749 116.214 91.5057C116.214 91.4747 116.199 91.4423 116.193 91.4114C116.176 91.3378 116.16 91.2641 116.14 91.192C116.14 91.1669 116.127 91.1419 116.121 91.1183C116.101 91.0373 116.08 90.9563 116.056 90.8739C115.973 90.5705 115.872 90.2613 115.762 89.9461L115.753 89.9211C115.724 89.8401 115.693 89.7591 115.662 89.6781C115.649 89.6471 115.638 89.6162 115.625 89.5838C115.597 89.5117 115.566 89.4366 115.535 89.3629C115.519 89.3232 115.503 89.2834 115.485 89.2436C115.456 89.173 115.425 89.0964 115.394 89.0316L115.333 88.899C115.302 88.8298 115.27 88.7606 115.238 88.6914L115.17 88.5441C115.138 88.4764 115.104 88.4086 115.068 88.3409L114.993 88.1936L114.887 87.9904C114.87 87.9595 114.855 87.9285 114.837 87.8961L114.797 87.8255C114.771 87.7754 114.743 87.7268 114.715 87.6782C114.675 87.606 114.634 87.5309 114.591 87.4602L114.535 87.363C117.058 85.7991 119.416 84.3058 120.192 83.7197C121.148 82.998 120.974 79.1205 120.461 75.1782C121.393 75.4005 122.457 75.3858 123.773 75.1296C127.565 74.3932 125.479 65.3113 123.168 62.9992ZM101.393 87.6031C100.873 88.333 100.472 89.1414 100.206 89.9976C99.6053 90.4807 99.2003 91.2008 99.2312 91.5528C99.2548 91.8252 99.4905 92.3038 99.7423 92.7015C99.732 92.9283 99.726 93.1609 99.729 93.3995H95.1873L95.1402 93.1904C96.5996 91.8414 100.194 88.6605 101.393 87.6031ZM91.3097 121.445C91.3318 121.613 91.3554 121.788 91.3775 121.955C90.89 121.606 90.7884 121.579 90.3216 121.932C90.2465 121.986 90.164 122.05 90.0668 122.125C89.7546 122.368 89.1272 122.934 88.4233 123.536C88.4056 123.42 88.3865 123.301 88.363 123.181C88.3482 123.102 88.3305 123.022 88.3128 122.944C88.1906 122.404 88.0095 121.9 87.7753 121.691C87.7753 121.691 87.4013 121.114 86.5972 121.491L86.553 121.016L86.4942 120.394H87.3778L84.5016 100.513H87.4602C88.2804 107.231 90.3113 120.791 90.3113 120.791H91.2273C91.2435 120.95 91.2744 121.189 91.3097 121.445ZM115.51 81.3457C115.271 81.4643 115.04 81.5991 114.819 81.7492V78.7361L115.04 77.502C115.669 79.3061 116.108 81.085 115.51 81.3457Z" fill="#4076A3"/>
</g>
<path id="Vector_27" d="M88.5779 121.851L85.5413 122.108C85.5413 122.108 85.4264 121.403 85.3307 120.801C85.2689 120.416 85.2159 120.073 85.207 119.985L88.3099 118.998L88.4895 120.913L88.5779 121.851Z" fill="#FDC8AA"/>
<path id="Vector_28" d="M90.4333 124.583C90.3994 124.712 88.7971 125.078 86.8193 125.467C83.7267 126.084 79.7093 126.769 79.3337 126.714C79.1025 126.683 78.9273 126.443 78.864 126.134C78.8228 125.938 78.827 125.735 78.8763 125.541C78.9255 125.347 79.0185 125.166 79.1481 125.014C79.2931 124.852 79.4765 124.73 79.6813 124.659C80.8491 124.24 83.3409 122.058 84.0861 121.528C84.1847 121.456 84.2701 121.395 84.3482 121.344C84.8459 121.002 84.9372 121.039 85.4335 121.433C85.8621 121.766 86.7486 121.919 87.5527 121.763C87.8406 121.711 88.1178 121.612 88.373 121.469C89.2904 120.936 89.7116 121.587 89.7116 121.587C89.9458 121.797 90.127 122.301 90.2492 122.841C90.2683 122.919 90.2845 122.999 90.2992 123.078C90.364 123.408 90.4067 123.74 90.4318 124.008C90.4564 124.199 90.457 124.392 90.4333 124.583Z" fill="white"/>
<path id="Vector_29" d="M90.4326 124.583C90.3987 124.711 88.7964 125.078 86.8186 125.467C83.726 126.084 79.7086 126.769 79.3331 126.714C79.1018 126.683 78.9266 126.443 78.8633 126.134C80.1003 125.987 84.3931 125.44 87.7862 124.702C88.6809 124.515 89.5656 124.282 90.437 124.006C90.4598 124.198 90.4584 124.392 90.4326 124.583Z" fill="#9FB8D6"/>
<path id="Vector_30" d="M90.3012 123.083C90.1668 123.099 90.0316 123.107 89.8962 123.108C89.4205 123.122 88.95 123.004 88.5368 122.768C88.1236 122.532 87.7838 122.186 87.5547 121.769C87.8426 121.717 88.1198 121.618 88.3749 121.474C89.2924 120.941 89.7136 121.592 89.7136 121.592C89.9477 121.803 90.1289 122.307 90.2512 122.847C90.2703 122.924 90.2865 123.003 90.3012 123.083Z" fill="#D7E3F4"/>
<path id="Vector_31" d="M79.1484 125.019C80.1499 125.18 81.7713 124.641 83.6225 123.875C85.4442 123.123 84.8006 121.948 84.3514 121.35C84.2733 121.4 84.188 121.462 84.0893 121.532C83.3441 122.064 80.8494 124.246 79.6845 124.666C79.4788 124.737 79.2943 124.858 79.1484 125.019Z" fill="#D7E3F4"/>
<path id="Vector_32" d="M88.4895 120.918L85.3307 120.801C85.2689 120.416 85.2159 120.073 85.207 119.985L88.3099 118.998L88.4895 120.918Z" fill="#FBB188"/>
<path id="Vector_33" opacity="0.5" d="M90.4343 124.583C90.4004 124.712 88.7981 125.078 86.8203 125.467C87.1031 125.239 87.4373 124.975 87.7878 124.703C88.505 124.145 89.3003 123.544 89.8982 123.102L90.2531 122.84C90.2723 122.918 90.2884 122.997 90.3032 123.077C90.368 123.407 90.4107 123.738 90.4357 124.006C90.4595 124.198 90.459 124.392 90.4343 124.583Z" fill="#7D95B7"/>
<path id="Vector_34" d="M96.4683 122.452L93.4273 122.636C93.4273 122.636 93.33 121.944 93.2505 121.345C93.1975 120.952 93.1519 120.598 93.1445 120.508L96.2695 119.594L96.3874 121.273L96.4683 122.452Z" fill="#FDC8AA"/>
<path id="Vector_35" d="M86.9808 126.847C87.0588 127.153 87.2415 127.384 87.4741 127.408C88.0956 127.471 98.4028 125.144 98.4765 124.813C98.4935 124.622 98.4861 124.43 98.4544 124.242C98.419 123.974 98.3616 123.653 98.2835 123.317C98.1363 122.7 97.9139 122.081 97.6341 121.853C97.6341 121.853 97.1923 121.22 96.2925 121.79C96.0437 121.944 95.771 122.055 95.4855 122.12C94.6873 122.308 93.7948 122.193 93.3545 121.877C92.8361 121.505 92.7477 121.47 92.2647 121.832C92.1881 121.887 92.1057 121.952 92.0099 122.027C91.2869 122.588 88.8864 124.873 87.7392 125.339C87.5384 125.419 87.3608 125.548 87.2223 125.714C87.0984 125.872 87.0122 126.056 86.9704 126.253C86.9285 126.449 86.9321 126.652 86.9808 126.847Z" fill="white"/>
<path id="Vector_36" d="M86.9805 126.847C87.0585 127.154 87.2411 127.385 87.4738 127.408C88.0953 127.472 98.4025 125.145 98.4761 124.814C98.4932 124.623 98.4857 124.431 98.4541 124.242C95.2348 125.46 88.5724 126.588 86.9805 126.847Z" fill="#9FB8D6"/>
<path id="Vector_37" d="M95.4805 122.12C95.8619 122.719 96.6998 123.57 98.2785 123.317C98.1313 122.7 97.9089 122.081 97.6291 121.853C97.6291 121.853 97.1873 121.22 96.2875 121.79C96.0388 121.944 95.766 122.055 95.4805 122.12Z" fill="#D7E3F4"/>
<path id="Vector_38" d="M87.2188 125.714C88.2246 125.834 89.8224 125.229 91.6368 124.389C93.4261 123.561 92.7368 122.413 92.2597 121.834C92.1831 121.888 92.1007 121.953 92.0049 122.028C91.2818 122.589 88.8814 124.875 87.7342 125.34C87.5341 125.421 87.357 125.549 87.2188 125.714Z" fill="#D7E3F4"/>
<path id="Vector_39" d="M96.3874 121.273L93.2505 121.345C93.1975 120.952 93.1519 120.598 93.1445 120.508L96.2695 119.594L96.3874 121.273Z" fill="#FBB188"/>
<path id="Vector_40" d="M104.717 86.082C104.717 86.082 101.587 88.0996 101.671 93.3879C101.671 93.3879 83.9876 94.2612 82.5768 94.8253C81.166 95.3893 80.3206 97.4761 80.9406 100.579C81.5606 103.682 84.693 120.297 84.693 120.297H89.3172L86.441 100.416H100.205C100.205 100.416 108.525 99.6792 109.767 97.2007C111.008 94.7222 108.525 86.3147 108.525 86.3147L104.717 86.082Z" fill="#15315E"/>
<path id="Vector_41" d="M115.744 100.495C115.699 100.539 115.519 100.576 115.226 100.605C112.064 100.917 95.7618 100.339 94.9857 100.495C94.1404 100.664 97.1005 120.689 97.1005 120.689H92.2495C92.2495 120.689 89.1201 99.7892 89.0626 97.025C89.0052 94.2608 108.58 94.3742 107.819 92.9016C107.775 92.8163 107.739 92.7277 107.711 92.6365C107.65 92.4443 107.606 92.2472 107.579 92.0474C107.262 89.9989 107.819 86.0684 107.819 86.0684H115.744C115.843 86.2156 115.939 86.3629 116.032 86.4999C116.035 86.508 116.04 86.5159 116.045 86.5234C116.322 86.9505 116.571 87.3692 116.792 87.7796C120.821 95.2475 116.245 99.9954 115.744 100.495Z" fill="#1F3A6F"/>
<path id="Vector_42" d="M115.748 100.495C115.702 100.539 115.522 100.576 115.229 100.605C121.127 94.8616 115.118 88.2773 113.041 86.0815C112.671 85.6912 112.427 85.4394 112.395 85.3555L114.677 86.0815L116.035 86.513C121.35 94.701 116.274 99.9732 115.748 100.495Z" fill="#15315E"/>
<path id="Vector_43" d="M99.2176 48.838C99.0954 49.2092 97.8628 53.6978 100.101 58.3574C102.34 63.0169 104.077 63.3924 103.867 65.9299C103.656 68.4673 115.289 68.2007 117.772 71.3596C120.255 74.5185 121.945 75.7599 125.724 75.0265C129.503 74.2931 127.416 65.2112 125.103 62.8976C122.789 60.5841 119.293 60.7269 118.673 54.7891C118.053 48.8513 120.702 44.3405 112.975 43.3244C105.248 42.3082 100.515 44.8751 99.2176 48.838Z" fill="#1F3A6F"/>
<path id="Vector_44" d="M117.795 72.8473L116.983 77.3979L116.763 78.632V86.8112L109.391 87.0012L108.819 87.0174L103.731 87.1499C103.731 87.1499 96.5684 93.4677 96.455 93.693C96.3416 93.9183 95.3828 90.8169 95.3828 90.6475C95.3828 90.4781 102.039 82.807 102.773 81.5169C102.922 81.2563 103.01 80.9653 103.032 80.6657C103.085 80.0281 102.849 79.361 102.493 78.6821C102.248 78.2196 101.949 77.7528 101.645 77.286C100.684 75.8133 100.855 73.3377 101.927 69.3335C102.999 65.3293 105.989 64.8213 105.989 64.8213L113.292 65.0746L113.397 65.2557L117.795 72.8473Z" fill="#F4B545"/>
<path id="Vector_45" d="M112.567 56.6009C113.782 56.6009 114.768 55.3937 114.768 53.9045C114.768 52.4153 113.782 51.208 112.567 51.208C111.352 51.208 110.367 52.4153 110.367 53.9045C110.367 55.3937 111.352 56.6009 112.567 56.6009Z" fill="#FDC8AA"/>
<path id="Vector_46" d="M109.134 91.4322C109.134 91.4322 107.367 92.4189 107.099 92.7709C106.897 93.0026 106.635 93.1734 106.342 93.2642C106.342 93.2642 105.336 93.2966 104.316 93.3114C103.338 93.3276 102.348 93.3275 102.223 93.2642C101.97 93.1376 101.219 91.9536 101.177 91.4573C101.136 90.961 101.959 89.721 102.984 89.4677C104.009 89.2144 104.878 90.0921 105.831 90.0715C106.093 90.0746 106.351 90.0039 106.576 89.8674C106.8 89.731 106.981 89.5343 107.099 89.2998L108.542 90.8122L109.134 91.4322Z" fill="#FDC8AA"/>
<path id="Vector_47" d="M116.795 87.7933L108.82 92.4631L108.509 92.1686L107.714 92.6428L107.517 92.7591L107.203 92.3085L107.582 92.0611L116.048 86.5371C116.325 86.9642 116.574 87.3829 116.795 87.7933Z" fill="#15315E"/>
<path id="Vector_48" d="M109.131 91.4325C109.131 91.4325 107.364 92.4192 107.096 92.7711C106.894 93.0028 106.632 93.1737 106.339 93.2645C106.339 93.2645 105.333 93.2969 104.312 93.3116C104.691 93.1801 105.077 93.071 105.468 92.9847C106.941 92.6489 107.953 91.4988 108.539 90.8125L109.131 91.4325Z" fill="#FBB188"/>
<path id="Vector_49" d="M116.764 80.3828V86.8154L109.392 87.0054L108.82 87.0216L116.764 80.3828Z" fill="#E59D29"/>
<path id="Vector_50" d="M122.15 83.6149C120.246 85.0537 108.822 91.9487 108.822 91.9487L106.613 89.1138C106.613 89.1138 107.8 88.2066 109.395 87.0049C111.832 85.17 115.221 82.6518 116.767 81.6474C116.988 81.4983 117.218 81.3639 117.457 81.2453C118.056 80.9847 117.619 79.2057 116.987 77.4017C116.514 76.0453 115.934 74.6758 115.602 73.9232C115.443 73.5565 115.342 73.3342 115.342 73.3342L113.401 65.2507L113.296 64.8162C113.296 64.8162 119.869 64.1535 120.671 66.1844C121.474 68.2152 124.053 82.1761 122.15 83.6149Z" fill="#F4B545"/>
<path id="Vector_51" d="M106.609 70.2318L108.054 65.0142L107.823 63.6652L107.285 60.5004L109.487 57.6538L112.568 56.835L112.808 58.4888L113.753 65.0422L115.747 65.2115L106.609 70.2318Z" fill="#FDC8AA"/>
<path id="Vector_52" d="M109.132 93.2998H85.8359V95.0243H109.132V93.2998Z" fill="#444343"/>
<path id="Vector_53" d="M112.808 58.4888C112.018 60.3046 110.292 63.2234 107.823 63.6652L107.285 60.5004L109.485 57.6537L112.568 56.835L112.808 58.4888Z" fill="#FBB188"/>
<path id="Vector_54" d="M112.642 54.791C112.642 58.5979 110.243 61.6861 107.283 61.6861C106.724 61.6851 106.17 61.5745 105.653 61.3606C103.491 60.477 101.926 57.866 101.926 54.791C101.926 52.9001 102.515 51.1859 103.474 49.9415C104.432 48.6971 105.793 47.8945 107.283 47.8945C110.243 47.8945 112.642 50.9812 112.642 54.791Z" fill="#FDC8AA"/>
<path id="Vector_55" d="M116.984 77.3979L116.764 78.632V80.9146C115.991 78.7778 115.703 75.9827 115.599 73.9165C115.518 72.2554 115.555 71.0654 115.555 71.0654C115.555 71.0654 116.984 77.2477 116.984 77.3979Z" fill="#E59D29"/>
<path id="Vector_56" d="M103.031 80.6627C103.084 80.025 102.849 79.3579 102.492 78.679C103.286 78.7552 104.087 78.7115 104.868 78.5494C106.421 78.2137 106.153 79.7762 103.031 80.6627Z" fill="#E59D29"/>
<path id="Vector_57" d="M97.5022 94.9765L96.6098 94.9794L89.1419 95.0089L87.0154 95.0177L82.5929 95.0339L76.0116 95.0589L72.6863 80.2115L72.6406 80.0112L76.9747 79.995L79.1012 79.9861L86.5691 79.9567L94.1328 79.9287L97.5022 94.9765Z" fill="#444343"/>
<path id="Vector_58" d="M96.6101 94.9797L89.1422 95.0092L79.1016 79.9865L86.5695 79.957L96.6101 94.9797Z" fill="#515151"/>
<path id="Vector_59" d="M87.0154 95.0178L82.5929 95.034L72.6863 80.2116L72.6406 80.0113L76.9747 79.9951L87.0154 95.0178Z" fill="#515151"/>
<path id="Vector_60" d="M96.7617 95.0347L97.5054 95.7166L109.134 95.0244L96.7617 95.0347Z" fill="#15315E"/>
<path id="Vector_61" d="M102.934 50.8429C102.987 50.8606 107.045 53.0372 109.363 53.1079C111.681 53.1786 112.22 53.3347 113.192 51.8885C114.164 50.4423 102.934 50.8429 102.934 50.8429Z" fill="#FBB188"/>
<path id="Vector_62" d="M105.653 61.3605C103.491 60.4769 101.926 57.8658 101.926 54.7909C101.926 52.9 102.515 51.1858 103.474 49.9414L103.867 50.0887C103.867 50.0887 100.237 57.3357 105.653 61.3605Z" fill="#FFD6BB"/>
<path id="Vector_63" d="M101.122 53.1122C101.143 52.9855 102.031 50.2979 104.294 51.1874C106.558 52.0769 111.748 53.6615 112.643 52.3081C113.538 50.9547 115.167 54.7837 112.396 55.6953C112.396 55.6953 111.091 58.2341 113.753 61.259C116.416 64.2839 116.204 53.7911 116.204 53.7911C116.204 53.7911 115.527 51.0622 115.485 50.8295C115.444 50.5969 111.951 47.192 111.614 47.0654C111.276 46.9387 107.997 46.3673 107.425 46.4307C106.854 46.494 103.49 46.9373 103.088 47.3143C102.686 47.6913 101.08 48.2244 100.72 49.0064C100.361 49.7883 99.7248 50.7412 99.9368 51.3332C100.149 51.9252 101.122 53.1122 101.122 53.1122Z" fill="#1F3A6F"/>
<path id="Vector_64" d="M161.039 87.7477L164.575 55.4299L215.416 50.8809L161.039 87.7477Z" fill="#92AFCC"/>
<path id="Vector_65" d="M163.555 65.718C163.821 65.6223 215.414 50.8809 215.414 50.8809L149.086 51.7085L163.555 65.718Z" fill="#B7CAE5"/>
<path id="Vector_66" d="M168.47 70.4912L161.039 87.748L185.964 71.2776L168.47 70.4912Z" fill="#7F9FBA"/>
<path id="Vector_67" d="M168.469 70.4909L183.041 84.5152L215.415 50.8809L168.469 70.4909Z" fill="#B7CAE5"/>
<path id="Vector_68" d="M33.4384 54.5535C37.8442 54.5535 41.4158 50.9819 41.4158 46.5761C41.4158 42.1703 37.8442 38.5986 33.4384 38.5986C29.0326 38.5986 25.4609 42.1703 25.4609 46.5761C25.4609 50.9819 29.0326 54.5535 33.4384 54.5535Z" fill="#F4B545"/>
<path id="Vector_69" d="M225.88 97.1451C229.261 97.1451 232.002 94.4043 232.002 91.0233C232.002 87.6422 229.261 84.9014 225.88 84.9014C222.499 84.9014 219.758 87.6422 219.758 91.0233C219.758 94.4043 222.499 97.1451 225.88 97.1451Z" fill="#F4B545"/>
<path id="Vector_70" d="M173.72 35.8891C174.73 34.8792 174.73 33.2418 173.72 32.2319C172.71 31.222 171.073 31.2221 170.063 32.232C169.053 33.2419 169.053 34.8792 170.063 35.8891C171.073 36.899 172.71 36.899 173.72 35.8891Z" fill="#F4B545"/>
<path id="Vector_71" d="M117.793 10.7505C120.762 10.7505 123.168 8.34391 123.168 5.37525C123.168 2.40658 120.762 0 117.793 0C114.825 0 112.418 2.40658 112.418 5.37525C112.418 8.34391 114.825 10.7505 117.793 10.7505Z" fill="#B7CAE5"/>
<path id="Vector_72" d="M220.76 118.778C221.227 116.802 220.003 114.821 218.026 114.355C216.05 113.888 214.069 115.112 213.603 117.089C213.136 119.066 214.36 121.046 216.337 121.513C218.313 121.979 220.294 120.755 220.76 118.778Z" fill="#B7CAE5"/>
<path id="Vector_73" d="M4.03217 152.18C6.25908 152.18 8.06434 150.374 8.06434 148.147C8.06434 145.92 6.25908 144.115 4.03217 144.115C1.80526 144.115 0 145.92 0 148.147C0 150.374 1.80526 152.18 4.03217 152.18Z" fill="#B7CAE5"/>
<path id="Vector_74" d="M75.3735 62.9745C77.955 62.9745 80.0477 60.8817 80.0477 58.3002C80.0477 55.7187 77.955 53.626 75.3735 53.626C72.792 53.626 70.6992 55.7187 70.6992 58.3002C70.6992 60.8817 72.792 62.9745 75.3735 62.9745Z" fill="#B7CAE5"/>
</g>
</g>
</g>
<defs>
<clipPath id="clip0_336_387">
<rect width="232" height="204.896" fill="white"/>
</clipPath>
</defs>
</svg>
