<svg width="241" height="202" viewBox="0 0 241 202" fill="none" xmlns="http://www.w3.org/2000/svg">
<g id="Frame" clip-path="url(#clip0_336_269)">
<g id="Group">
<g id="Layer 3">
<path id="Vector" d="M41.0174 195.476C41.0174 195.476 -2.13375 134.897 10.5951 87.4651C23.3239 40.0337 75.5414 -9.33826 187.004 43.7366C298.466 96.8114 169.451 145.36 204.562 196.127L41.0174 195.476Z" fill="#ECF3FE"/>
<path id="Vector_2" d="M62.9144 23.0893C62.819 23.0891 62.7249 23.0677 62.6387 23.0268C62.148 22.8002 61.6494 22.5768 61.154 22.3659C61.0745 22.332 61.0025 22.2827 60.942 22.2208C60.8815 22.1589 60.8337 22.0857 60.8015 22.0053C60.7692 21.9249 60.753 21.8389 60.7539 21.7523C60.7548 21.6656 60.7727 21.58 60.8067 21.5003C60.8403 21.4204 60.8894 21.348 60.951 21.2871C61.0126 21.2263 61.0856 21.1782 61.1658 21.1457C61.2459 21.1132 61.3317 21.0969 61.4182 21.0977C61.5047 21.0985 61.5901 21.1164 61.6697 21.1503C62.1775 21.3675 62.69 21.5956 63.1932 21.83C63.3512 21.904 63.4736 22.0377 63.5335 22.202C63.5934 22.3663 63.5858 22.5477 63.5126 22.7065C63.4595 22.8207 63.3751 22.9175 63.2691 22.9853C63.1631 23.0531 63.0401 23.0891 62.9144 23.0893Z" fill="#52D1BD"/>
<path id="Vector_3" d="M40.8752 106.631C40.7013 106.63 40.5345 106.561 40.4113 106.438C40.2881 106.314 40.2186 106.147 40.2178 105.973C40.2172 105.886 40.2337 105.8 40.2662 105.72C40.2988 105.64 40.3469 105.567 40.4076 105.505C40.4684 105.444 40.5408 105.395 40.6205 105.361C40.7002 105.328 40.7857 105.311 40.8721 105.31C41.933 105.31 43.0219 105.259 44.1077 105.178C44.1939 105.171 44.2806 105.181 44.3628 105.209C44.445 105.236 44.521 105.279 44.5866 105.335C44.6521 105.392 44.7059 105.461 44.7449 105.538C44.7838 105.616 44.807 105.7 44.8133 105.787C44.8262 105.961 44.7695 106.134 44.6556 106.267C44.5416 106.399 44.3799 106.481 44.2058 106.495C43.0904 106.579 41.9718 106.624 40.8783 106.631H40.8752ZM37.5945 106.526H37.5477C36.4308 106.448 35.3138 106.326 34.2311 106.16C34.1445 106.148 34.0612 106.119 33.986 106.074C33.9108 106.03 33.8453 105.97 33.7932 105.9C33.7411 105.83 33.7036 105.749 33.6828 105.664C33.6619 105.579 33.6582 105.491 33.6719 105.404C33.6984 105.231 33.7921 105.076 33.9326 104.972C34.073 104.869 34.2488 104.825 34.4212 104.851C35.4696 105.007 36.5507 105.129 37.6334 105.204C37.8075 105.216 37.9695 105.298 38.084 105.43C38.1985 105.562 38.2561 105.734 38.2441 105.909C38.2331 106.075 38.1601 106.23 38.0397 106.345C37.9193 106.459 37.7603 106.524 37.5945 106.526ZM47.421 106.14C47.2627 106.14 47.1097 106.082 46.9901 105.978C46.8705 105.874 46.7924 105.73 46.7699 105.573C46.7459 105.399 46.7915 105.223 46.8966 105.083C47.0017 104.943 47.1578 104.851 47.3307 104.826C48.3869 104.67 49.4634 104.49 50.5274 104.273C50.6122 104.255 50.6996 104.254 50.7848 104.271C50.8699 104.287 50.951 104.32 51.0234 104.367C51.0958 104.415 51.158 104.477 51.2065 104.549C51.2551 104.621 51.289 104.702 51.3063 104.787C51.3412 104.959 51.3067 105.138 51.2103 105.284C51.1139 105.431 50.9635 105.533 50.7921 105.568C49.7017 105.792 48.5988 105.982 47.5208 106.135C47.4877 106.14 47.4543 106.141 47.421 106.14ZM31.1062 105.537C31.0537 105.537 31.0014 105.531 30.9504 105.518C29.8599 105.257 28.7835 104.945 27.7382 104.592C27.5728 104.535 27.4364 104.416 27.359 104.259C27.2816 104.102 27.2695 103.92 27.3254 103.754C27.353 103.672 27.3964 103.596 27.4532 103.531C27.5101 103.466 27.5792 103.412 27.6566 103.374C27.734 103.335 27.8182 103.313 27.9044 103.307C27.9906 103.301 28.077 103.312 28.1588 103.34C29.1667 103.682 30.2105 103.982 31.2573 104.235C31.427 104.276 31.5737 104.383 31.6651 104.532C31.7565 104.681 31.7852 104.86 31.7449 105.031C31.7103 105.175 31.6286 105.303 31.5128 105.395C31.397 105.486 31.2538 105.536 31.1062 105.537ZM53.8501 104.824C53.705 104.825 53.5639 104.777 53.4489 104.688C53.3338 104.599 53.2515 104.475 53.2146 104.334C53.1699 104.165 53.194 103.984 53.2816 103.833C53.3692 103.682 53.5132 103.571 53.6819 103.526C54.7303 103.246 55.7772 102.934 56.7975 102.596C56.8796 102.569 56.9661 102.559 57.0522 102.565C57.1383 102.572 57.2224 102.595 57.2995 102.634C57.3766 102.673 57.4452 102.727 57.5016 102.793C57.5579 102.858 57.6008 102.934 57.6278 103.017C57.6825 103.183 57.6693 103.364 57.591 103.52C57.5128 103.677 57.3759 103.796 57.2103 103.851C56.1682 104.196 55.0964 104.517 54.0246 104.803C53.9697 104.817 53.9131 104.825 53.8563 104.824H53.8501ZM24.8859 103.431C24.7935 103.431 24.7022 103.411 24.6179 103.373C23.6022 102.92 22.5928 102.414 21.6285 101.868C21.5532 101.826 21.4869 101.769 21.4336 101.701C21.3802 101.633 21.3408 101.555 21.3175 101.471C21.2942 101.388 21.2875 101.301 21.2979 101.215C21.3082 101.129 21.3353 101.045 21.3777 100.97C21.4199 100.894 21.4765 100.828 21.5444 100.774C21.6123 100.72 21.6901 100.681 21.7733 100.657C21.8565 100.634 21.9435 100.627 22.0293 100.637C22.1151 100.647 22.1981 100.674 22.2735 100.717C23.2081 101.243 24.1755 101.731 25.1523 102.167C25.2315 102.202 25.303 102.252 25.3627 102.315C25.4224 102.378 25.4692 102.452 25.5003 102.533C25.5314 102.614 25.5463 102.7 25.544 102.787C25.5418 102.874 25.5225 102.959 25.4872 103.039C25.4357 103.154 25.3523 103.252 25.2468 103.322C25.1414 103.391 25.0183 103.429 24.8921 103.431H24.8859ZM19.1672 100.209C19.0337 100.209 18.9033 100.168 18.7934 100.092L18.65 99.9919C17.7979 99.3951 16.9504 98.742 16.131 98.0655C16.0635 98.0099 16.0076 97.9415 15.9667 97.8641C15.9258 97.7867 15.9006 97.702 15.8926 97.6147C15.8847 97.5275 15.894 97.4395 15.9202 97.356C15.9465 97.2724 15.989 97.195 16.0454 97.128C16.1004 97.0611 16.1681 97.0058 16.2445 96.9652C16.3209 96.9246 16.4046 96.8995 16.4907 96.8914C16.5768 96.8833 16.6637 96.8922 16.7463 96.9178C16.8289 96.9434 16.9057 96.9851 16.9722 97.0405C17.7636 97.6999 18.5815 98.3264 19.404 98.9013L19.5411 98.9967C19.6844 99.0965 19.7825 99.2491 19.8141 99.4212C19.8456 99.5933 19.808 99.771 19.7093 99.9154C19.6504 100.004 19.5707 100.077 19.4774 100.128C19.3841 100.18 19.2798 100.207 19.1734 100.209H19.1672ZM14.1121 96.0094C13.9376 96.0106 13.7696 95.9426 13.6448 95.8203C12.8659 95.0485 12.087 94.2298 11.3548 93.3861C11.2969 93.3207 11.2526 93.2445 11.2243 93.1618C11.1961 93.079 11.1845 92.9915 11.1903 92.9043C11.1961 92.817 11.2191 92.7318 11.2581 92.6536C11.297 92.5754 11.3511 92.5057 11.4171 92.4486C11.4825 92.391 11.5586 92.3468 11.641 92.3187C11.7234 92.2906 11.8105 92.2792 11.8974 92.285C11.9843 92.2908 12.0692 92.3138 12.1471 92.3526C12.2251 92.3914 12.2947 92.4453 12.3518 92.5111C13.0637 93.3298 13.8114 94.122 14.5732 94.8704C14.6353 94.9313 14.6848 95.0039 14.7188 95.0839C14.7529 95.164 14.7708 95.2501 14.7717 95.3372C14.7725 95.4242 14.7563 95.5106 14.7238 95.5913C14.6914 95.6721 14.6434 95.7457 14.5826 95.8078C14.5222 95.8704 14.4502 95.9205 14.3705 95.9551C14.2908 95.9896 14.2051 96.0081 14.1183 96.0094H14.1121ZM9.7892 91.0518C9.68673 91.0523 9.58563 91.0286 9.49392 90.9827C9.40221 90.9369 9.32242 90.8701 9.26109 90.7878C8.59746 89.9004 7.95877 88.977 7.36213 88.0411C7.31534 87.9681 7.28342 87.8866 7.26812 87.8011C7.25281 87.7157 7.25446 87.6281 7.27299 87.5434C7.29151 87.4586 7.32653 87.3783 7.37605 87.3071C7.42558 87.236 7.48863 87.1753 7.56158 87.1287C7.6343 87.082 7.71549 87.0501 7.80049 87.0349C7.8855 87.0197 7.97265 87.0214 8.05698 87.04C8.14132 87.0585 8.2212 87.0936 8.29202 87.1431C8.36285 87.1926 8.42326 87.2557 8.46979 87.3287C9.05085 88.2364 9.67083 89.1348 10.3142 89.9956C10.4191 90.1357 10.4642 90.3119 10.4396 90.4853C10.4151 90.6587 10.3229 90.8153 10.1834 90.9206C10.0714 91.0049 9.93541 91.0508 9.79544 91.0518H9.7892ZM6.25456 85.5084C6.13569 85.5087 6.01898 85.4766 5.91691 85.4155C5.81483 85.3544 5.73121 85.2666 5.67502 85.1616C5.14537 84.1788 4.64999 83.1695 4.20135 82.1633C4.13046 82.0034 4.12576 81.8217 4.18826 81.6583C4.25076 81.4948 4.37538 81.3629 4.53474 81.2915C4.69424 81.2204 4.87532 81.2157 5.03828 81.2784C5.20125 81.3411 5.33281 81.466 5.404 81.6259C5.83863 82.6024 6.31842 83.5804 6.8325 84.5335C6.91559 84.6875 6.9344 84.8682 6.88475 85.0361C6.8351 85.2039 6.72101 85.3451 6.56764 85.4287C6.47133 85.4806 6.36386 85.5079 6.25456 85.5084ZM3.58446 79.4979C3.44777 79.4987 3.31426 79.4567 3.20254 79.3777C3.09082 79.2987 3.00647 79.1867 2.96134 79.0573C2.58591 77.9949 2.25565 76.9168 1.98148 75.8544C1.9373 75.6855 1.96172 75.506 2.04932 75.3551C2.13693 75.2043 2.28058 75.0945 2.44882 75.0497C2.61737 75.0054 2.79662 75.0298 2.94727 75.1176C3.09791 75.2055 3.2077 75.3496 3.25267 75.5184C3.51749 76.5449 3.83682 77.5855 4.19823 78.6136C4.22712 78.6952 4.23968 78.7818 4.23519 78.8683C4.23071 78.9549 4.20932 79.0396 4.17214 79.1178C4.13495 79.196 4.08277 79.2662 4.01856 79.3241C3.95435 79.3821 3.87935 79.4268 3.7979 79.4557C3.72949 79.4812 3.6574 79.4954 3.58446 79.4979ZM1.94101 73.1264C1.78497 73.1263 1.634 73.0706 1.51505 72.9693C1.39609 72.8681 1.31687 72.7277 1.29142 72.5733C1.112 71.4664 0.98924 70.3509 0.923721 69.2313C0.918886 69.1445 0.931208 69.0576 0.959927 68.9755C0.988647 68.8935 1.03325 68.818 1.09114 68.7532C1.14903 68.6885 1.21907 68.6358 1.29727 68.5983C1.37548 68.5608 1.46026 68.5391 1.54684 68.5345C1.72157 68.5251 1.8929 68.5857 2.02316 68.7028C2.15342 68.82 2.23204 68.9842 2.24169 69.1595C2.30416 70.233 2.42212 71.3027 2.59524 72.3639C2.62267 72.5369 2.58073 72.7137 2.47856 72.8557C2.37639 72.9977 2.2223 73.0933 2.05001 73.1217C2.01387 73.1264 1.97742 73.128 1.94101 73.1264ZM25.1756 72.4202C24.9653 72.4202 24.7519 72.4202 24.5432 72.4093C24.3689 72.4028 24.2044 72.3272 24.0856 72.1992C23.9667 72.0713 23.9033 71.9013 23.9092 71.7265C23.912 71.6397 23.9318 71.5544 23.9676 71.4754C24.0033 71.3964 24.0543 71.3252 24.1176 71.266C24.1808 71.2068 24.2551 71.1606 24.3361 71.1303C24.4172 71.0999 24.5035 71.0859 24.5899 71.089C24.7847 71.0969 24.9809 71.1 25.1772 71.1C26.0348 71.0989 26.8912 71.0357 27.7398 70.9109C27.9127 70.8854 28.0886 70.9299 28.2289 71.0345C28.3691 71.1391 28.4622 71.2953 28.4876 71.4687C28.5125 71.6419 28.468 71.8179 28.3637 71.9582C28.2595 72.0985 28.104 72.1916 27.9314 72.2171C27.0194 72.3512 26.099 72.4191 25.1772 72.4202H25.1756ZM21.3185 71.9687C21.2661 71.9684 21.2138 71.9621 21.1628 71.9499L21.0662 71.9249C19.9862 71.65 18.9409 71.2527 17.9506 70.7406C17.8737 70.701 17.8053 70.6465 17.7494 70.5804C17.6936 70.5142 17.6513 70.4376 17.6249 70.3551C17.5986 70.2725 17.5888 70.1855 17.596 70.0992C17.6032 70.0128 17.6273 69.9286 17.667 69.8516C17.7065 69.7745 17.7608 69.706 17.8268 69.6499C17.8928 69.5939 17.9691 69.5514 18.0514 69.525C18.1338 69.4986 18.2205 69.4888 18.3066 69.496C18.3928 69.5033 18.4766 69.5274 18.5534 69.5672C19.4551 70.0324 20.4061 70.394 21.3886 70.6453L21.4743 70.6672C21.5584 70.6877 21.6375 70.7246 21.7073 70.7759C21.7771 70.8271 21.8361 70.8917 21.881 70.9658C21.9258 71.04 21.9557 71.1223 21.9687 71.2081C21.9818 71.2938 21.9779 71.3813 21.9572 71.4656C21.9223 71.6091 21.8404 71.7366 21.7246 71.8279C21.6088 71.9191 21.4658 71.9687 21.3185 71.9687ZM31.0345 71.4703C30.8965 71.4695 30.7621 71.4254 30.6504 71.3442C30.5386 71.2629 30.455 71.1485 30.4114 71.0171C30.3571 70.851 30.3705 70.67 30.4487 70.5137C30.5269 70.3574 30.6636 70.2385 30.8289 70.1828C31.8297 69.8511 32.7968 69.4247 33.7171 68.9095C33.8681 68.826 34.0457 68.8051 34.212 68.8512C34.3782 68.8974 34.5198 69.0069 34.6066 69.1563C34.6489 69.232 34.6761 69.3154 34.6863 69.4016C34.6965 69.4878 34.6897 69.5752 34.6663 69.6587C34.6429 69.7423 34.6032 69.8204 34.5497 69.8886C34.4961 69.9568 34.4297 70.0138 34.3542 70.0563C33.3612 70.612 32.318 71.0724 31.2386 71.4312C31.1729 71.4539 31.104 71.466 31.0345 71.4671V71.4703ZM15.5188 68.9985C15.3653 68.9969 15.2171 68.9416 15.0997 68.8423C14.2273 68.1129 13.4228 67.3054 12.6961 66.4299C12.6396 66.3632 12.5968 66.2859 12.5704 66.2025C12.5439 66.119 12.5342 66.0311 12.5419 65.9439C12.5496 65.8567 12.5744 65.7719 12.6151 65.6944C12.6557 65.6169 12.7113 65.5483 12.7786 65.4925C12.9126 65.3805 13.0854 65.3262 13.2591 65.3418C13.4329 65.3573 13.5934 65.4413 13.7055 65.5753C14.3804 66.3899 15.1281 67.1409 15.9394 67.8189C16.0061 67.874 16.0612 67.9417 16.1017 68.0182C16.1421 68.0948 16.1672 68.1785 16.1753 68.2648C16.1834 68.351 16.1744 68.438 16.1489 68.5207C16.1234 68.6035 16.0819 68.6804 16.0267 68.747C15.9663 68.8246 15.8893 68.8876 15.8014 68.9314C15.7135 68.9752 15.617 68.9987 15.5188 69.0001V68.9985ZM36.705 68.2345C36.6129 68.2344 36.5218 68.2151 36.4375 68.1777C36.3533 68.1403 36.2778 68.0857 36.2158 68.0173C36.1572 67.9529 36.1118 67.8774 36.0824 67.7953C36.053 67.7132 36.0401 67.626 36.0444 67.5388C36.0488 67.4517 36.0703 67.3663 36.1077 67.2875C36.1452 67.2087 36.1977 67.1382 36.2625 67.0799C37.0338 66.3848 37.7081 65.5886 38.2674 64.7129C38.3612 64.5653 38.5094 64.4611 38.6797 64.423C38.8499 64.385 39.0283 64.4162 39.1756 64.5097C39.323 64.6035 39.4272 64.7521 39.4654 64.9229C39.5037 65.0936 39.4729 65.2727 39.3797 65.4206C38.7565 66.3964 38.0051 67.2834 37.1458 68.058C37.0258 68.1683 36.8693 68.2301 36.7065 68.2314L36.705 68.2345ZM1.58115 66.5612H1.5422C1.45549 66.5566 1.37049 66.5349 1.29218 66.4972C1.21386 66.4596 1.1438 66.4068 1.08589 66.3419C1.02798 66.277 0.983454 66.2013 0.954831 66.119C0.926208 66.0368 0.914033 65.9497 0.919081 65.8628C0.983725 64.7372 1.12217 63.6172 1.33348 62.5099C1.34973 62.4248 1.38253 62.3438 1.43001 62.2715C1.47748 62.1991 1.53867 62.1369 1.61013 62.0883C1.68159 62.0397 1.76189 62.0057 1.84646 61.9882C1.93103 61.9707 2.01823 61.9702 2.10303 61.9865C2.18799 62.0028 2.26887 62.0357 2.34111 62.0834C2.41335 62.1311 2.47549 62.1927 2.52397 62.2645C2.57245 62.3364 2.6063 62.4171 2.62361 62.5021C2.64092 62.5871 2.64141 62.6747 2.62491 62.7599C2.42548 63.8106 2.29434 64.8731 2.23234 65.9409C2.22246 66.1078 2.14969 66.2648 2.02879 66.3799C1.90789 66.4951 1.74788 66.5599 1.58115 66.5612ZM11.2972 63.9848C11.1844 63.9854 11.0733 63.9571 10.9745 63.9024C10.8758 63.8477 10.7927 63.7684 10.7332 63.6723C10.1496 62.7059 9.63172 61.7011 9.1832 60.6647C9.11377 60.5041 9.11072 60.3224 9.17468 60.1596C9.23864 59.9967 9.36445 59.866 9.52442 59.796C9.68454 59.7264 9.86559 59.7233 10.028 59.7874C10.1904 59.8516 10.3207 59.9777 10.3905 60.1381C10.8151 61.1204 11.306 62.0726 11.8595 62.988C11.9043 63.0621 11.9341 63.1444 11.9472 63.2301C11.9602 63.3158 11.9562 63.4032 11.9355 63.4874C11.9148 63.5716 11.8778 63.6508 11.8265 63.7206C11.7753 63.7904 11.7108 63.8494 11.6367 63.8942C11.5341 63.9552 11.4166 63.9866 11.2972 63.9848ZM40.1508 62.7348C40.0919 62.7346 40.0333 62.7268 39.9764 62.7114C39.8925 62.6891 39.8138 62.6504 39.7449 62.5976C39.676 62.5447 39.6182 62.4787 39.5747 62.4033C39.5313 62.328 39.5031 62.2448 39.4918 62.1585C39.4806 62.0722 39.4864 61.9846 39.509 61.9005C39.7473 61.0269 39.8678 60.1252 39.8673 59.2194C39.8673 59.0913 39.8673 58.9648 39.8595 58.8367C39.8564 58.7501 39.8703 58.6637 39.9005 58.5825C39.9306 58.5013 39.9765 58.4269 40.0354 58.3635C40.0943 58.3001 40.165 58.2489 40.2437 58.2129C40.3223 58.177 40.4072 58.1569 40.4935 58.1539C40.6681 58.1476 40.8379 58.211 40.9659 58.3302C41.0938 58.4494 41.1693 58.6147 41.1758 58.7898C41.1758 58.9319 41.1837 59.0757 41.1837 59.2194C41.1843 60.2424 41.048 61.2608 40.7786 62.2474C40.7404 62.3853 40.6584 62.507 40.5452 62.5941C40.4319 62.6812 40.2935 62.729 40.1508 62.7302V62.7348ZM2.82739 60.1162C2.75414 60.116 2.68148 60.1033 2.61243 60.0788C2.44742 60.0213 2.31185 59.9005 2.23561 59.7429C2.15937 59.5853 2.14864 59.4037 2.20579 59.2382C2.57744 58.1685 3.03057 57.1291 3.56111 56.129C3.60184 56.0525 3.65718 55.9848 3.72404 55.9298C3.7909 55.8748 3.86794 55.8335 3.95071 55.8084C4.03349 55.7833 4.12039 55.7749 4.20644 55.7835C4.29249 55.7921 4.37603 55.8177 4.45221 55.8587C4.52842 55.8994 4.59586 55.9548 4.65073 56.0217C4.70561 56.0886 4.74681 56.1656 4.77198 56.2485C4.79715 56.3313 4.80583 56.4183 4.79746 56.5045C4.7891 56.5907 4.76385 56.6744 4.72322 56.7509C4.22444 57.6906 3.79847 58.6673 3.44899 59.6726C3.40407 59.802 3.32007 59.9143 3.2087 59.9938C3.09734 60.0733 2.96409 60.1161 2.82739 60.1162ZM8.67691 57.9539C8.53299 57.9537 8.39313 57.9062 8.27864 57.8188C8.16415 57.7313 8.08136 57.6086 8.04291 57.4695C7.74378 56.3792 7.52403 55.2686 7.38549 54.1463C7.3748 54.0603 7.38117 53.9731 7.40412 53.8896C7.42708 53.806 7.46619 53.7279 7.51928 53.6595C7.57238 53.5912 7.63841 53.534 7.71355 53.4913C7.7887 53.4485 7.87153 53.4211 7.95726 53.4104C8.13057 53.3888 8.30529 53.437 8.44316 53.5445C8.58103 53.652 8.67072 53.81 8.6925 53.9838C8.82428 55.0423 9.03254 56.0898 9.31563 57.118C9.362 57.2869 9.33965 57.4673 9.25348 57.6196C9.16731 57.7719 9.02442 57.8837 8.85612 57.9305C8.79871 57.9459 8.73947 57.9538 8.68003 57.9539H8.67691ZM39.9483 56.2353C39.8082 56.2337 39.6723 56.1874 39.5603 56.1031C39.4482 56.0188 39.3659 55.9009 39.3252 55.7665C39.0046 54.7671 38.5751 53.8062 38.0446 52.9011C38.0009 52.8262 37.9724 52.7435 37.9607 52.6575C37.9489 52.5716 37.9542 52.4842 37.9762 52.4003C37.9982 52.3164 38.0364 52.2377 38.0888 52.1686C38.1412 52.0996 38.2067 52.0416 38.2814 51.998C38.3561 51.9542 38.4386 51.9256 38.5243 51.9138C38.61 51.902 38.6971 51.9073 38.7808 51.9293C38.8644 51.9514 38.9429 51.9898 39.0117 52.0423C39.0805 52.0949 39.1384 52.1605 39.1819 52.2355C39.7622 53.2223 40.2324 54.2702 40.5839 55.3603C40.6363 55.5273 40.6206 55.7083 40.5403 55.8638C40.46 56.0192 40.3217 56.1365 40.1555 56.1899C40.0903 56.2164 40.0215 56.2328 39.9514 56.2384L39.9483 56.2353ZM5.90405 54.3198C5.76323 54.3196 5.6262 54.2742 5.51308 54.1901C5.44354 54.1385 5.3848 54.0737 5.34026 53.9994C5.29572 53.9251 5.2662 53.8427 5.25347 53.7569C5.24074 53.6711 5.24501 53.5837 5.26602 53.4996C5.28703 53.4155 5.32438 53.3363 5.37594 53.2667C5.95823 52.4821 6.58226 51.7295 7.2453 51.0122C7.2147 50.9347 7.1999 50.8518 7.20171 50.7684C7.21316 49.6438 7.29272 48.521 7.44002 47.4061C7.45116 47.3201 7.47916 47.2371 7.52233 47.162C7.56549 47.0868 7.62298 47.0209 7.69157 46.9681C7.76016 46.9152 7.8385 46.8765 7.92205 46.8541C8.00559 46.8317 8.09273 46.826 8.17846 46.8374C8.3515 46.8603 8.50838 46.9512 8.61469 47.0901C8.721 47.2289 8.76807 47.4044 8.74552 47.578C8.60958 48.6143 8.53357 49.6576 8.51801 50.7028C8.6279 50.8267 8.68733 50.9876 8.68444 51.1535C8.68156 51.3193 8.61663 51.478 8.5025 51.5981C7.76444 52.3726 7.07508 53.1923 6.43841 54.0526C6.37733 54.1364 6.29735 54.2045 6.20504 54.2515C6.11273 54.2985 6.01068 54.323 5.90717 54.3229L5.90405 54.3198ZM36.7019 50.5637C36.6069 50.5638 36.513 50.5434 36.4267 50.5037C36.3404 50.4641 36.2637 50.4062 36.2018 50.3341C35.5097 49.5288 34.7532 48.7816 33.9399 48.0998C33.8735 48.0443 33.8187 47.9761 33.7786 47.8993C33.7386 47.8225 33.714 47.7385 33.7064 47.6522C33.6987 47.5658 33.7081 47.4788 33.734 47.3961C33.7599 47.3134 33.8018 47.2366 33.8573 47.1702C33.9127 47.1025 33.9811 47.0466 34.0584 47.0057C34.1357 46.9648 34.2202 46.9398 34.3073 46.9321C34.3943 46.9244 34.482 46.9341 34.5652 46.9608C34.6484 46.9875 34.7255 47.0305 34.792 47.0874C35.6605 47.8157 36.4686 48.6135 37.2081 49.4732C37.2654 49.5391 37.309 49.6158 37.3365 49.6988C37.3639 49.7817 37.3748 49.8694 37.3683 49.9566C37.3617 50.0438 37.338 50.1288 37.2985 50.2067C37.259 50.2847 37.2044 50.354 37.138 50.4106C37.0161 50.5133 36.861 50.5678 36.7019 50.5637ZM10.4279 49.5607C10.3309 49.5609 10.2351 49.5395 10.1473 49.4982C10.0595 49.4569 9.98186 49.3966 9.92004 49.3216C9.86378 49.2546 9.82138 49.177 9.79529 49.0934C9.7692 49.0098 9.75994 48.9218 9.76806 48.8346C9.77618 48.7474 9.80153 48.6626 9.8426 48.5853C9.88367 48.508 9.93963 48.4396 10.0073 48.3842C10.8712 47.6656 11.778 47.0003 12.7226 46.3921C12.8695 46.2976 13.0478 46.2654 13.2184 46.3026C13.3889 46.3398 13.5378 46.4434 13.6323 46.5906C13.6791 46.6636 13.7111 46.7451 13.7264 46.8305C13.7417 46.9159 13.74 47.0035 13.7215 47.0883C13.703 47.1731 13.668 47.2533 13.6185 47.3245C13.5689 47.3957 13.5059 47.4563 13.4329 47.503C12.5337 48.0831 11.6702 48.717 10.847 49.4013C10.7302 49.502 10.5819 49.5584 10.4279 49.5607ZM31.6811 46.3531C31.5638 46.3537 31.4485 46.3224 31.3477 46.2624C30.4415 45.7242 29.4858 45.2748 28.4937 44.9203C28.412 44.8919 28.3368 44.8476 28.2722 44.7899C28.2076 44.7323 28.155 44.6624 28.1174 44.5843C28.0797 44.5063 28.0578 44.4215 28.0529 44.3349C28.048 44.2483 28.0602 44.1616 28.0888 44.0798C28.1172 43.9978 28.1615 43.9223 28.2192 43.8575C28.2769 43.7928 28.3467 43.7401 28.4247 43.7025C28.5027 43.6649 28.5874 43.6431 28.6738 43.6384C28.7603 43.6337 28.8467 43.6462 28.9284 43.6751C30.0015 44.0568 31.0351 44.5424 32.0144 45.125C32.089 45.1687 32.1543 45.2268 32.2065 45.296C32.2587 45.3651 32.2968 45.4439 32.3185 45.5278C32.3402 45.6117 32.3452 45.6991 32.3331 45.785C32.321 45.8708 32.2921 45.9535 32.248 46.0281C32.1902 46.1273 32.1073 46.2096 32.0078 46.2666C31.9083 46.3236 31.7957 46.3535 31.6811 46.3531ZM15.9472 46.0234C15.8219 46.0233 15.6992 45.9874 15.5935 45.9199C15.4879 45.8524 15.4036 45.756 15.3506 45.6422C15.2759 45.4843 15.2668 45.3031 15.3252 45.1385C15.3836 44.9738 15.5048 44.8391 15.6622 44.7641C16.6841 44.2832 17.7413 43.8815 18.8245 43.5626C18.9922 43.5138 19.1724 43.5338 19.3255 43.6181C19.4786 43.7025 19.592 43.8444 19.6408 44.0126C19.6895 44.1808 19.6695 44.3616 19.5854 44.5151C19.5013 44.6686 19.3598 44.7823 19.1921 44.8313C18.1733 45.1305 17.1791 45.5081 16.2183 45.9609C16.1349 46.0004 16.0441 46.0217 15.9519 46.0234H15.9472ZM8.6941 44.9188C8.64163 44.9186 8.58935 44.9123 8.53832 44.9C8.45428 44.8795 8.37504 44.8426 8.30526 44.7913C8.23548 44.7401 8.17647 44.6755 8.1316 44.6014C8.08674 44.5272 8.05691 44.4448 8.04383 44.3591C8.03074 44.2733 8.0347 44.1858 8.05539 44.1016C8.31554 43.0329 8.63643 41.9502 9.0103 40.8831C9.06854 40.7181 9.18955 40.5828 9.34689 40.507C9.50422 40.4312 9.68511 40.4209 9.84998 40.4784C10.0145 40.5368 10.1493 40.6582 10.2249 40.816C10.3005 40.9738 10.3108 41.1552 10.2534 41.3206C9.89357 42.3471 9.58359 43.3876 9.33434 44.4141C9.29962 44.5572 9.21825 44.6846 9.1031 44.7761C8.98795 44.8675 8.84561 44.9177 8.69874 44.9188H8.6941ZM25.5184 44.2313C25.494 44.2329 25.4695 44.2329 25.4451 44.2313C24.402 44.1185 23.3499 44.1159 22.3062 44.2235C22.2201 44.2323 22.1331 44.2241 22.0503 44.1992C21.9674 44.1743 21.8903 44.1332 21.8233 44.0784C21.7563 44.0235 21.7008 43.9559 21.6598 43.8795C21.6189 43.803 21.5935 43.7192 21.5849 43.6329C21.5679 43.4588 21.6203 43.285 21.7306 43.1495C21.8409 43.0139 22.0002 42.9277 22.1737 42.9095C23.3097 42.7923 24.4548 42.7954 25.59 42.9189C25.6759 42.9282 25.7591 42.9545 25.8349 42.9962C25.9106 43.0379 25.9774 43.0942 26.0314 43.1618C26.0854 43.2295 26.1255 43.3071 26.1495 43.3904C26.1735 43.4737 26.1808 43.5609 26.1711 43.647C26.1527 43.8083 26.0756 43.9571 25.9545 44.0649C25.8335 44.1727 25.6771 44.232 25.5153 44.2313H25.5184ZM10.875 38.7098C10.7803 38.7094 10.6868 38.6886 10.6008 38.6488C10.4423 38.5757 10.3193 38.4426 10.2585 38.2785C10.1978 38.1145 10.2043 37.933 10.2768 37.7739C10.7441 36.7661 11.252 35.7631 11.805 34.7928C11.8475 34.7173 11.9046 34.651 11.9728 34.5977C12.041 34.5444 12.119 34.5051 12.2024 34.4822C12.2858 34.4593 12.373 34.4531 12.4588 34.464C12.5446 34.4749 12.6273 34.5028 12.7023 34.546C12.8537 34.6328 12.9646 34.7762 13.0108 34.9449C13.0569 35.1136 13.0345 35.2938 12.9485 35.4459C12.4141 36.3834 11.9187 37.352 11.4732 38.3239C11.4202 38.44 11.3348 38.5384 11.2272 38.6068C11.1197 38.6753 10.9946 38.7111 10.8672 38.7098H10.875ZM14.1261 32.993C13.9924 32.9933 13.8619 32.9524 13.7522 32.8758C13.6811 32.8265 13.6203 32.7636 13.5733 32.6908C13.5264 32.6179 13.4943 32.5365 13.4788 32.4511C13.4633 32.3658 13.4648 32.2782 13.4831 32.1934C13.5014 32.1087 13.5363 32.0283 13.5856 31.9571C14.2258 31.0321 14.9066 30.1338 15.6107 29.2885C15.7231 29.1547 15.8837 29.071 16.0575 29.0558C16.2312 29.0406 16.4038 29.095 16.5376 29.2073C16.605 29.263 16.6606 29.3316 16.7013 29.4092C16.7419 29.4867 16.7667 29.5716 16.7742 29.6589C16.7818 29.7462 16.7719 29.8341 16.7452 29.9175C16.7184 30.0009 16.6754 30.0782 16.6186 30.1447C15.9394 30.9587 15.2821 31.8243 14.6652 32.7164C14.6033 32.8036 14.5212 32.8744 14.4259 32.9226C14.3306 32.9708 14.225 32.995 14.1183 32.993H14.1261ZM18.3478 27.9558C18.2606 27.9554 18.1745 27.9376 18.0942 27.9036C18.014 27.8695 17.9413 27.8198 17.8804 27.7573C17.8195 27.6952 17.7715 27.6216 17.7391 27.5408C17.7067 27.4599 17.6905 27.3735 17.6915 27.2863C17.6925 27.1992 17.7107 27.1131 17.745 27.0331C17.7793 26.953 17.8291 26.8806 17.8914 26.8199L18.1499 26.5683C18.8681 25.8824 19.6298 25.2216 20.415 24.6044C20.483 24.5509 20.5608 24.5113 20.6441 24.488C20.7273 24.4647 20.8143 24.4581 20.9001 24.4685C20.9859 24.479 21.0689 24.5063 21.1441 24.5489C21.2194 24.5915 21.2855 24.6486 21.3388 24.7169C21.3922 24.7851 21.4316 24.8632 21.4549 24.9467C21.4781 25.0301 21.4847 25.1174 21.4743 25.2035C21.4638 25.2895 21.4366 25.3727 21.3941 25.4482C21.3516 25.5237 21.2947 25.59 21.2266 25.6434C20.4757 26.234 19.7452 26.8683 19.0597 27.5183L18.8105 27.7589C18.7491 27.8215 18.6758 27.8711 18.5951 27.9049C18.5143 27.9387 18.4275 27.956 18.34 27.9558H18.3478ZM23.5057 23.8935C23.3937 23.8935 23.2834 23.8649 23.1856 23.8102C23.0877 23.7555 23.0053 23.6766 22.9464 23.581C22.8537 23.4325 22.8236 23.253 22.8627 23.0822C22.9019 22.9114 23.0071 22.7632 23.1552 22.6701C24.1019 22.076 25.0777 21.5301 26.0791 21.0343C26.1566 20.9956 26.241 20.9727 26.3273 20.9668C26.4137 20.9609 26.5003 20.9723 26.5823 21.0001C26.6643 21.028 26.7399 21.0719 26.8049 21.1293C26.8698 21.1866 26.9229 21.2563 26.9609 21.3343C26.9993 21.4118 27.0221 21.4962 27.0279 21.5826C27.0337 21.6689 27.0225 21.7556 26.9949 21.8376C26.9672 21.9197 26.9237 21.9954 26.8668 22.0605C26.8099 22.1256 26.7407 22.1788 26.6633 22.2171C25.7029 22.6934 24.767 23.218 23.8593 23.7888C23.7517 23.8589 23.6261 23.8959 23.4979 23.8951L23.5057 23.8935ZM58.3568 21.2265C58.2831 21.2262 58.2099 21.2135 58.1403 21.189C57.1199 20.8312 56.0794 20.5047 55.0481 20.2187C54.8798 20.172 54.7368 20.0602 54.6507 19.9079C54.5645 19.7556 54.5422 19.5752 54.5885 19.4063C54.6108 19.322 54.6493 19.2429 54.7022 19.1737C54.755 19.1045 54.821 19.0464 54.8963 19.0028C54.9716 18.9592 55.0547 18.931 55.1409 18.9198C55.2271 18.9086 55.3147 18.9147 55.3986 18.9376C56.4595 19.2313 57.5281 19.5625 58.5749 19.9344C58.7395 19.9928 58.8743 20.1142 58.9499 20.272C59.0255 20.4298 59.0358 20.6112 58.9784 20.7765C58.9344 20.9087 58.8498 21.0236 58.7368 21.1047C58.6238 21.1858 58.4881 21.229 58.3491 21.2281L58.3568 21.2265ZM29.3817 20.9765C29.2468 20.9779 29.1147 20.9378 29.0033 20.8615C28.8918 20.7852 28.8064 20.6765 28.7586 20.55C28.7281 20.4689 28.7138 20.3826 28.7165 20.2961C28.7193 20.2095 28.739 20.1243 28.7746 20.0453C28.8101 19.9664 28.8609 19.8953 28.9239 19.836C28.987 19.7768 29.061 19.7306 29.1418 19.7C30.1715 19.3079 31.2417 18.9579 32.3197 18.6579C32.4881 18.6114 32.6679 18.6338 32.8198 18.7202C32.9717 18.8067 33.0832 18.95 33.1298 19.1188C33.1532 19.2023 33.1599 19.2896 33.1496 19.3757C33.1392 19.4619 33.1119 19.5451 33.0693 19.6206C33.0267 19.6961 32.9697 19.7624 32.9015 19.8157C32.8333 19.8691 32.7552 19.9083 32.6718 19.9312C31.6312 20.2203 30.5999 20.5562 29.6076 20.9343C29.5336 20.9632 29.4549 20.978 29.3755 20.9781L29.3817 20.9765ZM52.0228 19.4719C51.9784 19.4716 51.9341 19.4674 51.8904 19.4594C50.8311 19.2422 49.7562 19.0626 48.6969 18.9235C48.6111 18.9125 48.5282 18.8846 48.4532 18.8414C48.3781 18.7982 48.3124 18.7405 48.2596 18.6716C48.2069 18.6028 48.1684 18.5242 48.1461 18.4403C48.1238 18.3564 48.1183 18.2689 48.1299 18.1829C48.141 18.0971 48.1689 18.0142 48.212 17.9392C48.255 17.8641 48.3124 17.7983 48.3808 17.7455C48.4492 17.6927 48.5274 17.6539 48.6108 17.6314C48.6941 17.6089 48.7811 17.603 48.8667 17.6142C49.9572 17.758 51.0632 17.9423 52.1521 18.1657C52.2373 18.1827 52.3182 18.2164 52.3903 18.265C52.4623 18.3135 52.5241 18.3759 52.5719 18.4486C52.6197 18.5213 52.6527 18.6028 52.6689 18.6883C52.6851 18.7738 52.6842 18.8617 52.6662 18.9469C52.6352 19.0951 52.5543 19.2281 52.4372 19.3237C52.3201 19.4192 52.1738 19.4716 52.0228 19.4719ZM35.697 19.2188C35.5433 19.2187 35.3944 19.1647 35.2763 19.0659C35.1581 18.9671 35.0783 18.8299 35.0506 18.6782C35.0348 18.5929 35.036 18.5054 35.054 18.4206C35.072 18.3358 35.1066 18.2554 35.1556 18.184C35.2047 18.1126 35.2673 18.0516 35.3398 18.0045C35.4124 17.9574 35.4936 17.9251 35.5787 17.9095C36.6598 17.7095 37.772 17.5517 38.8843 17.4408C38.9704 17.4319 39.0573 17.4403 39.1402 17.4653C39.223 17.4903 39.3002 17.5315 39.3671 17.5866C39.434 17.6416 39.4893 17.7094 39.53 17.786C39.5707 17.8626 39.5958 17.9465 39.604 18.0329C39.6126 18.1191 39.6042 18.2062 39.5793 18.2891C39.5544 18.372 39.5134 18.4492 39.4587 18.5162C39.404 18.5832 39.3367 18.6388 39.2606 18.6797C39.1845 18.7207 39.1011 18.7462 39.0151 18.7548C37.9387 18.8626 36.8638 19.0141 35.817 19.2079C35.7775 19.2153 35.7373 19.219 35.697 19.2188ZM45.5112 18.6251H45.4738C44.3833 18.5642 43.3054 18.5438 42.2383 18.5641C42.1518 18.5662 42.0657 18.5511 41.985 18.5197C41.9043 18.4882 41.8307 18.4411 41.7683 18.3809C41.7059 18.3208 41.6559 18.2489 41.6213 18.1693C41.5868 18.0897 41.5683 18.0041 41.5669 17.9173C41.5639 17.7424 41.6301 17.5734 41.7509 17.4473C41.8717 17.3211 42.0374 17.248 42.2118 17.2439C43.3116 17.2236 44.4332 17.2439 45.547 17.3064C45.6336 17.311 45.7185 17.3327 45.7967 17.3702C45.8749 17.4078 45.9449 17.4604 46.0028 17.5251C46.0607 17.5899 46.1052 17.6654 46.1339 17.7475C46.1627 17.8295 46.175 17.9164 46.1702 18.0033C46.1606 18.1718 46.0869 18.3302 45.9643 18.4459C45.8417 18.5616 45.6795 18.6258 45.5112 18.6251Z" fill="#52D1BD"/>
<path id="Vector_4" d="M60.0912 102.748C59.9605 102.748 59.8327 102.709 59.7242 102.636C59.6157 102.563 59.5314 102.459 59.4822 102.337C59.4164 102.175 59.4174 101.993 59.4852 101.832C59.553 101.671 59.6819 101.543 59.8435 101.477C60.7533 101.106 61.2581 100.863 61.3126 100.836C61.3908 100.798 61.4756 100.776 61.5623 100.771C61.649 100.767 61.7357 100.779 61.8176 100.808C61.8994 100.837 61.9747 100.882 62.0391 100.941C62.1035 100.999 62.1557 101.07 62.1927 101.148C62.2302 101.227 62.2519 101.312 62.2565 101.399C62.2611 101.485 62.2485 101.572 62.2196 101.654C62.1906 101.736 62.1458 101.811 62.0878 101.876C62.0297 101.94 61.9595 101.992 61.8812 102.03C61.822 102.058 61.2814 102.319 60.3327 102.706C60.2556 102.735 60.1736 102.75 60.0912 102.748Z" fill="#52D1BD"/>
<path id="Vector_5" d="M122.454 202C174.518 202 216.725 199.371 216.725 196.127C216.725 192.883 174.518 190.254 122.454 190.254C70.3899 190.254 28.1836 192.883 28.1836 196.127C28.1836 199.371 70.3899 202 122.454 202Z" fill="#B7CAE5"/>
<g id="Vector_6" style="mix-blend-mode:multiply" opacity="0.2">
<path d="M171.556 62.7256H55.8515C53.3692 62.7256 50.9887 63.7145 49.2335 65.4749C47.4783 67.2353 46.4922 69.6229 46.4922 72.1125V154.226C46.492 155.459 46.734 156.68 47.2042 157.819C47.6745 158.958 48.3638 159.993 49.2329 160.865C50.1021 161.737 51.1339 162.428 52.2695 162.9C53.4051 163.372 54.6223 163.615 55.8515 163.615H69.8515V180.364C69.8513 180.976 70.0113 181.578 70.3154 182.109C70.6195 182.641 71.0571 183.083 71.5846 183.391C72.1121 183.7 72.7111 183.865 73.3219 183.869C73.9326 183.873 74.5338 183.716 75.0655 183.415L110.015 163.615H171.556C174.038 163.615 176.419 162.626 178.174 160.865C179.929 159.105 180.915 156.717 180.915 154.228V72.1125C180.915 70.8798 180.673 69.6592 180.203 68.5203C179.732 67.3814 179.043 66.3466 178.174 65.4749C177.305 64.6033 176.273 63.9118 175.137 63.4401C174.002 62.9684 172.785 62.7256 171.556 62.7256Z" fill="#4076A3"/>
</g>
<path id="Vector_7" d="M185.404 67.8787V150.047C185.398 151.631 184.991 153.188 184.219 154.57C183.231 156.339 181.702 157.741 179.857 158.568C178.658 159.106 177.36 159.383 176.046 159.381H114.513L79.556 179.181C79.0244 179.482 78.4234 179.638 77.8129 179.634C77.2024 179.63 76.6037 179.465 76.0764 179.156C75.5491 178.848 75.1117 178.406 74.8077 177.875C74.5037 177.344 74.3436 176.742 74.3436 176.13V159.381H60.3437C59.1145 159.381 57.8973 159.138 56.7616 158.666C55.626 158.194 54.5942 157.503 53.7251 156.631C52.856 155.759 52.1666 154.724 51.6964 153.585C51.2261 152.446 50.9842 151.225 50.9844 149.992V67.8787C50.982 66.3675 51.3449 64.8781 52.0421 63.5384C52.8332 62.0159 54.0254 60.7402 55.4891 59.8501C56.9528 58.9601 58.632 58.4897 60.3437 58.4902H176.104C178.576 58.5063 180.942 59.5026 182.684 61.2615C184.426 63.0205 185.404 65.3993 185.404 67.8787Z" fill="white"/>
<path id="Vector_8" d="M113.767 90.9533H71.6036C70.6819 90.9504 69.7987 90.5819 69.147 89.9282C68.4953 89.2745 68.1279 88.3888 68.125 87.4644C68.1279 86.54 68.4953 85.6543 69.147 85.0006C69.7987 84.3469 70.6819 83.9785 71.6036 83.9756H113.767C114.689 83.9785 115.572 84.3469 116.224 85.0006C116.875 85.6543 117.243 86.54 117.246 87.4644C117.243 88.3888 116.875 89.2745 116.224 89.9282C115.572 90.5819 114.689 90.9504 113.767 90.9533Z" fill="#5693DB"/>
<path id="Vector_9" d="M97.4288 98.4062H71.6036C69.6824 98.4062 68.125 99.9683 68.125 101.895C68.125 103.822 69.6824 105.384 71.6036 105.384H97.4288C99.35 105.384 100.907 103.822 100.907 101.895C100.907 99.9683 99.35 98.4062 97.4288 98.4062Z" fill="#5693DB"/>
<path id="Vector_10" d="M164.784 98.4062H107.494C105.573 98.4062 104.016 99.9683 104.016 101.895C104.016 103.822 105.573 105.384 107.494 105.384H164.784C166.705 105.384 168.263 103.822 168.263 101.895C168.263 99.9683 166.705 98.4062 164.784 98.4062Z" fill="#5693DB"/>
<path id="Vector_11" d="M113.767 112.837H71.6036C69.6824 112.837 68.125 114.399 68.125 116.326C68.125 118.253 69.6824 119.815 71.6036 119.815H113.767C115.688 119.815 117.246 118.253 117.246 116.326C117.246 114.399 115.688 112.837 113.767 112.837Z" fill="#5693DB"/>
<path id="Vector_12" d="M164.784 112.837H123.463C121.542 112.837 119.984 114.399 119.984 116.326C119.984 118.253 121.542 119.815 123.463 119.815H164.784C166.705 119.815 168.262 118.253 168.262 116.326C168.262 114.399 166.705 112.837 164.784 112.837Z" fill="#5693DB"/>
<path id="Vector_13" d="M102.805 134.246H71.6036C70.6819 134.243 69.7987 133.875 69.147 133.221C68.4953 132.568 68.1279 131.682 68.125 130.757C68.1279 129.833 68.4953 128.947 69.147 128.294C69.7987 127.64 70.6819 127.271 71.6036 127.269H102.805C103.726 127.271 104.61 127.64 105.261 128.294C105.913 128.947 106.28 129.833 106.283 130.757C106.28 131.682 105.913 132.568 105.261 133.221C104.61 133.875 103.726 134.243 102.805 134.246Z" fill="#5693DB"/>
<path id="Vector_14" d="M144.07 134.246H112.869C111.948 134.243 111.064 133.875 110.413 133.221C109.761 132.568 109.394 131.682 109.391 130.757C109.394 129.833 109.761 128.947 110.413 128.294C111.064 127.64 111.948 127.271 112.869 127.269H144.07C144.992 127.271 145.875 127.64 146.526 128.294C147.178 128.947 147.545 129.833 147.547 130.757C147.545 131.682 147.178 132.567 146.526 133.221C145.875 133.875 144.992 134.243 144.07 134.246Z" fill="#5693DB"/>
<g id="Vector_15" style="mix-blend-mode:multiply" opacity="0.2">
<path d="M122.709 184.341H197.118C198.489 184.114 199.735 183.406 200.634 182.343C201.533 181.28 202.026 179.932 202.027 178.538V127.089C202.027 125.528 201.409 124.032 200.309 122.929C199.209 121.826 197.717 121.206 196.161 121.206H123.666C122.11 121.206 120.619 121.826 119.519 122.929C118.419 124.032 117.801 125.528 117.801 127.089V178.538C117.801 179.932 118.295 181.28 119.194 182.343C120.092 183.406 121.338 184.114 122.709 184.341Z" fill="#4076A3"/>
</g>
<path id="Vector_16" d="M128.322 116.327H200.825C202.381 116.327 203.872 116.947 204.972 118.05C206.072 119.152 206.69 120.648 206.691 122.208V173.658C206.691 175.218 206.073 176.714 204.973 177.818C203.873 178.921 202.381 179.54 200.825 179.54H192.053V190.035C192.054 190.419 191.954 190.797 191.763 191.131C191.572 191.464 191.297 191.741 190.966 191.935C190.635 192.128 190.259 192.231 189.876 192.234C189.493 192.236 189.115 192.137 188.782 191.947L166.881 179.54H128.322C126.767 179.54 125.275 178.921 124.175 177.818C123.075 176.714 122.457 175.218 122.457 173.658V122.208C122.457 121.436 122.609 120.671 122.903 119.957C123.198 119.244 123.63 118.595 124.175 118.049C124.72 117.503 125.366 117.07 126.078 116.774C126.789 116.479 127.552 116.327 128.322 116.327Z" fill="#F4B545"/>
<path id="Vector_17" d="M161.701 135.872H134.379C133.782 135.87 133.21 135.631 132.788 135.208C132.365 134.785 132.127 134.211 132.125 133.612C132.127 133.013 132.365 132.439 132.787 132.016C133.209 131.592 133.782 131.353 134.379 131.352H161.701C162.299 131.354 162.871 131.592 163.293 132.016C163.715 132.44 163.953 133.013 163.956 133.612C163.953 134.211 163.715 134.785 163.293 135.208C162.871 135.631 162.298 135.87 161.701 135.872Z" fill="white"/>
<path id="Vector_18" d="M151.113 140.696H134.379C133.134 140.696 132.125 141.708 132.125 142.957C132.125 144.206 133.134 145.218 134.379 145.218H151.113C152.358 145.218 153.367 144.206 153.367 142.957C153.367 141.708 152.358 140.696 151.113 140.696Z" fill="white"/>
<path id="Vector_19" d="M194.759 145.219H157.637C157.04 145.217 156.468 144.978 156.045 144.554C155.623 144.131 155.385 143.557 155.383 142.958C155.384 142.359 155.623 141.785 156.045 141.361C156.467 140.938 157.04 140.699 157.637 140.697H194.759C195.357 140.699 195.929 140.938 196.352 141.361C196.774 141.785 197.012 142.359 197.014 142.958C197.011 143.557 196.773 144.131 196.351 144.554C195.929 144.978 195.357 145.217 194.759 145.219Z" fill="white"/>
<path id="Vector_20" d="M161.701 150.049H134.379C133.134 150.049 132.125 151.061 132.125 152.31C132.125 153.558 133.134 154.57 134.379 154.57H161.701C162.946 154.57 163.956 153.558 163.956 152.31C163.956 151.061 162.946 150.049 161.701 150.049Z" fill="white"/>
<path id="Vector_21" d="M194.76 150.049H167.985C166.74 150.049 165.73 151.061 165.73 152.31C165.73 153.558 166.74 154.57 167.985 154.57H194.76C196.005 154.57 197.014 153.558 197.014 152.31C197.014 151.061 196.005 150.049 194.76 150.049Z" fill="white"/>
<path id="Vector_22" d="M154.598 163.921H134.379C133.782 163.919 133.209 163.681 132.787 163.257C132.365 162.833 132.127 162.259 132.125 161.66C132.127 161.061 132.365 160.487 132.787 160.063C133.209 159.64 133.782 159.401 134.379 159.399H154.598C155.195 159.401 155.767 159.64 156.189 160.064C156.612 160.487 156.85 161.061 156.852 161.66C156.85 162.259 156.612 162.833 156.189 163.257C155.767 163.68 155.195 163.919 154.598 163.921Z" fill="white"/>
<path id="Vector_23" d="M181.336 163.921H161.117C160.52 163.919 159.948 163.681 159.525 163.257C159.103 162.833 158.865 162.259 158.863 161.66C158.865 161.061 159.103 160.487 159.525 160.063C159.948 159.64 160.52 159.401 161.117 159.399H181.336C181.933 159.401 182.506 159.64 182.928 160.064C183.35 160.487 183.588 161.061 183.59 161.66C183.588 162.259 183.35 162.833 182.928 163.257C182.506 163.68 181.933 163.919 181.336 163.921Z" fill="white"/>
<g id="Vector_24" style="mix-blend-mode:multiply" opacity="0.2">
<path d="M67.559 194.689C67.4258 194.57 67.2653 194.485 67.0917 194.443C66.0947 194.197 63.8561 192.608 63.1972 192.233C63.1084 192.183 63.0336 192.14 62.965 192.104C62.8748 192.052 62.7799 192.008 62.6815 191.974C62.7143 189.424 60.1236 180.67 60.2405 172.236C60.2935 166.365 59.9677 160.496 59.2653 154.667C59.3522 154.599 59.4176 154.507 59.4536 154.402C59.4895 154.298 59.4945 154.185 59.4678 154.078C59.3074 153.288 59.0924 152.511 58.8245 151.751L58.8073 151.697C59.1765 151.345 58.7091 150.82 58.4303 150.562C58.0818 149.553 57.787 148.526 57.547 147.486C57.2869 146.286 57.0407 144.961 57.0252 143.749L57.2869 143.613C57.2869 143.663 57.2869 143.714 57.2869 143.769V143.874V144.158C57.2869 144.182 57.2869 144.205 57.2869 144.23C57.2869 144.255 57.2869 144.261 57.2869 144.277C57.2869 144.357 57.2869 144.433 57.2946 144.514V144.647C57.2946 144.724 57.3025 144.803 57.3071 144.877C57.3071 144.924 57.3071 144.969 57.3149 145.014C57.3149 145.089 57.3258 145.171 57.3321 145.238C57.3321 145.285 57.332 145.332 57.343 145.378C57.343 145.45 57.357 145.521 57.3632 145.591C57.3694 145.661 57.3725 145.688 57.3788 145.735C57.385 145.781 57.3944 145.869 57.4037 145.935C57.4131 146 57.4162 146.033 57.424 146.083C57.4317 146.133 57.4426 146.208 57.4535 146.269L57.4769 146.417C57.4878 146.477 57.5003 146.535 57.5112 146.592C57.5221 146.65 57.5315 146.691 57.5424 146.739C57.5533 146.788 57.5673 146.847 57.5813 146.895C57.5954 146.944 57.6047 146.992 57.6172 147.038C57.6296 147.083 57.6467 147.138 57.6607 147.194C57.6748 147.25 57.6888 147.288 57.7028 147.331C57.7168 147.375 57.7355 147.422 57.7526 147.466C57.7698 147.509 57.7854 147.555 57.8025 147.595C57.8197 147.636 57.8383 147.677 57.8586 147.717C57.8788 147.758 57.8944 147.799 57.9131 147.836C57.9318 147.874 57.9551 147.909 57.9769 147.945C57.9988 147.981 58.0175 148.019 58.0377 148.052C58.058 148.084 58.086 148.116 58.1094 148.149C58.1327 148.181 58.1545 148.211 58.1779 148.238C58.2013 148.264 58.2325 148.295 58.2605 148.323C58.2886 148.352 58.3072 148.373 58.3322 148.395C58.3571 148.417 58.4007 148.447 58.435 148.472L58.5004 148.519C58.5596 148.555 58.6222 148.585 58.6873 148.608C59.8884 149.045 60.3059 148.058 60.4009 147.06C60.4359 146.696 60.4359 146.33 60.4009 145.966C60.3899 145.782 60.3597 145.6 60.3106 145.422C60.2748 145.314 60.2171 145.155 60.1548 144.963L60.1455 144.938C60.1268 144.878 60.1065 144.817 60.0847 144.753C60.0847 144.73 60.0707 144.708 60.0629 144.685C60.0551 144.661 60.0427 144.619 60.0318 144.586C60.0209 144.553 60.013 144.521 60.0021 144.488C59.9912 144.455 59.9756 144.394 59.9616 144.347L59.9336 144.247C59.9242 144.216 59.9164 144.183 59.9071 144.15C59.8977 144.118 59.8806 144.049 59.8681 143.994C59.8557 143.939 59.851 143.924 59.8417 143.886C59.8323 143.849 59.8245 143.814 59.8167 143.778C59.8089 143.743 59.8028 143.711 59.795 143.677L59.7623 143.51C59.7623 143.474 59.7513 143.439 59.7451 143.403C59.7388 143.368 59.7373 143.352 59.7326 143.327C59.7201 143.239 59.7108 143.154 59.7015 143.068L61.2187 142.869C61.3076 142.858 61.3933 142.829 61.471 142.784C61.5486 142.739 61.6166 142.679 61.6712 142.608C61.7257 142.537 61.7658 142.455 61.7889 142.368C61.8121 142.282 61.8179 142.191 61.806 142.102L61.711 141.372C61.8317 141.244 61.932 141.097 62.0086 140.938C62.1753 140.502 61.9276 138.594 61.4727 138.16C61.3279 138.023 61.2048 138.038 61.1035 138.132C61.0599 138.095 61.0118 138.063 60.9602 138.038C60.8866 137.96 60.7953 137.899 60.6941 137.863C60.5928 137.827 60.4843 137.815 60.3775 137.829L59.0986 137.998C58.77 137.227 58.3461 136.5 57.8368 135.835C58.1205 135.722 58.3671 135.532 58.5487 135.285C58.6827 135.117 58.8089 134.931 58.9584 134.74C59.5457 133.995 56.3568 133.248 58.0611 130.262C59.2808 128.128 59.2809 125.434 59.094 124.041C59.1935 123.728 59.2649 123.407 59.3073 123.081C59.6937 121.62 57.7496 118.821 54.6994 118.133C54.6013 118.111 54.5046 118.091 54.4034 118.074C50.8687 117.449 49.2627 120.935 47.6441 121.308C46.0255 121.681 44.731 123.547 44.6687 125.162C44.6161 126.268 44.322 127.349 43.8072 128.328C43.1295 129.664 42.0843 130.728 41.2882 133.968C40.8509 135.685 40.8466 137.485 41.2757 139.204C41.3505 139.496 41.4978 139.765 41.7041 139.985C41.8256 140.118 41.9565 140.269 42.0967 140.454C42.1839 140.569 42.2775 140.694 42.374 140.832C43.0969 141.858 44.0081 141.583 44.7777 140.832C44.8026 140.929 44.8245 141.026 44.8541 141.122C44.8541 141.122 44.9288 141.079 45.0565 141.01L48.0584 146.322C48.2174 146.55 48.4078 146.755 48.624 146.93C48.3685 147.844 47.9261 149.289 47.521 150.002C46.8979 151.095 47.4743 151.37 47.4743 151.37C47.4322 151.383 47.2235 151.48 47.021 152.212C46.9929 152.314 46.9649 152.425 46.9384 152.551C46.6907 153.701 45.4351 154.681 46.471 154.836C46.5702 154.849 46.6701 154.856 46.7701 154.856C44.6313 158.918 45.8744 166.06 46.0925 172.753C46.133 174.014 46.1361 175.253 46.0738 176.462C45.7467 182.856 44.0876 189.491 44.1514 192.119C44.0549 192.29 43.9879 192.255 43.9396 192.432C43.8944 192.599 43.8648 192.952 43.8384 193.807C43.776 195.838 44.2714 196.775 45.0363 197.227C45.8012 197.678 47.9649 197.633 48.5133 197.433C48.7501 197.345 48.8841 197.016 48.9246 196.605C48.9753 196.034 48.8709 195.459 48.6224 194.943C48.4324 194.557 48.2816 194.154 48.1721 193.738C48.0724 193.396 47.9821 193.035 47.9011 192.688C48.4604 189.699 50.35 175.605 51.6928 171.852C52.2422 170.254 52.7035 168.627 53.0746 166.979C53.5263 167.722 54.0171 168.574 54.447 169.447C55.1698 170.913 55.7197 172.436 55.6169 173.592C55.3801 176.248 58.0112 188.944 59.0441 192.427C58.9417 192.439 58.8435 192.474 58.7571 192.53C58.6706 192.586 58.5982 192.662 58.5456 192.75C58.3447 192.972 58.234 193.507 58.1873 194.032C58.1639 194.311 58.1562 194.588 58.1593 194.813C58.1557 194.971 58.1725 195.128 58.2091 195.282C58.3088 195.546 67.0309 196.219 67.531 196.097C67.7195 196.05 67.8425 195.838 67.869 195.577C67.8864 195.415 67.8676 195.252 67.814 195.098C67.7604 194.944 67.6733 194.805 67.559 194.689ZM47.4883 140.229C47.4167 140.229 47.345 140.237 47.2718 140.244C47.4398 140.225 47.6094 140.222 47.7781 140.235C47.6817 140.226 47.5849 140.224 47.4883 140.229ZM47.9182 140.252C47.8739 140.244 47.8292 140.238 47.7843 140.235C47.8295 140.246 47.8746 140.246 47.9182 140.246V140.252ZM48.5616 140.54V140.527C48.5623 140.531 48.5623 140.535 48.5616 140.54ZM57.3414 141.663L57.3149 141.679C57.3242 141.654 57.3336 141.629 57.3445 141.602C57.343 141.622 57.3414 141.643 57.3414 141.663ZM47.2547 140.247C47.1069 140.265 46.9602 140.291 46.8153 140.326C46.9601 140.291 47.1069 140.264 47.2547 140.246V140.247ZM46.7997 140.329C46.6533 140.363 46.51 140.405 46.3698 140.451C46.51 140.402 46.6533 140.363 46.7997 140.329ZM45.2964 140.888C45.2923 140.889 45.2881 140.889 45.284 140.888C45.2874 140.892 45.2917 140.894 45.2964 140.896V140.888Z" fill="#4076A3"/>
</g>
<path id="Vector_25" d="M55.854 169.463C56.5768 170.929 57.1283 172.452 57.0255 173.608C56.7529 176.655 60.2486 192.884 60.7907 193.32C61.3328 193.755 62.6865 193.195 63.8362 192.695C64.9858 192.195 61.4901 182 61.6256 172.236C61.6855 166.083 61.3238 159.933 60.543 153.83L54.9271 152.958C54.9271 152.958 54.3445 156.411 53.8273 159.556C53.4082 162.089 53.0313 164.421 53.0313 164.589C53.0312 164.82 54.6732 167.062 55.854 169.463Z" fill="#15315E"/>
<path id="Vector_26" d="M53.0312 164.589C53.0312 164.82 54.6732 167.062 55.854 169.46L57.3931 156.422C57.3931 156.422 55.382 158.166 53.8273 159.556C53.4082 162.089 53.0312 164.421 53.0312 164.589Z" fill="#122C51"/>
<path id="Vector_27" d="M57.7388 135.888C59.1004 136.096 59.5693 135.769 59.9618 135.282C60.0974 135.113 60.222 134.927 60.3715 134.736C60.9588 133.991 57.77 133.244 59.4758 130.259C61.1816 127.273 60.5008 123.195 60.2547 123.107C59.3776 122.795 56.3758 126.713 54.5438 129.685C53.8491 130.812 53.3241 131.801 53.1418 132.374C52.5 134.465 55.91 135.607 57.7388 135.888Z" fill="#1F3A6F"/>
<path id="Vector_28" d="M57.738 135.888C59.0996 136.096 59.5685 135.769 59.961 135.282C56.7862 133.577 58.3736 129.015 58.4578 128.818C58.4578 128.818 55.6319 129.473 54.5492 129.685C53.8544 130.812 53.3294 131.801 53.1472 132.374C52.4991 134.465 55.9092 135.607 57.738 135.888Z" fill="#15315E"/>
<path id="Vector_29" d="M45.9323 193.256C47.2221 193.881 48.9045 193.569 49.1756 193.256C49.4467 192.944 51.612 176.031 53.1013 171.864C54.5906 167.697 54.7245 164.463 56.4179 161.043C58.1112 157.623 57.0939 153.456 57.0939 153.456C57.0939 153.456 51.9719 149.954 48.8719 153.798C48.7389 153.961 48.6146 154.131 48.4995 154.307C45.9183 158.244 47.2735 165.75 47.501 172.756C47.5415 174.017 47.5462 175.256 47.4839 176.465C47.0788 184.363 44.6409 192.634 45.9323 193.256Z" fill="#1F3A6F"/>
<path id="Vector_30" d="M47.4995 172.756C47.7924 169.723 47.1677 161.819 48.4264 158.473C49.9079 154.535 55.1406 154.16 55.1406 154.16C55.1406 154.16 51.6402 153.915 48.8704 153.798C48.7374 153.961 48.6131 154.131 48.4981 154.307C45.9168 158.244 47.272 165.75 47.4995 172.756Z" fill="#15315E"/>
<path id="Vector_31" d="M42.6838 139.207C42.7573 139.5 42.9042 139.769 43.1106 139.988C43.2337 140.121 43.363 140.273 43.5032 140.457C43.592 140.573 43.6855 140.698 43.7821 140.835C45.2698 142.949 47.5644 139.551 47.7497 137.789C47.9351 136.026 49.6098 134.762 50.6862 133.662C51.3093 133.037 51.7767 131.767 51.8639 130.655C51.8639 130.577 51.8748 130.498 51.8764 130.422C51.8951 129.866 51.811 129.364 51.5944 129.016C51.5317 128.914 51.4521 128.825 51.3592 128.75C50.5803 128.125 50.4759 126.789 51.0586 126.364C51.1915 126.268 51.3542 126.221 51.5181 126.233C51.6068 126.236 51.6948 126.251 51.7798 126.277C51.9616 126.336 52.1511 126.367 52.3422 126.369C52.4739 126.367 52.6027 126.33 52.7145 126.26C52.8609 126.172 52.9933 126.046 53.2177 125.93C53.5833 125.758 53.9807 125.664 54.3845 125.655C56.0202 125.546 55.5996 127.455 57.4097 127.072C57.7121 127.001 58.0068 126.901 58.2899 126.774C58.442 126.707 58.5888 126.63 58.7291 126.541C60.4677 125.447 60.7138 123.075 60.7138 123.075C61.0986 121.615 59.156 118.815 56.1058 118.127C56.0077 118.105 55.9095 118.085 55.8083 118.068C52.2752 117.443 50.6675 120.929 49.0505 121.302C47.4335 121.676 46.1359 123.541 46.0736 125.157C46.0216 126.262 45.7281 127.343 45.2137 128.322C44.5376 129.658 43.4907 130.722 42.6962 133.962C42.2566 135.682 42.2523 137.485 42.6838 139.207Z" fill="#1F3A6F"/>
<path id="Vector_32" d="M43.509 140.454C43.5978 140.57 43.6913 140.694 43.7878 140.832C45.2756 142.946 47.5702 139.548 47.7555 137.785C47.9409 136.023 49.6156 134.759 50.692 133.659C51.3151 133.034 51.7825 131.764 51.8697 130.651C51.3167 131.253 50.1561 132.259 48.6092 132.187C46.6292 132.095 42.5899 135.37 43.509 140.454Z" fill="#15315E"/>
<path id="Vector_33" d="M49.5742 132.996C49.5742 132.996 52.034 136.368 53.894 135.952C54.9874 135.716 55.95 135.07 56.5859 134.147C56.5859 134.147 55.7447 134.08 55.2493 133.421C54.9876 133.074 54.8225 132.563 54.9238 131.813L51.8082 129.52C51.7442 130.06 51.6058 130.588 51.3969 131.09C51.062 131.91 50.498 132.783 49.5742 132.996Z" fill="#FDC8AA"/>
<path id="Vector_34" d="M51.3906 131.09C52.7926 133.236 54.4564 133.458 55.2462 133.421C54.9845 133.074 54.8194 132.563 54.9206 131.813L51.805 129.52C51.7401 130.06 51.6006 130.588 51.3906 131.09Z" fill="#FBB188"/>
<path id="Vector_35" d="M50.1953 127.492C50.1953 128.473 50.7265 129.268 51.3839 129.268C51.4151 129.268 51.4462 129.268 51.4789 129.268C52.0459 130.987 53.4138 132.193 55.0105 132.193C55.3274 132.193 55.6425 132.145 55.9452 132.051C57.5996 131.538 58.8255 129.694 58.8255 127.498C58.8271 126.892 58.7308 126.29 58.5404 125.715C57.9703 124.006 56.6057 122.803 55.012 122.803C53.4184 122.803 52.0522 124.014 51.4805 125.728C51.4478 125.728 51.4167 125.728 51.3855 125.728C50.7265 125.715 50.1953 126.51 50.1953 127.492Z" fill="#FDC8AA"/>
<path id="Vector_36" d="M50.1196 142.97C50.1943 144.475 50.2582 146.117 50.2582 146.117C50.2582 146.117 49.5541 148.915 48.9341 150.004C48.3141 151.093 48.8889 151.373 48.8889 151.373H48.8812C48.8391 151.386 48.6303 151.482 48.4278 152.215C48.3998 152.317 48.3733 152.428 48.3453 152.554C48.0976 153.704 46.842 154.684 47.8779 154.838C48.9139 154.993 52.2024 154.214 54.4207 154.389C56.639 154.563 61.1333 155.726 60.8544 154.076C60.6886 153.269 60.468 152.474 60.194 151.696C60.5632 151.345 60.0957 150.82 59.8169 150.562C59.4679 149.553 59.1726 148.526 58.9321 147.486C58.6642 146.236 58.4071 144.866 58.4071 143.62C58.3988 143.074 58.4637 142.529 58.6002 142C58.7176 141.533 58.9386 141.098 59.2468 140.728C59.2468 140.728 60.4447 139.774 61.1489 139.774C61.1489 139.774 59.6393 133.887 56.0221 134.137C53.8131 134.275 51.6029 133.884 49.5743 132.996C49.5743 132.996 47.9106 133.088 47.166 134.13C46.4214 135.173 45.3153 137.991 46.2671 141.121C46.2671 141.121 48.8095 139.602 49.9404 140.521C49.9404 140.521 49.9436 140.527 49.9498 140.539C49.9981 140.697 50.0619 141.791 50.1196 142.97Z" fill="#5693DB"/>
<path id="Vector_37" d="M49.9492 140.539C49.996 140.696 50.0598 141.789 50.1174 142.971L51.7282 145.495L50.1938 138.179C50.1938 138.179 50.0131 140.377 49.9492 140.539Z" fill="#3177BC"/>
<path id="Vector_38" d="M57.8047 140.312C57.8171 140.369 58.0524 142.047 58.406 143.618C58.3976 143.071 58.4627 142.526 58.5992 141.997C58.3141 141.365 57.8171 140.31 57.8047 140.312Z" fill="#3177BC"/>
<path id="Vector_39" d="M60.195 151.696C60.195 151.696 59.5905 152.495 55.8534 152.076C52.4465 151.695 58.1698 153.326 60.4722 152.567L60.195 151.696Z" fill="#3177BC"/>
<path id="Vector_40" d="M48.4258 152.215C50.2359 152.81 52.8889 151.103 51.4604 151.465C50.6127 151.693 49.7162 151.661 48.8869 151.373H48.8791C48.8371 151.386 48.6267 151.482 48.4258 152.215Z" fill="#3177BC"/>
<path id="Vector_41" d="M58.6792 144.225C58.729 146.205 59.0375 148.219 60.0812 148.6C61.2823 149.037 61.6998 148.05 61.8041 147.052C61.8376 146.688 61.8376 146.322 61.8041 145.958C61.7916 145.774 61.7613 145.592 61.7138 145.414C61.4611 144.742 61.2683 144.05 61.1374 143.344C61.059 142.948 61.0665 142.54 61.1593 142.147C61.1593 142.135 61.1592 142.124 61.1685 142.113C61.4474 141.175 61.0876 141.644 61.7247 141.175C61.8634 141.074 61.9896 140.082 61.4132 140.052C61.1932 140.05 60.9742 140.082 60.7636 140.146C60.703 140.162 60.6408 140.172 60.5782 140.175C60.4629 140.175 60.3881 140.127 60.3632 139.955C60.3363 139.781 60.3584 139.602 60.4271 139.439C60.5425 139.199 60.7373 139.006 60.9785 138.893C61.4365 138.655 61.1343 138.183 60.4738 138.424C60.399 138.452 60.318 138.485 60.2386 138.521C60.0723 138.599 59.9115 138.688 59.7572 138.788C59.6038 138.885 59.4594 138.996 59.3257 139.119C59.0344 139.393 58.8194 139.725 58.8163 140.091C58.8163 140.366 58.7166 141.386 58.6777 142.631C58.673 143.139 58.6667 143.683 58.6792 144.225Z" fill="#FDC8AA"/>
<path id="Vector_42" d="M60.0847 148.6C61.2857 149.037 61.7032 148.05 61.8076 147.051C61.5366 147.451 61.0941 147.751 60.3682 147.676C58.6811 147.493 59.5472 140.399 59.7653 138.794C59.273 139.106 58.8306 139.575 58.8306 140.097C58.8135 140.883 58.0362 147.853 60.0847 148.6Z" fill="#FBB188"/>
<path id="Vector_43" d="M61.816 145.96C61.8034 145.776 61.7732 145.594 61.7256 145.416C61.5449 144.886 60.8751 143.124 61.171 142.149C61.467 141.174 61.0916 141.652 61.7365 141.174C61.8751 141.073 62.0013 140.081 61.4249 140.051C61.2049 140.049 60.986 140.081 60.7753 140.145C60.7162 140.479 60.657 140.895 60.5993 141.413C60.3002 144.122 61.1788 145.402 61.816 145.96Z" fill="#FFD6BB"/>
<path id="Vector_44" opacity="0.7" d="M58.6786 144.225C59.3157 143.626 60.4919 143.412 61.1477 143.345C61.0693 142.949 61.0767 142.541 61.1695 142.148C61.1695 142.136 61.1695 142.125 61.1789 142.114C61.0387 142.056 60.8938 141.997 60.833 141.966C60.6975 141.897 59.9435 142.314 59.8859 142.345C59.8282 142.377 59.0556 142.548 58.6864 142.633C58.6724 143.139 58.6661 143.683 58.6786 144.225Z" fill="#EA9165"/>
<path id="Vector_45" d="M55.9492 132.045C57.6036 131.532 58.8296 129.688 58.8296 127.492C58.8312 126.886 58.7349 126.284 58.5445 125.709H57.8123C57.8061 125.881 59.286 129.285 55.9492 132.045Z" fill="#FFD6BB"/>
<path id="Vector_46" d="M59.239 125.879C59.239 125.879 58.4601 127.321 57.3463 127.06C56.2324 126.8 55.8212 126.459 55.3897 125.879C54.9581 125.3 53.486 125.567 53.2306 125.92C52.9751 126.273 51.8971 126.637 51.4827 126.2C51.0901 125.787 50.2723 127.618 51.2521 128.562C52.232 129.506 51.5294 130.626 51.3425 130.771C51.1556 130.916 50.1445 129.818 50.252 129.382C50.3595 128.946 49.6289 127.143 49.6289 126.957C49.6289 126.771 50.2084 125.34 50.4078 125.029C50.6072 124.718 52.1853 122.79 52.6604 122.583C53.1355 122.375 54.374 121.815 54.832 121.815C55.2899 121.815 56.7948 122.211 57.1251 122.44C57.4553 122.67 59.239 125.879 59.239 125.879Z" fill="#1F3A6F"/>
<path id="Vector_47" opacity="0.7" d="M59.3359 139.12C59.4341 139.963 59.6568 141.795 59.6568 141.795L60.8454 141.422L60.5883 140.172L60.4326 139.436L60.2441 138.521C60.0777 138.598 59.9169 138.688 59.7627 138.788C59.6109 138.886 59.4681 138.997 59.3359 139.12Z" fill="#EA9165"/>
<path id="Vector_48" d="M60.8214 142.968L62.4602 142.753C62.8338 142.704 63.0971 142.36 63.0481 141.986L62.5866 138.45C62.5377 138.076 62.1951 137.812 61.8215 137.861L60.1827 138.076C59.809 138.125 59.5457 138.468 59.5946 138.843L60.0562 142.378C60.1051 142.753 60.4477 143.017 60.8214 142.968Z" fill="#3DB29C"/>
<path id="Vector_49" d="M61.0244 143.118L62.6633 142.902C63.037 142.853 63.3002 142.51 63.2513 142.135L62.7897 138.6C62.7408 138.225 62.3982 137.961 62.0246 138.01L60.3857 138.225C60.0121 138.274 59.7488 138.618 59.7978 138.993L60.2593 142.528C60.3082 142.903 60.6508 143.167 61.0244 143.118Z" fill="#52D1BD"/>
<path id="Vector_50" d="M46.4688 141.008L49.4691 146.32C49.6284 146.549 49.8193 146.753 50.0361 146.928C50.555 147.37 51.2261 147.591 51.9055 147.544C53.4757 147.419 57.4232 144.227 58.146 143.873C58.2239 143.836 58.3112 143.794 58.4047 143.744C59.1836 143.342 60.4796 142.634 61.1448 142.67C61.8879 142.714 63.2526 141.366 63.4177 140.93C63.5828 140.494 63.3351 138.586 62.8802 138.152C62.659 137.939 62.4861 138.088 62.3693 138.328C62.2603 138.566 62.2019 138.823 62.1979 139.085C62.1979 139.085 62.1776 139.769 61.7227 140.008C61.2679 140.247 61.1262 140.552 60.8146 139.824L60.7881 139.767C60.4999 139.13 60.2507 139.269 60.1338 140.128C60.1338 140.16 60.1245 140.194 60.1214 140.227C60.0575 140.767 59.478 141.247 58.6975 141.677C58.0134 142.032 57.3086 142.345 56.5867 142.614C54.9604 143.252 52.122 144.542 51.7357 143.967C51.3665 143.419 50.0673 140.78 49.9458 140.53C49.9466 140.525 49.9466 140.519 49.9458 140.514C49.6386 140.29 49.2601 140.186 48.8818 140.222C48.2765 140.275 47.685 140.434 47.1339 140.691C46.852 140.808 46.6214 140.925 46.4688 141.008Z" fill="#FDC8AA"/>
<path id="Vector_51" d="M46.4688 141.008L49.4691 146.32C49.6284 146.549 49.8193 146.753 50.0361 146.928C50.555 147.37 51.2261 147.591 51.9055 147.544C53.4757 147.419 57.4232 144.227 58.146 143.873C58.2239 143.836 58.3112 143.794 58.4047 143.744C59.1836 143.342 60.4796 142.634 61.1448 142.67C61.8879 142.714 63.2526 141.366 63.4177 140.93C63.5828 140.494 63.3351 138.586 62.8802 138.152C62.659 137.939 62.4861 138.088 62.3693 138.328C63.966 139.727 62.2867 142.128 61.553 142.122C60.7928 142.122 59.5528 142.699 58.9499 142.947C58.347 143.195 54.4946 146.092 52.4071 146.714C50.3197 147.336 49.6794 145.491 49.6794 145.491L47.1246 140.685C46.852 140.808 46.6214 140.925 46.4688 141.008Z" fill="#FBB188"/>
<path id="Vector_52" d="M48.875 140.228C50.0371 141.02 50.6913 144.42 51.9765 144.661C53.3879 144.926 59.3232 141.77 60.0366 141.194C60.4744 140.841 60.6909 140.206 60.7906 139.77C60.5024 139.133 60.2532 139.272 60.1364 140.131C60.1364 140.163 60.127 140.197 60.1239 140.23C60.06 140.77 59.4805 141.25 58.7 141.68C58.016 142.035 57.3111 142.348 56.5892 142.617C54.9629 143.255 52.1246 144.545 51.7382 143.97C51.369 143.422 50.0699 140.783 49.9483 140.533C49.9491 140.528 49.9491 140.522 49.9483 140.517C49.6382 140.292 49.256 140.189 48.875 140.228Z" fill="#FFD6BB"/>
<path id="Vector_53" d="M69.2768 195.591C69.2503 195.852 69.121 196.06 68.9388 196.111C68.4387 196.238 59.7165 195.56 59.6168 195.296C59.581 195.142 59.5643 194.985 59.567 194.827C59.5638 194.566 59.5737 194.306 59.5966 194.046C59.6433 193.521 59.7524 192.987 59.9533 192.765C59.9533 192.765 60.2446 192.191 61.0438 192.554C61.2664 192.65 61.5032 192.708 61.7448 192.727C62.4209 192.787 63.1375 192.585 63.4584 192.273C63.8385 191.905 63.9055 191.866 64.3448 192.105C64.4133 192.141 64.4897 192.185 64.5769 192.235C65.2359 192.61 67.4744 194.199 68.4714 194.444C68.6453 194.486 68.806 194.571 68.9388 194.691C69.0597 194.805 69.1531 194.946 69.2117 195.102C69.2703 195.258 69.2925 195.425 69.2768 195.591Z" fill="white"/>
<path id="Vector_54" d="M69.2765 195.591C69.25 195.852 69.1207 196.06 68.9385 196.111C68.4384 196.238 59.7162 195.56 59.6165 195.296C59.5807 195.142 59.564 194.985 59.5667 194.827C62.3489 195.44 67.943 195.569 69.2765 195.591Z" fill="#9FB8D6"/>
<path id="Vector_55" d="M61.7475 192.725C61.506 193.264 60.9202 194.064 59.5977 194.044C59.6444 193.519 59.7534 192.985 59.9544 192.763C59.9544 192.763 60.2457 192.189 61.0449 192.552C61.268 192.648 61.5054 192.706 61.7475 192.725Z" fill="#D7E3F4"/>
<path id="Vector_56" d="M68.9471 194.69C68.137 194.908 66.7552 194.602 65.1663 194.129C63.5773 193.655 64.0291 192.637 64.35 192.098C64.4186 192.134 64.4948 192.177 64.5821 192.227C65.241 192.602 67.4796 194.191 68.4766 194.437C68.6522 194.48 68.8141 194.567 68.9471 194.69Z" fill="#D7E3F4"/>
<path id="Vector_57" d="M50.3322 196.619C50.2932 197.028 50.1592 197.358 49.9209 197.445C49.3741 197.645 47.2088 197.686 46.4439 197.239C45.679 196.792 45.1852 195.852 45.2475 193.819C45.274 192.964 45.3036 192.611 45.3472 192.444C45.4095 192.214 45.503 192.33 45.6369 191.958L45.7834 191.741C45.7834 191.741 45.7834 191.686 45.8083 191.599C45.8877 191.192 46.2055 190.049 47.2337 190.049C48.4799 190.049 48.8507 190.582 49.047 191.511C49.17 192.088 49.3585 192.974 49.5797 193.752C49.6892 194.167 49.84 194.571 50.03 194.956C50.2791 195.473 50.3836 196.047 50.3322 196.619Z" fill="#ECF3FE"/>
<path id="Vector_58" d="M50.3322 196.619C50.2932 197.028 50.1592 197.358 49.9209 197.446C49.3741 197.646 47.2088 197.686 46.4439 197.239C45.679 196.792 45.1852 195.852 45.2475 193.819C45.274 192.965 45.3036 192.612 45.3472 192.444C45.3877 193.519 45.5637 195.743 46.3473 196.507C47.1589 197.286 49.3772 196.853 50.3322 196.619Z" fill="#9FB8D6"/>
<path id="Vector_59" d="M49.58 193.751C48.6017 193.971 47.2153 193.849 46.6343 193.565C46.1482 193.327 45.9099 192.424 45.8086 191.598C45.888 191.192 46.2058 190.048 47.234 190.048C48.4802 190.048 48.851 190.581 49.0473 191.51C49.1703 192.087 49.3541 192.973 49.58 193.751Z" fill="#D7E3F4"/>
<g id="Vector_60" style="mix-blend-mode:multiply" opacity="0.2">
<path d="M172.64 58.446C172.484 58.057 171.447 57.7195 170.011 57.4477C169.559 57.3633 169.322 57.1477 169.208 56.8946C169.129 56.6992 169.101 56.4867 169.127 56.2775H169.849C169.849 56.2775 170.878 52.4167 171.095 45.9984C171.117 45.2553 171.059 44.5119 170.922 43.7814C170.227 40.016 167.65 36.7646 166.138 35.1225C165.808 34.7104 165.435 34.3348 165.026 34.0023C165.026 34.0023 165.026 34.0022 165.015 33.9929C165.012 33.9922 165.009 33.9922 165.007 33.9929V33.9851C164.255 33.3807 163.393 32.931 162.468 32.6617V29.0354C162.582 28.7995 162.677 28.555 162.753 28.3042C163.184 28.2073 163.515 28.112 163.515 28.112C165.404 27.3402 164.046 23.1639 161.801 20.6609C159.556 18.1579 157.127 19.65 155.179 20.514C153.23 21.378 152.133 20.1641 151.013 21.7468C149.893 23.3295 152.28 25.8496 152.28 25.8496C152.593 26.13 152.991 26.2953 153.411 26.3184C153.41 26.9491 153.519 27.575 153.733 28.1682C153.997 28.925 154.43 29.6109 155 30.1728C155.57 30.7347 156.261 31.1575 157.02 31.4087C157.219 31.4705 157.422 31.519 157.628 31.554L157.557 31.5977L157.631 32.1352C157.099 32.1277 156.568 32.1653 156.043 32.2477C155.773 32.2873 155.51 32.3684 155.264 32.4883C155.154 32.5432 155.056 32.6203 154.976 32.7148C154.924 32.7357 154.882 32.7745 154.856 32.8242L154.275 34.0741L150.959 41.1893C150.939 41.2282 150.91 41.2609 150.873 41.2838C150.836 41.3066 150.794 41.3187 150.751 41.3187C150.707 41.3187 150.665 41.3066 150.628 41.2838C150.592 41.2609 150.562 41.2282 150.543 41.1893L148.254 37.552C148.234 37.5086 148.2 37.4727 148.158 37.4492C148.116 37.4257 148.068 37.4158 148.021 37.4208L147.648 37.4552C147.609 37.2458 147.563 36.9724 147.527 36.674C147.459 36.1709 147.453 35.6612 147.511 35.1569C147.536 34.9815 147.543 34.8041 147.533 34.6272L147.617 34.546C147.653 34.5117 147.679 34.4688 147.693 34.4214C147.706 34.374 147.708 34.3238 147.697 34.2757L147.508 33.4476L146.768 30.2197C146.758 30.1739 146.736 30.1314 146.705 30.096C146.675 30.0606 146.635 30.0335 146.592 30.0169C146.548 30.0003 146.501 29.9949 146.454 30.0012C146.408 30.0074 146.364 30.025 146.326 30.0525C146.302 30.0202 146.272 29.9933 146.238 29.9737C146.203 29.9541 146.165 29.9422 146.125 29.9389C146.085 29.9357 146.045 29.9411 146.008 29.9547C145.97 29.9684 145.937 29.99 145.908 30.0181L144.114 31.8399C144.078 31.8765 144.052 31.9218 144.039 31.9713C144.025 32.0208 144.025 32.0729 144.037 32.1227L144.235 32.9945C144.18 33.1149 144.136 33.2399 144.103 33.3679C143.8 34.5507 144.276 36.1287 144.526 36.8287C144.544 37.1367 144.579 37.4434 144.632 37.7473H144.565C144.529 37.7506 144.494 37.7623 144.463 37.7815C144.432 37.8007 144.406 37.827 144.387 37.8581C144.368 37.8892 144.356 37.9243 144.353 37.9607C144.35 37.9971 144.356 38.0337 144.369 38.0676C145.307 40.1662 146.419 42.182 147.693 44.0938C148.628 45.4594 149.581 46.5405 150.301 46.6827C151.703 46.9577 153.798 43.9735 155.023 42.0424C154.957 43.5829 154.817 44.825 154.556 45.2422C154.252 45.6906 153.919 46.1177 153.557 46.5203C153.334 46.5499 152.977 46.6765 153.041 47.1233C152.745 47.4656 152.469 47.8262 152.217 48.2029C152.113 48.3627 152.02 48.5304 151.942 48.7045L138.177 43.8985C138.177 43.8985 136.085 43.3595 134.136 44.2829L133.214 43.9454C133.214 43.9454 130.489 43.4548 127.805 45.6187C125.121 47.7827 115.156 53.1901 115.156 53.1901C115.156 53.1901 115.247 53.3339 115.42 53.5542L113.782 55.0181C113.536 54.7994 113.283 54.7057 113.02 54.9025C112.515 55.2744 110.431 56.3493 108.898 56.9727C108.457 57.1673 107.999 57.3175 107.529 57.4211C106.75 57.5383 106.31 57.9977 106.226 58.3836C106.202 58.4633 106.201 58.5482 106.222 58.6287C106.244 58.7091 106.288 58.7818 106.349 58.8382C106.645 59.0898 112.683 59.0632 115.804 59.0101C116.707 59.0367 117.838 59.046 118.986 59.046C121.571 59.046 124.241 58.996 124.594 58.9663C125.178 58.9163 125.45 58.6367 125.51 58.2242C125.522 58.1419 125.526 58.0588 125.523 57.9758C125.507 57.507 125.99 56.3477 124.847 56.529L125.169 56.165C125.238 56.204 125.305 56.2431 125.378 56.2806C125.378 56.2806 130.012 52.9995 132.779 50.2106C134.834 51.1949 140.404 54.6541 145.603 56.5805C149.013 57.843 152.259 58.7179 154.244 58.3789C157.967 57.743 159.575 57.5195 160.252 56.9571C160.426 56.9732 160.601 56.948 160.763 56.8836C161.767 56.4477 161.279 56.0399 161.522 55.8212C161.556 55.7944 161.593 55.7709 161.631 55.7509L161.65 55.7415C161.896 55.6212 162.332 55.5181 162.842 55.0588C163.013 54.9016 163.169 54.729 163.309 54.5432C163.599 54.1651 164.328 52.773 165.149 51.0559C165.258 50.8278 165.37 50.5872 165.482 50.3512L165.519 50.2715C165.739 49.8028 165.962 49.3185 166.181 48.8294C166.205 48.7763 166.23 48.7232 166.253 48.6732C166.353 48.4513 166.453 48.2295 166.549 48.0076C166.557 47.9904 166.565 47.9717 166.574 47.953L165.938 56.2884H166.209C166.222 56.3665 166.236 56.4446 166.25 56.5399C166.295 56.7978 166.309 57.06 166.292 57.3211C166.238 57.7773 164.177 58.8835 165.234 58.7148C165.953 58.6169 166.679 58.5896 167.403 58.6335C170.391 59.4054 172.804 58.8351 172.64 58.446ZM118.86 55.79C118.921 55.79 118.983 55.79 119.045 55.79L118.79 55.9228L118.86 55.79ZM123.038 54.3463C122.7 54.5385 121.853 55.0681 121.209 55.4744C121.069 55.2793 120.879 55.1259 120.659 55.0307C121.778 54.4526 123.399 53.6245 125.08 52.8027C124.402 53.2976 123.685 53.7365 122.935 54.1151C122.939 54.1421 122.947 54.1684 122.959 54.1932C122.982 54.2432 123.009 54.2917 123.038 54.3385V54.3463Z" fill="#4076A3"/>
</g>
<path id="Vector_61" d="M148.98 35.3427L148.782 35.4801L146.865 36.8347L146.385 37.1738C146.385 37.1738 145.424 34.9161 145.824 33.3537C145.907 32.9791 146.103 32.6391 146.385 32.3804C146.408 32.36 146.43 32.3413 146.453 32.3241C146.521 32.272 146.594 32.2279 146.672 32.1928C147.126 31.9975 147.539 32.3006 147.885 32.7866C148.56 33.7224 148.98 35.3427 148.98 35.3427Z" fill="#FDC8AA"/>
<path id="Vector_62" d="M148.783 35.4808L146.865 36.8354C146.359 36.0823 145.989 34.2887 145.824 33.3544C145.907 32.9798 146.103 32.6398 146.385 32.381C146.408 32.3607 146.43 32.342 146.454 32.3248L146.672 32.1935L147.519 31.6826L147.885 32.7872L148.783 35.4808Z" fill="#EFA57F"/>
<path id="Vector_63" d="M169.13 58.618C168.406 58.5741 167.68 58.6013 166.962 58.6992C165.904 58.8555 167.965 57.7618 168.019 57.3056C168.036 57.0443 168.022 56.782 167.976 56.5243C167.931 56.2119 167.87 55.9338 167.87 55.9338L171.029 55.5947C171.029 55.5947 170.685 56.3369 170.933 56.89C171.045 57.1431 171.283 57.3587 171.735 57.4431C173.171 57.7165 174.202 58.0524 174.364 58.4414C174.526 58.8305 172.113 59.4054 169.13 58.618Z" fill="#FDC8AA"/>
<path id="Vector_64" d="M170.933 56.8948C170.179 56.8011 168.722 56.6199 167.973 56.5292C167.928 56.2168 167.867 55.9386 167.867 55.9386L171.026 55.5996C171.026 55.5996 170.685 56.3449 170.933 56.8948Z" fill="#EFA57F"/>
<path id="Vector_65" d="M124.91 54.2638C124.85 54.2435 122.125 55.9825 122.125 55.9825C122.125 55.9825 124.261 57.798 124.342 57.798C124.423 57.798 125.806 57.3902 125.806 57.3902L127.233 55.7778L124.91 54.2638Z" fill="#FDC8AA"/>
<path id="Vector_66" d="M127.245 57.9711C127.247 58.0541 127.243 58.1372 127.232 58.2196C127.172 58.6305 126.9 58.9117 126.315 58.9601C125.963 58.9898 123.291 59.0398 120.707 59.0398C118.214 59.0398 115.801 58.9945 115.62 58.843C115.562 58.7889 115.52 58.7195 115.499 58.6427C115.479 58.566 115.479 58.4849 115.502 58.4086C115.585 58.043 116.005 57.6056 116.741 57.4946C117.188 57.396 117.625 57.2537 118.044 57.0696C119.208 56.584 120.344 56.0332 121.447 55.4198C121.625 55.3255 121.797 55.2212 121.964 55.1073C122.469 54.7354 122.928 55.4604 123.392 56.0806C123.522 56.2584 123.665 56.4255 123.821 56.5806C124.444 57.1634 125.812 56.7556 125.812 56.7556C127.901 55.915 127.226 57.4274 127.245 57.9711Z" fill="#ECF3FE"/>
<path id="Vector_67" d="M127.232 58.2197C127.172 58.6306 126.9 58.9119 126.315 58.9603C125.963 58.99 123.291 59.04 120.707 59.04C118.214 59.04 115.801 58.9947 115.62 58.8431C115.562 58.789 115.52 58.7197 115.499 58.6429C115.479 58.5661 115.479 58.485 115.502 58.4088C115.675 58.5056 116.041 58.5838 116.787 58.5791C117.491 58.5791 119.088 58.6025 120.838 58.6041C123.431 58.6056 126.36 58.5447 127.232 58.2197Z" fill="#9FB8D6"/>
<path id="Vector_68" d="M123.4 56.0726C122.625 56.5721 121.787 56.9666 120.908 57.246C119.375 57.6959 118.49 57.36 118.059 57.0694C119.223 56.5838 120.358 56.033 121.461 55.4195C121.639 55.3253 121.812 55.2209 121.978 55.107C122.466 54.7274 122.933 55.4523 123.4 56.0726Z" fill="#D7E3F4"/>
<path id="Vector_69" d="M161.413 56.6196C150.715 59.6912 136.316 47.9232 136.316 47.9232C134.961 50.6965 127.097 56.2743 127.097 56.2743C125.384 55.3587 124.797 54.4619 124.68 54.1853C124.668 54.1606 124.66 54.1342 124.656 54.1072C124.656 54.0525 126.586 53.326 128.789 51.0402C130.992 48.7544 133.494 46.1858 134.581 45.15C136.749 43.0814 139.896 43.9 139.896 43.9L154.809 49.106L161.413 56.6196Z" fill="#15315E"/>
<path id="Vector_70" d="M134.403 49.9014L124.684 54.1855C124.672 54.1608 124.664 54.1345 124.66 54.1074C124.66 54.0527 126.59 53.3262 128.793 51.0404L134.231 47.7422L134.403 49.9014Z" fill="#122C51"/>
<path id="Vector_71" opacity="0.45" d="M120.897 57.2464C120.967 57.6982 120.949 58.1594 120.843 58.6041C120.81 58.7527 120.766 58.8984 120.711 59.04C118.218 59.04 115.805 58.9947 115.624 58.8431C115.566 58.789 115.524 58.7197 115.503 58.6429C115.482 58.5662 115.483 58.485 115.506 58.4088C115.588 58.0432 116.009 57.6057 116.744 57.4948C117.192 57.3962 117.628 57.2538 118.048 57.0698C119.212 56.5842 120.348 56.0334 121.451 55.4199C121.111 55.8996 120.644 56.6605 120.827 57.0198C120.861 57.0917 120.885 57.1679 120.897 57.2464Z" fill="#184B68"/>
<path id="Vector_72" d="M149.457 37.8534L146.426 38.0971C146.329 37.6761 146.269 37.2474 146.247 36.816C146.221 36.3203 146.226 35.8235 146.262 35.3286C146.279 35.0426 146.303 34.7864 146.32 34.5677C146.337 34.3917 146.345 34.2149 146.345 34.038C146.349 33.9816 146.366 33.9268 146.395 33.8781C146.423 33.8293 146.463 33.7878 146.51 33.7568C146.821 33.5037 147.491 33.3084 148.019 33.1834L148.125 33.16C148.48 33.0803 148.748 33.0381 148.748 33.0381L148.778 33.0865C148.871 33.2445 148.952 33.4096 149.019 33.5802C149.153 33.9085 149.234 34.2561 149.258 34.6098C149.269 34.7866 149.262 34.9641 149.237 35.1395C149.18 35.6439 149.185 36.1535 149.253 36.6566C149.299 37.059 149.367 37.4585 149.457 37.8534Z" fill="#FDC8AA"/>
<path id="Vector_73" d="M117.528 53.2041L115.109 55.3649C115.109 55.3649 114.824 57.3851 116.715 57.4054C118.606 57.4257 119.765 57.4054 119.765 57.4054L120.823 55.3087L117.528 53.2041Z" fill="#FDC8AA"/>
<path id="Vector_74" d="M120.295 57.9147C120.298 58.0019 120.293 58.0892 120.281 58.1756C120.218 58.6084 119.933 58.9036 119.318 58.9568C118.586 59.0161 108.458 59.1583 108.072 58.8318C108.011 58.7753 107.967 58.7027 107.945 58.6222C107.923 58.5418 107.925 58.4568 107.949 58.3771C108.033 57.9912 108.477 57.5319 109.25 57.4147C109.72 57.3114 110.18 57.1612 110.621 56.9663C112.153 56.3413 114.236 55.2679 114.743 54.8961C115.274 54.5039 115.757 55.2679 116.246 55.9195C116.381 56.1071 116.532 56.2832 116.696 56.446C117.346 57.0584 118.79 56.6288 118.79 56.6288C120.986 55.7523 120.274 57.3444 120.295 57.9147Z" fill="#ECF3FE"/>
<path id="Vector_75" d="M120.284 58.1758C120.222 58.6086 119.937 58.9039 119.322 58.957C118.59 59.0164 108.462 59.1585 108.076 58.832C108.015 58.7755 107.971 58.7029 107.949 58.6225C107.927 58.542 107.929 58.4571 107.953 58.3773C108.134 58.4789 108.518 58.5601 109.303 58.5554C111.132 58.5414 118.747 58.7507 120.284 58.1758Z" fill="#9FB8D6"/>
<path id="Vector_76" d="M116.246 55.9195C112.945 57.9506 111.282 57.4131 110.621 56.9663C112.154 56.3413 114.237 55.2679 114.743 54.8961C115.274 54.5039 115.757 55.2679 116.246 55.9195Z" fill="#D7E3F4"/>
<path id="Vector_77" d="M162.435 55.8436C162.354 57.3935 161.46 57.4357 155.969 58.3732C153.984 58.7122 150.738 57.8373 147.328 56.5748C141.299 54.3406 134.762 50.0409 133.801 49.9362C132.295 49.7799 120.906 55.7952 120.906 55.7952C119.3 55.8233 117.985 54.5578 117.331 53.7797C117.169 53.59 117.018 53.3912 116.879 53.1844C116.879 53.1844 126.849 47.7738 129.53 45.613C132.211 43.4522 134.938 43.9397 134.938 43.9397C134.938 43.9397 139.648 45.6583 143.709 47.1786C146.606 48.2597 149.172 50.0862 149.46 50.2549C150.15 50.6627 151.657 50.4111 152.347 49.8877C153.037 49.3643 155.061 48.1207 155.061 48.1207C155.061 48.1207 160.423 52.5595 162.002 54.8546C162.286 55.2655 162.448 55.6077 162.435 55.8436Z" fill="#1F3A6F"/>
<path id="Vector_78" d="M162.436 55.8429C162.355 57.3928 161.46 57.435 155.969 58.3724C153.985 58.7115 150.738 57.8365 147.328 56.5741C157.029 58.6318 160.837 56.0304 162.003 54.8555C162.286 55.2648 162.448 55.607 162.436 55.8429Z" fill="#15315E"/>
<path id="Vector_79" d="M157.729 40.3664C157.735 40.4215 157.721 40.477 157.69 40.5227C157.238 41.1773 153.977 47.0644 152.021 46.6832C151.303 46.541 150.35 45.4599 149.415 44.0943C148.14 42.1833 147.028 40.168 146.091 38.0697C146.077 38.0358 146.072 37.9992 146.075 37.9629C146.078 37.9265 146.089 37.8914 146.108 37.8602C146.127 37.829 146.153 37.8026 146.184 37.7831C146.215 37.7636 146.249 37.7515 146.286 37.7478L149.745 37.4166C149.793 37.4115 149.841 37.4214 149.883 37.4449C149.924 37.4684 149.957 37.5044 149.978 37.5479L152.268 41.1851C152.287 41.224 152.316 41.2567 152.353 41.2796C152.39 41.3024 152.432 41.3146 152.475 41.3146C152.519 41.3146 152.561 41.3024 152.598 41.2796C152.635 41.2567 152.664 41.224 152.684 41.1851L155.994 34.0668L156.575 32.8169C156.599 32.7721 156.636 32.7363 156.682 32.7147C156.727 32.6931 156.779 32.687 156.828 32.6972C156.878 32.7074 156.923 32.7334 156.956 32.7713C156.99 32.8092 157.01 32.857 157.014 32.9075L157.729 40.3664Z" fill="#F4B545"/>
<path id="Vector_80" d="M157.728 40.366C157.734 40.4211 157.72 40.4766 157.689 40.5223C157.237 41.1769 153.975 47.064 152.02 46.6828C151.302 46.5406 150.349 45.4595 149.414 44.0939C152.232 45.9204 154.21 44.0643 155.259 42.6081C156.203 41.2972 156.106 36.4741 155.993 34.0727L156.574 32.8227C156.597 32.778 156.635 32.7421 156.681 32.7206C156.726 32.699 156.778 32.6928 156.827 32.7031C156.877 32.7133 156.922 32.7392 156.955 32.7772C156.989 32.8151 157.009 32.8629 157.013 32.9134L157.728 40.366Z" fill="#E59D29"/>
<path id="Vector_81" d="M170.203 42.6267C170.174 42.9298 170.112 43.2288 170.019 43.5188C169.708 44.5859 169.049 46.2358 168.306 47.942C167.839 48.9982 167.348 50.0762 166.882 51.0512C166.06 52.7698 165.332 54.1603 165.042 54.5369C164.902 54.7227 164.746 54.8953 164.575 55.0525C164.066 55.5118 163.629 55.615 163.383 55.7353C163.377 55.7393 163.37 55.7425 163.363 55.7446C163.325 55.7645 163.289 55.7887 163.255 55.8165C163.012 56.0337 163.5 56.4414 162.497 56.8773C162.335 56.9415 162.16 56.9672 161.986 56.9523C160.842 56.8852 158.929 55.6243 157.157 54.3337C155.082 52.8245 154.01 50.6762 153.574 49.5888C153.513 49.4246 153.503 49.2463 153.544 49.0763C153.625 48.7611 153.761 48.4631 153.948 48.1967C154.2 47.8206 154.475 47.46 154.77 47.117C154.708 46.6639 155.065 46.5436 155.287 46.514C155.649 46.1121 155.983 45.685 156.284 45.2359C157.099 43.9313 156.752 34.6303 156.583 33.107C156.554 32.8304 156.711 32.6273 156.99 32.482C157.236 32.3621 157.498 32.281 157.769 32.2414C158.294 32.1589 158.825 32.1213 159.356 32.1289C159.979 32.1289 160.603 32.168 161.07 32.207C161.576 32.2492 161.914 32.293 161.914 32.293C162.031 32.293 162.148 32.3054 162.263 32.3132C162.536 32.3336 162.799 32.3633 163.055 32.4039C163.189 32.4242 163.319 32.4476 163.449 32.4742L163.575 32.5007C163.784 32.546 163.984 32.5992 164.179 32.657C165.104 32.9263 165.967 33.376 166.718 33.9804C166.718 33.9804 166.718 33.9803 166.718 33.9881H166.726C166.726 33.9881 166.734 33.9881 166.737 33.9975C167.146 34.3305 167.519 34.706 167.849 35.1178C168.45 35.874 168.933 36.7167 169.283 37.6176C169.375 37.8488 169.458 38.0796 169.532 38.3098C169.992 39.7017 170.219 41.1604 170.203 42.6267Z" fill="#F4B545"/>
<path id="Vector_82" d="M166.876 51.0511C167.407 46.3639 165.688 40.3002 165.688 40.3002L168.516 40.1143L170.018 43.5187C169.512 45.2514 168.094 48.5059 166.876 51.0511Z" fill="#E59D29"/>
<path id="Vector_83" d="M172.818 45.9987C172.6 52.417 171.572 56.2778 171.572 56.2778H167.667L168.301 47.9423L168.457 45.9315L165.691 40.3069L166.525 35.2087L166.726 33.9854C166.726 33.9854 166.726 33.9854 166.726 33.9932H166.734C166.824 34.0744 167.259 34.4728 167.857 35.1228C169.372 36.7664 171.946 40.0163 172.641 43.7817C172.78 44.512 172.84 45.2554 172.818 45.9987Z" fill="#F4B545"/>
<path id="Vector_84" d="M164.566 55.0525C164.056 55.5119 163.62 55.615 163.374 55.7353C163.368 55.7394 163.361 55.7425 163.354 55.7447C163.06 55.8775 162.742 55.9503 162.419 55.9587C161.64 55.9915 160.495 55.7165 159.332 54.2604C157.744 52.2714 159.537 54.5604 162.17 55.1259C162.961 55.3104 163.787 55.2851 164.566 55.0525Z" fill="#E59D29"/>
<path id="Vector_85" d="M153.934 48.1968C154.186 47.8207 154.461 47.4602 154.756 47.1172C154.756 47.1172 154.804 48.9718 157.227 50.3826C159.542 51.7263 156.473 51.7935 153.934 48.1968Z" fill="#E59D29"/>
<path id="Vector_86" d="M172.648 43.7818C171.91 41.8054 170.864 39.9595 169.547 38.3133C168.643 37.1787 167.63 36.1357 166.523 35.1994C165.786 34.5714 165.005 33.9971 164.186 33.4808C163.847 33.2683 163.649 33.1683 163.649 33.1683L163.582 32.5059C163.791 32.5512 163.992 32.6043 164.186 32.6621C165.111 32.9314 165.974 33.3811 166.726 33.9855C166.726 33.9855 166.726 33.9855 166.726 33.9933H166.733C166.733 33.9933 166.741 33.9933 166.744 34.0027C167.154 34.3356 167.526 34.7111 167.857 35.1229C169.38 36.7665 171.954 40.0164 172.648 43.7818Z" fill="#E59D29"/>
<path id="Vector_87" d="M162.269 32.3123C161.393 32.7716 160.426 33.1778 159.602 33.2919C158.119 33.4997 157.324 32.8701 156.984 32.481C157.23 32.3612 157.493 32.28 157.763 32.2404C158.288 32.1579 158.819 32.1203 159.351 32.1279C159.974 32.1279 160.597 32.167 161.064 32.206C161.571 32.2482 161.909 32.292 161.909 32.292C162.036 32.2967 162.153 32.3045 162.269 32.3123Z" fill="#E59D29"/>
<path id="Vector_88" d="M164.185 28.4697V34.385C164.185 34.385 163.33 36.1192 161.479 35.6896C160.018 35.3521 159.672 34.3147 159.593 33.8928C159.581 33.833 159.572 33.7725 159.568 33.7116L159.412 32.507L159.362 32.1273L159.289 31.5898L164.185 28.4697Z" fill="#FDC8AA"/>
<path id="Vector_89" d="M164.184 28.4697V30.8055C163.353 32.2835 161.817 34.2178 159.591 33.8928C159.579 33.833 159.571 33.7725 159.566 33.7116L159.281 31.5898L164.184 28.4697Z" fill="#FBB188"/>
<path id="Vector_90" d="M161.635 31.3555C160.701 31.6895 159.684 31.7054 158.74 31.4009C157.982 31.1494 157.291 30.7264 156.721 30.1645C156.152 29.6026 155.718 28.917 155.455 28.1604C155.171 27.3949 155.071 26.5732 155.161 25.7615C155.252 24.9498 155.531 24.1709 155.977 23.4873C156.508 22.6844 157.283 22.0746 158.187 21.7483C160.649 20.8593 163.415 22.2889 164.367 24.9419C165.319 27.5948 164.096 30.465 161.635 31.3555Z" fill="#FDC8AA"/>
<path id="Vector_91" d="M158.74 31.4009C157.982 31.1494 157.291 30.7264 156.721 30.1646C156.152 29.6027 155.718 28.917 155.455 28.1605C155.171 27.3949 155.071 26.5732 155.161 25.7616C155.252 24.9499 155.531 24.1709 155.977 23.4873L156.527 24.581C156.527 24.581 155.048 28.7433 158.74 31.4009Z" fill="#FFD6BB"/>
<path id="Vector_92" d="M154.002 25.8436C154.002 25.8436 151.618 23.3234 152.736 21.7407C153.855 20.158 154.956 21.3735 156.9 20.508C158.844 19.6424 161.285 18.1534 163.522 20.6549C165.759 23.1563 167.119 27.3341 165.236 28.1075C165.236 28.1075 162.667 28.8434 162.447 28.3278C162.228 27.8122 163.712 26.3951 162.704 25.4202C161.696 24.4452 161.162 26.1389 161.235 26.3029C161.309 26.467 160.52 26.5607 160.411 26.0639C160.302 25.567 160.327 23.3969 159.287 23.764C158.246 24.1312 156.02 27.5357 154.002 25.8436Z" fill="#1F3A6F"/>
<path id="Vector_93" d="M143.709 47.1786C141.033 46.4864 138.021 45.7083 136.11 45.2224C131.999 44.1756 129.533 46.8583 129.533 46.8583L117.331 53.7797C117.169 53.59 117.018 53.3912 116.879 53.1844C116.879 53.1844 126.849 47.7738 129.53 45.613C132.211 43.4522 134.938 43.9397 134.938 43.9397C134.938 43.9397 139.648 45.663 143.709 47.1786Z" fill="#254A84"/>
<path id="Vector_94" d="M149.015 34.7433L147.22 36.565C147.183 36.6009 147.137 36.626 147.086 36.6376C147.036 36.6491 146.984 36.6468 146.934 36.6307C146.885 36.6147 146.841 36.5856 146.808 36.5465C146.774 36.5074 146.751 36.4598 146.742 36.4088L145.757 32.1075C145.746 32.0576 145.748 32.0056 145.761 31.9563C145.775 31.907 145.8 31.8618 145.835 31.8247L147.63 30.0029C147.667 29.9669 147.713 29.9418 147.764 29.9301C147.814 29.9185 147.866 29.9208 147.915 29.9369C147.964 29.953 148.008 29.9822 148.042 30.0213C148.076 30.0605 148.098 30.1081 148.107 30.1592L149.091 34.4605C149.102 34.5103 149.101 34.5621 149.088 34.6114C149.075 34.6607 149.05 34.706 149.015 34.7433Z" fill="#326497"/>
<path id="Vector_95" d="M149.342 34.5288L149.258 34.61L148.877 34.9772L148.682 35.1662L148.414 35.4225L147.903 35.9146L147.531 36.274C147.51 36.2944 147.485 36.3113 147.459 36.324C147.42 36.3427 147.378 36.3524 147.336 36.3526C147.293 36.3527 147.251 36.3432 147.212 36.3247C147.173 36.3063 147.139 36.2794 147.113 36.246C147.086 36.2126 147.067 36.1735 147.057 36.1318L146.94 35.6271L146.7 34.574L146.513 33.7569L146.234 32.5351L146.129 32.0664C146.117 32.0186 146.119 31.9686 146.133 31.9215C146.147 31.8743 146.173 31.8317 146.208 31.7977L148.02 30.0525C148.03 30.0432 148.041 30.0348 148.052 30.0275C148.09 30 148.135 29.9823 148.181 29.9761C148.227 29.9699 148.275 29.9753 148.318 29.9919C148.362 30.0084 148.401 30.0356 148.432 30.071C148.463 30.1064 148.484 30.1488 148.495 30.1946L149.235 33.4226L149.423 34.2507C149.436 34.3 149.435 34.3519 149.421 34.4008C149.406 34.4496 149.379 34.4939 149.342 34.5288Z" fill="#52D1BD"/>
<path id="Vector_96" d="M148.099 36.0331C148.099 36.0331 147.935 36.6222 147.935 36.6581C147.614 36.8344 147.279 36.9818 146.932 37.0987H146.907C146.793 37.0987 146.564 37.0815 146.468 35.8878C146.371 34.6942 146.957 34.088 147.234 34.252C147.402 34.3504 147.438 34.5817 147.471 34.8535C147.487 35.0419 147.516 35.2289 147.56 35.4129C147.597 35.5506 147.664 35.678 147.758 35.7855C147.851 35.893 147.968 35.9777 148.099 36.0331Z" fill="#FDC8AA"/>
<path id="Vector_97" d="M146.932 37.088H146.907C146.793 37.088 146.564 37.0708 146.468 35.8771C146.371 34.6834 146.957 34.0772 147.234 34.2413C147.402 34.3397 147.438 34.5709 147.471 34.8428C147.167 35.0459 146.656 35.6115 146.932 37.088Z" fill="#FFD6BB"/>
<g id="Vector_98" style="mix-blend-mode:multiply" opacity="0.2">
<path d="M80.7799 39.3642C89.143 30.9764 89.143 17.3771 80.7799 8.98927C72.4168 0.601446 58.8575 0.601419 50.4944 8.98924C42.1312 17.3771 42.1312 30.9764 50.4943 39.3642C58.8575 47.7521 72.4168 47.752 80.7799 39.3642Z" fill="#4076A3"/>
</g>
<path id="Vector_99" d="M67.8917 42.9626C79.7189 42.9626 89.3068 33.3464 89.3068 21.4842C89.3068 9.62205 79.7189 0.00585938 67.8917 0.00585938C56.0644 0.00585938 46.4766 9.62205 46.4766 21.4842C46.4766 33.3464 56.0644 42.9626 67.8917 42.9626Z" fill="#F4B545"/>
<path id="Vector_100" d="M57.0594 27.5547C58.9195 27.5547 60.4273 26.0423 60.4273 24.1767C60.4273 22.3112 58.9195 20.7988 57.0594 20.7988C55.1993 20.7988 53.6914 22.3112 53.6914 24.1767C53.6914 26.0423 55.1993 27.5547 57.0594 27.5547Z" fill="white"/>
<path id="Vector_101" d="M70.7537 23.2323C71.714 21.6345 71.201 19.5585 69.6079 18.5954C68.0149 17.6324 65.945 18.1469 64.9848 19.7447C64.0245 21.3424 64.5375 23.4184 66.1306 24.3815C67.7236 25.3446 69.7935 24.83 70.7537 23.2323Z" fill="white"/>
<path id="Vector_102" d="M79.3172 22.1087C81.1479 21.778 82.3645 20.0215 82.0348 18.1855C81.7051 16.3495 79.9539 15.1291 78.1233 15.4598C76.2926 15.7905 75.0759 17.547 75.4056 19.383C75.7353 21.219 77.4866 22.4394 79.3172 22.1087Z" fill="white"/>
<path id="Vector_103" d="M224.033 28.143C224.9 24.4588 222.625 20.7671 218.951 19.8976C215.278 19.028 211.597 21.3098 210.73 24.994C209.863 28.6783 212.138 32.37 215.812 33.2395C219.485 34.1091 223.166 31.8273 224.033 28.143Z" fill="#B7CAE5"/>
<path id="Vector_104" d="M30.5367 124.701C31.4204 121.021 29.1621 117.319 25.4926 116.432C21.8232 115.546 18.1321 117.811 17.2485 121.491C16.3648 125.172 18.6231 128.874 22.2926 129.76C25.962 130.646 29.6531 128.381 30.5367 124.701Z" fill="#B7CAE5"/>
<path id="Vector_105" d="M109.394 36.6461C111.89 36.6461 113.913 34.6168 113.913 32.1136C113.913 29.6103 111.89 27.5811 109.394 27.5811C106.898 27.5811 104.875 29.6103 104.875 32.1136C104.875 34.6168 106.898 36.6461 109.394 36.6461Z" fill="#B7CAE5"/>
<path id="Vector_106" d="M28.1852 7.62891C29.8904 7.62891 31.2728 6.24248 31.2728 4.53223C31.2728 2.82198 29.8904 1.43555 28.1852 1.43555C26.48 1.43555 25.0977 2.82198 25.0977 4.53223C25.0977 6.24248 26.48 7.62891 28.1852 7.62891Z" fill="#52D1BD"/>
<path id="Vector_107" d="M238.653 128.587C240.591 127.781 241.512 125.552 240.709 123.608C239.906 121.664 237.683 120.74 235.745 121.546C233.806 122.351 232.885 124.58 233.688 126.525C234.491 128.469 236.714 129.392 238.653 128.587Z" fill="#B7CAE5"/>
<path id="Vector_108" d="M219.283 102.821C219.803 99.6067 217.627 96.5779 214.422 96.0561C211.217 95.5343 208.197 97.7171 207.676 100.932C207.156 104.146 209.333 107.175 212.538 107.697C215.743 108.219 218.763 106.036 219.283 102.821Z" fill="#52D1BD"/>
<path id="Vector_109" d="M6.7588 163.632C7.13818 161.778 5.94748 159.967 4.09926 159.587C2.25105 159.206 0.445231 160.4 0.0658469 162.254C-0.313537 164.108 0.877169 165.919 2.72538 166.299C4.5736 166.68 6.37942 165.486 6.7588 163.632Z" fill="#52D1BD"/>
</g>
</g>
</g>
<defs>
<clipPath id="clip0_336_269">
<rect width="241" height="202" fill="white"/>
</clipPath>
</defs>
</svg>
