<svg width="249" height="197" viewBox="0 0 249 197" fill="none" xmlns="http://www.w3.org/2000/svg">
<g id="Frame" clip-path="url(#clip0_336_470)">
<g id="Group">
<g id="Layer 4">
<path id="Vector" d="M63.8958 186.912C65.4868 188.082 67.1156 189.212 68.7822 190.301H192.706C194.225 189.087 195.709 187.813 197.159 186.477C226.695 159.241 238.763 108.338 221.964 88.0122C209.677 73.1413 188.387 85.5126 166.892 64.5897C147.822 46.0313 151.945 28.4576 137.886 21.2146C107.104 5.37063 24.533 41.7889 19.3343 103.627C15.4153 150.22 58.3776 182.845 63.8958 186.912Z" fill="#ECF3FE"/>
<path id="Vector_2" d="M36.3397 55.8393C36.2382 55.8393 36.1382 55.8137 36.0491 55.765C35.96 55.7163 35.8846 55.646 35.8298 55.5605C35.787 55.4938 35.7578 55.4192 35.7438 55.3412C35.7298 55.2631 35.7314 55.1831 35.7484 55.1057C35.7654 55.0282 35.7975 54.9549 35.8429 54.8899C35.8883 54.8249 35.9461 54.7695 36.0129 54.7268C36.4399 54.4538 36.8844 54.1822 37.3202 53.9222C37.3883 53.8815 37.4639 53.8547 37.5424 53.8432C37.621 53.8318 37.701 53.8359 37.778 53.8555C37.8549 53.8751 37.9272 53.9097 37.9907 53.9572C38.0543 54.0048 38.1078 54.0645 38.1482 54.1328C38.1889 54.2009 38.2157 54.2764 38.2271 54.355C38.2386 54.4335 38.2344 54.5135 38.2149 54.5905C38.1953 54.6674 38.1607 54.7397 38.1131 54.8032C38.0655 54.8667 38.0059 54.9202 37.9375 54.9606C37.5119 55.2148 37.0849 55.4777 36.6695 55.7449C36.5709 55.8074 36.4564 55.8402 36.3397 55.8393Z" fill="#52D1BD"/>
<path id="Vector_3" d="M59.6881 130.442C59.2785 130.442 58.8616 130.442 58.4491 130.425C58.2897 130.418 58.1393 130.349 58.0305 130.233C57.9217 130.116 57.8634 129.961 57.8681 129.802C57.8738 129.642 57.9424 129.492 58.0589 129.383C58.1754 129.274 58.3303 129.216 58.4897 129.221C59.4818 129.25 60.4798 129.243 61.4603 129.2C61.5399 129.197 61.6195 129.209 61.6944 129.236C61.7693 129.263 61.8381 129.305 61.8967 129.359C61.9554 129.413 62.0027 129.479 62.036 129.551C62.0692 129.623 62.0878 129.702 62.0906 129.781C62.0941 129.861 62.0819 129.941 62.0545 130.015C62.0272 130.09 61.9853 130.159 61.9313 130.217C61.8773 130.276 61.8122 130.323 61.7398 130.357C61.6675 130.39 61.5892 130.409 61.5096 130.412C60.9068 130.429 60.2938 130.442 59.6881 130.442ZM55.4597 130.224C55.4389 130.226 55.418 130.226 55.3973 130.224C54.3805 130.118 53.3637 129.973 52.3672 129.789C52.2891 129.775 52.2146 129.745 52.1478 129.702C52.0811 129.659 52.0234 129.603 51.9782 129.538C51.933 129.473 51.9011 129.399 51.8844 129.322C51.8676 129.244 51.8664 129.164 51.8806 129.086C51.8948 129.008 51.9242 128.933 51.9672 128.866C52.0102 128.8 52.066 128.742 52.1313 128.697C52.1966 128.652 52.2701 128.62 52.3477 128.603C52.4254 128.586 52.5055 128.585 52.5836 128.599C53.5467 128.775 54.5344 128.916 55.5222 129.019C55.6815 129.036 55.8278 129.115 55.9288 129.239C56.0298 129.364 56.0773 129.523 56.061 129.683C56.045 129.831 55.9748 129.968 55.8639 130.068C55.7529 130.168 55.6091 130.224 55.4597 130.224ZM64.4874 130.159C64.3395 130.159 64.1969 130.104 64.0864 130.006C63.9759 129.908 63.9052 129.773 63.8875 129.626C63.8686 129.467 63.9137 129.307 64.0129 129.181C64.112 129.055 64.2571 128.974 64.4161 128.955C65.4024 128.837 66.3888 128.681 67.3489 128.49C67.5061 128.459 67.6692 128.492 67.8024 128.581C67.9356 128.67 68.028 128.808 68.0592 128.965C68.0904 129.122 68.0579 129.285 67.9688 129.419C67.8797 129.552 67.7414 129.644 67.5842 129.675C66.5935 129.873 65.5768 130.034 64.56 130.155C64.5359 130.158 64.5116 130.159 64.4874 130.159ZM49.5348 129.142C49.4818 129.143 49.429 129.136 49.3779 129.122C48.3814 128.858 47.3966 128.551 46.451 128.211C46.3761 128.185 46.3073 128.143 46.2484 128.09C46.1896 128.036 46.1419 127.972 46.108 127.9C46.0741 127.828 46.0548 127.75 46.0511 127.671C46.0474 127.591 46.0593 127.512 46.0864 127.437C46.1131 127.363 46.1544 127.294 46.2078 127.235C46.2612 127.177 46.3256 127.129 46.3974 127.095C46.4692 127.062 46.5469 127.042 46.6262 127.039C46.7054 127.035 46.7846 127.047 46.8592 127.074C47.7728 127.402 48.7242 127.699 49.6887 127.954C49.8436 127.996 49.9757 128.097 50.0561 128.235C50.1364 128.374 50.1584 128.539 50.1172 128.694C50.0832 128.822 50.0077 128.936 49.9024 129.017C49.797 129.098 49.6678 129.142 49.5348 129.142ZM70.3978 128.98C70.2668 128.98 70.1393 128.937 70.0345 128.859C69.9297 128.78 69.8533 128.67 69.8168 128.544C69.7729 128.39 69.792 128.225 69.8699 128.085C69.9478 127.945 70.0781 127.841 70.2322 127.797C71.1458 127.536 72.0479 127.237 72.9151 126.909L73.0415 126.861C73.191 126.803 73.357 126.808 73.5033 126.873C73.6495 126.938 73.7639 127.058 73.8214 127.208C73.8502 127.282 73.8641 127.361 73.8622 127.44C73.8603 127.52 73.8427 127.598 73.8105 127.671C73.7782 127.743 73.7319 127.809 73.6742 127.864C73.6165 127.918 73.5486 127.961 73.4743 127.989L73.3421 128.04C72.4445 128.38 71.509 128.689 70.5634 128.959C70.5104 128.974 70.4556 128.98 70.4007 128.98H70.3978ZM43.8669 127.092C43.7784 127.091 43.6911 127.072 43.6112 127.034C42.6811 126.597 41.7745 126.112 40.895 125.581C40.7578 125.498 40.6592 125.364 40.6208 125.209C40.5824 125.053 40.6073 124.889 40.6901 124.752C40.731 124.684 40.785 124.625 40.8488 124.577C40.9126 124.53 40.9851 124.496 41.0621 124.477C41.1392 124.458 41.2192 124.454 41.2977 124.466C41.3762 124.478 41.4515 124.505 41.5195 124.546C42.3632 125.053 43.2325 125.516 44.124 125.934C44.1959 125.968 44.2605 126.015 44.3141 126.074C44.3676 126.132 44.4091 126.201 44.4361 126.275C44.4631 126.35 44.475 126.429 44.4713 126.508C44.4676 126.588 44.4483 126.665 44.4145 126.737C44.3676 126.844 44.2909 126.934 44.1938 126.998C44.0966 127.062 43.9831 127.096 43.8669 127.097V127.092ZM76.0177 126.813C75.9052 126.813 75.7948 126.781 75.6991 126.722C75.6034 126.663 75.5261 126.578 75.4759 126.477C75.405 126.333 75.3941 126.167 75.4456 126.015C75.497 125.863 75.6067 125.738 75.7505 125.667C76.6307 125.231 77.5008 124.75 78.336 124.235C78.4036 124.193 78.4788 124.165 78.5572 124.152C78.6357 124.14 78.7158 124.143 78.7931 124.161C78.8704 124.179 78.9434 124.213 79.0077 124.259C79.0721 124.306 79.1267 124.365 79.1683 124.432C79.2522 124.569 79.2785 124.733 79.2415 124.889C79.2045 125.044 79.1071 125.179 78.9708 125.263C78.0993 125.799 77.2001 126.299 76.285 126.75C76.2027 126.794 76.111 126.818 76.0177 126.819V126.813ZM38.719 123.973C38.5853 123.974 38.4553 123.929 38.3501 123.847C37.5317 123.217 36.7553 122.534 36.026 121.802C35.9127 121.689 35.8491 121.535 35.8491 121.374C35.8491 121.214 35.9127 121.06 36.026 120.947C36.082 120.89 36.1485 120.846 36.2218 120.815C36.2951 120.785 36.3737 120.769 36.453 120.769C36.5324 120.769 36.611 120.785 36.6843 120.815C36.7575 120.846 36.8241 120.89 36.8801 120.947C37.5711 121.64 38.3061 122.288 39.0807 122.887C39.1435 122.936 39.1961 122.996 39.2355 123.065C39.2749 123.134 39.3003 123.21 39.3103 123.289C39.3203 123.368 39.3146 123.448 39.2937 123.524C39.2727 123.601 39.2369 123.672 39.1882 123.735C39.1337 123.809 39.0631 123.869 38.9818 123.911C38.9005 123.954 38.8106 123.977 38.719 123.979V123.973ZM81.1424 123.654C81.0486 123.654 80.956 123.632 80.872 123.59C80.7881 123.549 80.715 123.488 80.6587 123.413C80.5625 123.285 80.521 123.124 80.5433 122.965C80.5657 122.807 80.65 122.664 80.7778 122.567C81.5578 121.987 82.3262 121.346 83.0597 120.679C83.1185 120.626 83.1873 120.585 83.2621 120.558C83.3368 120.531 83.4162 120.519 83.4955 120.523C83.5748 120.527 83.6526 120.547 83.7244 120.581C83.7962 120.615 83.8605 120.663 83.9138 120.722C83.9671 120.78 84.0082 120.849 84.0349 120.924C84.0615 120.999 84.0732 121.078 84.0691 121.158C84.0651 121.237 84.0454 121.315 84.0113 121.386C83.9772 121.458 83.9293 121.522 83.8703 121.576C83.1091 122.264 82.3146 122.92 81.5055 123.529C81.4043 123.61 81.2793 123.656 81.1496 123.66L81.1424 123.654ZM34.4979 119.698C34.4032 119.698 34.3098 119.676 34.2253 119.633C34.1407 119.59 34.0674 119.528 34.0113 119.452C33.3956 118.619 32.8454 117.739 32.3655 116.82C32.2915 116.678 32.277 116.512 32.3252 116.359C32.3734 116.206 32.4804 116.078 32.6226 116.004C32.7649 115.931 32.9304 115.916 33.0831 115.965C33.2359 116.013 33.3632 116.119 33.4375 116.261C33.8886 117.123 34.4059 117.948 34.9845 118.73C35.0794 118.859 35.1192 119.021 35.0952 119.179C35.0713 119.338 34.9854 119.48 34.8566 119.576C34.7538 119.655 34.6281 119.7 34.4979 119.703V119.698ZM85.6119 119.618C85.4587 119.618 85.3111 119.56 85.1993 119.455C85.0824 119.346 85.0135 119.194 85.0078 119.034C85.002 118.874 85.06 118.719 85.1688 118.601C85.8326 117.889 86.4762 117.133 87.1008 116.35C87.2005 116.224 87.3459 116.143 87.5052 116.125C87.6645 116.106 87.8246 116.152 87.9505 116.251C88.0761 116.351 88.157 116.496 88.1755 116.656C88.194 116.815 88.1486 116.975 88.0493 117.101C87.4101 117.907 86.7419 118.69 86.0534 119.425C85.9976 119.486 85.9296 119.536 85.8535 119.57C85.7775 119.605 85.6953 119.623 85.6119 119.624V119.618ZM41.8071 115.285H41.7737C40.7424 115.229 39.716 115.103 38.7016 114.909C38.6235 114.894 38.5492 114.864 38.4828 114.821C38.4164 114.777 38.3591 114.721 38.3145 114.655C38.2698 114.589 38.2386 114.516 38.2225 114.438C38.2064 114.36 38.2058 114.28 38.2208 114.202C38.2356 114.124 38.2656 114.049 38.3092 113.983C38.3528 113.917 38.4091 113.859 38.4748 113.815C38.5405 113.77 38.6144 113.739 38.6922 113.723C38.77 113.707 38.8502 113.706 38.9282 113.721C39.8876 113.905 40.8581 114.025 41.8333 114.08C41.9126 114.084 41.9904 114.104 42.062 114.138C42.1337 114.172 42.1979 114.22 42.251 114.279C42.304 114.338 42.3449 114.407 42.3711 114.482C42.3974 114.557 42.4086 114.637 42.4041 114.716C42.3967 114.87 42.3308 115.015 42.2199 115.122C42.1089 115.229 41.9612 115.289 41.8071 115.291V115.285ZM44.8183 115.227C44.6685 115.227 44.5241 115.171 44.4132 115.071C44.3022 114.97 44.2328 114.832 44.2184 114.683C44.2106 114.604 44.2184 114.524 44.2414 114.448C44.2644 114.372 44.3021 114.301 44.3524 114.24C44.4027 114.179 44.4646 114.128 44.5346 114.09C44.6045 114.053 44.6812 114.03 44.7602 114.022C45.7255 113.931 46.6804 113.752 47.613 113.487C47.6892 113.465 47.769 113.459 47.8478 113.468C47.9266 113.476 48.0028 113.501 48.0722 113.539C48.1416 113.578 48.2027 113.629 48.252 113.692C48.3013 113.754 48.3379 113.825 48.3596 113.901C48.404 114.055 48.3856 114.22 48.3082 114.361C48.2309 114.501 48.101 114.605 47.9471 114.649C46.9438 114.936 45.9165 115.13 44.8779 115.23C44.8581 115.232 44.8382 115.233 44.8183 115.233V115.227ZM89.3551 114.896C89.2343 114.896 89.1163 114.86 89.0167 114.791C88.8841 114.702 88.7925 114.563 88.762 114.406C88.7315 114.249 88.7646 114.086 88.854 113.953C89.4001 113.144 89.9318 112.296 90.4314 111.432C90.471 111.363 90.5238 111.303 90.5867 111.255C90.6496 111.206 90.7215 111.171 90.7981 111.15C90.8748 111.13 90.9547 111.125 91.0334 111.135C91.112 111.146 91.1879 111.172 91.2565 111.211C91.3951 111.292 91.4963 111.423 91.5377 111.578C91.5791 111.733 91.5573 111.898 91.4773 112.036C90.9631 112.925 90.4184 113.798 89.8562 114.629C89.8018 114.712 89.7275 114.781 89.64 114.828C89.5526 114.876 89.4547 114.901 89.3551 114.902V114.896ZM31.7148 114.375C31.5892 114.374 31.4668 114.335 31.3645 114.262C31.2623 114.189 31.1852 114.087 31.144 113.968C30.8533 113.126 30.6079 112.27 30.409 111.402C30.3355 111.384 30.266 111.352 30.2041 111.309C29.3602 110.719 28.5526 110.079 27.7856 109.392C27.6663 109.285 27.5942 109.135 27.5852 108.975C27.5762 108.815 27.6311 108.658 27.7377 108.539C27.8447 108.42 27.9947 108.347 28.1548 108.339C28.3149 108.33 28.4721 108.384 28.5918 108.491C29.3005 109.126 30.046 109.72 30.8244 110.267C30.9762 110.246 31.1304 110.283 31.256 110.371C31.3817 110.459 31.4693 110.591 31.5013 110.741C31.7042 111.7 31.9661 112.645 32.2857 113.571C32.3118 113.646 32.323 113.726 32.3184 113.805C32.3139 113.884 32.2938 113.962 32.2593 114.033C32.2247 114.105 32.1764 114.169 32.1171 114.222C32.0579 114.275 31.9888 114.315 31.9138 114.341C31.85 114.365 31.7828 114.378 31.7148 114.38V114.375ZM35.8996 114.155C35.8333 114.156 35.7674 114.144 35.705 114.122C34.7263 113.787 33.7733 113.381 32.8536 112.908C32.7109 112.834 32.6033 112.707 32.5543 112.554C32.5053 112.402 32.5189 112.236 32.5921 112.093C32.6284 112.022 32.6782 111.96 32.7387 111.908C32.7993 111.857 32.8693 111.818 32.9448 111.794C33.0204 111.77 33.1001 111.761 33.1791 111.768C33.2582 111.774 33.3351 111.797 33.4056 111.833C34.2737 112.279 35.1727 112.662 36.0957 112.979C36.2473 113.031 36.372 113.141 36.4425 113.284C36.5131 113.428 36.5237 113.594 36.4719 113.746C36.432 113.866 36.3554 113.971 36.2527 114.046C36.15 114.12 36.0265 114.161 35.8996 114.161V114.155ZM50.5704 113.541C50.4615 113.541 50.3545 113.512 50.2609 113.456C50.1673 113.4 50.0905 113.32 50.0388 113.224C50.0008 113.155 49.977 113.078 49.9687 112.999C49.9604 112.92 49.9678 112.84 49.9905 112.764C50.0131 112.688 50.0506 112.617 50.1008 112.555C50.151 112.494 50.2128 112.443 50.2828 112.405C51.1035 111.96 51.8714 111.424 52.572 110.808L52.6287 110.757C52.7484 110.65 52.9055 110.595 53.0656 110.604C53.2258 110.613 53.3757 110.685 53.4828 110.805C53.5895 110.924 53.6444 111.082 53.6354 111.242C53.6264 111.402 53.5543 111.552 53.4349 111.659L53.3709 111.714C52.6023 112.391 51.7593 112.979 50.858 113.467C50.7702 113.518 50.6706 113.546 50.569 113.547L50.5704 113.541ZM92.3793 109.679C92.2866 109.679 92.1952 109.658 92.1121 109.617C91.9687 109.545 91.8593 109.42 91.8078 109.269C91.7564 109.117 91.7671 108.951 91.8375 108.808C92.2733 107.936 92.6887 107.017 93.0765 106.096C93.139 105.949 93.2574 105.832 93.4058 105.771C93.5541 105.711 93.7204 105.712 93.8682 105.774C93.9414 105.804 94.0077 105.849 94.0635 105.906C94.1193 105.962 94.1635 106.029 94.1935 106.103C94.2234 106.176 94.2386 106.255 94.2381 106.334C94.2376 106.414 94.2215 106.492 94.1906 106.565C93.7941 107.508 93.3671 108.442 92.9211 109.344C92.8718 109.446 92.7946 109.532 92.6986 109.592C92.6025 109.653 92.4913 109.685 92.3778 109.685L92.3793 109.679ZM55.0487 109.58C54.9198 109.58 54.7945 109.538 54.6913 109.461C54.6273 109.414 54.5732 109.355 54.532 109.288C54.4909 109.22 54.4635 109.145 54.4515 109.066C54.4395 108.988 54.4431 108.908 54.462 108.831C54.481 108.754 54.515 108.681 54.562 108.617C55.1358 107.836 55.638 107.004 56.0625 106.132C56.0974 106.061 56.146 105.997 56.2055 105.945C56.2651 105.892 56.3344 105.852 56.4095 105.826C56.4847 105.8 56.5642 105.79 56.6435 105.794C56.7228 105.799 56.8003 105.82 56.8716 105.855C57.0154 105.925 57.1254 106.05 57.1774 106.201C57.2294 106.353 57.2192 106.519 57.149 106.663C56.6926 107.6 56.1525 108.494 55.5353 109.333C55.48 109.411 55.407 109.475 55.3224 109.518C55.2378 109.562 55.144 109.586 55.0487 109.586V109.58ZM30.4568 108.49C30.3063 108.489 30.1613 108.433 30.0502 108.331C29.939 108.23 29.8696 108.09 29.8555 107.941C29.7829 107.153 29.7466 106.359 29.7466 105.579C29.7466 105.337 29.7466 105.094 29.7567 104.853C29.7628 104.694 29.8315 104.543 29.948 104.434C30.0644 104.326 30.2192 104.267 30.3785 104.272C30.5377 104.278 30.6881 104.347 30.7969 104.463C30.9058 104.58 30.9642 104.734 30.9595 104.894C30.9595 105.12 30.9493 105.352 30.9493 105.582C30.9493 106.324 30.9842 107.082 31.0539 107.833C31.0613 107.912 31.053 107.992 31.0295 108.068C31.006 108.143 30.9679 108.214 30.9172 108.275C30.8664 108.336 30.8041 108.386 30.7338 108.423C30.6636 108.46 30.5867 108.483 30.5077 108.49C30.4904 108.493 30.473 108.495 30.4554 108.495L30.4568 108.49ZM26.0556 107.415C25.9707 107.415 25.8867 107.397 25.8092 107.363C25.7316 107.328 25.6621 107.278 25.6053 107.214C24.9313 106.465 24.2791 105.662 23.6661 104.828C23.5714 104.699 23.5319 104.537 23.5561 104.379C23.5804 104.22 23.6664 104.078 23.7954 103.983C23.9248 103.888 24.0864 103.849 24.2449 103.873C24.4034 103.897 24.5458 103.983 24.6409 104.112C25.2292 104.914 25.8566 105.687 26.5044 106.407C26.5576 106.466 26.5987 106.535 26.6252 106.609C26.6517 106.684 26.6631 106.763 26.6589 106.843C26.6547 106.922 26.635 106.999 26.6008 107.071C26.5665 107.142 26.5185 107.206 26.4595 107.259C26.3498 107.362 26.2057 107.419 26.0556 107.421V107.415ZM57.6879 104.191C57.6314 104.191 57.5752 104.183 57.5209 104.167C57.4446 104.145 57.3733 104.109 57.3112 104.059C57.2491 104.01 57.1973 103.949 57.1589 103.879C57.1205 103.81 57.096 103.733 57.0871 103.654C57.0782 103.576 57.0849 103.496 57.1069 103.419C57.3752 102.49 57.5543 101.536 57.6415 100.573C57.6559 100.413 57.7328 100.266 57.8556 100.163C57.9784 100.06 58.1369 100.01 58.2966 100.024C58.4561 100.038 58.6035 100.115 58.7064 100.238C58.8093 100.361 58.8594 100.519 58.8457 100.679C58.7493 101.72 58.5548 102.749 58.2646 103.753C58.2296 103.88 58.1544 103.991 58.0504 104.071C57.9463 104.151 57.8191 104.195 57.6879 104.196V104.191ZM94.7194 104.121C94.6506 104.121 94.5823 104.109 94.5175 104.086C94.3664 104.032 94.2428 103.921 94.1737 103.777C94.1045 103.632 94.0955 103.466 94.1486 103.315C94.4812 102.377 94.7862 101.427 95.0592 100.474C95.081 100.398 95.1176 100.326 95.1671 100.264C95.2165 100.202 95.2777 100.15 95.3472 100.111C95.4167 100.073 95.4932 100.049 95.5722 100.04C95.6512 100.031 95.7311 100.038 95.8074 100.06C95.9613 100.105 96.0913 100.208 96.1689 100.349C96.2465 100.489 96.2653 100.654 96.2213 100.808C95.941 101.777 95.6287 102.756 95.2888 103.713C95.249 103.833 95.1727 103.937 95.0706 104.011C94.9685 104.085 94.8456 104.126 94.7194 104.127V104.121ZM22.4838 102.564C22.3797 102.564 22.2772 102.538 22.1864 102.487C22.0955 102.436 22.0193 102.362 21.9652 102.273C21.4437 101.402 20.9484 100.497 20.5025 99.5779C20.4328 99.4335 20.423 99.2674 20.4752 99.1159C20.5275 98.9643 20.6375 98.8396 20.7814 98.7689C20.9258 98.6991 21.0918 98.6893 21.2434 98.7416C21.395 98.7938 21.5198 98.9039 21.5905 99.0477C22.0263 99.9366 22.4969 100.812 23.0009 101.65C23.0421 101.718 23.0693 101.794 23.0812 101.872C23.0931 101.951 23.0893 102.031 23.0702 102.108C23.051 102.185 23.0168 102.257 22.9695 102.321C22.9222 102.385 22.8628 102.439 22.7946 102.48C22.7014 102.538 22.5938 102.569 22.4838 102.57V102.564ZM30.6457 102.477C30.6129 102.48 30.5798 102.48 30.5469 102.477C30.4686 102.464 30.3936 102.436 30.3262 102.394C30.2588 102.352 30.2003 102.297 30.154 102.233C30.1077 102.168 30.0746 102.095 30.0565 102.018C30.0385 101.941 30.0359 101.861 30.0487 101.783C30.2135 100.759 30.4563 99.7505 30.775 98.7645C30.7997 98.6891 30.8389 98.6192 30.8906 98.559C30.9423 98.4987 31.0054 98.4492 31.0762 98.4134C31.1471 98.3775 31.2242 98.3559 31.3034 98.3499C31.3826 98.3438 31.4622 98.3535 31.5376 98.3782C31.6131 98.4029 31.6829 98.4422 31.7432 98.4938C31.8034 98.5455 31.8529 98.6086 31.8888 98.6794C31.9246 98.7502 31.9463 98.8274 31.9523 98.9065C31.9583 98.9857 31.9487 99.0653 31.9239 99.1407C31.6227 100.068 31.393 101.016 31.2369 101.979C31.2133 102.119 31.1412 102.246 31.033 102.338C30.9249 102.43 30.7878 102.482 30.6457 102.483V102.477ZM58.1804 98.2228C58.0343 98.2224 57.8934 98.1693 57.7834 98.0732C57.6734 97.9771 57.6019 97.8446 57.5819 97.6999C57.4569 96.7558 57.2047 95.833 56.8324 94.9564C56.7697 94.8088 56.768 94.6425 56.8276 94.4936C56.8872 94.3448 57.0033 94.2255 57.1505 94.162C57.2978 94.099 57.4642 94.0971 57.6129 94.1568C57.7616 94.2164 57.8806 94.3327 57.9436 94.48C58.358 95.4546 58.6394 96.4804 58.7803 97.53C58.8018 97.6889 58.7594 97.8498 58.6625 97.9774C58.5655 98.1051 58.4219 98.1892 58.2631 98.2112C58.2359 98.2185 58.2083 98.2243 58.1804 98.2286V98.2228ZM19.8518 97.1553C19.7295 97.1551 19.6101 97.1179 19.5093 97.0487C19.4084 96.9795 19.3309 96.8815 19.2867 96.7675C18.9192 95.8046 18.5939 94.8242 18.3208 93.8526C18.2991 93.7762 18.2928 93.6963 18.3021 93.6175C18.3114 93.5386 18.3362 93.4624 18.3751 93.3931C18.414 93.3239 18.4661 93.263 18.5286 93.214C18.5911 93.165 18.6626 93.1288 18.7391 93.1075C18.8155 93.0861 18.8954 93.0799 18.9742 93.0893C19.053 93.0987 19.1291 93.1235 19.1983 93.1624C19.2675 93.2012 19.3284 93.2533 19.3775 93.3157C19.4266 93.378 19.4628 93.4494 19.4843 93.5258C19.7472 94.4611 20.0653 95.4139 20.4168 96.3347C20.4737 96.4846 20.4689 96.6509 20.4036 96.7972C20.3383 96.9436 20.2177 97.0582 20.0682 97.1161C19.999 97.1418 19.9257 97.1551 19.8518 97.1553ZM32.5471 96.7907C32.4456 96.7904 32.3458 96.7649 32.2566 96.7167C32.1868 96.6787 32.1252 96.6273 32.0753 96.5655C32.0254 96.5037 31.9883 96.4326 31.9659 96.3564C31.9435 96.2802 31.9363 96.2003 31.9448 96.1213C31.9533 96.0423 31.9774 95.9658 32.0155 95.8961C32.5156 94.9751 33.1111 94.1091 33.792 93.3123C33.8965 93.1908 34.0449 93.1157 34.2048 93.1035C34.3646 93.0912 34.5227 93.1428 34.6446 93.247C34.7661 93.3515 34.8412 93.4999 34.8534 93.6597C34.8657 93.8195 34.8141 93.9777 34.71 94.0995C34.0833 94.8316 33.536 95.6281 33.0773 96.4756C33.0243 96.5712 32.9467 96.6507 32.8524 96.7059C32.758 96.7612 32.6506 96.7899 32.5413 96.7893L32.5471 96.7907ZM55.8142 92.7749C55.7265 92.775 55.6398 92.7559 55.5603 92.719C55.4808 92.6821 55.4103 92.6284 55.3537 92.5614C54.7409 91.8409 54.0218 91.218 53.2213 90.714C53.1543 90.6716 53.0962 90.6164 53.0505 90.5515C53.0048 90.4866 52.9723 90.4134 52.9549 90.336C52.9375 90.2586 52.9356 90.1785 52.9491 90.1003C52.9627 90.0221 52.9915 89.9474 53.0339 89.8804C53.1197 89.745 53.2556 89.6492 53.4118 89.6138C53.5681 89.5784 53.7321 89.6064 53.8677 89.6915C54.7708 90.2618 55.5822 90.9655 56.2746 91.7786C56.3262 91.839 56.3653 91.909 56.3898 91.9846C56.4143 92.0602 56.4236 92.1398 56.4173 92.219C56.411 92.2982 56.389 92.3754 56.3528 92.4461C56.3166 92.5168 56.2668 92.5797 56.2063 92.6311C56.0949 92.7246 55.9538 92.7751 55.8083 92.7735L55.8142 92.7749ZM36.4589 92.2637C36.3639 92.264 36.2703 92.2419 36.1855 92.1993C36.1007 92.1566 36.0272 92.0946 35.9708 92.0182C35.8761 91.8889 35.8365 91.7273 35.8607 91.5689C35.885 91.4105 35.971 91.2681 36.1 91.173C36.9445 90.5547 37.8469 90.0197 38.7946 89.5754C38.8664 89.5415 38.9441 89.5222 39.0234 89.5185C39.1027 89.5148 39.1819 89.5268 39.2565 89.5538C39.3311 89.5808 39.3997 89.6222 39.4583 89.6758C39.5169 89.7293 39.5643 89.7939 39.5978 89.8658C39.6316 89.9376 39.651 90.0154 39.6547 90.0946C39.6584 90.1739 39.6464 90.2531 39.6194 90.3277C39.5924 90.4024 39.5509 90.4709 39.4974 90.5295C39.4438 90.588 39.3792 90.6354 39.3073 90.669C38.4311 91.0777 37.5964 91.5699 36.8147 92.1388C36.7109 92.2184 36.5839 92.2617 36.453 92.2623L36.4589 92.2637ZM18.2278 91.3545C18.0856 91.3542 17.9481 91.3038 17.8395 91.2122C17.7308 91.1205 17.658 90.9935 17.6337 90.8534C17.6148 90.7445 17.596 90.6356 17.5785 90.5267C17.4333 89.6291 17.3258 88.7112 17.2662 87.7976C17.2555 87.6378 17.3086 87.4802 17.4141 87.3596C17.5195 87.2389 17.6685 87.1651 17.8283 87.1543C17.9077 87.1485 17.9874 87.1586 18.0628 87.1839C18.1382 87.2092 18.2079 87.2492 18.2678 87.3017C18.3276 87.3541 18.3765 87.4178 18.4116 87.4893C18.4466 87.5607 18.4671 87.6384 18.4718 87.7178C18.5299 88.5892 18.6302 89.4722 18.7711 90.332C18.7885 90.4366 18.806 90.5412 18.8248 90.6458C18.8523 90.8035 18.816 90.9656 18.7239 91.0966C18.6319 91.2276 18.4915 91.3167 18.3338 91.3443C18.2969 91.3512 18.2595 91.3541 18.222 91.3531L18.2278 91.3545ZM41.8754 89.6843C41.7444 89.6847 41.6168 89.6424 41.5119 89.5637C41.4071 89.4851 41.3307 89.3745 41.2944 89.2486C41.2727 89.1722 41.2663 89.0923 41.2755 89.0134C41.2847 88.9345 41.3093 88.8582 41.348 88.7889C41.3868 88.7196 41.4388 88.6585 41.5011 88.6093C41.5634 88.5601 41.6349 88.5237 41.7113 88.5021C42.7102 88.2204 43.7303 88.0208 44.7617 87.9051C44.8405 87.8963 44.9202 87.903 44.9964 87.925C45.0726 87.947 45.1437 87.9838 45.2056 88.0333C45.2675 88.0828 45.3191 88.1441 45.3573 88.2135C45.3955 88.283 45.4197 88.3593 45.4284 88.4381C45.4373 88.5169 45.4305 88.5967 45.4085 88.6729C45.3865 88.7491 45.3497 88.8201 45.3001 88.8821C45.2506 88.944 45.1894 88.9955 45.1199 89.0338C45.0504 89.072 44.9741 89.0961 44.8953 89.1048C43.9284 89.2146 42.972 89.4021 42.0352 89.6654C41.9811 89.679 41.9254 89.6849 41.8696 89.6828L41.8754 89.6843ZM50.8057 89.571C50.7463 89.5714 50.6871 89.563 50.63 89.5463C49.7085 89.2725 48.7595 89.1016 47.8004 89.0365C47.7213 89.031 47.6439 89.0099 47.5729 88.9745C47.5019 88.9391 47.4386 88.8901 47.3865 88.8302C47.3344 88.7703 47.2947 88.7008 47.2695 88.6255C47.2443 88.5503 47.2341 88.4708 47.2397 88.3917C47.2516 88.2318 47.3263 88.0832 47.4473 87.9782C47.5684 87.8731 47.7262 87.8203 47.8861 87.8311C48.9342 87.9032 49.9713 88.0902 50.9786 88.3888C51.0546 88.4116 51.1254 88.4491 51.1869 88.4992C51.2484 88.5494 51.2994 88.6111 51.337 88.681C51.3747 88.7509 51.3982 88.8274 51.4062 88.9064C51.4142 88.9853 51.4067 89.0651 51.3839 89.1411C51.3459 89.266 51.2685 89.3752 51.1632 89.4525C51.0579 89.5297 50.9305 89.5708 50.7999 89.5695L50.8057 89.571ZM17.8327 85.3475H17.808C17.7287 85.3445 17.6506 85.3259 17.5785 85.2927C17.5063 85.2596 17.4414 85.2125 17.3874 85.1542C17.3334 85.0959 17.2915 85.0276 17.264 84.9531C17.2365 84.8786 17.2239 84.7994 17.227 84.7201C17.2678 83.695 17.3603 82.6727 17.5044 81.657C17.5153 81.5784 17.5416 81.5026 17.5819 81.4341C17.6221 81.3657 17.6755 81.3058 17.7389 81.2581C17.8023 81.2103 17.8746 81.1755 17.9515 81.1557C18.0285 81.136 18.1085 81.1316 18.1871 81.1429C18.2657 81.1539 18.3414 81.1803 18.4098 81.2206C18.4782 81.2609 18.5379 81.3143 18.5857 81.3777C18.6334 81.4411 18.6682 81.5132 18.688 81.5901C18.7079 81.6669 18.7124 81.7469 18.7014 81.8255C18.5634 82.8044 18.4733 83.7934 18.4341 84.768C18.4277 84.9258 18.3595 85.0748 18.2443 85.1829C18.1291 85.291 17.9761 85.3496 17.8182 85.346L17.8327 85.3475ZM18.6723 79.3841C18.6234 79.3846 18.5746 79.3793 18.527 79.3681C18.3718 79.3305 18.2378 79.2331 18.1542 79.097C18.0707 78.9609 18.0444 78.7973 18.0811 78.6419C18.3193 77.6601 18.6084 76.6667 18.941 75.6936C18.9932 75.5419 19.1034 75.4172 19.2474 75.3466C19.3915 75.2761 19.5576 75.2656 19.7094 75.3174C19.861 75.3693 19.9858 75.4792 20.0563 75.623C20.1269 75.7668 20.1374 75.9327 20.0856 76.0843C19.7646 77.0239 19.4857 77.9723 19.2562 78.9265C19.223 79.058 19.1465 79.1745 19.039 79.2573C18.9315 79.34 18.7992 79.3841 18.6636 79.3826L18.6723 79.3841ZM20.6173 73.6806C20.5327 73.6803 20.4491 73.6625 20.3718 73.6283C20.2992 73.5962 20.2336 73.5501 20.1789 73.4926C20.1241 73.4352 20.0812 73.3675 20.0526 73.2934C20.024 73.2194 20.0103 73.1404 20.0122 73.061C20.0141 72.9817 20.0317 72.9035 20.0638 72.8309C20.4735 71.9087 20.9354 70.9835 21.422 70.0845C21.46 70.0147 21.5114 69.9531 21.5732 69.9032C21.635 69.8534 21.7061 69.8162 21.7823 69.7938C21.8585 69.7714 21.9384 69.7642 22.0174 69.7727C22.0964 69.7813 22.173 69.8053 22.2427 69.8434C22.3831 69.9207 22.4871 70.0504 22.532 70.2042C22.577 70.358 22.5591 70.5233 22.4823 70.664C22.0073 71.5354 21.5643 72.4286 21.175 73.3204C21.1267 73.4296 21.0471 73.5219 20.9463 73.5858C20.8454 73.6496 20.7279 73.6821 20.6085 73.6791L20.6173 73.6806ZM23.502 68.3925C23.3848 68.3926 23.2702 68.3582 23.1723 68.2937C23.1058 68.2504 23.0485 68.1943 23.0037 68.1288C22.9589 68.0633 22.9274 67.9895 22.9111 67.9119C22.8948 67.8342 22.8938 67.754 22.9085 67.676C22.9232 67.598 22.9531 67.5236 22.9965 67.4572C23.55 66.6119 24.147 65.7738 24.7701 64.9634C24.8184 64.9003 24.8787 64.8473 24.9475 64.8075C25.0163 64.7678 25.0922 64.7419 25.171 64.7315C25.2498 64.7211 25.33 64.7264 25.4067 64.747C25.4835 64.7676 25.5554 64.8031 25.6184 64.8516C25.7454 64.9496 25.8283 65.0939 25.849 65.2529C25.8696 65.4119 25.8264 65.5726 25.7288 65.6998C25.1231 66.4855 24.545 67.2974 24.009 68.1194C23.9538 68.2058 23.8774 68.2768 23.7872 68.3256C23.697 68.3744 23.5959 68.3994 23.4933 68.3983L23.502 68.3925ZM27.1755 63.6156C27.027 63.6159 26.8836 63.561 26.7732 63.4617C26.7138 63.409 26.6654 63.3451 26.6308 63.2737C26.5962 63.2022 26.5761 63.1247 26.5716 63.0454C26.5672 62.9661 26.5784 62.8868 26.6048 62.8119C26.6312 62.737 26.6721 62.6681 26.7252 62.6091C27.3978 61.8553 28.1096 61.1132 28.8417 60.403C28.9569 60.2914 29.1117 60.2302 29.2721 60.2326C29.4325 60.2351 29.5854 60.301 29.6972 60.416C29.8086 60.5311 29.8699 60.6856 29.8675 60.8457C29.865 61.0059 29.799 61.1585 29.6841 61.27C28.9724 61.9614 28.2795 62.6818 27.6258 63.4138C27.5682 63.4781 27.4974 63.5293 27.4182 63.5639C27.339 63.5985 27.2532 63.6156 27.1668 63.6142L27.1755 63.6156ZM31.4969 59.4168C31.4091 59.4169 31.3223 59.3978 31.2427 59.3606C31.1631 59.3235 31.0927 59.2693 31.0364 59.2018C30.9851 59.1414 30.9462 59.0713 30.922 58.9958C30.8977 58.9202 30.8886 58.8406 30.8952 58.7615C30.9018 58.6825 30.924 58.6055 30.9605 58.535C30.9969 58.4645 31.047 58.4019 31.1077 58.3508C31.8775 57.6987 32.6851 57.0625 33.5058 56.4627C33.6351 56.368 33.7967 56.3284 33.9552 56.3527C34.1136 56.3769 34.256 56.4629 34.3512 56.5919C34.4459 56.7213 34.4855 56.8829 34.4612 57.0413C34.437 57.1997 34.351 57.3421 34.2219 57.4372C33.423 58.0254 32.6371 58.6456 31.8876 59.2788C31.7752 59.3709 31.6334 59.4193 31.4882 59.4153L31.4969 59.4168Z" fill="#52D1BD"/>
<path id="Vector_4" d="M96.3824 98.3165C96.339 98.3164 96.2957 98.3121 96.2531 98.3035C96.1756 98.2866 96.1021 98.2546 96.0369 98.2094C95.9718 98.1641 95.9161 98.1064 95.8732 98.0397C95.8303 97.9729 95.801 97.8984 95.7869 97.8203C95.7728 97.7422 95.7743 97.6621 95.7912 97.5845C95.98 96.7131 96.0585 96.1961 96.0672 96.1322C96.0789 96.0537 96.106 95.9783 96.1469 95.9102C96.1877 95.8422 96.2416 95.7829 96.3054 95.7357C96.3692 95.6885 96.4416 95.6543 96.5187 95.6351C96.5957 95.6159 96.6758 95.6121 96.7543 95.6238C96.8328 95.6356 96.9082 95.6626 96.9762 95.7035C97.0442 95.7444 97.1035 95.7982 97.1508 95.862C97.198 95.9258 97.2322 95.9983 97.2514 96.0753C97.2706 96.1523 97.2744 96.2323 97.2627 96.3108C97.2481 96.4081 97.1654 96.9412 96.9722 97.8329C96.9447 97.9691 96.871 98.0917 96.7635 98.1798C96.656 98.268 96.5214 98.3163 96.3824 98.3165Z" fill="#52D1BD"/>
<g id="Vector_5" style="mix-blend-mode:multiply" opacity="0.2">
<path d="M52.6535 69.0224C60.3324 61.3444 60.3325 48.8958 52.6535 41.2178C44.9745 33.5398 32.5244 33.5398 24.8454 41.2178C17.1665 48.8958 17.1665 61.3444 24.8454 69.0224C32.5244 76.7004 44.9745 76.7004 52.6535 69.0224Z" fill="#4076A3"/>
</g>
<path id="Vector_6" d="M54.716 66.8271C62.3949 59.149 62.3949 46.7005 54.716 39.0225C47.037 31.3445 34.5869 31.3445 26.9079 39.0225C19.229 46.7005 19.2289 59.1491 26.9079 66.8271C34.5869 74.5051 47.037 74.5051 54.716 66.8271Z" fill="#52D1BD"/>
<path id="Vector_7" d="M49.4811 50.9973C49.9002 50.9961 50.3017 50.8291 50.5979 50.5327C50.894 50.2363 51.0607 49.8347 51.0615 49.4157V49.3387C51.0607 48.9197 50.894 48.5181 50.5979 48.2216C50.3017 47.9252 49.9002 47.7582 49.4811 47.757H45.8497L46.2129 44.0826C46.2337 43.8801 46.211 43.6756 46.1462 43.4827C46.0814 43.2898 45.976 43.1131 45.8371 42.9643C45.6983 42.8156 45.5291 42.6983 45.3411 42.6203C45.1531 42.5424 44.9507 42.5057 44.7473 42.5125C44.312 42.5168 43.8928 42.6779 43.5667 42.9663C43.2406 43.2547 43.0295 43.6511 42.9722 44.0826L42.6106 47.757H39.168L39.5311 44.0826C39.5517 43.8802 39.5289 43.6757 39.464 43.483C39.399 43.2902 39.2936 43.1135 39.1548 42.9648C39.016 42.8161 38.847 42.6988 38.6591 42.6208C38.4712 42.5428 38.2688 42.5059 38.0655 42.5125C37.6302 42.5168 37.211 42.6779 36.885 42.9663C36.5589 43.2547 36.3478 43.6511 36.2905 44.0826L35.9273 47.757H32.1507C31.7318 47.7586 31.3305 47.9257 31.0344 48.2221C30.7383 48.5184 30.5715 48.9198 30.5703 49.3387V49.4157C30.5715 49.8345 30.7383 50.2359 31.0344 50.5323C31.3305 50.8286 31.7318 50.9958 32.1507 50.9973H35.6135L35.2737 54.4423H32.1507C31.732 54.4438 31.3309 54.6108 31.0349 54.9069C30.7388 55.2029 30.5718 55.6039 30.5703 56.0225V56.0995C30.5715 56.5184 30.7383 56.9198 31.0344 57.2161C31.3305 57.5124 31.7318 57.6796 32.1507 57.6811H34.9556L34.5518 61.7667C34.5307 61.969 34.5532 62.1735 34.6178 62.3664C34.6825 62.5593 34.7877 62.7361 34.9265 62.8848C35.0652 63.0336 35.2343 63.1509 35.4222 63.2289C35.6101 63.3068 35.8126 63.3436 36.0159 63.3367C36.4513 63.3327 36.8707 63.1717 37.1968 62.8832C37.5229 62.5948 37.7339 62.1983 37.791 61.7667L38.1947 57.6811H41.6373L41.2335 61.7667C41.2125 61.969 41.2349 62.1735 41.2996 62.3664C41.3642 62.5593 41.4695 62.7361 41.6082 62.8848C41.747 63.0336 41.916 63.1509 42.1039 63.2289C42.2919 63.3068 42.4943 63.3436 42.6977 63.3367C43.1331 63.3327 43.5524 63.1717 43.8786 62.8832C44.2047 62.5948 44.4157 62.1983 44.4727 61.7667L44.8765 57.6811H49.4811C49.9002 57.68 50.3017 57.5129 50.5979 57.2165C50.894 56.9201 51.0607 56.5185 51.0615 56.0995V56.0225C51.0603 55.6038 50.8935 55.2025 50.5974 54.9064C50.3012 54.6103 49.8999 54.4435 49.4811 54.4423H45.1975L45.5375 50.9973H49.4811ZM41.9583 54.4423H38.5129L38.8528 50.9973H42.2982L41.9583 54.4423Z" fill="white"/>
<path id="Vector_8" d="M128.596 197C177.842 197 217.763 194.76 217.763 191.997C217.763 189.233 177.842 186.993 128.596 186.993C79.3509 186.993 39.4297 189.233 39.4297 191.997C39.4297 194.76 79.3509 197 128.596 197Z" fill="#B7CAE5"/>
<path id="Vector_9" d="M61.3757 189.426C61.17 189.858 61.0632 190.332 61.0632 190.811C61.0632 191.29 61.17 191.764 61.3757 192.197H62.2356C62.2573 192.196 62.2788 192.201 62.2989 192.209C62.319 192.217 62.3373 192.229 62.3527 192.244C62.3681 192.259 62.3803 192.278 62.3886 192.298C62.397 192.318 62.4013 192.339 62.4013 192.361V192.796C62.4013 192.818 62.397 192.84 62.3886 192.86C62.3803 192.88 62.3681 192.898 62.3527 192.913C62.3373 192.928 62.319 192.94 62.2989 192.949C62.2788 192.957 62.2573 192.961 62.2356 192.961H44.3692C44.1883 192.961 44.009 192.925 43.8419 192.856C43.6747 192.786 43.5229 192.685 43.395 192.557C43.2671 192.429 43.1657 192.277 43.0966 192.11C43.0275 191.942 42.992 191.763 42.9922 191.582V190.034C42.992 189.853 43.0275 189.674 43.0966 189.507C43.1657 189.34 43.2671 189.188 43.395 189.06C43.523 188.932 43.6749 188.831 43.842 188.762C44.0092 188.693 44.1883 188.657 44.3692 188.657H62.2356C62.2793 188.657 62.3212 188.674 62.3522 188.705C62.3833 188.736 62.4009 188.778 62.4013 188.821V189.257C62.4013 189.301 62.3838 189.343 62.3527 189.374C62.3217 189.405 62.2796 189.423 62.2356 189.423L61.3757 189.426Z" fill="#92AFCC"/>
<path id="Vector_10" d="M61.377 192.197H44.6348C44.5784 192.197 44.5222 192.19 44.4678 192.175C44.3195 192.138 44.1879 192.053 44.0939 191.933C43.9999 191.812 43.949 191.664 43.9492 191.511V190.107C43.9492 190.017 43.9669 189.928 44.0014 189.845C44.0359 189.762 44.0864 189.686 44.1501 189.623C44.2138 189.559 44.2894 189.509 44.3726 189.474C44.4557 189.44 44.5448 189.423 44.6348 189.423H61.377C61.3112 189.553 61.2568 189.689 61.2143 189.828C60.9656 190.61 61.0238 191.457 61.377 192.197Z" fill="#E2E2E2"/>
<path id="Vector_11" d="M61.3781 192.197H44.6359C44.5795 192.197 44.5233 192.19 44.4688 192.175C44.4347 192.093 44.4174 192.005 44.418 191.917V190.517C44.418 190.335 44.4903 190.16 44.6188 190.032C44.7474 189.903 44.9218 189.831 45.1036 189.831H61.2154C60.9675 190.612 61.0256 191.458 61.3781 192.197Z" fill="white"/>
<path id="Vector_12" d="M59.4382 176.512C59.2325 176.945 59.1257 177.419 59.1257 177.898C59.1257 178.377 59.2325 178.851 59.4382 179.284H60.2996C60.3432 179.284 60.3849 179.301 60.4157 179.332C60.4464 179.362 60.4638 179.404 60.4638 179.448V179.883C60.4639 179.905 60.4599 179.927 60.4517 179.947C60.4435 179.967 60.4314 179.985 60.4162 180C60.4009 180.016 60.3828 180.028 60.3628 180.036C60.3427 180.045 60.3213 180.049 60.2996 180.049H42.4332C42.0676 180.049 41.717 179.904 41.4585 179.645C41.2 179.387 41.0547 179.036 41.0547 178.671V177.121C41.0547 176.94 41.0904 176.761 41.1597 176.594C41.229 176.427 41.3305 176.275 41.4585 176.147C41.5866 176.019 41.7385 175.918 41.9057 175.849C42.073 175.779 42.2522 175.744 42.4332 175.744H60.2996C60.3212 175.744 60.3425 175.748 60.3624 175.757C60.3823 175.765 60.4004 175.777 60.4157 175.792C60.4309 175.807 60.443 175.826 60.4513 175.845C60.4595 175.865 60.4638 175.887 60.4638 175.908V176.344C60.4639 176.366 60.4599 176.387 60.4517 176.407C60.4435 176.427 60.4314 176.446 60.4162 176.461C60.4009 176.476 60.3828 176.489 60.3628 176.497C60.3427 176.505 60.3213 176.51 60.2996 176.51L59.4382 176.512Z" fill="#92AFCC"/>
<path id="Vector_13" d="M59.4381 179.284H42.6974C42.6411 179.284 42.585 179.277 42.5303 179.263C42.3821 179.226 42.2506 179.141 42.1566 179.02C42.0627 178.9 42.0116 178.751 42.0117 178.598V177.198C42.0117 177.016 42.084 176.842 42.2126 176.713C42.3412 176.585 42.5155 176.513 42.6974 176.513H59.4381C59.3725 176.643 59.3185 176.778 59.2768 176.918C59.0284 177.698 59.086 178.544 59.4381 179.284Z" fill="#E2E2E2"/>
<path id="Vector_14" d="M59.4366 179.284H42.6959C42.6396 179.284 42.5836 179.277 42.5289 179.264C42.4945 179.181 42.4766 179.093 42.4766 179.004V177.604C42.4766 177.422 42.5488 177.247 42.6774 177.119C42.806 176.99 42.9804 176.918 43.1622 176.918H59.2754C59.0269 177.698 59.0845 178.544 59.4366 179.284Z" fill="white"/>
<path id="Vector_15" d="M60.6687 180.812C60.463 181.245 60.3563 181.718 60.3563 182.197C60.3563 182.677 60.463 183.15 60.6687 183.583H61.5301C61.574 183.583 61.6161 183.6 61.6472 183.631C61.6783 183.662 61.6956 183.705 61.6956 183.748V184.184C61.6953 184.228 61.6776 184.27 61.6466 184.3C61.6156 184.331 61.5738 184.348 61.5301 184.348H43.6637C43.2981 184.348 42.9474 184.203 42.6889 183.945C42.4304 183.686 42.2852 183.336 42.2852 182.97V181.42C42.2853 181.24 42.3212 181.061 42.3906 180.894C42.4599 180.727 42.5615 180.575 42.6895 180.447C42.8175 180.319 42.9694 180.218 43.1365 180.149C43.3037 180.08 43.4828 180.045 43.6637 180.045H61.5301C61.5518 180.045 61.5733 180.049 61.5934 180.057C61.6134 180.065 61.6317 180.077 61.6471 180.092C61.6625 180.108 61.6747 180.126 61.683 180.146C61.6914 180.166 61.6956 180.187 61.6956 180.209V180.645C61.6956 180.666 61.6914 180.688 61.683 180.708C61.6747 180.728 61.6625 180.746 61.6471 180.761C61.6317 180.777 61.6134 180.789 61.5934 180.797C61.5733 180.805 61.5518 180.809 61.5301 180.809L60.6687 180.812Z" fill="#F4B545"/>
<path id="Vector_16" d="M60.669 183.588H43.9239C43.8676 183.587 43.8115 183.581 43.7568 183.567C43.6085 183.53 43.4768 183.445 43.3828 183.324C43.2888 183.203 43.238 183.055 43.2383 182.902V181.502C43.2383 181.32 43.3105 181.146 43.4391 181.017C43.5676 180.889 43.7421 180.816 43.9239 180.816H60.669C60.6045 180.947 60.5506 181.082 60.5077 181.222C60.2592 182.002 60.3169 182.848 60.669 183.588Z" fill="#E2E2E2"/>
<path id="Vector_17" d="M60.666 183.588H43.921C43.8647 183.588 43.8086 183.581 43.7539 183.567C43.7201 183.485 43.7029 183.397 43.7031 183.309V181.907C43.7031 181.817 43.7208 181.728 43.7553 181.645C43.7897 181.562 43.8403 181.486 43.9039 181.422C43.9676 181.359 44.0432 181.308 44.1263 181.274C44.2095 181.239 44.2987 181.222 44.3887 181.222H60.5004C60.2533 182.003 60.3125 182.849 60.666 183.588Z" fill="white"/>
<path id="Vector_18" d="M59.239 185.121C59.0333 185.554 58.9266 186.027 58.9266 186.506C58.9266 186.986 59.0333 187.459 59.239 187.892H60.1004C60.1438 187.892 60.1853 187.91 60.216 187.94C60.2467 187.971 60.2642 188.013 60.2645 188.056V188.492C60.2645 188.535 60.2473 188.577 60.2165 188.608C60.1858 188.639 60.1441 188.657 60.1004 188.657H42.234C41.8684 188.657 41.5178 188.512 41.2592 188.254C41.0007 187.995 40.8555 187.645 40.8555 187.279V185.729C40.8555 185.548 40.8911 185.369 40.9604 185.202C41.0297 185.035 41.1313 184.883 41.2593 184.755C41.3873 184.627 41.5393 184.526 41.7066 184.457C41.8738 184.388 42.053 184.352 42.234 184.353H60.1004C60.1441 184.353 60.1858 184.371 60.2165 184.402C60.2473 184.433 60.2645 184.474 60.2645 184.518V184.954C60.2645 184.997 60.2473 185.039 60.2165 185.07C60.1858 185.101 60.1441 185.119 60.1004 185.119L59.239 185.121Z" fill="#B7CAE5"/>
<path id="Vector_19" d="M59.2388 187.892H42.4981C42.4418 187.892 42.3857 187.885 42.331 187.872C42.1828 187.835 42.0513 187.749 41.9573 187.628C41.8634 187.508 41.8124 187.36 41.8125 187.207V185.807C41.8125 185.717 41.8302 185.627 41.8646 185.544C41.8991 185.461 41.9496 185.386 42.0133 185.322C42.077 185.258 42.1525 185.208 42.2357 185.173C42.3189 185.139 42.408 185.121 42.4981 185.121H59.2388C59.173 185.251 59.1186 185.387 59.0761 185.526C58.8282 186.307 58.8863 187.153 59.2388 187.892Z" fill="#E2E2E2"/>
<path id="Vector_20" d="M59.2374 187.892H42.4967C42.4404 187.892 42.3843 187.885 42.3296 187.872C42.2945 187.79 42.2767 187.701 42.2774 187.612V186.212C42.2774 186.03 42.3496 185.856 42.4782 185.727C42.6067 185.599 42.7811 185.526 42.9629 185.526H59.0747C58.8268 186.307 58.8849 187.153 59.2374 187.892Z" fill="white"/>
<g id="Vector_21" style="mix-blend-mode:multiply" opacity="0.2">
<path d="M166.951 151.252C175.659 139.816 180.695 125.206 180.158 109.346C179.029 76.087 153.047 49.0481 121.139 47.9109C85.9044 46.6619 57.0479 76.4704 57.828 113.096C58.5542 146.948 85.0575 174.596 117.538 175.403C124.704 175.582 131.842 174.45 138.6 172.063L168.523 184.579C171.184 185.692 173.947 183.234 173.3 180.324C171.649 172.888 168.983 160.827 166.951 151.252Z" fill="#4076A3"/>
</g>
<path id="Vector_22" d="M170.693 147.057C179.758 135.663 184.443 121.401 183.9 106.853C182.771 74.9483 156.79 49.0016 124.881 47.9152C89.6466 46.717 60.7901 75.3157 61.5701 110.454C62.2964 142.932 88.7997 169.459 121.28 170.23C128.435 170.403 135.564 169.317 142.342 167.023L172.265 179.033C174.926 180.1 177.689 177.742 177.042 174.95C175.391 167.815 172.726 156.243 170.693 147.057Z" fill="#FCFCFC"/>
<path id="Vector_23" d="M121.4 93.7517H85.7359C84.9561 93.7494 84.2089 93.4387 83.6575 92.8873C83.1061 92.336 82.7953 91.5889 82.793 90.8092C82.7953 90.0297 83.1061 89.2827 83.6576 88.7316C84.209 88.1805 84.9562 87.8701 85.7359 87.8682H121.4C122.18 87.8705 122.927 88.181 123.478 88.7321C124.029 89.2832 124.34 90.0299 124.342 90.8092C124.34 91.5888 124.03 92.3359 123.478 92.8873C122.927 93.4386 122.18 93.7494 121.4 93.7517Z" fill="#5693DB"/>
<path id="Vector_24" d="M107.585 105.921H85.7359C84.9561 105.919 84.2089 105.608 83.6575 105.057C83.1061 104.505 82.7953 103.758 82.793 102.979C82.7953 102.199 83.1061 101.452 83.6575 100.901C84.2089 100.349 84.9561 100.038 85.7359 100.036H107.585C108.365 100.038 109.112 100.349 109.664 100.901C110.215 101.452 110.526 102.199 110.528 102.979C110.526 103.758 110.215 104.505 109.664 105.057C109.112 105.608 108.365 105.919 107.585 105.921Z" fill="#5693DB"/>
<path id="Vector_25" d="M164.552 105.921H116.094C115.314 105.919 114.567 105.608 114.016 105.057C113.465 104.505 113.154 103.758 113.152 102.979C113.154 102.199 113.465 101.452 114.016 100.901C114.567 100.349 115.314 100.038 116.094 100.036H164.552C165.332 100.038 166.079 100.349 166.631 100.901C167.182 101.452 167.493 102.199 167.495 102.979C167.493 103.758 167.182 104.505 166.631 105.057C166.079 105.608 165.332 105.919 164.552 105.921Z" fill="#5693DB"/>
<path id="Vector_26" d="M121.4 118.09H85.7359C84.9562 118.088 84.209 117.777 83.6576 117.226C83.1061 116.675 82.7953 115.928 82.793 115.149C82.7953 114.369 83.1061 113.622 83.6575 113.07C84.2089 112.519 84.9561 112.208 85.7359 112.206H121.4C122.18 112.208 122.927 112.519 123.478 113.071C124.03 113.622 124.34 114.369 124.342 115.149C124.34 115.928 124.029 116.675 123.478 117.226C122.927 117.777 122.18 118.087 121.4 118.09Z" fill="#5693DB"/>
<path id="Vector_27" d="M164.553 118.09H129.603C128.823 118.088 128.076 117.777 127.525 117.226C126.973 116.675 126.662 115.928 126.66 115.149C126.662 114.369 126.973 113.622 127.525 113.07C128.076 112.519 128.823 112.208 129.603 112.206H164.553C165.333 112.208 166.08 112.519 166.631 113.07C167.183 113.622 167.494 114.369 167.496 115.149C167.494 115.928 167.183 116.675 166.631 117.226C166.08 117.777 165.333 118.088 164.553 118.09Z" fill="#5693DB"/>
<path id="Vector_28" d="M112.127 130.26H85.7359C84.9561 130.257 84.2089 129.946 83.6575 129.395C83.1061 128.844 82.7953 128.097 82.793 127.317C82.7953 126.537 83.1061 125.791 83.6576 125.239C84.209 124.688 84.9562 124.378 85.7359 124.376H112.127C112.907 124.378 113.654 124.689 114.205 125.24C114.756 125.791 115.066 126.538 115.069 127.317C115.067 128.097 114.756 128.844 114.205 129.395C113.654 129.946 112.907 130.257 112.127 130.26Z" fill="#5693DB"/>
<path id="Vector_29" d="M147.034 130.26H120.642C119.862 130.257 119.115 129.946 118.564 129.395C118.012 128.844 117.702 128.097 117.699 127.317C117.702 126.537 118.012 125.791 118.564 125.239C119.115 124.688 119.862 124.378 120.642 124.376H147.034C147.813 124.378 148.56 124.689 149.111 125.24C149.662 125.791 149.973 126.538 149.975 127.317C149.973 128.097 149.663 128.844 149.111 129.395C148.56 129.946 147.813 130.257 147.034 130.26Z" fill="#5693DB"/>
<g id="Vector_30" style="mix-blend-mode:multiply" opacity="0.2">
<path d="M174.198 35.4796C153.008 36.2131 135.754 53.7665 135.006 75.3487C134.636 85.1643 137.742 94.7957 143.775 102.547C142.426 108.762 140.655 116.589 139.563 121.417C139.127 123.305 140.969 124.902 142.735 124.176L162.606 116.053C167.102 117.603 171.84 118.338 176.594 118.221C198.165 117.7 215.767 99.7559 216.249 77.7844C216.759 54.0192 197.597 34.6692 174.198 35.4796Z" fill="#4076A3"/>
</g>
<path id="Vector_31" d="M148.357 99.8285C142.338 92.2623 139.226 82.791 139.587 73.1295C140.336 51.9437 157.59 34.7128 178.78 33.9909C202.177 33.195 221.34 52.1863 220.822 75.5288C220.343 97.0966 202.741 114.711 181.168 115.224C176.416 115.339 171.681 114.619 167.179 113.094L147.309 121.069C146.909 121.23 146.474 121.279 146.049 121.209C145.625 121.14 145.227 120.955 144.9 120.676C144.573 120.396 144.329 120.032 144.194 119.623C144.059 119.215 144.039 118.777 144.136 118.358C145.237 113.613 147.006 105.928 148.357 99.8285Z" fill="#F9C358"/>
<path id="Vector_32" d="M178.79 65.3104H156.302C155.81 65.3089 155.339 65.1129 154.991 64.7651C154.643 64.4173 154.447 63.9461 154.445 63.4543C154.447 62.9626 154.643 62.4916 154.991 62.144C155.339 61.7965 155.81 61.6008 156.302 61.5996H178.79C179.283 61.6008 179.755 61.7973 180.103 62.1461C180.451 62.4949 180.646 62.9674 180.646 63.4601C180.644 63.951 180.447 64.421 180.099 64.7676C179.752 65.1142 179.281 65.3093 178.79 65.3104Z" fill="white"/>
<path id="Vector_33" d="M170.076 72.9832H156.302C155.81 72.9821 155.339 72.7864 154.991 72.4389C154.643 72.0913 154.447 71.6202 154.445 71.1286C154.446 70.6363 154.642 70.1643 154.99 69.8159C155.338 69.4675 155.809 69.2711 156.302 69.2695H170.076C170.568 69.2711 171.04 69.4676 171.388 69.816C171.735 70.1644 171.931 70.6364 171.931 71.1286C171.93 71.62 171.734 72.0908 171.386 72.4383C171.039 72.7858 170.568 72.9817 170.076 72.9832Z" fill="white"/>
<path id="Vector_34" d="M206.001 72.9833H175.445C174.953 72.9817 174.482 72.7858 174.135 72.4384C173.787 72.0909 173.591 71.62 173.59 71.1286C173.591 70.6369 173.787 70.1657 174.134 69.8179C174.482 69.4701 174.953 69.274 175.445 69.2725H206.001C206.493 69.274 206.964 69.47 207.312 69.8178C207.659 70.1656 207.856 70.6368 207.857 71.1286C207.856 71.6203 207.659 72.0913 207.312 72.4389C206.964 72.7864 206.492 72.9821 206.001 72.9833Z" fill="white"/>
<path id="Vector_35" d="M178.79 80.6557H156.302C155.81 80.6545 155.339 80.4588 154.991 80.1112C154.643 79.7637 154.447 79.2926 154.445 78.801C154.447 78.3093 154.643 77.8382 154.991 77.4907C155.339 77.1432 155.81 76.9474 156.302 76.9463H178.79C179.282 76.9478 179.753 77.1437 180.1 77.4912C180.448 77.8387 180.644 78.3096 180.645 78.801C180.644 79.2924 180.448 79.7632 180.1 80.1107C179.753 80.4582 179.282 80.6541 178.79 80.6557Z" fill="white"/>
<path id="Vector_36" d="M206.002 80.6557H183.964C183.473 80.6541 183.002 80.4582 182.654 80.1107C182.307 79.7632 182.111 79.2924 182.109 78.801C182.111 78.3094 182.306 77.8384 182.654 77.4908C183.002 77.1432 183.473 76.9474 183.964 76.9463H206.002C206.494 76.9474 206.965 77.1432 207.313 77.4907C207.661 77.8382 207.857 78.3093 207.859 78.801C207.857 79.2926 207.661 79.7637 207.313 80.1112C206.965 80.4588 206.494 80.6545 206.002 80.6557Z" fill="white"/>
<path id="Vector_37" d="M172.948 88.3309H156.302C155.81 88.3294 155.339 88.1334 154.991 87.7856C154.643 87.4378 154.447 86.9666 154.445 86.4748C154.447 85.9831 154.643 85.5121 154.991 85.1645C155.339 84.817 155.81 84.6213 156.302 84.6201H172.948C173.439 84.6216 173.91 84.8176 174.258 85.165C174.605 85.5125 174.801 85.9834 174.803 86.4748C174.802 86.9665 174.606 87.4377 174.258 87.7855C173.911 88.1333 173.44 88.3294 172.948 88.3309Z" fill="white"/>
<path id="Vector_38" d="M194.954 88.3309H178.312C177.82 88.3294 177.349 88.1333 177.001 87.7855C176.654 87.4377 176.458 86.9665 176.457 86.4748C176.459 85.9834 176.654 85.5125 177.002 85.165C177.35 84.8176 177.82 84.6216 178.312 84.6201H194.954C195.445 84.6216 195.916 84.8176 196.264 85.165C196.611 85.5125 196.807 85.9834 196.809 86.4748C196.808 86.9665 196.612 87.4377 196.264 87.7855C195.917 88.1333 195.446 88.3294 194.954 88.3309Z" fill="white"/>
<path id="Vector_39" d="M97.2576 146.681C96.3483 148.803 79.6816 145.771 76.0386 146.681C74.4481 147.079 72.538 146.636 70.9692 145.543C70.6729 145.337 70.3923 145.109 70.1296 144.861C68.5681 143.4 67.5673 141.194 68.006 138.498C68.9153 132.89 72.5525 121.524 79.0701 119.706C79.0701 119.706 91.8018 117.282 93.0147 130.308C94.2275 143.334 98.1669 144.566 97.2576 146.681Z" fill="#1F3A6F"/>
<path id="Vector_40" d="M72.3528 137.228C71.7467 139.976 71.2846 142.753 70.9685 145.55C70.6722 145.343 70.3916 145.115 70.1289 144.867C70.4877 142.694 71.2082 139.185 72.3528 137.228Z" fill="#15315E"/>
<path id="Vector_41" d="M76.0634 141.619C76.0634 141.619 75.4388 147.864 75.7511 149.222C76.0634 150.58 74.7852 148.768 74.7852 148.768C74.7852 148.768 75.003 146.368 76.0634 141.619Z" fill="#15315E"/>
<path id="Vector_42" d="M90.5387 137.668C90.5387 137.668 91.5337 145.928 90.3731 149.753C89.2125 153.579 92.7742 150.662 92.7742 150.662L90.5387 137.668Z" fill="#15315E"/>
<path id="Vector_43" d="M87.3203 147.458C87.4728 147.366 89.0634 142.39 89.0256 140.446C88.9879 138.501 89.3292 146.419 88.4199 148.275C87.5106 150.132 87.3203 147.458 87.3203 147.458Z" fill="#15315E"/>
<path id="Vector_44" d="M75.8005 133.007C75.7628 133.16 75.1875 139.705 79.397 141.775C83.6065 143.845 89.0623 141.194 88.8386 135.357C88.6149 129.52 75.8005 133.007 75.8005 133.007Z" fill="#15315E"/>
<path id="Vector_45" d="M81.3475 190.597C91.884 190.474 100.388 187.158 100.342 183.191C100.295 179.224 91.716 176.108 81.1795 176.231C70.643 176.354 62.1392 179.67 62.1856 183.637C62.232 187.604 70.811 190.72 81.3475 190.597Z" fill="#072542"/>
<path id="Vector_46" d="M86.1016 183.063C86.1016 183.063 89.4425 174.526 92.6192 174.575C95.7959 174.625 102.117 174.702 101.916 176.003C101.714 177.304 93.4268 182.248 92.6192 182.507C91.8116 182.765 86.1016 183.063 86.1016 183.063Z" fill="#072542"/>
<path id="Vector_47" d="M67.4188 179.741C67.461 179.173 67.1908 172.177 75.8683 172.72C84.5459 173.264 96.0109 173.473 95.6405 176.513C95.2701 179.552 88.2209 185.575 84.2423 185.462C80.2638 185.349 67.2954 181.382 67.4188 179.741Z" fill="#072542"/>
<path id="Vector_48" d="M72.0768 174.374C71.4307 174.653 70.7555 174.86 70.0636 174.99C66.2405 175.704 63.286 173.759 63.286 173.759C63.2583 173.47 63.251 173.179 63.2642 172.888C63.3121 171.68 63.7 169.609 65.812 169.325C68.8173 168.919 72.0768 174.374 72.0768 174.374Z" fill="#FDC8AA"/>
<path id="Vector_49" d="M98.5598 174.874C98.5598 174.874 97.0288 176.022 93.4032 176.459L93.0706 176.495C89.2053 176.899 94.5101 170.031 94.5101 170.031C94.5101 170.031 98.6775 168.894 99.1844 170.031C99.3024 170.321 99.3763 170.628 99.4037 170.94C99.5621 172.299 99.2657 174.276 98.5598 174.874Z" fill="#FDC8AA"/>
<path id="Vector_50" d="M101.182 173.168C101.182 173.168 99.7132 174.591 98.5584 174.875C98.685 174.581 98.7851 174.276 98.8577 173.964C99.1482 172.756 99.2193 170.719 96.6207 170.26C96.3935 170.22 96.1641 170.193 95.9337 170.181C95.9337 170.181 96.644 169.608 96.2096 167.98C95.7739 166.383 93.2943 158.403 93.2174 158.155C93.218 158.159 93.218 158.164 93.2174 158.168V158.185C93.4116 160.132 92.8776 162.082 91.7184 163.658C91.7184 163.658 94.0236 175.056 91.563 175.351C89.2519 175.627 82.3464 176.697 72.915 175.323C72.3136 175.236 71.6992 175.139 71.0761 175.033C71.0761 175.033 71.3012 172.748 71.7893 170.927C72.2773 169.106 72.7872 166.279 70.9177 160.063C70.9177 160.063 68.1245 166.131 67.9124 170.615C67.9124 170.615 64.7429 169.521 63.2788 173.772C63.2788 173.772 60.6642 173.191 61.9337 168.563C63.2033 163.934 64.2011 161.167 64.1953 157.96C64.1895 154.753 65.8599 150.591 66.9741 149.764C68.0882 148.938 69.7659 147.13 73.191 147.233C76.6162 147.336 89.5802 146.148 89.5802 146.148C89.5802 146.148 94.2559 145.815 95.6504 147.731C97.0448 149.647 98.5076 151.978 99.427 156.265C99.9572 158.734 101.404 163.209 101.985 166.995C102.416 169.759 102.379 172.167 101.182 173.168Z" fill="#F4B545"/>
<path id="Vector_51" d="M90.3757 146.118C90.3757 146.118 89.7526 152.025 83.5807 152.777C77.4088 153.529 73.8369 149.955 73.1992 147.225C73.1992 147.225 77.0398 147.184 79.4815 141.587C79.6365 141.23 79.7861 140.85 79.9303 140.446C82.3183 133.712 84.7354 140.109 84.7354 140.109C85.0268 141.171 85.4964 142.176 86.1241 143.081C87.0116 144.365 88.2579 145.64 90.3757 146.118Z" fill="#FDC8AA"/>
<path id="Vector_52" d="M86.123 143.081C82.9405 143.164 80.8139 142.381 79.4805 141.587C79.6354 141.23 79.785 140.85 79.9293 140.446C82.3173 133.712 84.7344 140.109 84.7344 140.109C85.0257 141.171 85.4953 142.176 86.123 143.081Z" fill="#FBB188"/>
<path id="Vector_53" d="M89.6399 133.29C89.6399 136.486 87.8968 139.225 85.3911 140.446C84.5377 140.868 83.603 141.099 82.6516 141.123C82.5906 141.123 82.5281 141.123 82.4657 141.123C78.5046 141.123 75.293 137.614 75.293 133.28C75.293 128.946 78.5046 125.438 82.4657 125.438C83.4142 125.444 84.3511 125.648 85.2169 126.036C86.0828 126.423 86.8588 126.986 87.4959 127.689C88.8946 129.217 89.6608 131.219 89.6399 133.29Z" fill="#FDC8AA"/>
<path id="Vector_54" d="M89.6394 133.29C89.6394 136.485 87.8963 139.224 85.3906 140.446C89.2138 138.308 88.3757 131.621 87.4954 127.704C88.8903 129.228 89.6562 131.224 89.6394 133.29Z" fill="#FBB188"/>
<path id="Vector_55" d="M74.7891 128.888C74.7891 128.888 84.9933 133.12 90.1469 130.34C95.3006 127.56 84.4907 120.683 80.2449 123.777C75.9991 126.87 74.7891 128.888 74.7891 128.888Z" fill="#1F3A6F"/>
<path id="Vector_56" d="M87.4907 188.854C87.5052 189.588 88.1603 189.965 88.8953 190.227C89.0405 190.275 89.1771 190.32 89.318 190.364C89.6187 190.454 89.9121 190.532 90.1663 190.615C91.183 190.942 92.2754 191.809 92.3146 191.877C92.3378 191.915 93.0162 192.086 93.7671 192.13C94.3482 192.163 94.9844 192.121 95.3722 191.877C95.9242 191.529 96.4689 188.973 96.7812 187.061C96.9686 185.92 97.0717 185.008 97.0499 184.932C97.0499 184.932 96.4384 184.893 95.5479 184.848C95.1238 184.828 94.6358 184.804 94.1186 184.787C93.0205 184.743 91.7945 184.717 90.785 184.737C89.896 184.756 89.1741 184.812 88.8546 184.932C88.4977 185.086 88.2091 185.364 88.0426 185.715C87.5574 186.621 87.4718 188.021 87.4907 188.854Z" fill="#ECF3FE"/>
<path id="Vector_57" d="M97.1382 168.121C97.0404 168.851 96.8666 169.568 96.6196 170.261C96.3919 170.221 96.162 170.194 95.9311 170.181C95.9311 170.181 96.6429 169.609 96.2071 167.981C95.7714 166.383 93.2933 158.404 93.2148 158.155C93.2148 158.155 97.6422 164.736 97.1382 168.121Z" fill="#E59D29"/>
<path id="Vector_58" d="M72.9172 175.317C72.3144 175.229 71.7015 175.133 71.0783 175.027C71.0783 175.027 71.302 172.742 71.7901 170.921C72.2781 169.1 72.7894 166.273 70.9258 160.056C71.0376 160.204 75.6582 166.466 72.9172 175.317Z" fill="#E59D29"/>
<path id="Vector_59" d="M66.3446 174.526C66.3446 174.526 55.6829 171.749 53.9413 174.803C52.1997 177.858 53.0566 180.941 55.847 182.89C58.6374 184.839 61.3435 189.135 85.6956 187.891L86.6586 183.795C86.6586 183.795 74.4034 180.84 68.8648 178.112V175.438C68.8648 175.438 68.3651 174.978 66.3446 174.526Z" fill="#1B345E"/>
<path id="Vector_60" d="M79.6333 186.119L70.8672 187.345C70.8672 187.345 71.1707 192.295 71.2593 192.295C71.3479 192.295 82.9045 189.844 82.9045 189.844L79.6333 186.119Z" fill="#FDC8AA"/>
<path id="Vector_61" d="M93.7656 192.13C94.3466 192.163 94.9828 192.121 95.3707 191.877C96.2538 191.321 97.1138 185.134 97.0484 184.932C97.0484 184.932 96.4368 184.893 95.5464 184.848C95.2225 187.241 94.2493 190.569 93.7656 192.13Z" fill="#9FB8D6"/>
<path id="Vector_62" d="M68.1588 193.325C68.23 193.47 68.9461 193.506 69.6114 193.39C70.0152 193.32 70.4001 193.195 70.6093 193.002C71.1656 192.491 74.3743 192.109 74.3743 192.109C74.3743 192.109 74.508 192.035 74.7099 191.9C75.4202 191.422 76.9671 190.157 76.4965 188.494C75.8893 186.353 73.1992 186.372 73.0655 186.372C73.0655 186.372 71.3603 185.936 70.9826 185.633C70.8053 185.532 70.6055 185.478 70.4016 185.474C70.0879 185.451 69.7727 185.458 69.4603 185.495C68.9374 185.554 68.4435 185.697 68.2532 185.917C67.8349 186.41 68.0441 193.097 68.1588 193.325Z" fill="#ECF3FE"/>
<path id="Vector_63" opacity="0.5" d="M87.4907 188.854C87.5052 189.588 88.1603 189.965 88.8953 190.227C89.0405 190.275 89.1771 190.32 89.318 190.364L96.7812 187.061C96.9686 185.92 97.0717 185.008 97.0499 184.932C97.0499 184.932 96.4384 184.893 95.5479 184.848C95.1238 184.828 94.6358 184.804 94.1186 184.787C93.0205 184.743 91.7945 184.717 90.785 184.737C89.896 184.756 89.1741 184.812 88.8546 184.932C88.4977 185.086 88.2091 185.364 88.0426 185.715C87.5574 186.621 87.4718 188.021 87.4907 188.854Z" fill="#587189"/>
<path id="Vector_64" d="M92.0614 175.233C92.2633 175.131 103.525 170.49 106.912 170.585C110.3 170.681 113.413 177.221 109.684 180.216C105.955 183.211 93.5604 187.692 80.0066 191.993C80.0066 191.993 77.5852 189.196 76.9258 186.039C76.9258 186.039 90.0336 180.446 92.6134 178.816L92.0614 175.233Z" fill="#1F3A6F"/>
<path id="Vector_65" d="M68.1588 193.325C68.23 193.47 68.9461 193.506 69.6114 193.39C70.0152 193.32 70.4001 193.195 70.6093 193.002C71.1656 192.491 74.3743 192.109 74.3743 192.109C74.3743 192.109 74.508 192.035 74.7099 191.9C69.7886 191.741 70.1241 187.124 70.4016 185.474C70.0879 185.451 69.7727 185.458 69.4603 185.495C68.9374 185.554 68.4435 185.697 68.2532 185.917C67.8349 186.41 68.0441 193.097 68.1588 193.325Z" fill="#D7E3F4"/>
<path id="Vector_66" d="M68.1579 193.324C68.229 193.469 68.9451 193.505 69.6104 193.389C69.4652 192.672 69.2952 191.662 69.1747 190.543C68.9727 188.787 69.3199 186.39 69.4652 185.494C68.9422 185.554 68.4484 185.696 68.2581 185.917C67.8339 186.409 68.0431 193.096 68.1579 193.324Z" fill="#9FB8D6"/>
<path id="Vector_67" d="M96.6607 163.835V177.327C96.6591 177.808 96.467 178.27 96.1263 178.611C95.7856 178.951 95.3239 179.143 94.8421 179.145H68.9866C68.5108 179.145 68.0542 178.958 67.7156 178.623C67.5426 178.455 67.4051 178.253 67.311 178.03C67.217 177.807 67.1684 177.568 67.168 177.327V163.831C67.1695 163.349 67.3616 162.888 67.7023 162.547C68.043 162.206 68.5047 162.014 68.9866 162.013H94.8421C95.3043 162.012 95.749 162.189 96.084 162.508C96.2668 162.677 96.4124 162.883 96.5117 163.111C96.6109 163.34 96.6617 163.586 96.6607 163.835Z" fill="#869FB7"/>
<path id="Vector_68" d="M70.6123 165.702C71.032 165.283 71.032 164.602 70.6123 164.182C70.1925 163.763 69.5119 163.763 69.0921 164.182C68.6724 164.602 68.6723 165.283 69.0921 165.702C69.5119 166.122 70.1925 166.122 70.6123 165.702Z" fill="#495A70"/>
<path id="Vector_69" d="M96.6599 163.835V177.326C96.6584 177.808 96.4663 178.27 96.1256 178.61C95.7848 178.951 95.3232 179.143 94.8413 179.145H68.9858C68.5101 179.145 68.0534 178.958 67.7148 178.623C87.2924 176.735 93.8753 168.298 96.0803 162.502C96.2644 162.672 96.411 162.878 96.5108 163.107C96.6106 163.337 96.6614 163.585 96.6599 163.835Z" fill="#728DA3"/>
<path id="Vector_70" d="M52.3587 167.935L52.3326 168.226L52.2004 169.763L52.1089 170.817L51.9186 172.988L51.679 175.748H47.4767L47.237 172.988L46.9553 169.763L46.8216 168.22L46.7969 167.93L52.3587 167.935Z" fill="white"/>
<path id="Vector_71" d="M52.3736 169.761L52.2676 170.891L52.0715 172.986H47.0834L46.7812 169.761H52.3736Z" fill="#F4B545"/>
<path id="Vector_72" d="M52.1476 167.2V167.129C52.1476 166.936 52.0711 166.751 51.9349 166.615C51.7987 166.479 51.6139 166.402 51.4213 166.402H47.7275C47.5349 166.402 47.3501 166.479 47.2139 166.615C47.0777 166.751 47.0012 166.936 47.0012 167.129V167.2H46.4492V168.216H52.6952V167.2H52.1476Z" fill="#1F3A6F"/>
<path id="Vector_73" opacity="0.2" d="M52.3719 169.761L52.2674 170.891L52.1076 170.816C51.5978 170.569 50.7858 170.172 49.9505 169.761C48.4254 169.012 46.8203 168.219 46.8203 168.219H52.3313L52.1991 169.755L52.3719 169.761Z" fill="#A8A8A8"/>
<path id="Vector_74" d="M126.839 38.0541C129.096 35.7973 129.096 32.1382 126.839 29.8814C124.582 27.6246 120.922 27.6246 118.665 29.8814C116.408 32.1382 116.408 35.7973 118.665 38.0541C120.922 40.311 124.582 40.311 126.839 38.0541Z" fill="#52D1BD"/>
<path id="Vector_75" d="M206.449 147.261C207.082 144.58 205.421 141.894 202.74 141.261C200.059 140.628 197.372 142.288 196.74 144.969C196.107 147.65 197.767 150.336 200.448 150.969C203.13 151.602 205.816 149.941 206.449 147.261Z" fill="#52D1BD"/>
<path id="Vector_76" d="M223.593 169.946C224.943 169.946 226.038 168.852 226.038 167.502C226.038 166.152 224.943 165.058 223.593 165.058C222.243 165.058 221.148 166.152 221.148 167.502C221.148 168.852 222.243 169.946 223.593 169.946Z" fill="#B7CAE5"/>
<path id="Vector_77" d="M154.449 7.11663C156.415 7.11663 158.008 5.52352 158.008 3.55832C158.008 1.59311 156.415 0 154.449 0C152.484 0 150.891 1.59311 150.891 3.55832C150.891 5.52352 152.484 7.11663 154.449 7.11663Z" fill="#B7CAE5"/>
<path id="Vector_78" d="M247.388 80.8406C249.539 78.6899 249.539 75.2028 247.388 73.052C245.236 70.9012 241.749 70.9012 239.598 73.052C237.447 75.2028 237.447 78.6898 239.598 80.8406C241.749 82.9914 245.237 82.9914 247.388 80.8406Z" fill="#52D1BD"/>
<path id="Vector_79" d="M57.8384 15.2534C58.3259 12.2511 56.2868 9.42204 53.2841 8.93469C50.2813 8.44734 47.452 10.4862 46.9646 13.4886C46.4772 16.4909 48.5163 19.3199 51.519 19.8072C54.5217 20.2946 57.351 18.2558 57.8384 15.2534Z" fill="#B7CAE5"/>
<path id="Vector_80" d="M6.64779 100.4C8.16861 98.8792 8.16862 96.4138 6.6478 94.8931C5.12698 93.3725 2.66123 93.3725 1.14041 94.8931C-0.380407 96.4138 -0.380407 98.8792 1.14041 100.4C2.66123 101.92 5.12697 101.92 6.64779 100.4Z" fill="#B7CAE5"/>
<path id="Vector_81" d="M74.0092 129.17H72.7266C72.7266 129.065 72.8864 118.627 82.6969 118.627C92.4784 118.627 92.5917 129.068 92.5917 129.174H91.3164C91.3164 128.796 91.1973 119.909 82.7042 119.909C79.1236 119.909 76.5773 121.452 75.1378 124.495C74.4613 125.965 74.078 127.553 74.0092 129.17Z" fill="#F1DD61"/>
<path id="Vector_82" d="M74.0085 129.17C74.0742 127.551 74.4551 125.961 75.1298 124.489C76.5693 121.439 79.1156 119.904 82.6962 119.904C91.1893 119.904 91.307 128.791 91.3084 129.168H91.9823C91.9199 127.832 91.1936 119.438 82.6933 119.438C74.1639 119.438 73.3969 127.838 73.3359 129.168L74.0085 129.17Z" fill="#F9C358"/>
<path id="Vector_83" d="M91.1459 134.206L87.6306 137.214C87.3474 137.457 87.7062 137.914 87.9924 137.67L91.5075 134.662C91.798 134.42 91.432 133.962 91.1459 134.206Z" fill="#FEEF73"/>
<path id="Vector_84" d="M88.9746 136.538C89.0783 136.668 89.126 136.834 89.1072 137C89.0884 137.165 89.0047 137.317 88.8744 137.421L87.8939 138.199C87.7637 138.303 87.5976 138.35 87.4323 138.332C87.2669 138.313 87.1158 138.229 87.0122 138.099C86.9607 138.034 86.9224 137.96 86.8996 137.881C86.8767 137.802 86.8697 137.719 86.879 137.637C86.8883 137.555 86.9138 137.475 86.9538 137.403C86.9939 137.331 87.0477 137.267 87.1124 137.216L88.0915 136.437C88.2219 136.334 88.3882 136.286 88.5538 136.305C88.7193 136.324 88.8707 136.407 88.9746 136.538Z" fill="#FEEF73"/>
<path id="Vector_85" opacity="0.4" d="M88.9739 136.537C88.9038 136.45 88.8114 136.383 88.7063 136.343C88.6013 136.303 88.4874 136.293 88.3769 136.312C88.412 136.34 88.4441 136.372 88.4728 136.407C88.5242 136.471 88.5624 136.545 88.5852 136.625C88.6079 136.704 88.6148 136.787 88.6053 136.869C88.5959 136.951 88.5703 137.031 88.5301 137.103C88.49 137.175 88.4359 137.239 88.3711 137.29L87.3921 138.068C87.3076 138.134 87.2075 138.177 87.1016 138.193C87.2131 138.283 87.352 138.332 87.4952 138.332C87.6384 138.332 87.7773 138.283 87.8888 138.193L88.8693 137.415C88.9986 137.312 89.082 137.162 89.1016 136.998C89.1212 136.833 89.0753 136.668 88.9739 136.537Z" fill="#D0A54B"/>
<path id="Vector_86" d="M73.8496 128.491H73.366V128.74C72.8735 129.261 72.5234 130.554 72.5234 132.07C72.5234 133.586 72.8735 134.877 73.366 135.399V135.647H73.8496C74.5759 135.647 75.1758 134.049 75.1758 132.07C75.1758 130.09 74.5817 128.491 73.8496 128.491Z" fill="#D0A54B"/>
<path id="Vector_87" d="M73.3674 128.491C73.2425 128.495 73.1223 128.54 73.0245 128.618C72.5249 128.88 71.6562 129.682 71.6562 132.07C71.6562 134.218 72.3593 135.054 72.8633 135.378C72.9234 135.456 72.9994 135.521 73.0863 135.567C73.1733 135.614 73.2691 135.641 73.3674 135.647C74.0937 135.647 74.6936 134.049 74.6936 132.07C74.6936 130.09 74.1009 128.491 73.3674 128.491Z" fill="#F1DD61"/>
<path id="Vector_88" opacity="0.2" d="M73.748 128.644C74.0835 129.293 74.3029 130.352 74.3029 131.548C74.3029 133.524 73.7102 135.125 72.9767 135.125C72.8786 135.119 72.783 135.092 72.6963 135.045C72.6096 134.999 72.5339 134.935 72.4741 134.857C72.3697 134.789 72.2724 134.71 72.1836 134.623C72.3463 134.924 72.5795 135.182 72.8634 135.374C72.9234 135.452 72.9994 135.516 73.0863 135.563C73.1733 135.609 73.2691 135.636 73.3674 135.643C74.0937 135.643 74.6936 134.045 74.6936 132.065C74.6921 130.45 74.2942 129.085 73.748 128.644Z" fill="#814C4A"/>
<path id="Vector_89" opacity="0.2" d="M72.9053 129.453C72.9053 129.453 72.8907 129.518 72.8646 129.632C72.8384 129.745 72.8079 129.9 72.7745 130.085C72.76 130.178 72.7397 130.274 72.7237 130.375C72.7077 130.477 72.6903 130.587 72.6743 130.701C72.6583 130.814 72.6467 130.93 72.6278 131.046L72.5886 131.405C72.577 131.526 72.5668 131.646 72.5552 131.765C72.5436 131.884 72.5363 132.003 72.5276 132.12C72.5189 132.236 72.5145 132.348 72.5043 132.455C72.4942 132.563 72.4913 132.667 72.4855 132.763C72.4651 132.956 72.4608 133.119 72.4463 133.237C72.4317 133.354 72.423 133.424 72.423 133.424C72.423 133.424 72.394 133.366 72.3519 133.26C72.2919 133.112 72.2433 132.96 72.2066 132.805C72.1834 132.708 72.1586 132.602 72.1412 132.487C72.1238 132.372 72.1107 132.25 72.0977 132.124C72.0846 131.998 72.0875 131.863 72.086 131.729C72.0846 131.595 72.1005 131.456 72.1078 131.319C72.1151 131.183 72.1427 131.048 72.1688 130.916C72.1939 130.788 72.2259 130.661 72.2647 130.537C72.2984 130.422 72.3387 130.31 72.3853 130.2C72.426 130.104 72.472 130.01 72.5232 129.919C72.5965 129.789 72.6843 129.668 72.7847 129.558C72.8212 129.519 72.8616 129.484 72.9053 129.453Z" fill="white"/>
<path id="Vector_90" d="M91.2735 128.491H91.7499V128.74C92.2437 129.261 92.5938 130.554 92.5938 132.07C92.5938 133.586 92.2437 134.877 91.7499 135.399V135.647H91.2676C90.5341 135.647 89.9414 134.049 89.9414 132.07C89.9414 130.09 90.5399 128.491 91.2735 128.491Z" fill="#D0A54B"/>
<path id="Vector_91" d="M91.7519 128.491C91.8772 128.496 91.9979 128.54 92.0962 128.618C92.5944 128.88 93.463 129.682 93.463 132.07C93.463 134.218 92.7615 135.054 92.256 135.378C92.1956 135.456 92.1194 135.519 92.0325 135.565C91.9456 135.61 91.8499 135.637 91.7519 135.643C91.0257 135.643 90.4258 134.045 90.4258 132.066C90.4258 130.086 91.0257 128.491 91.7519 128.491Z" fill="#F1DD61"/>
<path id="Vector_92" opacity="0.2" d="M91.3772 128.645C91.0402 129.294 90.8208 130.353 90.8208 131.549C90.8208 133.525 91.415 135.126 92.1471 135.126C92.2454 135.12 92.3412 135.093 92.4281 135.047C92.515 135 92.591 134.936 92.6511 134.858C92.7552 134.789 92.8525 134.711 92.9416 134.624C92.7794 134.926 92.546 135.183 92.2618 135.375C92.2011 135.454 92.1242 135.518 92.0362 135.565C91.9482 135.611 91.8513 135.638 91.7519 135.644C91.0257 135.644 90.4258 134.046 90.4258 132.066C90.4316 130.451 90.8296 129.086 91.3772 128.645Z" fill="#814C4A"/>
<path id="Vector_93" opacity="0.2" d="M92.2227 129.453C92.2227 129.453 92.2372 129.518 92.2633 129.632C92.2894 129.745 92.32 129.9 92.3534 130.085C92.3679 130.178 92.3897 130.274 92.4042 130.375C92.4188 130.477 92.4391 130.587 92.4536 130.701C92.4681 130.814 92.4827 130.93 92.5015 131.046L92.5408 131.405C92.5509 131.526 92.5626 131.646 92.5727 131.765C92.5829 131.884 92.5916 132.003 92.6003 132.12C92.6091 132.236 92.6149 132.348 92.6236 132.455C92.6323 132.563 92.6367 132.667 92.6425 132.763C92.6628 132.956 92.6672 133.119 92.6817 133.237C92.6962 133.354 92.7064 133.424 92.7064 133.424C92.7064 133.424 92.7354 133.366 92.7761 133.26C92.8368 133.112 92.8854 132.96 92.9213 132.805C92.9431 132.708 92.9679 132.602 92.9867 132.487C93.0056 132.372 93.0172 132.25 93.0288 132.124C93.0404 131.998 93.0404 131.863 93.0404 131.729C93.0404 131.595 93.0274 131.456 93.0187 131.319C93.0099 131.183 92.9838 131.048 92.9591 130.916C92.9344 130.783 92.9039 130.656 92.8633 130.537C92.8297 130.422 92.7889 130.309 92.7412 130.2C92.7009 130.104 92.6553 130.01 92.6047 129.919C92.5313 129.789 92.4437 129.668 92.3432 129.558C92.307 129.519 92.2666 129.483 92.2227 129.453Z" fill="white"/>
</g>
</g>
</g>
<defs>
<clipPath id="clip0_336_470">
<rect width="249" height="197" fill="white"/>
</clipPath>
</defs>
</svg>
