<svg width="20" height="18" viewBox="0 0 20 18" fill="none" xmlns="http://www.w3.org/2000/svg">
<path d="M19.9131 5.88042C19.9982 5.69844 20.0215 5.49786 19.9799 5.304C19.9384 5.11015 19.834 4.93169 19.6798 4.79117L15.2349 0.793891C15.0256 0.605715 14.7418 0.5 14.4459 0.5C14.15 0.5 13.8662 0.605715 13.6569 0.793891C13.4477 0.982066 13.3301 1.23729 13.3301 1.50341C13.3301 1.76953 13.4477 2.02475 13.6569 2.21292L16.5 4.50136H1.11122C0.816509 4.50136 0.533863 4.60665 0.325468 4.79406C0.117073 4.98146 1.4481e-08 5.23565 0 5.50068C-1.4482e-08 5.76572 0.117073 6.0199 0.325468 6.20731C0.533863 6.39471 0.816509 6.5 1.11122 6.5H18.8908C19.1102 6.49902 19.3243 6.43965 19.5063 6.3294C19.6882 6.21914 19.8298 6.06292 19.9131 5.88042Z" fill="white"/>
<path d="M6.34465 15.7871L3.5 13.4986H18.8889C19.1836 13.4986 19.4662 13.3934 19.6746 13.2059C19.8829 13.0185 20 12.7644 20 12.4993C20 12.2343 19.8829 11.9801 19.6746 11.7927C19.4662 11.6053 19.1836 11.5 18.8889 11.5H1.1114C0.892045 11.501 0.677918 11.5603 0.496011 11.6706C0.314103 11.7809 0.172551 11.9371 0.089196 12.1196C0.0269955 12.2382 -0.00344583 12.3682 0.000309737 12.4993C-0.000535225 12.6308 0.0274894 12.7612 0.0827835 12.883C0.138078 13.0047 0.21955 13.1155 0.322528 13.2088L4.7669 17.2061C4.8705 17.2993 4.99349 17.3732 5.12884 17.4236C5.2642 17.474 5.40927 17.5 5.55578 17.5C5.70229 17.5 5.84736 17.474 5.98272 17.4236C6.11807 17.3732 6.24106 17.2993 6.34465 17.2061C6.44825 17.1129 6.53043 17.0023 6.5865 16.8806C6.64256 16.7588 6.67142 16.6284 6.67142 16.4966C6.67142 16.3648 6.64256 16.2343 6.5865 16.1126C6.53043 15.9909 6.44825 15.8803 6.34465 15.7871Z" fill="white"/>
</svg>
